<svg width="17" height="18" viewBox="0 0 17 18" fill="none" xmlns="http://www.w3.org/2000/svg">
<path opacity="0.5" d="M10.4436 0.697664L1.19368 1.38079C0.447615 1.44548 0.187927 1.93304 0.187927 2.51754L0.187927 12.6579C0.187927 13.1131 0.34949 13.5026 0.739552 14.023L2.91386 16.8504C3.27105 17.3056 3.59586 17.4031 4.27793 17.3708L15.0194 16.7205C15.9277 16.6559 16.1879 16.233 16.1879 15.518V4.1101C16.1879 3.74066 16.0419 3.63423 15.6123 3.31885L15.5382 3.26535L12.5861 1.18523C11.8717 0.665914 11.5798 0.600164 10.4436 0.697664ZM4.52086 3.92341C3.6438 3.98248 3.44486 3.99585 2.94674 3.59073L1.68018 2.58329C1.55143 2.45291 1.61605 2.29016 1.94036 2.25785L10.8325 1.60816C11.5792 1.54298 11.9681 1.80316 12.2601 2.03054L13.7852 3.13554C13.8504 3.16835 14.0126 3.36285 13.8175 3.36285L4.63455 3.9156L4.52086 3.92341ZM3.49836 15.4205L3.49836 5.73604C3.49836 5.3131 3.62818 5.1181 4.01711 5.08523L14.5642 4.46779C14.9219 4.43548 15.0836 4.66279 15.0836 5.08523L15.0836 14.705C15.0836 15.128 15.0183 15.4857 14.4344 15.518L4.34143 16.1031C3.75749 16.1354 3.49836 15.941 3.49836 15.4205ZM13.4615 6.25529C13.5261 6.54785 13.4615 6.84041 13.1689 6.87385L12.6825 6.97023L12.6825 14.1205C12.2601 14.3478 11.8712 14.4777 11.5462 14.4777C11.027 14.4777 10.8971 14.3149 10.5082 13.8279L7.32705 8.82298L7.32705 13.6652L8.3333 13.8931C8.3333 13.8931 8.3333 14.4782 7.52149 14.4782L5.28311 14.608C5.21793 14.4777 5.28311 14.1528 5.50999 14.0882L6.09443 13.926L6.09443 7.5236L5.28318 7.45785C5.21793 7.16535 5.38005 6.74291 5.8348 6.71004L8.23643 6.54848L11.5463 11.618L11.5463 7.13304L10.7027 7.03604C10.6375 6.67773 10.8971 6.41754 11.2214 6.38579L13.4614 6.25535L13.4615 6.25529Z" fill="url(#paint0_linear_5177_128128)"/>
<defs>
<linearGradient id="paint0_linear_5177_128128" x1="8.18793" y1="0.659668" x2="8.18793" y2="17.3764" gradientUnits="userSpaceOnUse">
<stop stop-color="#F8F8F8" stop-opacity="0.9"/>
<stop offset="1" stop-color="#F8F8F8" stop-opacity="0.3"/>
</linearGradient>
</defs>
</svg>
