<svg width="28" height="28" viewBox="0 0 28 28" fill="none" xmlns="http://www.w3.org/2000/svg">
<g clip-path="url(#clip0_5181_154852)">
<g opacity="0.5" filter="url(#filter0_dd_5181_154852)">
<path d="M13.3503 18.75L12.227 21.3026C11.7953 22.2839 10.4268 22.2839 9.99513 21.3026L8.87185 18.75C7.87216 16.4782 6.07294 14.6699 3.82878 13.6815L0.736971 12.3198C-0.245982 11.8868 -0.245982 10.4679 0.736971 10.035L3.73221 8.71571C6.03422 7.70195 7.86571 5.8266 8.84822 3.47732L9.98605 0.756977C10.4082 -0.252651 11.8139 -0.252651 12.2362 0.756977L13.374 3.47732C14.3566 5.8265 16.188 7.70184 18.4901 8.71571L21.4852 10.035C22.4681 10.468 22.4681 11.8868 21.4852 12.3198L18.3935 13.6815C16.1491 14.6699 14.3499 16.4782 13.3503 18.75Z" fill="url(#paint0_linear_5181_154852)" shape-rendering="crispEdges"/>
</g>
<g opacity="0.5" filter="url(#filter1_dd_5181_154852)">
<path d="M23.7891 26.7993L23.4732 27.5178C23.242 28.0436 22.5081 28.0436 22.277 27.5178L21.961 26.7993C21.3979 25.5184 20.3838 24.4985 19.1181 23.9407L18.1449 23.5116C17.6187 23.2797 17.6187 22.5206 18.1449 22.2886L19.0636 21.8835C20.3619 21.3112 21.3942 20.2537 21.9476 18.9294L22.2721 18.1529C22.4981 17.6119 23.2521 17.6119 23.4781 18.1529L23.8025 18.9292C24.356 20.2537 25.3884 21.3112 26.6865 21.8835L27.6053 22.2886C28.1316 22.5206 28.1316 23.2797 27.6053 23.5117L26.6321 23.9407C25.3665 24.4985 24.3523 25.5184 23.7892 26.7993H23.7891Z" fill="url(#paint1_linear_5181_154852)" shape-rendering="crispEdges"/>
</g>
</g>
<defs>
<filter id="filter0_dd_5181_154852" x="-9.00024" y="-1.00024" width="34.2227" height="34.0388" filterUnits="userSpaceOnUse" color-interpolation-filters="sRGB">
<feFlood flood-opacity="0" result="BackgroundImageFix"/>
<feColorMatrix in="SourceAlpha" type="matrix" values="0 0 0 0 0 0 0 0 0 0 0 0 0 0 0 0 0 0 127 0" result="hardAlpha"/>
<feOffset dx="-3" dy="5"/>
<feGaussianBlur stdDeviation="3"/>
<feColorMatrix type="matrix" values="0 0 0 0 0 0 0 0 0 0 0 0 0 0 0 0 0 0 0.2 0"/>
<feBlend mode="normal" in2="BackgroundImageFix" result="effect1_dropShadow_5181_154852"/>
<feColorMatrix in="SourceAlpha" type="matrix" values="0 0 0 0 0 0 0 0 0 0 0 0 0 0 0 0 0 0 127 0" result="hardAlpha"/>
<feOffset dx="-1" dy="2"/>
<feGaussianBlur stdDeviation="1.5"/>
<feComposite in2="hardAlpha" operator="out"/>
<feColorMatrix type="matrix" values="0 0 0 0 0 0 0 0 0 0 0 0 0 0 0 0 0 0 0.1 0"/>
<feBlend mode="normal" in2="effect1_dropShadow_5181_154852" result="effect2_dropShadow_5181_154852"/>
<feBlend mode="normal" in="SourceGraphic" in2="effect2_dropShadow_5181_154852" result="shape"/>
</filter>
<filter id="filter1_dd_5181_154852" x="8.75024" y="16.7472" width="22.2498" height="22.1649" filterUnits="userSpaceOnUse" color-interpolation-filters="sRGB">
<feFlood flood-opacity="0" result="BackgroundImageFix"/>
<feColorMatrix in="SourceAlpha" type="matrix" values="0 0 0 0 0 0 0 0 0 0 0 0 0 0 0 0 0 0 127 0" result="hardAlpha"/>
<feOffset dx="-3" dy="5"/>
<feGaussianBlur stdDeviation="3"/>
<feColorMatrix type="matrix" values="0 0 0 0 0 0 0 0 0 0 0 0 0 0 0 0 0 0 0.2 0"/>
<feBlend mode="normal" in2="BackgroundImageFix" result="effect1_dropShadow_5181_154852"/>
<feColorMatrix in="SourceAlpha" type="matrix" values="0 0 0 0 0 0 0 0 0 0 0 0 0 0 0 0 0 0 127 0" result="hardAlpha"/>
<feOffset dx="-1" dy="2"/>
<feGaussianBlur stdDeviation="1.5"/>
<feComposite in2="hardAlpha" operator="out"/>
<feColorMatrix type="matrix" values="0 0 0 0 0 0 0 0 0 0 0 0 0 0 0 0 0 0 0.1 0"/>
<feBlend mode="normal" in2="effect1_dropShadow_5181_154852" result="effect2_dropShadow_5181_154852"/>
<feBlend mode="normal" in="SourceGraphic" in2="effect2_dropShadow_5181_154852" result="shape"/>
</filter>
<linearGradient id="paint0_linear_5181_154852" x1="11.1111" y1="-0.000244141" x2="11.1111" y2="22.0385" gradientUnits="userSpaceOnUse">
<stop stop-color="#F8F8F8" stop-opacity="0.9"/>
<stop offset="1" stop-color="#F8F8F8" stop-opacity="0.3"/>
</linearGradient>
<linearGradient id="paint1_linear_5181_154852" x1="22.8751" y1="17.7472" x2="22.8751" y2="27.9121" gradientUnits="userSpaceOnUse">
<stop stop-color="#F8F8F8" stop-opacity="0.9"/>
<stop offset="1" stop-color="#F8F8F8" stop-opacity="0.3"/>
</linearGradient>
<clipPath id="clip0_5181_154852">
<rect width="28" height="28" fill="white"/>
</clipPath>
</defs>
</svg>
