<svg width="20" height="20" viewBox="0 0 20 20" fill="none" xmlns="http://www.w3.org/2000/svg">
<g clip-path="url(#clip0_5177_128131)">
<g opacity="0.9" filter="url(#filter0_dd_5177_128131)">
<path d="M18.6863 8.16932C18.913 7.49711 18.9914 6.78502 18.9163 6.0806C18.8411 5.37617 18.6142 4.69564 18.2506 4.08447C17.1447 2.18901 14.9219 1.21401 12.751 1.67216C12.15 1.01385 11.3835 0.522841 10.5287 0.24846C9.67395 -0.025921 8.76089 -0.0740183 7.88124 0.108998C7.0016 0.292015 6.18635 0.699703 5.51737 1.29112C4.84838 1.88253 4.34922 2.63685 4.07002 3.47832C3.36515 3.62063 2.69925 3.90944 2.11683 4.32544C1.5344 4.74145 1.04887 5.27506 0.692672 5.89062C-0.425297 7.78309 -0.171469 10.1702 1.32025 11.7937C1.09271 12.4656 1.0135 13.1776 1.08794 13.882C1.16238 14.5864 1.38875 15.2671 1.75189 15.8785C2.85923 17.7746 5.08345 18.7495 7.25549 18.2908C7.73304 18.8203 8.31981 19.2433 8.97663 19.5318C9.63346 19.8202 10.3452 19.9673 11.0644 19.9634C13.2895 19.9653 15.2608 18.551 15.9405 16.4649C16.6452 16.3223 17.311 16.0334 17.8934 15.6174C18.4758 15.2014 18.9614 14.6679 19.3178 14.0525C20.4222 12.1635 20.1674 9.78932 18.6863 8.16932ZM11.0644 18.6569C10.1762 18.6582 9.31593 18.3517 8.63431 17.7911L8.75424 17.7242L12.791 15.4299C12.8914 15.3719 12.9748 15.2892 13.033 15.1898C13.0912 15.0905 13.1221 14.9779 13.1228 14.8632V9.25939L14.8294 10.2314C14.8464 10.2399 14.8583 10.256 14.8613 10.2747V14.9183C14.857 16.9812 13.1595 18.6525 11.0644 18.6569ZM2.90298 15.2253C2.45757 14.468 2.29765 13.5804 2.45134 12.7185L2.57119 12.7893L6.61197 15.0836C6.71195 15.1414 6.82577 15.1718 6.9417 15.1718C7.05762 15.1718 7.17144 15.1414 7.27142 15.0836L12.2074 12.2817V14.2218C12.207 14.2318 12.2042 14.2416 12.1994 14.2505C12.1945 14.2594 12.1877 14.267 12.1795 14.2729L8.0908 16.5948C6.27384 17.6254 3.95252 17.0125 2.90298 15.2253ZM1.83978 6.56755C2.28829 5.80541 2.99621 5.2241 3.83822 4.92655L3.83822 9.64885C3.8367 9.76295 3.86631 9.87536 3.92395 9.97435C3.9816 10.0733 4.06518 10.1553 4.16595 10.2116L9.07799 13.0018L7.37134 13.9738C7.36212 13.9786 7.35183 13.9811 7.34138 13.9811C7.33094 13.9811 7.32065 13.9786 7.31142 13.9738L3.23072 11.656C1.41736 10.6211 0.795485 8.33724 1.83978 6.54793V6.56755ZM15.8606 9.77485L10.9324 6.95716L12.6352 5.98909C12.6444 5.98426 12.6547 5.98173 12.6652 5.98173C12.6756 5.98173 12.6859 5.98426 12.6952 5.98909L16.7759 8.31093C17.3998 8.66541 17.9085 9.18733 18.2424 9.81577C18.5764 10.4442 18.7219 11.1532 18.662 11.86C18.6021 12.5668 18.3392 13.2423 17.904 13.8075C17.4688 14.3727 16.8793 14.8044 16.2043 15.0521V10.3297C16.2008 10.2158 16.1672 10.1048 16.107 10.0075C16.0467 9.91024 15.9618 9.83007 15.8606 9.77485ZM17.5592 7.26024L17.4392 7.18932L13.4065 4.87539C13.3059 4.81728 13.1914 4.78664 13.0748 4.78664C12.9582 4.78664 12.8436 4.81728 12.7431 4.87539L7.81095 7.67739V5.73732C7.8099 5.72745 7.81158 5.71749 7.8158 5.70849C7.82002 5.69949 7.82663 5.69177 7.83494 5.68616L11.9156 3.36824C12.5411 3.01349 13.2561 2.84141 13.9772 2.87212C14.6983 2.90284 15.3956 3.13507 15.9876 3.54167C16.5796 3.94827 17.0417 4.51242 17.32 5.16814C17.5983 5.82387 17.6812 6.54405 17.5591 7.24447V7.26024H17.5592ZM6.87978 10.6996L5.17314 9.73155C5.16461 9.72647 5.15732 9.71961 5.15178 9.71144C5.14625 9.70328 5.14261 9.69402 5.14111 9.68432V5.05255C5.14206 4.342 5.34842 3.6464 5.73608 3.04707C6.12374 2.44775 6.67667 1.96947 7.33022 1.66816C7.98377 1.36684 8.71093 1.25494 9.42669 1.34554C10.1425 1.43614 10.8172 1.7255 11.3721 2.17978L11.2522 2.2467L7.21549 4.54093C7.11503 4.59895 7.03163 4.68171 6.97347 4.78106C6.91531 4.88041 6.8844 4.99295 6.88377 5.10762L6.87978 10.6997V10.6996ZM7.80697 8.73193L10.0053 7.48447L12.2074 8.73201V11.2269L10.0132 12.4745L7.81103 11.2269L7.80697 8.73193Z" fill="url(#paint0_linear_5177_128131)" shape-rendering="crispEdges"/>
</g>
</g>
<defs>
<filter id="filter0_dd_5177_128131" x="-9.47368" y="-1.05263" width="32.6316" height="32.595" filterUnits="userSpaceOnUse" color-interpolation-filters="sRGB">
<feFlood flood-opacity="0" result="BackgroundImageFix"/>
<feColorMatrix in="SourceAlpha" type="matrix" values="0 0 0 0 0 0 0 0 0 0 0 0 0 0 0 0 0 0 127 0" result="hardAlpha"/>
<feOffset dx="-3.15789" dy="5.26316"/>
<feGaussianBlur stdDeviation="3.15789"/>
<feColorMatrix type="matrix" values="0 0 0 0 0 0 0 0 0 0 0 0 0 0 0 0 0 0 0.2 0"/>
<feBlend mode="normal" in2="BackgroundImageFix" result="effect1_dropShadow_5177_128131"/>
<feColorMatrix in="SourceAlpha" type="matrix" values="0 0 0 0 0 0 0 0 0 0 0 0 0 0 0 0 0 0 127 0" result="hardAlpha"/>
<feOffset dx="-1.05263" dy="2.10526"/>
<feGaussianBlur stdDeviation="1.57895"/>
<feComposite in2="hardAlpha" operator="out"/>
<feColorMatrix type="matrix" values="0 0 0 0 0 0 0 0 0 0 0 0 0 0 0 0 0 0 0.1 0"/>
<feBlend mode="normal" in2="effect1_dropShadow_5177_128131" result="effect2_dropShadow_5177_128131"/>
<feBlend mode="normal" in="SourceGraphic" in2="effect2_dropShadow_5177_128131" result="shape"/>
</filter>
<linearGradient id="paint0_linear_5177_128131" x1="10" y1="0" x2="10" y2="19.9635" gradientUnits="userSpaceOnUse">
<stop stop-color="#F8F8F8" stop-opacity="0.9"/>
<stop offset="1" stop-color="#F8F8F8" stop-opacity="0.3"/>
</linearGradient>
<clipPath id="clip0_5177_128131">
<rect width="20" height="20" fill="white"/>
</clipPath>
</defs>
</svg>
