<svg width="16" height="16" viewBox="0 0 16 16" fill="none" xmlns="http://www.w3.org/2000/svg">
<path d="M8 0C6.41775 0 4.87104 0.469192 3.55544 1.34824C2.23985 2.22729 1.21447 3.47672 0.608967 4.93853C0.00346629 6.40034 -0.15496 8.00887 0.153721 9.56072C0.462403 11.1126 1.22433 12.538 2.34315 13.6569C3.46197 14.7757 4.88743 15.5376 6.43928 15.8463C7.99113 16.155 9.59966 15.9965 11.0615 15.391C12.5233 14.7855 13.7727 13.7602 14.6518 12.4446C15.5308 11.129 16 9.58225 16 8C16 5.87827 15.1571 3.84344 13.6569 2.34315C12.1566 0.842855 10.1217 0 8 0ZM11.888 11.0367C11.4678 11.6998 10.8963 12.2537 10.2204 12.653C9.54454 13.0522 8.78355 13.2854 8 13.3333C7.63181 13.3333 7.33334 13.0349 7.33334 12.6667C7.33334 12.2985 7.63181 12 8 12C8.56438 11.9525 9.10984 11.7738 9.59286 11.478C10.0759 11.1823 10.4831 10.7777 10.782 10.2967C10.9859 9.99097 11.3998 9.90731 11.7055 10.1112C12.0121 10.3158 12.0938 10.7309 11.888 11.0367ZM12.236 8.76433C12.236 8.76454 12.2359 8.76473 12.2357 8.76483C11.986 8.90896 11.7104 9.0025 11.4246 9.04013C11.1386 9.07777 10.8481 9.05872 10.5695 8.98406C10.2909 8.9094 10.0297 8.78059 9.80094 8.605C9.57215 8.42941 9.38018 8.21046 9.236 7.96067L8.626 6.90393C8.52315 6.72575 8.45752 6.51123 8.29042 6.3912C8.20598 6.33055 8.10464 6.29792 8.00067 6.29792C7.8967 6.29792 7.79536 6.33055 7.71092 6.3912C7.54382 6.51123 7.47819 6.72575 7.37534 6.90393L6.76534 7.96067C6.57137 8.29637 6.29198 8.57473 5.95556 8.76747C5.61915 8.9602 5.23771 9.06043 4.85 9.05797C4.4623 9.05552 4.08216 8.95046 3.74821 8.75348C3.41427 8.55649 3.13843 8.27461 2.94873 7.93648C2.75903 7.59834 2.66223 7.21601 2.66818 6.82835C2.67412 6.44068 2.7826 6.0615 2.98257 5.72934C3.18255 5.39718 3.4669 5.12389 3.80673 4.93724C4.14656 4.75059 4.52974 4.65724 4.91734 4.66667L8 4.68067L11.084 4.66667C11.572 4.65458 12.05 4.80541 12.4427 5.09533C12.8354 5.38525 13.1203 5.79773 13.2524 6.26762C13.3845 6.7375 13.3563 7.23802 13.1723 7.69009C12.9882 8.14206 12.6589 8.51986 12.2363 8.76383C12.2361 8.76394 12.236 8.76413 12.236 8.76433Z" fill="url(#paint0_linear_3083_9152)"/>
<defs>
<linearGradient id="paint0_linear_3083_9152" x1="8" y1="0" x2="8" y2="16" gradientUnits="userSpaceOnUse">
<stop stop-color="#F8F8F8" stop-opacity="0.9"/>
<stop offset="1" stop-color="#F8F8F8" stop-opacity="0.3"/>
</linearGradient>
</defs>
</svg>
