<svg width="16" height="16" viewBox="0 0 16 16" fill="none" xmlns="http://www.w3.org/2000/svg">
<path d="M8.02032 16C7.76798 16 7.5547 15.8173 7.49359 15.5725C7.29882 14.7922 6.92595 13.9625 6.375 13.0834C5.72222 12.0278 4.79166 11.0486 3.58334 10.1458C2.53239 9.35152 1.48145 8.80984 0.43051 8.52088C0.181604 8.45248 0 8.23176 0 7.97362C0 7.72053 0.174618 7.50236 0.417978 7.43287C1.44836 7.13868 2.44098 6.66105 3.39583 6C4.49306 5.23611 5.40972 4.31944 6.14583 3.25C6.79703 2.29732 7.24406 1.3551 7.4869 0.423366C7.55052 0.179276 7.76541 0 8.01768 0C8.27272 0 8.48912 0.183246 8.5512 0.430664C8.69136 0.989232 8.9104 1.56096 9.20832 2.14583C9.58336 2.86806 10.0625 3.5625 10.6458 4.22917C11.243 4.88194 11.9098 5.47222 12.6458 6C13.6078 6.68185 14.5856 7.16089 15.5795 7.43712C15.8234 7.50487 16 7.72195 16 7.97499C16 8.23184 15.818 8.45072 15.5703 8.51864C14.9403 8.69136 14.2918 8.96992 13.625 9.35416C12.8194 9.8264 12.0694 10.3889 11.375 11.0417C10.6806 11.6806 10.1111 12.3542 9.66664 13.0625C9.11464 13.9434 8.74136 14.7796 8.54696 15.5711C8.48664 15.8166 8.27304 16 8.02032 16Z" fill="#F8F8F8"/>
</svg>
