<svg width="30" height="30" viewBox="0 0 30 30" fill="none" xmlns="http://www.w3.org/2000/svg">
<g opacity="0.4">
<g filter="url(#filter0_i_5145_104426)">
<path d="M1 10.0711V15V19.9289C1 21.255 1.52678 22.5268 2.46447 23.4645L6.53554 27.5355C7.47322 28.4732 8.74499 29 10.0711 29H15H19.9289C21.255 29 22.5268 28.4732 23.4645 27.5355L27.5355 23.4645C28.4732 22.5268 29 21.255 29 19.9289V15V10.0711C29 8.74499 28.4732 7.47322 27.5355 6.53553L23.4645 2.46446C22.5268 1.52678 21.255 1 19.9289 1H15H10.0711C8.74499 1 7.47322 1.52678 6.53553 2.46447L2.46446 6.53554C1.52678 7.47322 1 8.74499 1 10.0711Z" fill="#282828"/>
</g>
<path d="M1 10.0711V15V19.9289C1 21.255 1.52678 22.5268 2.46447 23.4645L6.53554 27.5355C7.47322 28.4732 8.74499 29 10.0711 29H15H19.9289C21.255 29 22.5268 28.4732 23.4645 27.5355L27.5355 23.4645C28.4732 22.5268 29 21.255 29 19.9289V15V10.0711C29 8.74499 28.4732 7.47322 27.5355 6.53553L23.4645 2.46446C22.5268 1.52678 21.255 1 19.9289 1H15H10.0711C8.74499 1 7.47322 1.52678 6.53553 2.46447L2.46446 6.53554C1.52678 7.47322 1 8.74499 1 10.0711Z" stroke="#F8F8F8" stroke-width="1.5"/>
</g>
<g filter="url(#filter1_bi_5145_104426)">
<path d="M4 11.1569V15V18.8431C4 19.904 4.42143 20.9214 5.17157 21.6716L8.32843 24.8284C9.07857 25.5786 10.096 26 11.1569 26H15H18.8431C19.904 26 20.9214 25.5786 21.6716 24.8284L24.8284 21.6716C25.5786 20.9214 26 19.904 26 18.8431V15V11.1569C26 10.096 25.5786 9.07857 24.8284 8.32843L21.6716 5.17157C20.9214 4.42143 19.904 4 18.8431 4H15H11.1569C10.096 4 9.07857 4.42143 8.32843 5.17157L5.17157 8.32843C4.42143 9.07857 4 10.096 4 11.1569Z" fill="#F8F8F8" fill-opacity="0.01"/>
</g>
<path opacity="0.1" fill-rule="evenodd" clip-rule="evenodd" d="M12 13C12.5523 13 13 12.5523 13 12C13 11.4477 12.5523 11 12 11C11.4477 11 11 11.4477 11 12C11 12.5523 11.4477 13 12 13ZM15 13C15.5523 13 16 12.5523 16 12C16 11.4477 15.5523 11 15 11C14.4477 11 14 11.4477 14 12C14 12.5523 14.4477 13 15 13ZM19 12C19 12.5523 18.5523 13 18 13C17.4477 13 17 12.5523 17 12C17 11.4477 17.4477 11 18 11C18.5523 11 19 11.4477 19 12ZM15 16C15.5523 16 16 15.5523 16 15C16 14.4477 15.5523 14 15 14C14.4477 14 14 14.4477 14 15C14 15.5523 14.4477 16 15 16ZM13 15C13 15.5523 12.5523 16 12 16C11.4477 16 11 15.5523 11 15C11 14.4477 11.4477 14 12 14C12.5523 14 13 14.4477 13 15ZM18 16C18.5523 16 19 15.5523 19 15C19 14.4477 18.5523 14 18 14C17.4477 14 17 14.4477 17 15C17 15.5523 17.4477 16 18 16ZM16 18C16 18.5523 15.5523 19 15 19C14.4477 19 14 18.5523 14 18C14 17.4477 14.4477 17 15 17C15.5523 17 16 17.4477 16 18ZM12 19C12.5523 19 13 18.5523 13 18C13 17.4477 12.5523 17 12 17C11.4477 17 11 17.4477 11 18C11 18.5523 11.4477 19 12 19ZM19 18C19 18.5523 18.5523 19 18 19C17.4477 19 17 18.5523 17 18C17 17.4477 17.4477 17 18 17C18.5523 17 19 17.4477 19 18Z" fill="#F8F8F8"/>
<path d="M15 16C15.5523 16 16 15.5523 16 15C16 14.4477 15.5523 14 15 14C14.4477 14 14 14.4477 14 15C14 15.5523 14.4477 16 15 16Z" fill="#F8F8F8" fill-opacity="0.5"/>
<path opacity="0.5" d="M15 13C15.5523 13 16 12.5523 16 12C16 11.4477 15.5523 11 15 11C14.4477 11 14 11.4477 14 12C14 12.5523 14.4477 13 15 13Z" fill="#F8F8F8"/>
<path opacity="0.5" d="M12 16C12.5523 16 13 15.5523 13 15C13 14.4477 12.5523 14 12 14C11.4477 14 11 14.4477 11 15C11 15.5523 11.4477 16 12 16Z" fill="#F8F8F8"/>
<path opacity="0.5" d="M18 16C18.5523 16 19 15.5523 19 15C19 14.4477 18.5523 14 18 14C17.4477 14 17 14.4477 17 15C17 15.5523 17.4477 16 18 16Z" fill="#F8F8F8"/>
<path opacity="0.5" d="M15 19C15.5523 19 16 18.5523 16 18C16 17.4477 15.5523 17 15 17C14.4477 17 14 17.4477 14 18C14 18.5523 14.4477 19 15 19Z" fill="#F8F8F8"/>
<defs>
<filter id="filter0_i_5145_104426" x="0.25" y="0.25" width="29.5" height="29.5" filterUnits="userSpaceOnUse" color-interpolation-filters="sRGB">
<feFlood flood-opacity="0" result="BackgroundImageFix"/>
<feBlend mode="normal" in="SourceGraphic" in2="BackgroundImageFix" result="shape"/>
<feColorMatrix in="SourceAlpha" type="matrix" values="0 0 0 0 0 0 0 0 0 0 0 0 0 0 0 0 0 0 127 0" result="hardAlpha"/>
<feOffset/>
<feGaussianBlur stdDeviation="2"/>
<feComposite in2="hardAlpha" operator="arithmetic" k2="-1" k3="1"/>
<feColorMatrix type="matrix" values="0 0 0 0 0.972549 0 0 0 0 0.972549 0 0 0 0 0.972549 0 0 0 0.25 0"/>
<feBlend mode="normal" in2="shape" result="effect1_innerShadow_5145_104426"/>
</filter>
<filter id="filter1_bi_5145_104426" x="-46" y="-46" width="122" height="122" filterUnits="userSpaceOnUse" color-interpolation-filters="sRGB">
<feFlood flood-opacity="0" result="BackgroundImageFix"/>
<feGaussianBlur in="BackgroundImageFix" stdDeviation="25"/>
<feComposite in2="SourceAlpha" operator="in" result="effect1_backgroundBlur_5145_104426"/>
<feBlend mode="normal" in="SourceGraphic" in2="effect1_backgroundBlur_5145_104426" result="shape"/>
<feColorMatrix in="SourceAlpha" type="matrix" values="0 0 0 0 0 0 0 0 0 0 0 0 0 0 0 0 0 0 127 0" result="hardAlpha"/>
<feOffset/>
<feGaussianBlur stdDeviation="2"/>
<feComposite in2="hardAlpha" operator="arithmetic" k2="-1" k3="1"/>
<feColorMatrix type="matrix" values="0 0 0 0 0.972549 0 0 0 0 0.972549 0 0 0 0 0.972549 0 0 0 0.25 0"/>
<feBlend mode="normal" in2="shape" result="effect2_innerShadow_5145_104426"/>
</filter>
</defs>
</svg>
