<svg width="157" height="50" viewBox="0 0 157 50" fill="none" xmlns="http://www.w3.org/2000/svg">
<mask id="mask0_3094_172449" style="mask-type:alpha" maskUnits="userSpaceOnUse" x="25" y="0" width="132" height="50">
<rect x="157" width="50" height="132" transform="rotate(90 157 0)" fill="url(#paint0_linear_3094_172449)"/>
</mask>
<g mask="url(#mask0_3094_172449)">
<path opacity="0.5" d="M158 21L90.3137 21C88.192 21 86.1571 20.1571 84.6569 18.6568L69.3431 3.34314C67.8428 1.84285 65.808 0.999993 63.6863 0.999993L13 1" stroke="url(#paint1_linear_3094_172449)" stroke-width="1.5"/>
<path opacity="0.25" d="M1 44L49.247 44C51.3327 44 53.336 43.1854 54.8299 41.7298L69.6701 27.2702C71.164 25.8146 73.1673 25 75.253 25L158 25" stroke="url(#paint2_linear_3094_172449)" stroke-width="1.5"/>
<path opacity="0.25" d="M1 48L90.8628 48C92.8795 48 94.8218 47.2383 96.3009 45.8674L112.199 31.1326C113.678 29.7617 115.62 29 117.637 29L158 29" stroke="url(#paint3_linear_3094_172449)" stroke-width="1.5"/>
<path d="M87 48L75 48" stroke="#F8F8F8" stroke-width="1.5"/>
<path opacity="0.5" d="M102 25L95 25" stroke="#F8F8F8" stroke-width="1.5"/>
<path d="M138 21L129 21" stroke="#F8F8F8" stroke-width="1.5"/>
</g>
<defs>
<linearGradient id="paint0_linear_3094_172449" x1="182" y1="0" x2="182" y2="132" gradientUnits="userSpaceOnUse">
<stop offset="0.391024" stop-color="#D9D9D9"/>
<stop offset="1" stop-color="#737373" stop-opacity="0"/>
</linearGradient>
<linearGradient id="paint1_linear_3094_172449" x1="13" y1="21" x2="29.4571" y2="-40.6377" gradientUnits="userSpaceOnUse">
<stop stop-color="#F8F8F8" stop-opacity="0.8"/>
<stop offset="0.45221" stop-color="#F8F8F8" stop-opacity="0.2"/>
<stop offset="1" stop-color="#F8F8F8" stop-opacity="0.8"/>
</linearGradient>
<linearGradient id="paint2_linear_3094_172449" x1="67.5" y1="44" x2="89.3797" y2="-9.83828" gradientUnits="userSpaceOnUse">
<stop stop-color="#F8F8F8" stop-opacity="0.8"/>
<stop offset="0.54779" stop-color="#F8F8F8" stop-opacity="0.2"/>
<stop offset="1" stop-color="#F8F8F8" stop-opacity="0.8"/>
</linearGradient>
<linearGradient id="paint3_linear_3094_172449" x1="67.5" y1="48" x2="89.3797" y2="-5.83828" gradientUnits="userSpaceOnUse">
<stop stop-color="#F8F8F8" stop-opacity="0.8"/>
<stop offset="0.54779" stop-color="#F8F8F8" stop-opacity="0.2"/>
<stop offset="1" stop-color="#F8F8F8" stop-opacity="0.8"/>
</linearGradient>
</defs>
</svg>
