<svg width="24" height="24" viewBox="0 0 24 24" fill="none" xmlns="http://www.w3.org/2000/svg">
<path opacity="0.1" d="M24 12C24 18.6274 18.6274 24 12 24C5.37258 24 0 18.6274 0 12C0 5.37258 5.37258 0 12 0C18.6274 0 24 5.37258 24 12ZM4.12581 12C4.12581 16.3488 7.65121 19.8742 12 19.8742C16.3488 19.8742 19.8742 16.3488 19.8742 12C19.8742 7.65121 16.3488 4.12581 12 4.12581C7.65121 4.12581 4.12581 7.65121 4.12581 12Z" fill="url(#paint0_linear_5158_132645)"/>
<path d="M12 2.06291C12 0.923595 12.9303 -0.0180235 14.0528 0.176881C15.6355 0.451695 17.1542 1.0428 18.515 1.92254C20.4561 3.17748 21.9935 4.96635 22.9424 7.07412C23.8912 9.18189 24.2111 11.5189 23.8636 13.8041C23.5161 16.0893 22.516 18.2255 20.9835 19.956C19.451 21.6864 17.4513 22.9374 15.2248 23.5586C12.9984 24.1797 10.6399 24.1447 8.43286 23.4576C6.22586 22.7704 4.26427 21.4605 2.7839 19.6853C1.74613 18.4408 0.975801 17.0048 0.511692 15.4668C0.182536 14.3761 1.00481 13.3388 2.13576 13.2011V13.2011C3.26672 13.0634 4.27084 13.8871 4.69677 14.9438C5.00191 15.7008 5.42446 16.4097 5.95256 17.0429C6.92395 18.2078 8.21111 19.0674 9.65931 19.5182C11.1075 19.9691 12.6551 19.9921 14.1161 19.5845C15.577 19.1769 16.8892 18.356 17.8948 17.2206C18.9004 16.0851 19.5567 14.6833 19.7847 13.1838C20.0127 11.6843 19.8028 10.1508 19.1802 8.76773C18.5576 7.38465 17.5488 6.21082 16.275 5.38735C15.5825 4.93967 14.8278 4.6059 14.0394 4.3945C12.939 4.09942 12 3.20222 12 2.06291V2.06291Z" fill="url(#paint1_linear_5158_132645)"/>
<defs>
<linearGradient id="paint0_linear_5158_132645" x1="12" y1="0" x2="12" y2="24" gradientUnits="userSpaceOnUse">
<stop stop-color="#F8F8F8" stop-opacity="0.9"/>
<stop offset="1" stop-color="#F8F8F8" stop-opacity="0.3"/>
</linearGradient>
<linearGradient id="paint1_linear_5158_132645" x1="12" y1="0" x2="12" y2="24" gradientUnits="userSpaceOnUse">
<stop stop-color="#F8F8F8" stop-opacity="0.9"/>
<stop offset="1" stop-color="#F8F8F8" stop-opacity="0.3"/>
</linearGradient>
</defs>
</svg>
