<svg width="730" height="734" viewBox="0 0 730 734" fill="none" xmlns="http://www.w3.org/2000/svg">
<mask id="mask0_3148_182269" style="mask-type:alpha" maskUnits="userSpaceOnUse" x="109" y="112" width="511" height="511">
<circle cx="364.5" cy="367.5" r="255.5" fill="url(#paint0_radial_3148_182269)"/>
</mask>
<g mask="url(#mask0_3148_182269)">
<circle opacity="0.25" cx="179.5" cy="181.5" r="181.5" fill="url(#paint1_linear_3148_182269)"/>
<circle opacity="0.5" cx="181.5" cy="552.5" r="181.5" fill="url(#paint2_linear_3148_182269)"/>
<path opacity="0.25" d="M-215 384L188.002 384C189.935 384 191.803 383.3 193.259 382.03L208.241 368.97C209.697 367.7 211.565 367 213.498 367L235 367" stroke="url(#paint3_linear_3148_182269)" stroke-width="1.5"/>
<path opacity="0.25" d="M945 384L541.998 384C540.065 384 538.197 383.3 536.741 382.03L521.759 368.97C520.303 367.7 518.435 367 516.502 367L495 367" stroke="url(#paint4_linear_3148_182269)" stroke-width="1.5"/>
<circle opacity="0.25" cx="548.5" cy="181.5" r="181.5" fill="url(#paint5_linear_3148_182269)"/>
<circle opacity="0.5" cx="548.5" cy="552.5" r="181.5" fill="url(#paint6_linear_3148_182269)"/>
</g>
<path opacity="0.1" d="M290.467 334.911L290.468 334.91C308.346 322.464 323.285 307.525 335.282 290.096L335.283 290.095C345.891 274.575 353.183 259.212 357.146 244.006L356.662 243.88L357.146 244.006C358.127 240.242 361.434 237.5 365.287 237.5C369.183 237.5 372.514 240.302 373.472 244.12C375.76 253.238 379.334 262.564 384.19 272.097L384.191 272.1C390.306 283.875 398.115 295.192 407.619 306.053L407.619 306.053L407.626 306.061C417.354 316.695 428.215 326.31 440.204 334.906L440.206 334.908C455.877 346.017 471.819 353.829 488.033 358.335C491.795 359.38 494.5 362.722 494.5 366.594C494.5 370.522 491.713 373.896 487.885 374.946C477.6 377.765 467.023 382.31 456.157 388.572L456.154 388.574C443.031 396.267 430.813 405.429 419.502 416.062C408.19 426.469 398.908 437.448 391.659 449L391.659 449C382.668 463.349 376.577 476.985 373.403 489.911C372.472 493.699 369.185 496.5 365.33 496.5C361.481 496.5 358.199 493.709 357.256 489.932C354.075 477.19 347.991 463.657 339.018 449.339C328.371 432.124 313.203 416.17 293.53 401.47C276.412 388.533 259.278 379.698 242.128 374.982L241.996 375.464L242.128 374.982C238.283 373.925 235.5 370.523 235.5 366.571C235.5 362.696 238.176 359.337 241.929 358.265C258.73 353.468 274.909 345.682 290.467 334.911Z" stroke="#F8F8F8"/>
<g filter="url(#filter0_bdi_3148_182269)">
<rect x="239" y="371" width="8" height="8" rx="4" transform="rotate(180 239 371)" fill="#282828" fill-opacity="0.7" style="mix-blend-mode:luminosity" shape-rendering="crispEdges"/>
<rect x="238.25" y="370.25" width="6.5" height="6.5" rx="3.25" transform="rotate(180 238.25 370.25)" stroke="url(#paint7_linear_3148_182269)" stroke-opacity="0.25" stroke-width="1.5" shape-rendering="crispEdges"/>
</g>
<g filter="url(#filter1_bdi_3148_182269)">
<rect x="499" y="371" width="8" height="8" rx="4" transform="rotate(180 499 371)" fill="#282828" fill-opacity="0.7" style="mix-blend-mode:luminosity" shape-rendering="crispEdges"/>
<rect x="498.25" y="370.25" width="6.5" height="6.5" rx="3.25" transform="rotate(180 498.25 370.25)" stroke="url(#paint8_linear_3148_182269)" stroke-opacity="0.25" stroke-width="1.5" shape-rendering="crispEdges"/>
</g>
<mask id="mask1_3148_182269" style="mask-type:alpha" maskUnits="userSpaceOnUse" x="315" y="95" width="100" height="132">
<rect x="415" y="227" width="100" height="132" transform="rotate(180 415 227)" fill="url(#paint9_linear_3148_182269)"/>
</mask>
<g mask="url(#mask1_3148_182269)">
<path d="M377 228L377 160.314C377 158.192 377.843 156.157 379.343 154.657L394.657 139.343C396.157 137.843 397 135.808 397 133.686L397 83" stroke="url(#paint10_linear_3148_182269)" stroke-width="1.5"/>
<path opacity="0.25" d="M346 71L346 119.247C346 121.333 346.815 123.336 348.27 124.83L362.73 139.67C364.185 141.164 365 143.167 365 145.253L365 228" stroke="url(#paint11_linear_3148_182269)" stroke-width="1.5"/>
<path opacity="0.25" d="M334 71L334 164.352C334 166.669 335.005 168.873 336.755 170.392L350.246 182.108C351.995 183.627 353 185.831 353 188.148L353 228" stroke="url(#paint12_linear_3148_182269)" stroke-width="1.5"/>
<path opacity="0.5" d="M365 215L365 197" stroke="#F8F8F8" stroke-width="1.5"/>
</g>
<circle opacity="0.5" cx="481.817" cy="371.817" r="1.81706" fill="url(#paint13_linear_3148_182269)"/>
<circle opacity="0.5" cx="503.817" cy="374.817" r="1.81706" fill="url(#paint14_linear_3148_182269)"/>
<circle opacity="0.5" cx="500.574" cy="346.854" r="0.605687" transform="rotate(-49.4658 500.574 346.854)" fill="url(#paint15_linear_3148_182269)"/>
<circle opacity="0.5" cx="487.606" cy="349.028" r="0.605687" fill="url(#paint16_linear_3148_182269)"/>
<circle cx="502.294" cy="396.294" r="1.65266" transform="rotate(55.9888 502.294 396.294)" fill="white" fill-opacity="0.15"/>
<circle cx="521.211" cy="360.211" r="1.21137" fill="url(#paint17_linear_3148_182269)"/>
<circle opacity="0.5" cx="1.94556" cy="1.94556" r="1.94556" transform="matrix(-1 0 0 1 246.92 372.713)" fill="url(#paint18_linear_3148_182269)"/>
<circle opacity="0.5" cx="1.94556" cy="1.94556" r="1.94556" transform="matrix(-1 0 0 1 223.364 375.925)" fill="url(#paint19_linear_3148_182269)"/>
<circle opacity="0.5" cx="0.648519" cy="0.648519" r="0.648519" transform="matrix(-0.649901 -0.760019 -0.760019 0.649901 225.806 348.002)" fill="url(#paint20_linear_3148_182269)"/>
<circle opacity="0.5" cx="0.648519" cy="0.648519" r="0.648519" transform="matrix(-1 0 0 1 239.425 349.61)" fill="url(#paint21_linear_3148_182269)"/>
<circle cx="1.76953" cy="1.76953" r="1.76953" transform="matrix(-0.559355 0.828928 0.828928 0.559355 222.572 398.41)" fill="white" fill-opacity="0.15"/>
<circle cx="1.29704" cy="1.29704" r="1.29704" transform="matrix(-1 0 0 1 204.091 360.935)" fill="url(#paint22_linear_3148_182269)"/>
<defs>
<filter id="filter0_bdi_3148_182269" x="219" y="351" width="32" height="60" filterUnits="userSpaceOnUse" color-interpolation-filters="sRGB">
<feFlood flood-opacity="0" result="BackgroundImageFix"/>
<feGaussianBlur in="BackgroundImageFix" stdDeviation="6"/>
<feComposite in2="SourceAlpha" operator="in" result="effect1_backgroundBlur_3148_182269"/>
<feColorMatrix in="SourceAlpha" type="matrix" values="0 0 0 0 0 0 0 0 0 0 0 0 0 0 0 0 0 0 127 0" result="hardAlpha"/>
<feMorphology radius="16" operator="erode" in="SourceAlpha" result="effect2_dropShadow_3148_182269"/>
<feOffset dy="32"/>
<feGaussianBlur stdDeviation="12"/>
<feComposite in2="hardAlpha" operator="out"/>
<feColorMatrix type="matrix" values="0 0 0 0 0 0 0 0 0 0 0 0 0 0 0 0 0 0 0.4 0"/>
<feBlend mode="multiply" in2="effect1_backgroundBlur_3148_182269" result="effect2_dropShadow_3148_182269"/>
<feBlend mode="normal" in="SourceGraphic" in2="effect2_dropShadow_3148_182269" result="shape"/>
<feColorMatrix in="SourceAlpha" type="matrix" values="0 0 0 0 0 0 0 0 0 0 0 0 0 0 0 0 0 0 127 0" result="hardAlpha"/>
<feOffset/>
<feGaussianBlur stdDeviation="4"/>
<feComposite in2="hardAlpha" operator="arithmetic" k2="-1" k3="1"/>
<feColorMatrix type="matrix" values="0 0 0 0 0.972549 0 0 0 0 0.972549 0 0 0 0 0.972549 0 0 0 0.25 0"/>
<feBlend mode="normal" in2="shape" result="effect3_innerShadow_3148_182269"/>
</filter>
<filter id="filter1_bdi_3148_182269" x="479" y="351" width="32" height="60" filterUnits="userSpaceOnUse" color-interpolation-filters="sRGB">
<feFlood flood-opacity="0" result="BackgroundImageFix"/>
<feGaussianBlur in="BackgroundImageFix" stdDeviation="6"/>
<feComposite in2="SourceAlpha" operator="in" result="effect1_backgroundBlur_3148_182269"/>
<feColorMatrix in="SourceAlpha" type="matrix" values="0 0 0 0 0 0 0 0 0 0 0 0 0 0 0 0 0 0 127 0" result="hardAlpha"/>
<feMorphology radius="16" operator="erode" in="SourceAlpha" result="effect2_dropShadow_3148_182269"/>
<feOffset dy="32"/>
<feGaussianBlur stdDeviation="12"/>
<feComposite in2="hardAlpha" operator="out"/>
<feColorMatrix type="matrix" values="0 0 0 0 0 0 0 0 0 0 0 0 0 0 0 0 0 0 0.4 0"/>
<feBlend mode="multiply" in2="effect1_backgroundBlur_3148_182269" result="effect2_dropShadow_3148_182269"/>
<feBlend mode="normal" in="SourceGraphic" in2="effect2_dropShadow_3148_182269" result="shape"/>
<feColorMatrix in="SourceAlpha" type="matrix" values="0 0 0 0 0 0 0 0 0 0 0 0 0 0 0 0 0 0 127 0" result="hardAlpha"/>
<feOffset/>
<feGaussianBlur stdDeviation="4"/>
<feComposite in2="hardAlpha" operator="arithmetic" k2="-1" k3="1"/>
<feColorMatrix type="matrix" values="0 0 0 0 0.972549 0 0 0 0 0.972549 0 0 0 0 0.972549 0 0 0 0.25 0"/>
<feBlend mode="normal" in2="shape" result="effect3_innerShadow_3148_182269"/>
</filter>
<radialGradient id="paint0_radial_3148_182269" cx="0" cy="0" r="1" gradientUnits="userSpaceOnUse" gradientTransform="translate(364.5 367.5) rotate(90) scale(255.5)">
<stop stop-color="#D9D9D9"/>
<stop offset="1" stop-color="#737373" stop-opacity="0"/>
</radialGradient>
<linearGradient id="paint1_linear_3148_182269" x1="179.5" y1="0" x2="179.5" y2="363" gradientUnits="userSpaceOnUse">
<stop offset="0.522974" stop-color="#F8F8F8" stop-opacity="0"/>
<stop offset="1" stop-color="#F8F8F8" stop-opacity="0.1"/>
</linearGradient>
<linearGradient id="paint2_linear_3148_182269" x1="181.5" y1="371" x2="181.5" y2="734" gradientUnits="userSpaceOnUse">
<stop offset="0.522974" stop-color="#F8F8F8" stop-opacity="0"/>
<stop offset="1" stop-color="#F8F8F8" stop-opacity="0.1"/>
</linearGradient>
<linearGradient id="paint3_linear_3148_182269" x1="144.5" y1="386" x2="166.38" y2="332.162" gradientUnits="userSpaceOnUse">
<stop stop-color="#F8F8F8" stop-opacity="0.8"/>
<stop offset="0.54779" stop-color="#F8F8F8" stop-opacity="0.2"/>
<stop offset="1" stop-color="#F8F8F8" stop-opacity="0.8"/>
</linearGradient>
<linearGradient id="paint4_linear_3148_182269" x1="585.5" y1="386" x2="563.62" y2="332.162" gradientUnits="userSpaceOnUse">
<stop stop-color="#F8F8F8" stop-opacity="0.8"/>
<stop offset="0.54779" stop-color="#F8F8F8" stop-opacity="0.2"/>
<stop offset="1" stop-color="#F8F8F8" stop-opacity="0.8"/>
</linearGradient>
<linearGradient id="paint5_linear_3148_182269" x1="548.5" y1="0" x2="548.5" y2="363" gradientUnits="userSpaceOnUse">
<stop offset="0.522974" stop-color="#F8F8F8" stop-opacity="0"/>
<stop offset="1" stop-color="#F8F8F8" stop-opacity="0.1"/>
</linearGradient>
<linearGradient id="paint6_linear_3148_182269" x1="548.5" y1="371" x2="548.5" y2="734" gradientUnits="userSpaceOnUse">
<stop offset="0.522974" stop-color="#F8F8F8" stop-opacity="0"/>
<stop offset="1" stop-color="#F8F8F8" stop-opacity="0.1"/>
</linearGradient>
<linearGradient id="paint7_linear_3148_182269" x1="243" y1="371" x2="246.48" y2="379.785" gradientUnits="userSpaceOnUse">
<stop stop-color="white" stop-opacity="0.4"/>
<stop offset="0.4" stop-color="white" stop-opacity="0.01"/>
<stop offset="0.6" stop-color="white" stop-opacity="0.01"/>
<stop offset="1" stop-color="white" stop-opacity="0.1"/>
</linearGradient>
<linearGradient id="paint8_linear_3148_182269" x1="503" y1="371" x2="506.48" y2="379.785" gradientUnits="userSpaceOnUse">
<stop stop-color="white" stop-opacity="0.4"/>
<stop offset="0.4" stop-color="white" stop-opacity="0.01"/>
<stop offset="0.6" stop-color="white" stop-opacity="0.01"/>
<stop offset="1" stop-color="white" stop-opacity="0.1"/>
</linearGradient>
<linearGradient id="paint9_linear_3148_182269" x1="465" y1="227" x2="465" y2="359" gradientUnits="userSpaceOnUse">
<stop offset="0.391024" stop-color="#D9D9D9"/>
<stop offset="1" stop-color="#737373" stop-opacity="0"/>
</linearGradient>
<linearGradient id="paint10_linear_3148_182269" x1="377" y1="83" x2="438.638" y2="99.4571" gradientUnits="userSpaceOnUse">
<stop stop-color="#F8F8F8" stop-opacity="0"/>
<stop offset="0.45221" stop-color="#F8F8F8" stop-opacity="0.2"/>
<stop offset="1" stop-color="#F8F8F8" stop-opacity="0.8"/>
</linearGradient>
<linearGradient id="paint11_linear_3148_182269" x1="346" y1="137.5" x2="399.838" y2="159.38" gradientUnits="userSpaceOnUse">
<stop stop-color="#F8F8F8" stop-opacity="0.8"/>
<stop offset="0.54779" stop-color="#F8F8F8" stop-opacity="0.2"/>
<stop offset="1" stop-color="#F8F8F8" stop-opacity="0.8"/>
</linearGradient>
<linearGradient id="paint12_linear_3148_182269" x1="334" y1="137.5" x2="387.838" y2="159.38" gradientUnits="userSpaceOnUse">
<stop stop-color="#F8F8F8" stop-opacity="0"/>
<stop offset="0.54779" stop-color="#F8F8F8" stop-opacity="0.2"/>
<stop offset="1" stop-color="#F8F8F8" stop-opacity="0.8"/>
</linearGradient>
<linearGradient id="paint13_linear_3148_182269" x1="483.028" y1="370" x2="480" y2="374.24" gradientUnits="userSpaceOnUse">
<stop stop-color="white" stop-opacity="0.3"/>
<stop offset="0.826694" stop-color="white" stop-opacity="0"/>
</linearGradient>
<linearGradient id="paint14_linear_3148_182269" x1="505.028" y1="373" x2="502" y2="377.24" gradientUnits="userSpaceOnUse">
<stop stop-color="white" stop-opacity="0.3"/>
<stop offset="0.826694" stop-color="white" stop-opacity="0"/>
</linearGradient>
<linearGradient id="paint15_linear_3148_182269" x1="500.978" y1="345.844" x2="500.271" y2="347.359" gradientUnits="userSpaceOnUse">
<stop offset="0.173306" stop-color="white" stop-opacity="0"/>
<stop offset="1" stop-color="white" stop-opacity="0.3"/>
</linearGradient>
<linearGradient id="paint16_linear_3148_182269" x1="488.009" y1="348.019" x2="487.303" y2="349.533" gradientUnits="userSpaceOnUse">
<stop offset="0.173306" stop-color="white" stop-opacity="0"/>
<stop offset="1" stop-color="white" stop-opacity="0.3"/>
</linearGradient>
<linearGradient id="paint17_linear_3148_182269" x1="522.019" y1="358.192" x2="520.606" y2="361.221" gradientUnits="userSpaceOnUse">
<stop stop-color="white" stop-opacity="0.3"/>
<stop offset="0.826694" stop-color="white" stop-opacity="0"/>
</linearGradient>
<linearGradient id="paint18_linear_3148_182269" x1="3.2426" y1="9.34157e-08" x2="-9.98582e-08" y2="4.53964" gradientUnits="userSpaceOnUse">
<stop stop-color="white" stop-opacity="0.3"/>
<stop offset="0.826694" stop-color="white" stop-opacity="0"/>
</linearGradient>
<linearGradient id="paint19_linear_3148_182269" x1="3.2426" y1="9.34157e-08" x2="-9.98582e-08" y2="4.53964" gradientUnits="userSpaceOnUse">
<stop stop-color="white" stop-opacity="0.3"/>
<stop offset="0.826694" stop-color="white" stop-opacity="0"/>
</linearGradient>
<linearGradient id="paint20_linear_3148_182269" x1="1.08087" y1="-0.432346" x2="0.32426" y2="1.18895" gradientUnits="userSpaceOnUse">
<stop offset="0.173306" stop-color="white" stop-opacity="0"/>
<stop offset="1" stop-color="white" stop-opacity="0.3"/>
</linearGradient>
<linearGradient id="paint21_linear_3148_182269" x1="1.08087" y1="-0.432346" x2="0.32426" y2="1.18895" gradientUnits="userSpaceOnUse">
<stop offset="0.173306" stop-color="white" stop-opacity="0"/>
<stop offset="1" stop-color="white" stop-opacity="0.3"/>
</linearGradient>
<linearGradient id="paint22_linear_3148_182269" x1="2.16173" y1="-0.864692" x2="0.648519" y2="2.3779" gradientUnits="userSpaceOnUse">
<stop stop-color="white" stop-opacity="0.3"/>
<stop offset="0.826694" stop-color="white" stop-opacity="0"/>
</linearGradient>
</defs>
</svg>
