<svg width="17" height="17" viewBox="0 0 17 17" fill="none" xmlns="http://www.w3.org/2000/svg">
<g clip-path="url(#clip0_3094_163166)">
<g opacity="0.5" filter="url(#filter0_dd_3094_163166)">
<path d="M8.42568 0.885925C4.00768 0.885925 0.425682 4.46793 0.425682 8.88593C0.425682 13.3039 4.00768 16.8859 8.42568 16.8859C12.8437 16.8859 16.4257 13.3039 16.4257 8.88593C16.413 4.47326 12.8383 0.898592 8.42568 0.885925ZM13.2303 6.02393L7.23035 12.0239C7.10035 12.1539 6.92968 12.2193 6.75902 12.2193C6.58835 12.2193 6.41768 12.1539 6.28768 12.0239L3.62102 9.35726C3.36035 9.09659 3.36035 8.67526 3.62102 8.41459C3.88168 8.15393 4.30302 8.15393 4.56368 8.41459L6.75902 10.6099L12.2877 5.08126C12.5483 4.82059 12.9697 4.82059 13.2303 5.08126C13.491 5.34193 13.491 5.76326 13.2303 6.02393Z" fill="url(#paint0_linear_3094_163166)" shape-rendering="crispEdges"/>
</g>
</g>
<defs>
<filter id="filter0_dd_3094_163166" x="-8.57432" y="-0.114075" width="28" height="28" filterUnits="userSpaceOnUse" color-interpolation-filters="sRGB">
<feFlood flood-opacity="0" result="BackgroundImageFix"/>
<feColorMatrix in="SourceAlpha" type="matrix" values="0 0 0 0 0 0 0 0 0 0 0 0 0 0 0 0 0 0 127 0" result="hardAlpha"/>
<feOffset dx="-3" dy="5"/>
<feGaussianBlur stdDeviation="3"/>
<feColorMatrix type="matrix" values="0 0 0 0 0 0 0 0 0 0 0 0 0 0 0 0 0 0 0.2 0"/>
<feBlend mode="normal" in2="BackgroundImageFix" result="effect1_dropShadow_3094_163166"/>
<feColorMatrix in="SourceAlpha" type="matrix" values="0 0 0 0 0 0 0 0 0 0 0 0 0 0 0 0 0 0 127 0" result="hardAlpha"/>
<feOffset dx="-1" dy="2"/>
<feGaussianBlur stdDeviation="1.5"/>
<feComposite in2="hardAlpha" operator="out"/>
<feColorMatrix type="matrix" values="0 0 0 0 0 0 0 0 0 0 0 0 0 0 0 0 0 0 0.1 0"/>
<feBlend mode="normal" in2="effect1_dropShadow_3094_163166" result="effect2_dropShadow_3094_163166"/>
<feBlend mode="normal" in="SourceGraphic" in2="effect2_dropShadow_3094_163166" result="shape"/>
</filter>
<linearGradient id="paint0_linear_3094_163166" x1="8.42568" y1="0.885925" x2="8.42568" y2="16.8859" gradientUnits="userSpaceOnUse">
<stop stop-color="#F8F8F8" stop-opacity="0.9"/>
<stop offset="1" stop-color="#F8F8F8" stop-opacity="0.3"/>
</linearGradient>
<clipPath id="clip0_3094_163166">
<rect width="16" height="16" fill="white" transform="translate(0.425682 0.885925)"/>
</clipPath>
</defs>
</svg>
