<svg width="368" height="475" viewBox="0 0 368 475" fill="none" xmlns="http://www.w3.org/2000/svg">
<g opacity="0.01" filter="url(#filter0_di_5140_80882)">
<path d="M-66 72.2548V184V295.745C-66 304.232 -62.6286 312.371 -56.6274 318.373L49.6274 424.627C55.6286 430.629 63.7679 434 72.2548 434H184H295.745C304.232 434 312.371 430.629 318.373 424.627L424.627 318.373C430.629 312.371 434 304.232 434 295.745V184V72.2548C434 63.7679 430.629 55.6286 424.627 49.6274L318.373 -56.6274C312.371 -62.6286 304.232 -66 295.745 -66H184H72.2548C63.7679 -66 55.6286 -62.6286 49.6274 -56.6274L-56.6274 49.6274C-62.6286 55.6286 -66 63.7679 -66 72.2548Z" fill="#282828" shape-rendering="crispEdges"/>
<path d="M-66 72.2548V184V295.745C-66 304.232 -62.6286 312.371 -56.6274 318.373L49.6274 424.627C55.6286 430.629 63.7679 434 72.2548 434H184H295.745C304.232 434 312.371 430.629 318.373 424.627L424.627 318.373C430.629 312.371 434 304.232 434 295.745V184V72.2548C434 63.7679 430.629 55.6286 424.627 49.6274L318.373 -56.6274C312.371 -62.6286 304.232 -66 295.745 -66H184H72.2548C63.7679 -66 55.6286 -62.6286 49.6274 -56.6274L-56.6274 49.6274C-62.6286 55.6286 -66 63.7679 -66 72.2548Z" stroke="url(#paint0_linear_5140_80882)" stroke-width="1.5" shape-rendering="crispEdges"/>
</g>
<g opacity="0.015" filter="url(#filter1_di_5140_80882)">
<path d="M-24 93.2548V184V274.745C-24 283.232 -20.6286 291.371 -14.6274 297.373L70.6274 382.627C76.6286 388.629 84.7679 392 93.2548 392H184H274.745C283.232 392 291.371 388.629 297.373 382.627L382.627 297.373C388.629 291.371 392 283.232 392 274.745V184V93.2548C392 84.7679 388.629 76.6286 382.627 70.6274L297.373 -14.6274C291.371 -20.6286 283.232 -24 274.745 -24H184H93.2548C84.7679 -24 76.6286 -20.6286 70.6274 -14.6274L-14.6274 70.6274C-20.6286 76.6286 -24 84.7679 -24 93.2548Z" fill="#282828" shape-rendering="crispEdges"/>
<path d="M-24 93.2548V184V274.745C-24 283.232 -20.6286 291.371 -14.6274 297.373L70.6274 382.627C76.6286 388.629 84.7679 392 93.2548 392H184H274.745C283.232 392 291.371 388.629 297.373 382.627L382.627 297.373C388.629 291.371 392 283.232 392 274.745V184V93.2548C392 84.7679 388.629 76.6286 382.627 70.6274L297.373 -14.6274C291.371 -20.6286 283.232 -24 274.745 -24H184H93.2548C84.7679 -24 76.6286 -20.6286 70.6274 -14.6274L-14.6274 70.6274C-20.6286 76.6286 -24 84.7679 -24 93.2548Z" stroke="url(#paint1_linear_5140_80882)" stroke-width="1.5" shape-rendering="crispEdges"/>
</g>
<g opacity="0.025" filter="url(#filter2_di_5140_80882)">
<path d="M16 113.255V184V254.745C16 263.232 19.3714 271.371 25.3726 277.373L90.6274 342.627C96.6286 348.629 104.768 352 113.255 352H184H254.745C263.232 352 271.371 348.629 277.373 342.627L342.627 277.373C348.629 271.371 352 263.232 352 254.745V184V113.255C352 104.768 348.629 96.6286 342.627 90.6274L277.373 25.3726C271.371 19.3714 263.232 16 254.745 16H184H113.255C104.768 16 96.6286 19.3714 90.6274 25.3726L25.3726 90.6274C19.3714 96.6286 16 104.768 16 113.255Z" fill="#282828" shape-rendering="crispEdges"/>
<path d="M16 113.255V184V254.745C16 263.232 19.3714 271.371 25.3726 277.373L90.6274 342.627C96.6286 348.629 104.768 352 113.255 352H184H254.745C263.232 352 271.371 348.629 277.373 342.627L342.627 277.373C348.629 271.371 352 263.232 352 254.745V184V113.255C352 104.768 348.629 96.6286 342.627 90.6274L277.373 25.3726C271.371 19.3714 263.232 16 254.745 16H184H113.255C104.768 16 96.6286 19.3714 90.6274 25.3726L25.3726 90.6274C19.3714 96.6286 16 104.768 16 113.255Z" stroke="url(#paint2_linear_5140_80882)" stroke-width="1.5" shape-rendering="crispEdges"/>
</g>
<mask id="mask0_5140_80882" style="mask-type:alpha" maskUnits="userSpaceOnUse" x="16" y="16" width="336" height="336">
<path d="M16 113.255V184V254.745C16 263.232 19.3714 271.371 25.3726 277.373L90.6274 342.627C96.6286 348.629 104.768 352 113.255 352H184H254.745C263.232 352 271.371 348.629 277.373 342.627L342.627 277.373C348.629 271.371 352 263.232 352 254.745V184V113.255C352 104.768 348.629 96.6286 342.627 90.6274L277.373 25.3726C271.371 19.3714 263.232 16 254.745 16H184H113.255C104.768 16 96.6286 19.3714 90.6274 25.3726L25.3726 90.6274C19.3714 96.6286 16 104.768 16 113.255Z" fill="#282828"/>
</mask>
<g mask="url(#mask0_5140_80882)">
<mask id="mask1_5140_80882" style="mask-type:alpha" maskUnits="userSpaceOnUse" x="0" y="0" width="368" height="368">
<circle cx="184" cy="184" r="184" fill="url(#paint3_radial_5140_80882)"/>
</mask>
<g mask="url(#mask1_5140_80882)">
<g opacity="0.1">
<rect x="102.75" y="101.75" width="78.5" height="78.5" rx="15.25" stroke="#F8F8F8" stroke-width="1.5"/>
<rect x="186.75" y="101.75" width="78.5" height="78.5" rx="15.25" stroke="#F8F8F8" stroke-width="1.5"/>
<rect x="102.75" y="185.75" width="78.5" height="78.5" rx="15.25" stroke="#F8F8F8" stroke-width="1.5"/>
<rect x="186.75" y="185.75" width="78.5" height="78.5" rx="15.25" stroke="#F8F8F8" stroke-width="1.5"/>
</g>
</g>
<g clip-path="url(#clip0_5140_80882)">
<rect opacity="0.5" x="-22" y="80" width="120" height="103" rx="16" fill="url(#paint4_linear_5140_80882)"/>
<rect opacity="0.5" x="-29.25" y="72.75" width="118.5" height="101.5" rx="9.25" stroke="url(#paint5_linear_5140_80882)" stroke-width="1.5"/>
<g opacity="0.05">
<circle cx="23.5744" cy="93.5744" r="0.5744" fill="#F8F8F8"/>
<circle cx="43.515" cy="93.515" r="0.515" fill="#F8F8F8"/>
<circle cx="63.5" cy="93.5" r="0.5" fill="#F8F8F8"/>
<circle cx="83.5" cy="93.5" r="0.5" fill="#F8F8F8"/>
<circle cx="23.6536" cy="113.654" r="0.6536" fill="#F8F8F8"/>
<circle cx="43.614" cy="113.614" r="0.614" fill="#F8F8F8"/>
<circle cx="63.5744" cy="113.574" r="0.5744" fill="#F8F8F8"/>
<circle cx="83.5348" cy="113.535" r="0.5348" fill="#F8F8F8"/>
<circle cx="23.7724" cy="133.772" r="0.7724" fill="#F8F8F8"/>
<circle cx="43.7526" cy="133.753" r="0.7526" fill="#F8F8F8"/>
<circle cx="63.7328" cy="133.733" r="0.7328" fill="#F8F8F8"/>
<circle cx="83.6932" cy="133.693" r="0.6932" fill="#F8F8F8"/>
<circle cx="23.8912" cy="153.891" r="0.8912" fill="#F8F8F8"/>
<circle cx="43.8714" cy="153.871" r="0.8714" fill="#F8F8F8"/>
<circle cx="63.8516" cy="153.852" r="0.8516" fill="#F8F8F8"/>
<circle cx="83.8516" cy="153.852" r="0.8516" fill="#F8F8F8"/>
<circle cx="23.9902" cy="173.99" r="0.9902" fill="#F8F8F8"/>
<circle cx="43.51" cy="173.51" r="1.01" fill="#F8F8F8"/>
<circle cx="63.51" cy="173.51" r="1.01" fill="#F8F8F8"/>
<circle cx="83.9902" cy="173.99" r="0.9902" fill="#F8F8F8"/>
</g>
</g>
<rect x="270" y="16" width="120" height="166" rx="16" stroke="url(#paint6_linear_5140_80882)" stroke-opacity="0.1" stroke-width="1.5"/>
<rect x="-22" y="188" width="120" height="166" rx="16" stroke="url(#paint7_linear_5140_80882)" stroke-opacity="0.1" stroke-width="1.5"/>
<g clip-path="url(#clip1_5140_80882)">
<rect opacity="0.5" x="390" y="291" width="120" height="103" rx="16" transform="rotate(180 390 291)" fill="url(#paint8_linear_5140_80882)"/>
<rect opacity="0.5" x="397.25" y="298.25" width="118.5" height="101.5" rx="9.25" transform="rotate(180 397.25 298.25)" stroke="url(#paint9_linear_5140_80882)" stroke-width="1.5"/>
<g opacity="0.05">
<circle cx="344.426" cy="277.426" r="0.5744" transform="rotate(180 344.426 277.426)" fill="#F8F8F8"/>
<circle cx="324.485" cy="277.485" r="0.515" transform="rotate(180 324.485 277.485)" fill="#F8F8F8"/>
<circle cx="304.5" cy="277.5" r="0.5" transform="rotate(180 304.5 277.5)" fill="#F8F8F8"/>
<circle cx="284.5" cy="277.5" r="0.5" transform="rotate(180 284.5 277.5)" fill="#F8F8F8"/>
<circle cx="344.346" cy="257.346" r="0.6536" transform="rotate(180 344.346 257.346)" fill="#F8F8F8"/>
<circle cx="324.386" cy="257.386" r="0.614" transform="rotate(180 324.386 257.386)" fill="#F8F8F8"/>
<circle cx="304.426" cy="257.426" r="0.5744" transform="rotate(180 304.426 257.426)" fill="#F8F8F8"/>
<circle cx="284.465" cy="257.465" r="0.5348" transform="rotate(180 284.465 257.465)" fill="#F8F8F8"/>
<circle cx="344.228" cy="237.228" r="0.7724" transform="rotate(180 344.228 237.228)" fill="#F8F8F8"/>
<circle cx="324.247" cy="237.247" r="0.7526" transform="rotate(180 324.247 237.247)" fill="#F8F8F8"/>
<circle cx="304.267" cy="237.267" r="0.7328" transform="rotate(180 304.267 237.267)" fill="#F8F8F8"/>
<circle cx="284.307" cy="237.307" r="0.6932" transform="rotate(180 284.307 237.307)" fill="#F8F8F8"/>
<circle cx="344.109" cy="217.109" r="0.8912" transform="rotate(180 344.109 217.109)" fill="#F8F8F8"/>
<circle cx="324.129" cy="217.129" r="0.8714" transform="rotate(180 324.129 217.129)" fill="#F8F8F8"/>
<circle cx="304.148" cy="217.148" r="0.8516" transform="rotate(180 304.148 217.148)" fill="#F8F8F8"/>
<circle cx="284.148" cy="217.148" r="0.8516" transform="rotate(180 284.148 217.148)" fill="#F8F8F8"/>
<circle cx="344.01" cy="197.01" r="0.9902" transform="rotate(180 344.01 197.01)" fill="#F8F8F8"/>
<circle cx="324.49" cy="197.49" r="1.01" transform="rotate(180 324.49 197.49)" fill="#F8F8F8"/>
<circle cx="304.49" cy="197.49" r="1.01" transform="rotate(180 304.49 197.49)" fill="#F8F8F8"/>
<circle cx="284.01" cy="197.01" r="0.9902" transform="rotate(180 284.01 197.01)" fill="#F8F8F8"/>
</g>
</g>
<path d="M269 7L195.06 49.2678C190.076 52.1169 187 57.4176 187 63.1584L187 144" stroke="url(#paint10_linear_5140_80882)" stroke-opacity="0.1" stroke-width="1.5"/>
<path opacity="0.3" d="M99 7L172.94 49.2678C177.924 52.1168 181 57.4176 181 63.1584L181 130" stroke="#F8F8F8" stroke-opacity="0.05" stroke-width="1.5"/>
<path opacity="0.3" d="M269 361L195.06 318.732C190.076 315.883 187 310.582 187 304.842L187 224.5" stroke="#F8F8F8" stroke-opacity="0.05" stroke-width="1.5"/>
<path d="M100 361L173.94 318.732C178.924 315.883 182 310.582 182 304.842L182 224" stroke="url(#paint11_linear_5140_80882)" stroke-opacity="0.1" stroke-width="1.5"/>
</g>
<defs>
<filter id="filter0_di_5140_80882" x="-74.75" y="-66.75" width="517.5" height="541.5" filterUnits="userSpaceOnUse" color-interpolation-filters="sRGB">
<feFlood flood-opacity="0" result="BackgroundImageFix"/>
<feColorMatrix in="SourceAlpha" type="matrix" values="0 0 0 0 0 0 0 0 0 0 0 0 0 0 0 0 0 0 127 0" result="hardAlpha"/>
<feMorphology radius="16" operator="erode" in="SourceAlpha" result="effect1_dropShadow_5140_80882"/>
<feOffset dy="32"/>
<feGaussianBlur stdDeviation="12"/>
<feComposite in2="hardAlpha" operator="out"/>
<feColorMatrix type="matrix" values="0 0 0 0 0 0 0 0 0 0 0 0 0 0 0 0 0 0 0.4 0"/>
<feBlend mode="multiply" in2="BackgroundImageFix" result="effect1_dropShadow_5140_80882"/>
<feBlend mode="normal" in="SourceGraphic" in2="effect1_dropShadow_5140_80882" result="shape"/>
<feColorMatrix in="SourceAlpha" type="matrix" values="0 0 0 0 0 0 0 0 0 0 0 0 0 0 0 0 0 0 127 0" result="hardAlpha"/>
<feOffset/>
<feGaussianBlur stdDeviation="4"/>
<feComposite in2="hardAlpha" operator="arithmetic" k2="-1" k3="1"/>
<feColorMatrix type="matrix" values="0 0 0 0 0.972549 0 0 0 0 0.972549 0 0 0 0 0.972549 0 0 0 0.25 0"/>
<feBlend mode="normal" in2="shape" result="effect2_innerShadow_5140_80882"/>
</filter>
<filter id="filter1_di_5140_80882" x="-32.75" y="-24.75" width="433.5" height="457.5" filterUnits="userSpaceOnUse" color-interpolation-filters="sRGB">
<feFlood flood-opacity="0" result="BackgroundImageFix"/>
<feColorMatrix in="SourceAlpha" type="matrix" values="0 0 0 0 0 0 0 0 0 0 0 0 0 0 0 0 0 0 127 0" result="hardAlpha"/>
<feMorphology radius="16" operator="erode" in="SourceAlpha" result="effect1_dropShadow_5140_80882"/>
<feOffset dy="32"/>
<feGaussianBlur stdDeviation="12"/>
<feComposite in2="hardAlpha" operator="out"/>
<feColorMatrix type="matrix" values="0 0 0 0 0 0 0 0 0 0 0 0 0 0 0 0 0 0 0.4 0"/>
<feBlend mode="multiply" in2="BackgroundImageFix" result="effect1_dropShadow_5140_80882"/>
<feBlend mode="normal" in="SourceGraphic" in2="effect1_dropShadow_5140_80882" result="shape"/>
<feColorMatrix in="SourceAlpha" type="matrix" values="0 0 0 0 0 0 0 0 0 0 0 0 0 0 0 0 0 0 127 0" result="hardAlpha"/>
<feOffset/>
<feGaussianBlur stdDeviation="4"/>
<feComposite in2="hardAlpha" operator="arithmetic" k2="-1" k3="1"/>
<feColorMatrix type="matrix" values="0 0 0 0 0.972549 0 0 0 0 0.972549 0 0 0 0 0.972549 0 0 0 0.25 0"/>
<feBlend mode="normal" in2="shape" result="effect2_innerShadow_5140_80882"/>
</filter>
<filter id="filter2_di_5140_80882" x="7.25" y="15.25" width="353.5" height="377.5" filterUnits="userSpaceOnUse" color-interpolation-filters="sRGB">
<feFlood flood-opacity="0" result="BackgroundImageFix"/>
<feColorMatrix in="SourceAlpha" type="matrix" values="0 0 0 0 0 0 0 0 0 0 0 0 0 0 0 0 0 0 127 0" result="hardAlpha"/>
<feMorphology radius="16" operator="erode" in="SourceAlpha" result="effect1_dropShadow_5140_80882"/>
<feOffset dy="32"/>
<feGaussianBlur stdDeviation="12"/>
<feComposite in2="hardAlpha" operator="out"/>
<feColorMatrix type="matrix" values="0 0 0 0 0 0 0 0 0 0 0 0 0 0 0 0 0 0 0.4 0"/>
<feBlend mode="multiply" in2="BackgroundImageFix" result="effect1_dropShadow_5140_80882"/>
<feBlend mode="normal" in="SourceGraphic" in2="effect1_dropShadow_5140_80882" result="shape"/>
<feColorMatrix in="SourceAlpha" type="matrix" values="0 0 0 0 0 0 0 0 0 0 0 0 0 0 0 0 0 0 127 0" result="hardAlpha"/>
<feOffset/>
<feGaussianBlur stdDeviation="4"/>
<feComposite in2="hardAlpha" operator="arithmetic" k2="-1" k3="1"/>
<feColorMatrix type="matrix" values="0 0 0 0 0.972549 0 0 0 0 0.972549 0 0 0 0 0.972549 0 0 0 0.25 0"/>
<feBlend mode="normal" in2="shape" result="effect2_innerShadow_5140_80882"/>
</filter>
<linearGradient id="paint0_linear_5140_80882" x1="-54.4883" y1="-66" x2="328.345" y2="445.905" gradientUnits="userSpaceOnUse">
<stop stop-color="#F8F8F8" stop-opacity="0.9"/>
<stop offset="1" stop-color="#F8F8F8" stop-opacity="0.2"/>
</linearGradient>
<linearGradient id="paint1_linear_5140_80882" x1="-14.4223" y1="-24" x2="304.095" y2="401.905" gradientUnits="userSpaceOnUse">
<stop stop-color="#F8F8F8" stop-opacity="0.9"/>
<stop offset="1" stop-color="#F8F8F8" stop-opacity="0.2"/>
</linearGradient>
<linearGradient id="paint2_linear_5140_80882" x1="23.7358" y1="16" x2="281" y2="360" gradientUnits="userSpaceOnUse">
<stop stop-color="#F8F8F8" stop-opacity="0.9"/>
<stop offset="1" stop-color="#F8F8F8" stop-opacity="0.2"/>
</linearGradient>
<radialGradient id="paint3_radial_5140_80882" cx="0" cy="0" r="1" gradientUnits="userSpaceOnUse" gradientTransform="translate(184 184) rotate(90) scale(184)">
<stop stop-color="#D9D9D9"/>
<stop offset="1" stop-color="#737373" stop-opacity="0"/>
</radialGradient>
<linearGradient id="paint4_linear_5140_80882" x1="98" y1="183" x2="-31.4225" y2="93.6481" gradientUnits="userSpaceOnUse">
<stop stop-color="white" stop-opacity="0.1"/>
<stop offset="0.402603" stop-color="white" stop-opacity="0"/>
</linearGradient>
<linearGradient id="paint5_linear_5140_80882" x1="90" y1="175" x2="18.4664" y2="113.043" gradientUnits="userSpaceOnUse">
<stop stop-color="white" stop-opacity="0.1"/>
<stop offset="0.402603" stop-color="white" stop-opacity="0"/>
</linearGradient>
<linearGradient id="paint6_linear_5140_80882" x1="341" y1="182" x2="218.17" y2="121.863" gradientUnits="userSpaceOnUse">
<stop stop-color="#F8F8F8"/>
<stop offset="0.666576" stop-color="#F8F8F8" stop-opacity="0"/>
</linearGradient>
<linearGradient id="paint7_linear_5140_80882" x1="86.1752" y1="354" x2="-11.6087" y2="280.777" gradientUnits="userSpaceOnUse">
<stop offset="0.295844" stop-color="#F8F8F8" stop-opacity="0"/>
<stop offset="0.89601" stop-color="#F8F8F8"/>
</linearGradient>
<linearGradient id="paint8_linear_5140_80882" x1="510" y1="394" x2="380.577" y2="304.648" gradientUnits="userSpaceOnUse">
<stop stop-color="white" stop-opacity="0.1"/>
<stop offset="0.402603" stop-color="white" stop-opacity="0"/>
</linearGradient>
<linearGradient id="paint9_linear_5140_80882" x1="518" y1="402" x2="446.466" y2="340.043" gradientUnits="userSpaceOnUse">
<stop stop-color="white" stop-opacity="0.1"/>
<stop offset="0.402603" stop-color="white" stop-opacity="0"/>
</linearGradient>
<linearGradient id="paint10_linear_5140_80882" x1="187" y1="130.5" x2="269.461" y2="7.30883" gradientUnits="userSpaceOnUse">
<stop offset="0.481613" stop-color="#F8F8F8"/>
<stop offset="1" stop-color="#F8F8F8" stop-opacity="0"/>
</linearGradient>
<linearGradient id="paint11_linear_5140_80882" x1="182" y1="238" x2="100" y2="361" gradientUnits="userSpaceOnUse">
<stop offset="0.481613" stop-color="#F8F8F8"/>
<stop offset="1" stop-color="#F8F8F8" stop-opacity="0"/>
</linearGradient>
<clipPath id="clip0_5140_80882">
<rect width="120" height="103" fill="white" transform="translate(-22 80)"/>
</clipPath>
<clipPath id="clip1_5140_80882">
<rect width="120" height="103" fill="white" transform="matrix(-1 0 0 -1 390 291)"/>
</clipPath>
</defs>
</svg>
