<svg width="368" height="406" viewBox="0 0 368 406" fill="none" xmlns="http://www.w3.org/2000/svg">
<g clip-path="url(#clip0_5204_89124)">
<mask id="mask0_5204_89124" style="mask-type:alpha" maskUnits="userSpaceOnUse" x="0" y="0" width="368" height="368">
<circle cx="184" cy="184" r="184" fill="url(#paint0_radial_5204_89124)"/>
</mask>
<g mask="url(#mask0_5204_89124)">
<g opacity="0.1">
<circle cx="133.911" cy="33.911" r="0.911" fill="#F8F8F8"/>
<circle cx="153.733" cy="33.7328" r="0.7328" fill="#F8F8F8"/>
<circle cx="173.574" cy="33.5744" r="0.5744" fill="#F8F8F8"/>
<circle cx="193.5" cy="33.5" r="0.5" fill="#F8F8F8"/>
<circle cx="213.5" cy="33.5" r="0.5" fill="#F8F8F8"/>
<circle cx="233.5" cy="33.5" r="0.5" fill="#F8F8F8"/>
<circle cx="133.812" cy="53.812" r="0.812" fill="#F8F8F8"/>
<circle cx="153.634" cy="53.6338" r="0.6338" fill="#F8F8F8"/>
<circle cx="173.5" cy="53.5" r="0.5" fill="#F8F8F8"/>
<circle cx="193.5" cy="53.5" r="0.5" fill="#F8F8F8"/>
<circle cx="213.5" cy="53.5" r="0.5" fill="#F8F8F8"/>
<circle cx="233.5" cy="53.5" r="0.5" fill="#F8F8F8"/>
<circle cx="133.733" cy="73.7328" r="0.7328" fill="#F8F8F8"/>
<circle cx="153.555" cy="73.5546" r="0.5546" fill="#F8F8F8"/>
<circle cx="173.5" cy="73.5" r="0.5" fill="#F8F8F8"/>
<circle cx="193.5" cy="73.5" r="0.5" fill="#F8F8F8"/>
<circle cx="213.5" cy="73.5" r="0.5" fill="#F8F8F8"/>
<circle cx="233.5" cy="73.5" r="0.5" fill="#F8F8F8"/>
<circle cx="133.673" cy="93.6734" r="0.6734" fill="#F8F8F8"/>
<circle cx="153.555" cy="93.5546" r="0.5546" fill="#F8F8F8"/>
<circle cx="173.5" cy="93.5" r="0.5" fill="#F8F8F8"/>
<circle cx="193.5" cy="93.5" r="0.5" fill="#F8F8F8"/>
<circle cx="213.5" cy="93.5" r="0.5" fill="#F8F8F8"/>
<circle cx="233.5" cy="93.5" r="0.5" fill="#F8F8F8"/>
<circle cx="133.673" cy="113.673" r="0.6734" fill="#F8F8F8"/>
<circle cx="153.574" cy="113.574" r="0.5744" fill="#F8F8F8"/>
<circle cx="173.515" cy="113.515" r="0.515" fill="#F8F8F8"/>
<circle cx="193.5" cy="113.5" r="0.5" fill="#F8F8F8"/>
<circle cx="213.5" cy="113.5" r="0.5" fill="#F8F8F8"/>
<circle cx="233.5" cy="113.5" r="0.5" fill="#F8F8F8"/>
<circle cx="33.6882" cy="133.688" r="1.1882" fill="#F8F8F8"/>
<circle cx="53.5892" cy="133.589" r="1.0892" fill="#F8F8F8"/>
<circle cx="73.9902" cy="133.99" r="0.9902" fill="#F8F8F8"/>
<circle cx="293.5" cy="133.5" r="0.5" fill="#F8F8F8"/>
<circle cx="313.5" cy="133.5" r="0.5" fill="#F8F8F8"/>
<circle cx="333.5" cy="133.5" r="0.5" fill="#F8F8F8"/>
<circle cx="33.5892" cy="153.589" r="1.0892" fill="#F8F8F8"/>
<circle cx="53.5298" cy="153.53" r="1.0298" fill="#F8F8F8"/>
<circle cx="73.9506" cy="153.951" r="0.9506" fill="#F8F8F8"/>
<circle cx="293.555" cy="153.555" r="0.5546" fill="#F8F8F8"/>
<circle cx="313.5" cy="153.5" r="0.5" fill="#F8F8F8"/>
<circle cx="333.5" cy="153.5" r="0.5" fill="#F8F8F8"/>
<circle cx="33.5298" cy="173.53" r="1.0298" fill="#F8F8F8"/>
<circle cx="53.9902" cy="173.99" r="0.9902" fill="#F8F8F8"/>
<circle cx="73.9506" cy="173.951" r="0.9506" fill="#F8F8F8"/>
<circle cx="293.713" cy="173.713" r="0.713" fill="#F8F8F8"/>
<circle cx="313.634" cy="173.634" r="0.6338" fill="#F8F8F8"/>
<circle cx="333.574" cy="173.574" r="0.5744" fill="#F8F8F8"/>
<circle cx="33.9704" cy="193.97" r="0.9704" fill="#F8F8F8"/>
<circle cx="53.9506" cy="193.951" r="0.9506" fill="#F8F8F8"/>
<circle cx="73.9506" cy="193.951" r="0.9506" fill="#F8F8F8"/>
<circle cx="293.871" cy="193.871" r="0.8714" fill="#F8F8F8"/>
<circle cx="313.792" cy="193.792" r="0.7922" fill="#F8F8F8"/>
<circle cx="333.693" cy="193.693" r="0.6932" fill="#F8F8F8"/>
<circle cx="33.9506" cy="213.951" r="0.9506" fill="#F8F8F8"/>
<circle cx="53.9506" cy="213.951" r="0.9506" fill="#F8F8F8"/>
<circle cx="73.9704" cy="213.97" r="0.9704" fill="#F8F8F8"/>
<circle cx="293.51" cy="213.51" r="1.01" fill="#F8F8F8"/>
<circle cx="313.911" cy="213.911" r="0.911" fill="#F8F8F8"/>
<circle cx="333.812" cy="213.812" r="0.812" fill="#F8F8F8"/>
<circle cx="33.911" cy="233.911" r="0.911" fill="#F8F8F8"/>
<circle cx="53.9506" cy="233.951" r="0.9506" fill="#F8F8F8"/>
<circle cx="73.9902" cy="233.99" r="0.9902" fill="#F8F8F8"/>
<circle cx="293.589" cy="233.589" r="1.0892" fill="#F8F8F8"/>
<circle cx="313.51" cy="233.51" r="1.01" fill="#F8F8F8"/>
<circle cx="333.911" cy="233.911" r="0.911" fill="#F8F8F8"/>
<circle cx="133.728" cy="253.728" r="1.2278" fill="#F8F8F8"/>
<circle cx="233.807" cy="253.807" r="1.307" fill="#F8F8F8"/>
<circle cx="133.807" cy="273.807" r="1.307" fill="#F8F8F8"/>
<circle cx="233.906" cy="273.906" r="1.406" fill="#F8F8F8"/>
<circle cx="133.847" cy="293.847" r="1.3466" fill="#F8F8F8"/>
<circle cx="233.965" cy="293.965" r="1.4654" fill="#F8F8F8"/>
<circle opacity="0.3" cx="133.866" cy="313.866" r="1.3664" fill="#F8F8F8"/>
<circle opacity="0.3" cx="153.926" cy="313.926" r="1.4258" fill="#F8F8F8"/>
<circle opacity="0.3" cx="173.965" cy="313.965" r="1.4654" fill="#F8F8F8"/>
<circle opacity="0.3" cx="193.985" cy="313.985" r="1.4852" fill="#F8F8F8"/>
<circle opacity="0.3" cx="213.505" cy="313.505" r="1.505" fill="#F8F8F8"/>
<circle opacity="0.3" cx="233.505" cy="313.505" r="1.505" fill="#F8F8F8"/>
<circle opacity="0.3" cx="133.866" cy="333.866" r="1.3664" fill="#F8F8F8"/>
<circle opacity="0.3" cx="153.926" cy="333.926" r="1.4258" fill="#F8F8F8"/>
<circle opacity="0.3" cx="173.965" cy="333.965" r="1.4654" fill="#F8F8F8"/>
<circle opacity="0.3" cx="193.985" cy="333.985" r="1.4852" fill="#F8F8F8"/>
<circle opacity="0.3" cx="213.505" cy="333.505" r="1.505" fill="#F8F8F8"/>
<circle opacity="0.3" cx="233.505" cy="333.505" r="1.505" fill="#F8F8F8"/>
</g>
</g>
</g>
<mask id="mask1_5204_89124" style="mask-type:alpha" maskUnits="userSpaceOnUse" x="0" y="0" width="368" height="368">
<circle cx="184" cy="184" r="184" fill="url(#paint1_radial_5204_89124)"/>
</mask>
<g mask="url(#mask1_5204_89124)">
<rect x="273.5" y="273" width="120" height="120" rx="24" stroke="#F8F8F8" stroke-opacity="0.1" stroke-width="1.5"/>
<rect x="-24" y="-24" width="120" height="120" rx="24" stroke="#F8F8F8" stroke-opacity="0.1" stroke-width="1.5"/>
<path d="M89 277L98.1225 267.915" stroke="#F8F8F8" stroke-width="1.5"/>
<path d="M275.5 94.5L288 82" stroke="#F8F8F8" stroke-width="1.5"/>
</g>
<g filter="url(#filter0_di_5204_89124)">
<path d="M243.857 192.861L247.662 193.64L252.348 194.6C253.909 194.92 254.69 195.079 255.326 195.305C259.435 196.759 262.079 200.765 261.801 205.116C261.758 205.789 261.598 206.57 261.279 208.131C261.052 209.237 260.939 209.79 260.782 210.283C259.785 213.418 257.274 215.838 254.105 216.72C253.608 216.859 253.051 216.952 251.937 217.138L251.936 217.138L250.215 217.425C248.257 217.752 247.277 217.916 246.316 217.949C243.918 218.031 241.536 217.521 239.382 216.465C238.518 216.042 237.691 215.492 236.038 214.392L235.141 213.795C234.17 213.149 233.684 212.826 233.274 212.482C230.817 210.427 229.527 207.296 229.823 204.107C229.872 203.574 229.989 203.003 230.223 201.86C230.559 200.219 230.727 199.398 230.969 198.731C232.435 194.68 236.386 192.072 240.688 192.317C241.396 192.357 242.216 192.525 243.857 192.861Z" fill="#F8F8F8" fill-opacity="0.01" shape-rendering="crispEdges"/>
</g>
<path opacity="0.3" d="M-19.0005 249L81.9371 249C82.9422 249 83.8976 248.622 84.6364 247.94L103.712 230.342C104.533 229.585 105 228.519 105 227.402L105 184.5L105 141.598C105 140.481 104.533 139.415 103.712 138.658L84.6364 121.06C83.8976 120.378 82.9422 120 81.9371 120L-19.0005 120C-21.2096 120 -23 121.791 -23 124L-23 245C-23 247.209 -21.2096 249 -19.0005 249Z" fill="url(#paint2_linear_5204_89124)"/>
<path opacity="0.3" d="M389 249L288.063 249C287.058 249 286.102 248.622 285.364 247.94L266.288 230.342C265.467 229.585 265 228.519 265 227.402L265 184.5L265 141.598C265 140.481 265.467 139.415 266.288 138.658L285.364 121.06C286.102 120.378 287.058 120 288.063 120L389.001 120C391.21 120 393 121.791 393 124L393 245C393 247.209 391.21 249 389 249Z" fill="url(#paint3_linear_5204_89124)"/>
<path opacity="0.5" d="M249.5 388.5L249.5 287.563C249.5 286.558 249.122 285.602 248.44 284.864L230.842 265.788C230.085 264.967 229.019 264.5 227.902 264.5L185 264.5L142.098 264.5C140.981 264.5 139.915 264.967 139.158 265.788L121.56 284.864C120.878 285.602 120.5 286.558 120.5 287.563L120.5 388.501C120.5 390.71 122.291 392.5 124.5 392.5L245.5 392.5C247.709 392.5 249.5 390.71 249.5 388.5Z" fill="url(#paint4_linear_5204_89124)"/>
<path opacity="0.3" d="M249.5 388.5L249.5 287.563C249.5 286.558 249.122 285.602 248.44 284.864L230.842 265.788C230.085 264.967 229.019 264.5 227.902 264.5L185 264.5L142.098 264.5C140.981 264.5 139.915 264.967 139.158 265.788L121.56 284.864C120.878 285.602 120.5 286.558 120.5 287.563L120.5 388.501C120.5 390.71 122.291 392.5 124.5 392.5L245.5 392.5C247.709 392.5 249.5 390.71 249.5 388.5Z" stroke="url(#paint5_linear_5204_89124)" stroke-width="1.5"/>
<path opacity="0.5" d="M249.5 -19.5005L249.5 81.4371C249.5 82.4422 249.122 83.3976 248.44 84.1364L230.842 103.212C230.085 104.033 229.019 104.5 227.902 104.5H185H142.098C140.981 104.5 139.915 104.033 139.158 103.212L121.56 84.1364C120.878 83.3976 120.5 82.4422 120.5 81.4371L120.5 -19.5005C120.5 -21.7096 122.291 -23.5 124.5 -23.5H245.5C247.709 -23.5 249.5 -21.7096 249.5 -19.5005Z" fill="url(#paint6_linear_5204_89124)"/>
<path opacity="0.3" d="M249.5 -19.5005L249.5 81.4371C249.5 82.4422 249.122 83.3976 248.44 84.1364L230.842 103.212C230.085 104.033 229.019 104.5 227.902 104.5H185H142.098C140.981 104.5 139.915 104.033 139.158 103.212L121.56 84.1364C120.878 83.3976 120.5 82.4422 120.5 81.4371L120.5 -19.5005C120.5 -21.7096 122.291 -23.5 124.5 -23.5H245.5C247.709 -23.5 249.5 -21.7096 249.5 -19.5005Z" stroke="url(#paint7_linear_5204_89124)" stroke-width="1.5"/>
<path d="M-34.4373 307.292L52.0636 307.292C56.3071 307.292 60.3767 305.607 63.3773 302.606L122.419 243.564" stroke="url(#paint8_linear_5204_89124)" stroke-opacity="0.1" stroke-width="1.5"/>
<path opacity="0.3" d="M62.2266 405.082L62.2266 317.455C62.2266 313.212 63.9123 309.142 66.9129 306.142L125.601 247.453" stroke="#F8F8F8" stroke-opacity="0.05" stroke-width="1.5"/>
<path d="M402.519 60.7893L316.018 60.7893C311.774 60.7893 307.705 62.475 304.704 65.4756L245.662 124.517" stroke="url(#paint9_linear_5204_89124)" stroke-opacity="0.1" stroke-width="1.5"/>
<path opacity="0.3" d="M305.855 -37L305.855 50.6263C305.855 54.8698 304.169 58.9394 301.169 61.94L242.48 120.628" stroke="#F8F8F8" stroke-opacity="0.05" stroke-width="1.5"/>
<defs>
<filter id="filter0_di_5204_89124" x="220.033" y="192.301" width="51.5368" height="74.3982" filterUnits="userSpaceOnUse" color-interpolation-filters="sRGB">
<feFlood flood-opacity="0" result="BackgroundImageFix"/>
<feColorMatrix in="SourceAlpha" type="matrix" values="0 0 0 0 0 0 0 0 0 0 0 0 0 0 0 0 0 0 127 0" result="hardAlpha"/>
<feMorphology radius="19.4967" operator="erode" in="SourceAlpha" result="effect1_dropShadow_5204_89124"/>
<feOffset dy="38.9934"/>
<feGaussianBlur stdDeviation="14.6225"/>
<feComposite in2="hardAlpha" operator="out"/>
<feColorMatrix type="matrix" values="0 0 0 0 0 0 0 0 0 0 0 0 0 0 0 0 0 0 0.4 0"/>
<feBlend mode="multiply" in2="BackgroundImageFix" result="effect1_dropShadow_5204_89124"/>
<feBlend mode="normal" in="SourceGraphic" in2="effect1_dropShadow_5204_89124" result="shape"/>
<feColorMatrix in="SourceAlpha" type="matrix" values="0 0 0 0 0 0 0 0 0 0 0 0 0 0 0 0 0 0 127 0" result="hardAlpha"/>
<feOffset/>
<feGaussianBlur stdDeviation="4.87417"/>
<feComposite in2="hardAlpha" operator="arithmetic" k2="-1" k3="1"/>
<feColorMatrix type="matrix" values="0 0 0 0 0.972549 0 0 0 0 0.972549 0 0 0 0 0.972549 0 0 0 0.25 0"/>
<feBlend mode="normal" in2="shape" result="effect2_innerShadow_5204_89124"/>
</filter>
<radialGradient id="paint0_radial_5204_89124" cx="0" cy="0" r="1" gradientUnits="userSpaceOnUse" gradientTransform="translate(184 184) rotate(90) scale(184)">
<stop offset="0.433142" stop-color="#737373" stop-opacity="0"/>
<stop offset="1" stop-color="#D9D9D9"/>
</radialGradient>
<radialGradient id="paint1_radial_5204_89124" cx="0" cy="0" r="1" gradientUnits="userSpaceOnUse" gradientTransform="translate(184 184) rotate(90) scale(184)">
<stop stop-color="#D9D9D9"/>
<stop offset="1" stop-color="#737373" stop-opacity="0"/>
</radialGradient>
<linearGradient id="paint2_linear_5204_89124" x1="-23" y1="184.5" x2="105" y2="184.5" gradientUnits="userSpaceOnUse">
<stop offset="0.522974" stop-color="#F8F8F8" stop-opacity="0"/>
<stop offset="1" stop-color="#F8F8F8" stop-opacity="0.1"/>
</linearGradient>
<linearGradient id="paint3_linear_5204_89124" x1="393" y1="184.5" x2="265" y2="184.5" gradientUnits="userSpaceOnUse">
<stop offset="0.522974" stop-color="#F8F8F8" stop-opacity="0"/>
<stop offset="1" stop-color="#F8F8F8" stop-opacity="0.1"/>
</linearGradient>
<linearGradient id="paint4_linear_5204_89124" x1="185" y1="392.5" x2="185" y2="264.5" gradientUnits="userSpaceOnUse">
<stop offset="0.522974" stop-color="#F8F8F8" stop-opacity="0"/>
<stop offset="1" stop-color="#F8F8F8" stop-opacity="0.1"/>
</linearGradient>
<linearGradient id="paint5_linear_5204_89124" x1="185" y1="392.5" x2="185" y2="264.5" gradientUnits="userSpaceOnUse">
<stop offset="0.25" stop-color="#F8F8F8" stop-opacity="0"/>
<stop offset="1" stop-color="white" stop-opacity="0.1"/>
</linearGradient>
<linearGradient id="paint6_linear_5204_89124" x1="185" y1="-23.5" x2="185" y2="104.5" gradientUnits="userSpaceOnUse">
<stop offset="0.522974" stop-color="#F8F8F8" stop-opacity="0"/>
<stop offset="1" stop-color="#F8F8F8" stop-opacity="0.1"/>
</linearGradient>
<linearGradient id="paint7_linear_5204_89124" x1="185" y1="-23.5" x2="185" y2="104.5" gradientUnits="userSpaceOnUse">
<stop offset="0.25" stop-color="#F8F8F8" stop-opacity="0"/>
<stop offset="1" stop-color="white" stop-opacity="0.1"/>
</linearGradient>
<linearGradient id="paint8_linear_5204_89124" x1="122" y1="246.5" x2="3.00001" y2="307" gradientUnits="userSpaceOnUse">
<stop offset="0.481613" stop-color="#F8F8F8"/>
<stop offset="1" stop-color="#F8F8F8" stop-opacity="0"/>
</linearGradient>
<linearGradient id="paint9_linear_5204_89124" x1="246" y1="127" x2="367.5" y2="59.5001" gradientUnits="userSpaceOnUse">
<stop offset="0.481613" stop-color="#F8F8F8"/>
<stop offset="1" stop-color="#F8F8F8" stop-opacity="0"/>
</linearGradient>
<clipPath id="clip0_5204_89124">
<rect width="336" height="336" fill="white" transform="translate(16 16)"/>
</clipPath>
</defs>
</svg>
