<svg width="492" height="553" viewBox="0 0 492 553" fill="none" xmlns="http://www.w3.org/2000/svg">
<circle opacity="0.5" cx="240.228" cy="187.172" r="0.302844" transform="rotate(126.513 240.228 187.172)" fill="url(#paint0_linear_5144_95331)"/>
<circle opacity="0.5" cx="223.269" cy="179.298" r="0.302844" transform="rotate(126.513 223.269 179.298)" fill="url(#paint1_linear_5144_95331)"/>
<circle opacity="0.5" cx="270.513" cy="195.652" r="0.302844" transform="rotate(126.513 270.513 195.652)" fill="url(#paint2_linear_5144_95331)"/>
<circle opacity="0.5" cx="247.497" cy="175.664" r="0.302844" transform="rotate(126.513 247.497 175.664)" fill="url(#paint3_linear_5144_95331)"/>
<circle opacity="0.5" cx="218.424" cy="188.383" r="0.302844" transform="rotate(126.513 218.424 188.383)" fill="url(#paint4_linear_5144_95331)"/>
<circle opacity="0.5" cx="260.639" cy="195.227" r="1.81706" transform="rotate(90 260.639 195.227)" fill="url(#paint5_linear_5144_95331)"/>
<circle opacity="0.5" cx="229.447" cy="186.445" r="1.51422" transform="rotate(90 229.447 186.445)" fill="url(#paint6_linear_5144_95331)"/>
<circle cx="266.697" cy="171.606" r="0.605687" transform="rotate(90 266.697 171.606)" fill="url(#paint7_linear_5144_95331)"/>
<circle opacity="0.5" cx="259.785" cy="185.785" r="0.605687" transform="rotate(40.5342 259.785 185.785)" fill="url(#paint8_linear_5144_95331)"/>
<circle opacity="0.5" cx="234.959" cy="180.326" r="0.605687" transform="rotate(126.513 234.959 180.326)" fill="url(#paint9_linear_5144_95331)"/>
<circle opacity="0.5" cx="257.611" cy="172.817" r="0.605687" transform="rotate(90 257.611 172.817)" fill="url(#paint10_linear_5144_95331)"/>
<circle opacity="0.5" cx="250.343" cy="192.805" r="0.605687" transform="rotate(90 250.343 192.805)" fill="url(#paint11_linear_5144_95331)"/>
<circle cx="270.706" cy="183.831" r="1.65266" transform="rotate(145.989 270.706 183.831)" fill="white" fill-opacity="0.15"/>
<circle cx="244.286" cy="181.297" r="1.21137" transform="rotate(90 244.286 181.297)" fill="url(#paint12_linear_5144_95331)"/>
<path opacity="0.3" d="M167 4.98865L167 130.102C167 131.106 167.378 132.023 168.058 132.762L190.119 156.71C190.877 157.532 191.944 158 193.061 158L246 158L298.939 158C300.056 158 301.123 157.532 301.881 156.71L323.942 132.762C324.622 132.023 325 131.106 325 130.102L325 4.98866C325 2.77952 323.209 1 321 1L171 1C168.791 1 167 2.77952 167 4.98865Z" stroke="url(#paint13_linear_5144_95331)" stroke-width="1.5"/>
<path opacity="0.3" d="M1 4.98865L0.999995 130.102C0.999995 131.106 1.37769 132.023 2.05805 132.762L24.1195 156.71C24.8768 157.532 25.9436 158 27.0614 158L80 158L132.939 158C134.056 158 135.123 157.532 135.881 156.71L157.942 132.762C158.622 132.023 159 131.106 159 130.102L159 4.98866C159 2.77952 157.209 1 155 1L5 1C2.79086 1 1 2.77952 1 4.98865Z" stroke="url(#paint14_linear_5144_95331)" stroke-width="1.5"/>
<path opacity="0.3" d="M167 4.98865L167 130.102C167 131.106 167.378 132.023 168.058 132.762L190.119 156.71C190.877 157.532 191.944 158 193.061 158L246 158L298.939 158C300.056 158 301.123 157.532 301.881 156.71L323.942 132.762C324.622 132.023 325 131.106 325 130.102L325 4.98866C325 2.77952 323.209 1 321 1L171 1C168.791 1 167 2.77952 167 4.98865Z" fill="url(#paint15_linear_5144_95331)"/>
<g filter="url(#filter0_bdi_5144_95331)">
<circle cx="246" cy="158" r="6" transform="rotate(180 246 158)" fill="#F8F8F8" fill-opacity="0.01" shape-rendering="crispEdges"/>
<circle cx="246" cy="158" r="6" transform="rotate(180 246 158)" fill="#121212" fill-opacity="0.3" shape-rendering="crispEdges"/>
<circle cx="246" cy="158" r="5.25" transform="rotate(180 246 158)" stroke="url(#paint16_linear_5144_95331)" stroke-opacity="0.25" stroke-width="1.5" shape-rendering="crispEdges"/>
</g>
<circle cx="246" cy="158" r="3" transform="rotate(180 246 158)" fill="#F8F8F8"/>
<path opacity="0.3" d="M333 4.98865L333 130.102C333 131.106 333.378 132.023 334.058 132.762L356.119 156.71C356.877 157.532 357.944 158 359.061 158L412 158L464.939 158C466.056 158 467.123 157.532 467.881 156.71L489.942 132.762C490.622 132.023 491 131.106 491 130.102L491 4.98866C491 2.77952 489.209 1 487 1L337 1C334.791 1 333 2.77952 333 4.98865Z" stroke="url(#paint17_linear_5144_95331)" stroke-width="1.5"/>
<path opacity="0.3" d="M135 521.502L135 396.398C135 395.394 135.378 394.477 136.058 393.738L158.129 369.78C158.881 368.964 159.938 368.496 161.048 368.49L246 368L330.939 368C332.056 368 333.123 368.468 333.881 369.29L355.942 393.238C356.622 393.977 357 394.894 357 395.898L357 521.02C357 523.226 355.215 525.004 353.009 525.009L139.009 525.491C136.796 525.496 135 523.715 135 521.502Z" fill="url(#paint18_linear_5144_95331)"/>
<path opacity="0.3" d="M135 521.502L135 396.398C135 395.394 135.378 394.477 136.058 393.738L158.129 369.78C158.881 368.964 159.938 368.496 161.048 368.49L246 368L330.939 368C332.056 368 333.123 368.468 333.881 369.29L355.942 393.238C356.622 393.977 357 394.894 357 395.898L357 521.02C357 523.226 355.215 525.004 353.009 525.009L139.009 525.491C136.796 525.496 135 523.715 135 521.502Z" stroke="url(#paint19_linear_5144_95331)" stroke-width="1.5"/>
<mask id="mask0_5144_95331" style="mask-type:alpha" maskUnits="userSpaceOnUse" x="135" y="368" width="222" height="158">
<path opacity="0.1" d="M135 521.502L135 396.398C135 395.394 135.378 394.477 136.058 393.738L158.129 369.78C158.881 368.964 159.938 368.496 161.048 368.49L246 368L330.939 368C332.056 368 333.123 368.468 333.881 369.29L355.942 393.238C356.622 393.977 357 394.894 357 395.898L357 521.02C357 523.226 355.215 525.004 353.009 525.009L139.009 525.491C136.796 525.496 135 523.715 135 521.502Z" fill="#F8F8F8"/>
</mask>
<g mask="url(#mask0_5144_95331)">
<circle cx="135.55" cy="376.55" r="1.0496" fill="#F8F8F8"/>
<circle cx="155.911" cy="376.911" r="0.911" fill="#F8F8F8"/>
<circle cx="175.812" cy="376.812" r="0.812" fill="#F8F8F8"/>
<circle cx="195.673" cy="376.673" r="0.6734" fill="#F8F8F8"/>
<circle cx="215.574" cy="376.574" r="0.5744" fill="#F8F8F8"/>
<circle cx="235.515" cy="376.515" r="0.515" fill="#F8F8F8"/>
<circle cx="255.5" cy="376.5" r="0.5" fill="#F8F8F8"/>
<circle cx="275.5" cy="376.5" r="0.5" fill="#F8F8F8"/>
<circle cx="295.5" cy="376.5" r="0.5" fill="#F8F8F8"/>
<circle cx="315.5" cy="376.5" r="0.5" fill="#F8F8F8"/>
<circle cx="335.5" cy="376.5" r="0.5" fill="#F8F8F8"/>
<circle cx="355.5" cy="376.5" r="0.5" fill="#F8F8F8"/>
<circle cx="135.99" cy="396.99" r="0.9902" fill="#F8F8F8"/>
<circle cx="155.891" cy="396.891" r="0.8912" fill="#F8F8F8"/>
<circle cx="175.812" cy="396.812" r="0.812" fill="#F8F8F8"/>
<circle cx="195.733" cy="396.733" r="0.7328" fill="#F8F8F8"/>
<circle cx="215.654" cy="396.654" r="0.6536" fill="#F8F8F8"/>
<circle cx="235.614" cy="396.614" r="0.614" fill="#F8F8F8"/>
<circle cx="255.574" cy="396.574" r="0.5744" fill="#F8F8F8"/>
<circle cx="275.535" cy="396.535" r="0.5348" fill="#F8F8F8"/>
<circle cx="295.515" cy="396.515" r="0.515" fill="#F8F8F8"/>
<circle cx="315.5" cy="396.5" r="0.5" fill="#F8F8F8"/>
<circle cx="335.5" cy="396.5" r="0.5" fill="#F8F8F8"/>
<circle cx="355.5" cy="396.5" r="0.5" fill="#F8F8F8"/>
<circle cx="135.951" cy="416.951" r="0.9506" fill="#F8F8F8"/>
<circle cx="155.891" cy="416.891" r="0.8912" fill="#F8F8F8"/>
<circle cx="175.852" cy="416.852" r="0.8516" fill="#F8F8F8"/>
<circle cx="195.812" cy="416.812" r="0.812" fill="#F8F8F8"/>
<circle cx="215.772" cy="416.772" r="0.7724" fill="#F8F8F8"/>
<circle cx="235.753" cy="416.753" r="0.7526" fill="#F8F8F8"/>
<circle cx="255.733" cy="416.733" r="0.7328" fill="#F8F8F8"/>
<circle cx="275.693" cy="416.693" r="0.6932" fill="#F8F8F8"/>
<circle cx="295.673" cy="416.673" r="0.6734" fill="#F8F8F8"/>
<circle cx="315.654" cy="416.654" r="0.6536" fill="#F8F8F8"/>
<circle cx="335.614" cy="416.614" r="0.614" fill="#F8F8F8"/>
<circle cx="355.555" cy="416.555" r="0.5546" fill="#F8F8F8"/>
<circle cx="135.951" cy="436.951" r="0.9506" fill="#F8F8F8"/>
<circle cx="155.911" cy="436.911" r="0.911" fill="#F8F8F8"/>
<circle cx="175.891" cy="436.891" r="0.8912" fill="#F8F8F8"/>
<circle cx="195.891" cy="436.891" r="0.8912" fill="#F8F8F8"/>
<circle cx="215.891" cy="436.891" r="0.8912" fill="#F8F8F8"/>
<circle cx="235.871" cy="436.871" r="0.8714" fill="#F8F8F8"/>
<circle cx="255.852" cy="436.852" r="0.8516" fill="#F8F8F8"/>
<circle cx="275.852" cy="436.852" r="0.8516" fill="#F8F8F8"/>
<circle cx="295.832" cy="436.832" r="0.8318" fill="#F8F8F8"/>
<circle cx="315.812" cy="436.812" r="0.812" fill="#F8F8F8"/>
<circle cx="335.772" cy="436.772" r="0.7724" fill="#F8F8F8"/>
<circle cx="355.713" cy="436.713" r="0.713" fill="#F8F8F8"/>
<circle cx="135.951" cy="456.951" r="0.9506" fill="#F8F8F8"/>
<circle cx="155.951" cy="456.951" r="0.9506" fill="#F8F8F8"/>
<circle cx="175.97" cy="456.97" r="0.9704" fill="#F8F8F8"/>
<circle cx="195.99" cy="456.99" r="0.9902" fill="#F8F8F8"/>
<circle cx="215.99" cy="456.99" r="0.9902" fill="#F8F8F8"/>
<circle cx="235.51" cy="456.51" r="1.01" fill="#F8F8F8"/>
<circle cx="255.51" cy="456.51" r="1.01" fill="#F8F8F8"/>
<circle cx="275.99" cy="456.99" r="0.9902" fill="#F8F8F8"/>
<circle cx="295.99" cy="456.99" r="0.9902" fill="#F8F8F8"/>
<circle cx="315.951" cy="456.951" r="0.9506" fill="#F8F8F8"/>
<circle cx="335.911" cy="456.911" r="0.911" fill="#F8F8F8"/>
<circle cx="355.871" cy="456.871" r="0.8714" fill="#F8F8F8"/>
<circle cx="135.97" cy="476.97" r="0.9704" fill="#F8F8F8"/>
<circle cx="155.51" cy="476.51" r="1.01" fill="#F8F8F8"/>
<circle cx="175.53" cy="476.53" r="1.0298" fill="#F8F8F8"/>
<circle cx="195.569" cy="476.569" r="1.0694" fill="#F8F8F8"/>
<circle cx="215.609" cy="476.609" r="1.109" fill="#F8F8F8"/>
<circle cx="235.629" cy="476.629" r="1.1288" fill="#F8F8F8"/>
<circle cx="255.629" cy="476.629" r="1.1288" fill="#F8F8F8"/>
<circle cx="275.629" cy="476.629" r="1.1288" fill="#F8F8F8"/>
<circle cx="295.609" cy="476.609" r="1.109" fill="#F8F8F8"/>
<circle cx="315.589" cy="476.589" r="1.0892" fill="#F8F8F8"/>
<circle cx="335.55" cy="476.55" r="1.0496" fill="#F8F8F8"/>
<circle cx="355.51" cy="476.51" r="1.01" fill="#F8F8F8"/>
<circle cx="135.99" cy="496.99" r="0.9902" fill="#F8F8F8"/>
<circle cx="155.55" cy="496.55" r="1.0496" fill="#F8F8F8"/>
<circle cx="175.609" cy="496.609" r="1.109" fill="#F8F8F8"/>
<circle cx="195.649" cy="496.649" r="1.1486" fill="#F8F8F8"/>
<circle cx="215.688" cy="496.688" r="1.1882" fill="#F8F8F8"/>
<circle cx="235.708" cy="496.708" r="1.208" fill="#F8F8F8"/>
<circle cx="255.728" cy="496.728" r="1.2278" fill="#F8F8F8"/>
<circle cx="275.728" cy="496.728" r="1.2278" fill="#F8F8F8"/>
<circle cx="295.708" cy="496.708" r="1.208" fill="#F8F8F8"/>
<circle cx="315.688" cy="496.688" r="1.1882" fill="#F8F8F8"/>
<circle cx="335.649" cy="496.649" r="1.1486" fill="#F8F8F8"/>
<circle cx="355.589" cy="496.589" r="1.0892" fill="#F8F8F8"/>
<circle cx="135.53" cy="516.53" r="1.0298" fill="#F8F8F8"/>
<circle cx="155.609" cy="516.609" r="1.109" fill="#F8F8F8"/>
<circle cx="175.668" cy="516.668" r="1.1684" fill="#F8F8F8"/>
<circle cx="195.728" cy="516.728" r="1.2278" fill="#F8F8F8"/>
<circle cx="215.787" cy="516.787" r="1.2872" fill="#F8F8F8"/>
<circle cx="235.807" cy="516.807" r="1.307" fill="#F8F8F8"/>
<circle cx="255.827" cy="516.827" r="1.3268" fill="#F8F8F8"/>
<circle cx="275.827" cy="516.827" r="1.3268" fill="#F8F8F8"/>
<circle cx="295.807" cy="516.807" r="1.307" fill="#F8F8F8"/>
<circle cx="315.787" cy="516.787" r="1.2872" fill="#F8F8F8"/>
<circle cx="335.748" cy="516.748" r="1.2476" fill="#F8F8F8"/>
<circle cx="355.708" cy="516.708" r="1.208" fill="#F8F8F8"/>
</g>
<g filter="url(#filter1_bdi_5144_95331)">
<circle cx="6" cy="6" r="6" transform="matrix(-1 0 0 1 252 362)" fill="#F8F8F8" fill-opacity="0.01" shape-rendering="crispEdges"/>
<circle cx="6" cy="6" r="6" transform="matrix(-1 0 0 1 252 362)" fill="#121212" fill-opacity="0.3" shape-rendering="crispEdges"/>
<circle cx="6" cy="6" r="5.25" transform="matrix(-1 0 0 1 252 362)" stroke="url(#paint20_linear_5144_95331)" stroke-opacity="0.25" stroke-width="1.5" shape-rendering="crispEdges"/>
</g>
<circle cx="3" cy="3" r="3" transform="matrix(-1 0 0 1 249 365)" fill="#F8F8F8"/>
<path opacity="0.5" d="M246 184L246 193.728C246 196.469 244.451 198.974 242 200.2V200.2C239.549 201.426 238 203.931 238 206.672L238 213" stroke="url(#paint21_linear_5144_95331)" stroke-width="1.5"/>
<path opacity="0.5" d="M246 158L246 193.728C246 196.469 247.549 198.974 250 200.2V200.2C252.452 201.426 254 203.931 254 206.672L254 213" stroke="url(#paint22_linear_5144_95331)" stroke-width="1.5"/>
<path opacity="0.5" d="M246 343L246 333.272C246 330.531 244.451 328.026 242 326.8V326.8C239.549 325.574 238 323.069 238 320.328L238 314" stroke="url(#paint23_linear_5144_95331)" stroke-width="1.5"/>
<path opacity="0.5" d="M246 369L246 333.272C246 330.531 247.549 328.026 250 326.8V326.8C252.452 325.574 254 323.069 254 320.328L254 314" stroke="url(#paint24_linear_5144_95331)" stroke-width="1.5"/>
<path d="M246 183L246 195" stroke="#F8F8F8" stroke-width="1.5"/>
<defs>
<filter id="filter0_bdi_5144_95331" x="232" y="144" width="28" height="46.6667" filterUnits="userSpaceOnUse" color-interpolation-filters="sRGB">
<feFlood flood-opacity="0" result="BackgroundImageFix"/>
<feGaussianBlur in="BackgroundImageFix" stdDeviation="4"/>
<feComposite in2="SourceAlpha" operator="in" result="effect1_backgroundBlur_5144_95331"/>
<feColorMatrix in="SourceAlpha" type="matrix" values="0 0 0 0 0 0 0 0 0 0 0 0 0 0 0 0 0 0 127 0" result="hardAlpha"/>
<feMorphology radius="10.6667" operator="erode" in="SourceAlpha" result="effect2_dropShadow_5144_95331"/>
<feOffset dy="21.3333"/>
<feGaussianBlur stdDeviation="8"/>
<feComposite in2="hardAlpha" operator="out"/>
<feColorMatrix type="matrix" values="0 0 0 0 0 0 0 0 0 0 0 0 0 0 0 0 0 0 0.4 0"/>
<feBlend mode="multiply" in2="effect1_backgroundBlur_5144_95331" result="effect2_dropShadow_5144_95331"/>
<feBlend mode="normal" in="SourceGraphic" in2="effect2_dropShadow_5144_95331" result="shape"/>
<feColorMatrix in="SourceAlpha" type="matrix" values="0 0 0 0 0 0 0 0 0 0 0 0 0 0 0 0 0 0 127 0" result="hardAlpha"/>
<feOffset/>
<feGaussianBlur stdDeviation="2.66667"/>
<feComposite in2="hardAlpha" operator="arithmetic" k2="-1" k3="1"/>
<feColorMatrix type="matrix" values="0 0 0 0 0.972549 0 0 0 0 0.972549 0 0 0 0 0.972549 0 0 0 0.25 0"/>
<feBlend mode="normal" in2="shape" result="effect3_innerShadow_5144_95331"/>
</filter>
<filter id="filter1_bdi_5144_95331" x="232" y="354" width="28" height="46.6667" filterUnits="userSpaceOnUse" color-interpolation-filters="sRGB">
<feFlood flood-opacity="0" result="BackgroundImageFix"/>
<feGaussianBlur in="BackgroundImageFix" stdDeviation="4"/>
<feComposite in2="SourceAlpha" operator="in" result="effect1_backgroundBlur_5144_95331"/>
<feColorMatrix in="SourceAlpha" type="matrix" values="0 0 0 0 0 0 0 0 0 0 0 0 0 0 0 0 0 0 127 0" result="hardAlpha"/>
<feMorphology radius="10.6667" operator="erode" in="SourceAlpha" result="effect2_dropShadow_5144_95331"/>
<feOffset dy="21.3333"/>
<feGaussianBlur stdDeviation="8"/>
<feComposite in2="hardAlpha" operator="out"/>
<feColorMatrix type="matrix" values="0 0 0 0 0 0 0 0 0 0 0 0 0 0 0 0 0 0 0.4 0"/>
<feBlend mode="multiply" in2="effect1_backgroundBlur_5144_95331" result="effect2_dropShadow_5144_95331"/>
<feBlend mode="normal" in="SourceGraphic" in2="effect2_dropShadow_5144_95331" result="shape"/>
<feColorMatrix in="SourceAlpha" type="matrix" values="0 0 0 0 0 0 0 0 0 0 0 0 0 0 0 0 0 0 127 0" result="hardAlpha"/>
<feOffset/>
<feGaussianBlur stdDeviation="2.66667"/>
<feComposite in2="hardAlpha" operator="arithmetic" k2="-1" k3="1"/>
<feColorMatrix type="matrix" values="0 0 0 0 0.972549 0 0 0 0 0.972549 0 0 0 0 0.972549 0 0 0 0.25 0"/>
<feBlend mode="normal" in2="shape" result="effect3_innerShadow_5144_95331"/>
</filter>
<linearGradient id="paint0_linear_5144_95331" x1="240.43" y1="186.667" x2="240.077" y2="187.424" gradientUnits="userSpaceOnUse">
<stop offset="0.173306" stop-color="white" stop-opacity="0"/>
<stop offset="1" stop-color="white" stop-opacity="0.3"/>
</linearGradient>
<linearGradient id="paint1_linear_5144_95331" x1="223.471" y1="178.793" x2="223.118" y2="179.55" gradientUnits="userSpaceOnUse">
<stop offset="0.173306" stop-color="white" stop-opacity="0"/>
<stop offset="1" stop-color="white" stop-opacity="0.3"/>
</linearGradient>
<linearGradient id="paint2_linear_5144_95331" x1="270.715" y1="195.147" x2="270.361" y2="195.904" gradientUnits="userSpaceOnUse">
<stop offset="0.173306" stop-color="white" stop-opacity="0"/>
<stop offset="1" stop-color="white" stop-opacity="0.3"/>
</linearGradient>
<linearGradient id="paint3_linear_5144_95331" x1="247.698" y1="175.159" x2="247.345" y2="175.916" gradientUnits="userSpaceOnUse">
<stop offset="0.173306" stop-color="white" stop-opacity="0"/>
<stop offset="1" stop-color="white" stop-opacity="0.3"/>
</linearGradient>
<linearGradient id="paint4_linear_5144_95331" x1="218.625" y1="187.879" x2="218.272" y2="188.636" gradientUnits="userSpaceOnUse">
<stop offset="0.173306" stop-color="white" stop-opacity="0"/>
<stop offset="1" stop-color="white" stop-opacity="0.3"/>
</linearGradient>
<linearGradient id="paint5_linear_5144_95331" x1="261.851" y1="193.41" x2="258.822" y2="197.65" gradientUnits="userSpaceOnUse">
<stop stop-color="white" stop-opacity="0.3"/>
<stop offset="0.826694" stop-color="white" stop-opacity="0"/>
</linearGradient>
<linearGradient id="paint6_linear_5144_95331" x1="230.456" y1="183.921" x2="228.69" y2="187.707" gradientUnits="userSpaceOnUse">
<stop stop-color="white" stop-opacity="0.3"/>
<stop offset="0.826694" stop-color="white" stop-opacity="0"/>
</linearGradient>
<linearGradient id="paint7_linear_5144_95331" x1="267.1" y1="170.596" x2="266.394" y2="172.11" gradientUnits="userSpaceOnUse">
<stop offset="0.173306" stop-color="white" stop-opacity="0"/>
<stop offset="1" stop-color="white" stop-opacity="0.3"/>
</linearGradient>
<linearGradient id="paint8_linear_5144_95331" x1="260.189" y1="184.775" x2="259.483" y2="186.29" gradientUnits="userSpaceOnUse">
<stop offset="0.173306" stop-color="white" stop-opacity="0"/>
<stop offset="1" stop-color="white" stop-opacity="0.3"/>
</linearGradient>
<linearGradient id="paint9_linear_5144_95331" x1="235.363" y1="179.317" x2="234.656" y2="180.831" gradientUnits="userSpaceOnUse">
<stop offset="0.173306" stop-color="white" stop-opacity="0"/>
<stop offset="1" stop-color="white" stop-opacity="0.3"/>
</linearGradient>
<linearGradient id="paint10_linear_5144_95331" x1="258.015" y1="171.808" x2="257.308" y2="173.322" gradientUnits="userSpaceOnUse">
<stop offset="0.173306" stop-color="white" stop-opacity="0"/>
<stop offset="1" stop-color="white" stop-opacity="0.3"/>
</linearGradient>
<linearGradient id="paint11_linear_5144_95331" x1="250.747" y1="191.795" x2="250.04" y2="193.309" gradientUnits="userSpaceOnUse">
<stop offset="0.173306" stop-color="white" stop-opacity="0"/>
<stop offset="1" stop-color="white" stop-opacity="0.3"/>
</linearGradient>
<linearGradient id="paint12_linear_5144_95331" x1="245.094" y1="179.278" x2="243.68" y2="182.306" gradientUnits="userSpaceOnUse">
<stop stop-color="white" stop-opacity="0.3"/>
<stop offset="0.826694" stop-color="white" stop-opacity="0"/>
</linearGradient>
<linearGradient id="paint13_linear_5144_95331" x1="246" y1="1" x2="246" y2="158" gradientUnits="userSpaceOnUse">
<stop offset="0.522974" stop-color="#F8F8F8" stop-opacity="0"/>
<stop offset="1" stop-color="#F8F8F8" stop-opacity="0.1"/>
</linearGradient>
<linearGradient id="paint14_linear_5144_95331" x1="80" y1="1" x2="80" y2="158" gradientUnits="userSpaceOnUse">
<stop offset="0.522974" stop-color="#F8F8F8" stop-opacity="0"/>
<stop offset="1" stop-color="#F8F8F8" stop-opacity="0.1"/>
</linearGradient>
<linearGradient id="paint15_linear_5144_95331" x1="246" y1="1" x2="246" y2="158" gradientUnits="userSpaceOnUse">
<stop offset="0.522974" stop-color="#F8F8F8" stop-opacity="0"/>
<stop offset="1" stop-color="#F8F8F8" stop-opacity="0.1"/>
</linearGradient>
<linearGradient id="paint16_linear_5144_95331" x1="246" y1="152" x2="251.22" y2="165.177" gradientUnits="userSpaceOnUse">
<stop stop-color="white" stop-opacity="0.4"/>
<stop offset="0.4" stop-color="white" stop-opacity="0.01"/>
<stop offset="0.6" stop-color="white" stop-opacity="0.01"/>
<stop offset="1" stop-color="white" stop-opacity="0.1"/>
</linearGradient>
<linearGradient id="paint17_linear_5144_95331" x1="412" y1="1" x2="412" y2="158" gradientUnits="userSpaceOnUse">
<stop offset="0.522974" stop-color="#F8F8F8" stop-opacity="0"/>
<stop offset="1" stop-color="#F8F8F8" stop-opacity="0.1"/>
</linearGradient>
<linearGradient id="paint18_linear_5144_95331" x1="246" y1="525" x2="246" y2="368" gradientUnits="userSpaceOnUse">
<stop offset="0.522974" stop-color="#F8F8F8" stop-opacity="0"/>
<stop offset="1" stop-color="#F8F8F8" stop-opacity="0.1"/>
</linearGradient>
<linearGradient id="paint19_linear_5144_95331" x1="246" y1="525" x2="246" y2="368" gradientUnits="userSpaceOnUse">
<stop offset="0.522974" stop-color="#F8F8F8" stop-opacity="0"/>
<stop offset="1" stop-color="#F8F8F8" stop-opacity="0.1"/>
</linearGradient>
<linearGradient id="paint20_linear_5144_95331" x1="6" y1="-1.36173e-07" x2="11.2202" y2="13.1775" gradientUnits="userSpaceOnUse">
<stop stop-color="white" stop-opacity="0.4"/>
<stop offset="0.4" stop-color="white" stop-opacity="0.01"/>
<stop offset="0.6" stop-color="white" stop-opacity="0.01"/>
<stop offset="1" stop-color="white" stop-opacity="0.1"/>
</linearGradient>
<linearGradient id="paint21_linear_5144_95331" x1="246" y1="213" x2="225.448" y2="202.025" gradientUnits="userSpaceOnUse">
<stop stop-color="#F8F8F8" stop-opacity="0.8"/>
<stop offset="0.45221" stop-color="#F8F8F8" stop-opacity="0.2"/>
<stop offset="1" stop-color="#F8F8F8" stop-opacity="0.8"/>
</linearGradient>
<linearGradient id="paint22_linear_5144_95331" x1="246" y1="213" x2="266.552" y2="202.025" gradientUnits="userSpaceOnUse">
<stop stop-color="#F8F8F8" stop-opacity="0.8"/>
<stop offset="0.45221" stop-color="#F8F8F8" stop-opacity="0.25"/>
<stop offset="1" stop-color="white" stop-opacity="0.8"/>
</linearGradient>
<linearGradient id="paint23_linear_5144_95331" x1="246" y1="314" x2="225.448" y2="324.975" gradientUnits="userSpaceOnUse">
<stop stop-color="#F8F8F8" stop-opacity="0.8"/>
<stop offset="0.45221" stop-color="#F8F8F8" stop-opacity="0.2"/>
<stop offset="1" stop-color="#F8F8F8" stop-opacity="0.8"/>
</linearGradient>
<linearGradient id="paint24_linear_5144_95331" x1="246" y1="314" x2="266.552" y2="324.975" gradientUnits="userSpaceOnUse">
<stop stop-color="#F8F8F8" stop-opacity="0.8"/>
<stop offset="0.45221" stop-color="#F8F8F8" stop-opacity="0.25"/>
<stop offset="1" stop-color="white" stop-opacity="0.8"/>
</linearGradient>
</defs>
</svg>
