<svg width="226" height="97" viewBox="0 0 226 97" fill="none" xmlns="http://www.w3.org/2000/svg">
<g filter="url(#filter0_bdi_5168_85160)">
<mask id="path-1-inside-1_5168_85160" fill="white">
<path fill-rule="evenodd" clip-rule="evenodd" d="M145 20C145 17.7909 143.209 16 141 16V16C138.791 16 137 17.7909 137 20V50.5C137 50.9643 137 51.1965 136.981 51.3921C136.794 53.2912 135.291 54.7937 133.392 54.9807C133.197 55 132.964 55 132.5 55V55C132.036 55 131.803 55 131.608 55.0193C129.709 55.2063 128.206 56.7088 128.019 58.6079C128 58.8035 128 59.0357 128 59.5V74.6C128 76.8402 128 77.9603 128.436 78.816C128.819 79.5686 129.431 80.1805 130.184 80.564C131.04 81 132.16 81 134.4 81H147.6C149.84 81 150.96 81 151.816 80.564C152.569 80.1805 153.181 79.5686 153.564 78.816C154 77.9603 154 76.8402 154 74.6V59.5C154 59.0357 154 58.8035 153.981 58.6079C153.794 56.7088 152.291 55.2063 150.392 55.0193C150.197 55 149.964 55 149.5 55V55C149.036 55 148.803 55 148.608 54.9807C146.709 54.7937 145.206 53.2912 145.019 51.3921C145 51.1965 145 50.9643 145 50.5V20ZM161 55C158.791 55 157 56.7909 157 59V74.6C157 76.8402 157 77.9603 157.436 78.816C157.819 79.5686 158.431 80.1805 159.184 80.564C160.04 81 161.16 81 163.4 81H175.6C177.84 81 178.96 81 179.816 80.564C180.569 80.1805 181.181 79.5686 181.564 78.816C182 77.9603 182 76.8402 182 74.6V59.5C182 59.0357 182 58.8035 181.981 58.6079C181.794 56.7088 180.291 55.2063 178.392 55.0193C178.197 55 177.964 55 177.5 55V55C177.036 55 176.803 55 176.608 54.9807C174.709 54.7937 173.206 53.2912 173.019 51.3921C173 51.1965 173 50.9643 173 50.5V20C173 17.7909 171.209 16 169 16V16C166.791 16 165 17.7909 165 20V51C165 53.2091 163.209 55 161 55V55ZM184 59.5C184 59.0357 184 58.8035 184.019 58.6079C184.206 56.7088 185.709 55.2063 187.608 55.0193C187.803 55 188.036 55 188.5 55V55C188.964 55 189.197 55 189.392 54.9807C191.291 54.7937 192.794 53.2912 192.981 51.3921C193 51.1965 193 50.9643 193 50.5V22.4C193 20.1598 193 19.0397 193.436 18.184C193.819 17.4314 194.431 16.8195 195.184 16.436C196.04 16 197.16 16 199.4 16H203.6C205.84 16 206.96 16 207.816 16.436C208.569 16.8195 209.181 17.4314 209.564 18.184C210 19.0397 210 20.1598 210 22.4V74.6C210 76.8402 210 77.9603 209.564 78.816C209.181 79.5686 208.569 80.1805 207.816 80.564C206.96 81 205.84 81 203.6 81H190.4C188.16 81 187.04 81 186.184 80.564C185.431 80.1805 184.819 79.5686 184.436 78.816C184 77.9603 184 76.8402 184 74.6V59.5ZM110.6 16C112.84 16 113.96 16 114.816 16.436C115.569 16.8195 116.181 17.4314 116.564 18.184C117 19.0397 117 20.1598 117 22.4V50.5C117 50.9643 117 51.1965 117.019 51.3921C117.206 53.2912 118.709 54.7937 120.608 54.9807C120.803 55 121.036 55 121.5 55V55C121.964 55 122.197 55 122.392 55.0193C124.291 55.2063 125.794 56.7088 125.981 58.6079C126 58.8035 126 59.0357 126 59.5V74.6C126 76.8402 126 77.9603 125.564 78.816C125.181 79.5686 124.569 80.1805 123.816 80.564C122.96 81 121.84 81 119.6 81H106.4C104.16 81 103.04 81 102.184 80.564C101.431 80.1805 100.819 79.5686 100.436 78.816C100 77.9603 100 76.8402 100 74.6V22.4C100 20.1598 100 19.0397 100.436 18.184C100.819 17.4314 101.431 16.8195 102.184 16.436C103.04 16 104.16 16 106.4 16H110.6ZM53 50.5C53 50.9643 53 51.1965 52.9807 51.3921C52.7937 53.2912 51.2912 54.7937 49.3921 54.9807C49.1965 55 48.9643 55 48.5 55V55C48.0357 55 47.8035 55 47.6079 55.0193C45.7088 55.2063 44.2063 56.7088 44.0193 58.6079C44 58.8035 44 59.0357 44 59.5V74.6C44 76.8402 44 77.9603 44.436 78.816C44.8195 79.5686 45.4314 80.1805 46.184 80.564C47.0397 81 48.1598 81 50.4 81H63.6C65.8402 81 66.9603 81 67.816 80.564C68.5686 80.1805 69.1805 79.5686 69.564 78.816C70 77.9603 70 76.8402 70 74.6V59.5C70 59.0357 70 58.8035 69.9807 58.6079C69.7937 56.7088 68.2912 55.2063 66.3921 55.0193C66.1965 55 65.9643 55 65.5 55V55C65.0357 55 64.8035 55 64.6079 54.9807C62.7088 54.7937 61.2063 53.2912 61.0193 51.3921C61 51.1965 61 50.9643 61 50.5V20C61 17.7909 59.2091 16 57 16V16C54.7909 16 53 17.7909 53 20V50.5ZM37.5 55C37.0357 55 36.8035 55 36.6079 54.9807C34.7088 54.7937 33.2063 53.2912 33.0193 51.3921C33 51.1965 33 50.9643 33 50.5V22.4C33 20.1598 33 19.0397 32.564 18.184C32.1805 17.4314 31.5686 16.8195 30.816 16.436C29.9603 16 28.8402 16 26.6 16H22.4C20.1598 16 19.0397 16 18.184 16.436C17.4314 16.8195 16.8195 17.4314 16.436 18.184C16 19.0397 16 20.1598 16 22.4V74.6C16 76.8402 16 77.9603 16.436 78.816C16.8195 79.5686 17.4314 80.1805 18.184 80.564C19.0397 81 20.1598 81 22.4 81H35.6C37.8402 81 38.9603 81 39.816 80.564C40.5686 80.1805 41.1805 79.5686 41.564 78.816C42 77.9603 42 76.8402 42 74.6V59.5C42 59.0357 42 58.8035 41.9807 58.6079C41.7937 56.7088 40.2912 55.2063 38.3921 55.0193C38.1965 55 37.9643 55 37.5 55V55ZM78.4 81C76.1598 81 75.0397 81 74.184 80.564C73.4314 80.1805 72.8195 79.5686 72.436 78.816C72 77.9603 72 76.8402 72 74.6V59.5C72 59.0357 72 58.8035 72.0193 58.6079C72.2063 56.7088 73.7088 55.2063 75.6079 55.0193C75.8035 55 76.0357 55 76.5 55V55C76.9643 55 77.1965 55 77.3921 54.9807C79.2912 54.7937 80.7937 53.2912 80.9807 51.3921C81 51.1965 81 50.9643 81 50.5V22.4C81 20.1598 81 19.0397 81.436 18.184C81.8195 17.4314 82.4314 16.8195 83.184 16.436C84.0397 16 85.1598 16 87.4 16H91.6C93.8402 16 94.9603 16 95.816 16.436C96.5686 16.8195 97.1805 17.4314 97.564 18.184C98 19.0397 98 20.1598 98 22.4V74.6C98 76.8402 98 77.9603 97.564 78.816C97.1805 79.5686 96.5686 80.1805 95.816 80.564C94.9603 81 93.8402 81 91.6 81H78.4Z"/>
</mask>
<path fill-rule="evenodd" clip-rule="evenodd" d="M145 20C145 17.7909 143.209 16 141 16V16C138.791 16 137 17.7909 137 20V50.5C137 50.9643 137 51.1965 136.981 51.3921C136.794 53.2912 135.291 54.7937 133.392 54.9807C133.197 55 132.964 55 132.5 55V55C132.036 55 131.803 55 131.608 55.0193C129.709 55.2063 128.206 56.7088 128.019 58.6079C128 58.8035 128 59.0357 128 59.5V74.6C128 76.8402 128 77.9603 128.436 78.816C128.819 79.5686 129.431 80.1805 130.184 80.564C131.04 81 132.16 81 134.4 81H147.6C149.84 81 150.96 81 151.816 80.564C152.569 80.1805 153.181 79.5686 153.564 78.816C154 77.9603 154 76.8402 154 74.6V59.5C154 59.0357 154 58.8035 153.981 58.6079C153.794 56.7088 152.291 55.2063 150.392 55.0193C150.197 55 149.964 55 149.5 55V55C149.036 55 148.803 55 148.608 54.9807C146.709 54.7937 145.206 53.2912 145.019 51.3921C145 51.1965 145 50.9643 145 50.5V20ZM161 55C158.791 55 157 56.7909 157 59V74.6C157 76.8402 157 77.9603 157.436 78.816C157.819 79.5686 158.431 80.1805 159.184 80.564C160.04 81 161.16 81 163.4 81H175.6C177.84 81 178.96 81 179.816 80.564C180.569 80.1805 181.181 79.5686 181.564 78.816C182 77.9603 182 76.8402 182 74.6V59.5C182 59.0357 182 58.8035 181.981 58.6079C181.794 56.7088 180.291 55.2063 178.392 55.0193C178.197 55 177.964 55 177.5 55V55C177.036 55 176.803 55 176.608 54.9807C174.709 54.7937 173.206 53.2912 173.019 51.3921C173 51.1965 173 50.9643 173 50.5V20C173 17.7909 171.209 16 169 16V16C166.791 16 165 17.7909 165 20V51C165 53.2091 163.209 55 161 55V55ZM184 59.5C184 59.0357 184 58.8035 184.019 58.6079C184.206 56.7088 185.709 55.2063 187.608 55.0193C187.803 55 188.036 55 188.5 55V55C188.964 55 189.197 55 189.392 54.9807C191.291 54.7937 192.794 53.2912 192.981 51.3921C193 51.1965 193 50.9643 193 50.5V22.4C193 20.1598 193 19.0397 193.436 18.184C193.819 17.4314 194.431 16.8195 195.184 16.436C196.04 16 197.16 16 199.4 16H203.6C205.84 16 206.96 16 207.816 16.436C208.569 16.8195 209.181 17.4314 209.564 18.184C210 19.0397 210 20.1598 210 22.4V74.6C210 76.8402 210 77.9603 209.564 78.816C209.181 79.5686 208.569 80.1805 207.816 80.564C206.96 81 205.84 81 203.6 81H190.4C188.16 81 187.04 81 186.184 80.564C185.431 80.1805 184.819 79.5686 184.436 78.816C184 77.9603 184 76.8402 184 74.6V59.5ZM110.6 16C112.84 16 113.96 16 114.816 16.436C115.569 16.8195 116.181 17.4314 116.564 18.184C117 19.0397 117 20.1598 117 22.4V50.5C117 50.9643 117 51.1965 117.019 51.3921C117.206 53.2912 118.709 54.7937 120.608 54.9807C120.803 55 121.036 55 121.5 55V55C121.964 55 122.197 55 122.392 55.0193C124.291 55.2063 125.794 56.7088 125.981 58.6079C126 58.8035 126 59.0357 126 59.5V74.6C126 76.8402 126 77.9603 125.564 78.816C125.181 79.5686 124.569 80.1805 123.816 80.564C122.96 81 121.84 81 119.6 81H106.4C104.16 81 103.04 81 102.184 80.564C101.431 80.1805 100.819 79.5686 100.436 78.816C100 77.9603 100 76.8402 100 74.6V22.4C100 20.1598 100 19.0397 100.436 18.184C100.819 17.4314 101.431 16.8195 102.184 16.436C103.04 16 104.16 16 106.4 16H110.6ZM53 50.5C53 50.9643 53 51.1965 52.9807 51.3921C52.7937 53.2912 51.2912 54.7937 49.3921 54.9807C49.1965 55 48.9643 55 48.5 55V55C48.0357 55 47.8035 55 47.6079 55.0193C45.7088 55.2063 44.2063 56.7088 44.0193 58.6079C44 58.8035 44 59.0357 44 59.5V74.6C44 76.8402 44 77.9603 44.436 78.816C44.8195 79.5686 45.4314 80.1805 46.184 80.564C47.0397 81 48.1598 81 50.4 81H63.6C65.8402 81 66.9603 81 67.816 80.564C68.5686 80.1805 69.1805 79.5686 69.564 78.816C70 77.9603 70 76.8402 70 74.6V59.5C70 59.0357 70 58.8035 69.9807 58.6079C69.7937 56.7088 68.2912 55.2063 66.3921 55.0193C66.1965 55 65.9643 55 65.5 55V55C65.0357 55 64.8035 55 64.6079 54.9807C62.7088 54.7937 61.2063 53.2912 61.0193 51.3921C61 51.1965 61 50.9643 61 50.5V20C61 17.7909 59.2091 16 57 16V16C54.7909 16 53 17.7909 53 20V50.5ZM37.5 55C37.0357 55 36.8035 55 36.6079 54.9807C34.7088 54.7937 33.2063 53.2912 33.0193 51.3921C33 51.1965 33 50.9643 33 50.5V22.4C33 20.1598 33 19.0397 32.564 18.184C32.1805 17.4314 31.5686 16.8195 30.816 16.436C29.9603 16 28.8402 16 26.6 16H22.4C20.1598 16 19.0397 16 18.184 16.436C17.4314 16.8195 16.8195 17.4314 16.436 18.184C16 19.0397 16 20.1598 16 22.4V74.6C16 76.8402 16 77.9603 16.436 78.816C16.8195 79.5686 17.4314 80.1805 18.184 80.564C19.0397 81 20.1598 81 22.4 81H35.6C37.8402 81 38.9603 81 39.816 80.564C40.5686 80.1805 41.1805 79.5686 41.564 78.816C42 77.9603 42 76.8402 42 74.6V59.5C42 59.0357 42 58.8035 41.9807 58.6079C41.7937 56.7088 40.2912 55.2063 38.3921 55.0193C38.1965 55 37.9643 55 37.5 55V55ZM78.4 81C76.1598 81 75.0397 81 74.184 80.564C73.4314 80.1805 72.8195 79.5686 72.436 78.816C72 77.9603 72 76.8402 72 74.6V59.5C72 59.0357 72 58.8035 72.0193 58.6079C72.2063 56.7088 73.7088 55.2063 75.6079 55.0193C75.8035 55 76.0357 55 76.5 55V55C76.9643 55 77.1965 55 77.3921 54.9807C79.2912 54.7937 80.7937 53.2912 80.9807 51.3921C81 51.1965 81 50.9643 81 50.5V22.4C81 20.1598 81 19.0397 81.436 18.184C81.8195 17.4314 82.4314 16.8195 83.184 16.436C84.0397 16 85.1598 16 87.4 16H91.6C93.8402 16 94.9603 16 95.816 16.436C96.5686 16.8195 97.1805 17.4314 97.564 18.184C98 19.0397 98 20.1598 98 22.4V74.6C98 76.8402 98 77.9603 97.564 78.816C97.1805 79.5686 96.5686 80.1805 95.816 80.564C94.9603 81 93.8402 81 91.6 81H78.4Z" fill="white" fill-opacity="0.1" style="mix-blend-mode:luminosity" shape-rendering="crispEdges"/>
<path d="M97.564 78.816L96.2275 78.135L97.564 78.816ZM95.816 80.564L96.4969 81.9005L95.816 80.564ZM95.816 16.436L95.135 17.7725L95.816 16.436ZM97.564 18.184L96.2275 18.865L97.564 18.184ZM81.436 18.184L80.0995 17.5031L81.436 18.184ZM83.184 16.436L82.5031 15.0995L83.184 16.436ZM77.3921 54.9807L77.5391 56.4735L77.3921 54.9807ZM80.9807 51.3921L79.488 51.245L80.9807 51.3921ZM72.436 78.816L71.0995 79.4969L72.436 78.816ZM74.184 80.564L73.5031 81.9005L74.184 80.564ZM72.0193 58.6079L73.512 58.755L72.0193 58.6079ZM75.6079 55.0193L75.755 56.512L75.6079 55.0193ZM41.9807 58.6079L40.488 58.755L41.9807 58.6079ZM38.3921 55.0193L38.5391 53.5265L38.3921 55.0193ZM39.816 80.564L39.135 79.2275L39.816 80.564ZM41.564 78.816L40.2275 78.135L41.564 78.816ZM16.436 78.816L17.7725 78.135L16.436 78.816ZM18.184 80.564L17.5031 81.9005L18.184 80.564ZM18.184 16.436L17.5031 15.0995L18.184 16.436ZM16.436 18.184L15.0995 17.5031L16.436 18.184ZM33.0193 51.3921L34.512 51.245L33.0193 51.3921ZM36.6079 54.9807L36.755 53.488L36.6079 54.9807ZM32.564 18.184L31.2275 18.865L32.564 18.184ZM30.816 16.436L31.4969 15.0995L30.816 16.436ZM64.6079 54.9807L64.755 53.488L64.6079 54.9807ZM61.0193 51.3921L59.5265 51.5391L61.0193 51.3921ZM69.9807 58.6079L71.4735 58.4609L69.9807 58.6079ZM66.3921 55.0193L66.5391 53.5265L66.3921 55.0193ZM67.816 80.564L67.135 79.2275L67.816 80.564ZM69.564 78.816L70.9005 79.4969L69.564 78.816ZM44.436 78.816L43.0995 79.4969L44.436 78.816ZM46.184 80.564L45.5031 81.9005L46.184 80.564ZM49.3921 54.9807L49.5391 56.4735L49.3921 54.9807ZM52.9807 51.3921L54.4735 51.5391L52.9807 51.3921ZM47.6079 55.0193L47.4609 53.5265L47.6079 55.0193ZM44.0193 58.6079L42.5265 58.4609L44.0193 58.6079ZM100.436 18.184L99.0995 17.5031L100.436 18.184ZM102.184 16.436L101.503 15.0995L102.184 16.436ZM102.184 80.564L102.865 79.2275L102.184 80.564ZM100.436 78.816L99.0995 79.4969L100.436 78.816ZM125.564 78.816L126.901 79.4969L125.564 78.816ZM123.816 80.564L123.135 79.2275L123.816 80.564ZM122.392 55.0193L122.245 56.512L122.392 55.0193ZM125.981 58.6079L127.474 58.4609L125.981 58.6079ZM116.564 18.184L117.901 17.5031L116.564 18.184ZM114.816 16.436L115.497 15.0995L114.816 16.436ZM117.019 51.3921L118.512 51.245L117.019 51.3921ZM120.608 54.9807L120.461 56.4735L120.608 54.9807ZM186.184 80.564L185.503 81.9005L186.184 80.564ZM184.436 78.816L185.772 78.135L184.436 78.816ZM209.564 78.816L210.901 79.4969L209.564 78.816ZM207.816 80.564L208.497 81.9005L207.816 80.564ZM207.816 16.436L207.135 17.7725L207.816 16.436ZM209.564 18.184L210.901 17.5031L209.564 18.184ZM193.436 18.184L192.099 17.5031L193.436 18.184ZM195.184 16.436L194.503 15.0995L195.184 16.436ZM189.392 54.9807L189.245 53.488L189.392 54.9807ZM192.981 51.3921L191.488 51.245L192.981 51.3921ZM187.608 55.0193L187.461 53.5265L187.608 55.0193ZM184.019 58.6079L185.512 58.755L184.019 58.6079ZM176.608 54.9807L176.461 56.4735L176.608 54.9807ZM173.019 51.3921L171.526 51.5391L173.019 51.3921ZM181.981 58.6079L183.474 58.4609L181.981 58.6079ZM178.392 55.0193L178.245 56.512L178.392 55.0193ZM179.816 80.564L179.135 79.2275L179.816 80.564ZM181.564 78.816L180.228 78.135L181.564 78.816ZM157.436 78.816L158.772 78.135L157.436 78.816ZM159.184 80.564L158.503 81.9005L159.184 80.564ZM148.608 54.9807L148.755 53.488L148.608 54.9807ZM145.019 51.3921L143.526 51.5391L145.019 51.3921ZM153.981 58.6079L155.474 58.4609L153.981 58.6079ZM150.392 55.0193L150.245 56.512L150.392 55.0193ZM151.816 80.564L152.497 81.9005L151.816 80.564ZM153.564 78.816L154.901 79.4969L153.564 78.816ZM128.436 78.816L129.772 78.135L128.436 78.816ZM130.184 80.564L129.503 81.9005L130.184 80.564ZM131.608 55.0193L131.755 56.512L131.608 55.0193ZM128.019 58.6079L129.512 58.755L128.019 58.6079ZM136.981 51.3921L138.474 51.5391L136.981 51.3921ZM133.392 54.9807L133.539 56.4735L133.392 54.9807ZM135.5 20V50.5H138.5V20H135.5ZM129.5 74.6V59.5H126.5V74.6H129.5ZM147.6 79.5H134.4V82.5H147.6V79.5ZM152.5 59.5V74.6H155.5V59.5H152.5ZM146.5 50.5V20H143.5V50.5H146.5ZM155.5 59V74.6H158.5V59H155.5ZM163.4 82.5H175.6V79.5H163.4V82.5ZM183.5 74.6V59.5H180.5V74.6H183.5ZM171.5 20V50.5H174.5V20H171.5ZM163.5 20V51H166.5V20H163.5ZM194.5 50.5V22.4H191.5V50.5H194.5ZM199.4 17.5H203.6V14.5H199.4V17.5ZM208.5 22.4V74.6H211.5V22.4H208.5ZM203.6 79.5H190.4V82.5H203.6V79.5ZM185.5 74.6V59.5H182.5V74.6H185.5ZM118.5 50.5V22.4H115.5V50.5H118.5ZM127.5 74.6V59.5H124.5V74.6H127.5ZM106.4 82.5H119.6V79.5H106.4V82.5ZM98.5 22.4V74.6H101.5V22.4H98.5ZM110.6 14.5H106.4V17.5H110.6V14.5ZM45.5 74.6V59.5H42.5V74.6H45.5ZM63.6 79.5H50.4V82.5H63.6V79.5ZM68.5 59.5V74.6H71.5V59.5H68.5ZM59.5 20V50.5H62.5V20H59.5ZM54.5 50.5V20H51.5V50.5H54.5ZM31.5 22.4V50.5H34.5V22.4H31.5ZM22.4 17.5H26.6V14.5H22.4V17.5ZM17.5 74.6V22.4H14.5V74.6H17.5ZM35.6 79.5H22.4V82.5H35.6V79.5ZM40.5 59.5V74.6H43.5V59.5H40.5ZM70.5 59.5V74.6H73.5V59.5H70.5ZM79.5 22.4V50.5H82.5V22.4H79.5ZM91.6 14.5H87.4V17.5H91.6V14.5ZM99.5 74.6V22.4H96.5V74.6H99.5ZM78.4 82.5H91.6V79.5H78.4V82.5ZM96.5 74.6C96.5 75.7449 96.4988 76.5133 96.4505 77.105C96.4036 77.6793 96.3198 77.9539 96.2275 78.135L98.9005 79.4969C99.2442 78.8224 99.3784 78.1091 99.4405 77.3493C99.5012 76.6071 99.5 75.6954 99.5 74.6H96.5ZM91.6 82.5C92.6954 82.5 93.6071 82.5012 94.3493 82.4405C95.1091 82.3784 95.8224 82.2442 96.4969 81.9005L95.135 79.2275C94.9539 79.3198 94.6793 79.4036 94.105 79.4505C93.5133 79.4988 92.7449 79.5 91.6 79.5V82.5ZM96.2275 78.135C95.9878 78.6054 95.6054 78.9878 95.135 79.2275L96.4969 81.9005C97.5318 81.3732 98.3732 80.5318 98.9005 79.4969L96.2275 78.135ZM91.6 17.5C92.7449 17.5 93.5133 17.5012 94.105 17.5495C94.6793 17.5964 94.9539 17.6802 95.135 17.7725L96.4969 15.0995C95.8224 14.7558 95.1091 14.6216 94.3493 14.5595C93.6071 14.4988 92.6954 14.5 91.6 14.5V17.5ZM99.5 22.4C99.5 21.3046 99.5012 20.3929 99.4405 19.6507C99.3784 18.8909 99.2442 18.1776 98.9005 17.5031L96.2275 18.865C96.3198 19.0461 96.4036 19.3207 96.4505 19.895C96.4988 20.4867 96.5 21.2551 96.5 22.4H99.5ZM95.135 17.7725C95.6054 18.0122 95.9878 18.3946 96.2275 18.865L98.9005 17.5031C98.3732 16.4682 97.5318 15.6268 96.4969 15.0995L95.135 17.7725ZM82.5 22.4C82.5 21.2551 82.5012 20.4867 82.5495 19.895C82.5964 19.3207 82.6802 19.0461 82.7725 18.865L80.0995 17.5031C79.7558 18.1776 79.6216 18.8909 79.5595 19.6507C79.4988 20.3929 79.5 21.3046 79.5 22.4H82.5ZM87.4 14.5C86.3046 14.5 85.3929 14.4988 84.6507 14.5595C83.8909 14.6216 83.1776 14.7558 82.5031 15.0995L83.865 17.7725C84.0461 17.6802 84.3207 17.5964 84.895 17.5495C85.4867 17.5012 86.2551 17.5 87.4 17.5V14.5ZM82.7725 18.865C83.0122 18.3946 83.3946 18.0122 83.865 17.7725L82.5031 15.0995C81.4682 15.6268 80.6268 16.4682 80.0995 17.5031L82.7725 18.865ZM76.5 56.5C76.9286 56.5 77.2517 56.5018 77.5391 56.4735L77.245 53.488C77.1413 53.4982 77 53.5 76.5 53.5V56.5ZM79.5 50.5C79.5 51 79.4982 51.1413 79.488 51.245L82.4735 51.5391C82.5018 51.2517 82.5 50.9286 82.5 50.5H79.5ZM77.5391 56.4735C80.1504 56.2163 82.2163 54.1504 82.4735 51.5391L79.488 51.245C79.3711 52.432 78.432 53.3711 77.245 53.488L77.5391 56.4735ZM70.5 74.6C70.5 75.6954 70.4988 76.6071 70.5595 77.3493C70.6216 78.1091 70.7558 78.8224 71.0995 79.4969L73.7725 78.135C73.6802 77.9539 73.5964 77.6793 73.5495 77.105C73.5012 76.5133 73.5 75.7449 73.5 74.6H70.5ZM78.4 79.5C77.2551 79.5 76.4867 79.4988 75.895 79.4505C75.3207 79.4036 75.0461 79.3198 74.865 79.2275L73.5031 81.9005C74.1776 82.2442 74.8909 82.3784 75.6507 82.4405C76.3929 82.5012 77.3046 82.5 78.4 82.5V79.5ZM71.0995 79.4969C71.6268 80.5318 72.4682 81.3732 73.5031 81.9005L74.865 79.2275C74.3946 78.9878 74.0122 78.6054 73.7725 78.135L71.0995 79.4969ZM73.5 59.5C73.5 59 73.5018 58.8587 73.512 58.755L70.5265 58.4609C70.4982 58.7483 70.5 59.0714 70.5 59.5H73.5ZM76.5 53.5C76.0714 53.5 75.7483 53.4982 75.4609 53.5265L75.755 56.512C75.8587 56.5018 76 56.5 76.5 56.5V53.5ZM73.512 58.755C73.6289 57.568 74.568 56.6289 75.755 56.512L75.4609 53.5265C72.8496 53.7837 70.7837 55.8496 70.5265 58.4609L73.512 58.755ZM43.5 59.5C43.5 59.0714 43.5018 58.7483 43.4735 58.4609L40.488 58.755C40.4982 58.8587 40.5 59 40.5 59.5H43.5ZM37.5 56.5C38 56.5 38.1413 56.5018 38.245 56.512L38.5391 53.5265C38.2517 53.4982 37.9286 53.5 37.5 53.5V56.5ZM43.4735 58.4609C43.2163 55.8496 41.1504 53.7837 38.5391 53.5265L38.245 56.512C39.432 56.6289 40.3711 57.568 40.488 58.755L43.4735 58.4609ZM35.6 82.5C36.6954 82.5 37.6071 82.5012 38.3493 82.4405C39.1091 82.3784 39.8224 82.2442 40.4969 81.9005L39.135 79.2275C38.9539 79.3198 38.6793 79.4036 38.105 79.4505C37.5133 79.4988 36.7449 79.5 35.6 79.5V82.5ZM40.5 74.6C40.5 75.7449 40.4988 76.5133 40.4505 77.105C40.4036 77.6793 40.3198 77.9539 40.2275 78.135L42.9005 79.4969C43.2442 78.8224 43.3784 78.1091 43.4405 77.3493C43.5012 76.6071 43.5 75.6954 43.5 74.6H40.5ZM40.4969 81.9005C41.5318 81.3732 42.3732 80.5318 42.9005 79.4969L40.2275 78.135C39.9878 78.6054 39.6054 78.9878 39.135 79.2275L40.4969 81.9005ZM14.5 74.6C14.5 75.6954 14.4988 76.6071 14.5595 77.3493C14.6216 78.1091 14.7558 78.8224 15.0995 79.4969L17.7725 78.135C17.6802 77.9539 17.5964 77.6793 17.5495 77.105C17.5012 76.5133 17.5 75.7449 17.5 74.6H14.5ZM22.4 79.5C21.2551 79.5 20.4867 79.4988 19.895 79.4505C19.3207 79.4036 19.0461 79.3198 18.865 79.2275L17.5031 81.9005C18.1776 82.2442 18.8909 82.3784 19.6507 82.4405C20.3929 82.5012 21.3046 82.5 22.4 82.5V79.5ZM15.0995 79.4969C15.6268 80.5318 16.4682 81.3732 17.5031 81.9005L18.865 79.2275C18.3946 78.9878 18.0122 78.6054 17.7725 78.135L15.0995 79.4969ZM22.4 14.5C21.3046 14.5 20.3929 14.4988 19.6507 14.5595C18.8909 14.6216 18.1776 14.7558 17.5031 15.0995L18.865 17.7725C19.0461 17.6802 19.3207 17.5964 19.895 17.5495C20.4867 17.5012 21.2551 17.5 22.4 17.5V14.5ZM17.5 22.4C17.5 21.2551 17.5012 20.4867 17.5495 19.895C17.5964 19.3207 17.6802 19.0461 17.7725 18.865L15.0995 17.5031C14.7558 18.1776 14.6216 18.8909 14.5595 19.6507C14.4988 20.3929 14.5 21.3046 14.5 22.4H17.5ZM17.5031 15.0995C16.4682 15.6268 15.6268 16.4682 15.0995 17.5031L17.7725 18.865C18.0122 18.3946 18.3946 18.0122 18.865 17.7725L17.5031 15.0995ZM31.5 50.5C31.5 50.9286 31.4982 51.2517 31.5265 51.5391L34.512 51.245C34.5018 51.1413 34.5 51 34.5 50.5H31.5ZM37.5 53.5C37 53.5 36.8587 53.4982 36.755 53.488L36.4609 56.4735C36.7483 56.5018 37.0714 56.5 37.5 56.5V53.5ZM31.5265 51.5391C31.7837 54.1504 33.8496 56.2163 36.4609 56.4735L36.755 53.488C35.568 53.3711 34.6289 52.432 34.512 51.245L31.5265 51.5391ZM34.5 22.4C34.5 21.3046 34.5012 20.3929 34.4405 19.6507C34.3784 18.8909 34.2442 18.1776 33.9005 17.5031L31.2275 18.865C31.3198 19.0461 31.4036 19.3207 31.4505 19.895C31.4988 20.4867 31.5 21.2551 31.5 22.4H34.5ZM26.6 17.5C27.7449 17.5 28.5133 17.5012 29.105 17.5495C29.6793 17.5964 29.9539 17.6802 30.135 17.7725L31.4969 15.0995C30.8224 14.7558 30.1091 14.6216 29.3493 14.5595C28.6071 14.4988 27.6954 14.5 26.6 14.5V17.5ZM33.9005 17.5031C33.3732 16.4682 32.5318 15.6268 31.4969 15.0995L30.135 17.7725C30.6054 18.0122 30.9878 18.3946 31.2275 18.865L33.9005 17.5031ZM57 14.5C53.9624 14.5 51.5 16.9624 51.5 20H54.5C54.5 18.6193 55.6193 17.5 57 17.5V14.5ZM62.5 20C62.5 16.9624 60.0376 14.5 57 14.5V17.5C58.3807 17.5 59.5 18.6193 59.5 20H62.5ZM65.5 53.5C65 53.5 64.8587 53.4982 64.755 53.488L64.4609 56.4735C64.7483 56.5018 65.0714 56.5 65.5 56.5V53.5ZM59.5 50.5C59.5 50.9286 59.4982 51.2517 59.5265 51.5391L62.512 51.245C62.5018 51.1413 62.5 51 62.5 50.5H59.5ZM64.755 53.488C63.568 53.3711 62.6289 52.432 62.512 51.245L59.5265 51.5391C59.7837 54.1504 61.8496 56.2163 64.4609 56.4735L64.755 53.488ZM71.5 59.5C71.5 59.0714 71.5018 58.7483 71.4735 58.4609L68.488 58.755C68.4982 58.8587 68.5 59 68.5 59.5H71.5ZM65.5 56.5C66 56.5 66.1413 56.5018 66.245 56.512L66.5391 53.5265C66.2517 53.4982 65.9286 53.5 65.5 53.5V56.5ZM71.4735 58.4609C71.2163 55.8496 69.1504 53.7837 66.5391 53.5265L66.245 56.512C67.432 56.6289 68.3711 57.568 68.488 58.755L71.4735 58.4609ZM63.6 82.5C64.6954 82.5 65.6071 82.5012 66.3493 82.4405C67.1091 82.3784 67.8224 82.2442 68.4969 81.9005L67.135 79.2275C66.9539 79.3198 66.6793 79.4036 66.105 79.4505C65.5133 79.4988 64.7449 79.5 63.6 79.5V82.5ZM68.5 74.6C68.5 75.7449 68.4988 76.5133 68.4505 77.105C68.4036 77.6793 68.3198 77.9539 68.2275 78.135L70.9005 79.4969C71.2442 78.8224 71.3784 78.1091 71.4405 77.3493C71.5012 76.6071 71.5 75.6954 71.5 74.6H68.5ZM68.4969 81.9005C69.5318 81.3732 70.3732 80.5318 70.9005 79.4969L68.2275 78.135C67.9878 78.6054 67.6054 78.9878 67.135 79.2275L68.4969 81.9005ZM42.5 74.6C42.5 75.6954 42.4988 76.6071 42.5595 77.3493C42.6216 78.1091 42.7558 78.8224 43.0995 79.4969L45.7725 78.135C45.6802 77.9539 45.5964 77.6793 45.5495 77.105C45.5012 76.5133 45.5 75.7449 45.5 74.6H42.5ZM50.4 79.5C49.2551 79.5 48.4867 79.4988 47.895 79.4505C47.3207 79.4036 47.0461 79.3198 46.865 79.2275L45.5031 81.9005C46.1776 82.2442 46.8909 82.3784 47.6507 82.4405C48.3929 82.5012 49.3046 82.5 50.4 82.5V79.5ZM43.0995 79.4969C43.6268 80.5318 44.4682 81.3732 45.5031 81.9005L46.865 79.2275C46.3946 78.9878 46.0122 78.6054 45.7725 78.135L43.0995 79.4969ZM48.5 56.5C48.9286 56.5 49.2517 56.5018 49.5391 56.4735L49.245 53.488C49.1413 53.4982 49 53.5 48.5 53.5V56.5ZM51.5 50.5C51.5 51 51.4982 51.1413 51.488 51.245L54.4735 51.5391C54.5018 51.2517 54.5 50.9286 54.5 50.5H51.5ZM49.5391 56.4735C52.1504 56.2163 54.2163 54.1504 54.4735 51.5391L51.488 51.245C51.3711 52.432 50.432 53.3711 49.245 53.488L49.5391 56.4735ZM48.5 53.5C48.0714 53.5 47.7483 53.4982 47.4609 53.5265L47.755 56.512C47.8587 56.5018 48 56.5 48.5 56.5V53.5ZM45.5 59.5C45.5 59 45.5018 58.8587 45.512 58.755L42.5265 58.4609C42.4982 58.7483 42.5 59.0714 42.5 59.5H45.5ZM47.4609 53.5265C44.8496 53.7837 42.7837 55.8496 42.5265 58.4609L45.512 58.755C45.6289 57.568 46.568 56.6289 47.755 56.512L47.4609 53.5265ZM101.5 22.4C101.5 21.2551 101.501 20.4867 101.55 19.895C101.596 19.3207 101.68 19.0461 101.772 18.865L99.0995 17.5031C98.7558 18.1776 98.6216 18.8909 98.5595 19.6507C98.4988 20.3929 98.5 21.3046 98.5 22.4H101.5ZM106.4 14.5C105.305 14.5 104.393 14.4988 103.651 14.5595C102.891 14.6216 102.178 14.7558 101.503 15.0995L102.865 17.7725C103.046 17.6802 103.321 17.5964 103.895 17.5495C104.487 17.5012 105.255 17.5 106.4 17.5V14.5ZM101.772 18.865C102.012 18.3946 102.395 18.0122 102.865 17.7725L101.503 15.0995C100.468 15.6268 99.6268 16.4682 99.0995 17.5031L101.772 18.865ZM106.4 79.5C105.255 79.5 104.487 79.4988 103.895 79.4505C103.321 79.4036 103.046 79.3198 102.865 79.2275L101.503 81.9005C102.178 82.2442 102.891 82.3784 103.651 82.4405C104.393 82.5012 105.305 82.5 106.4 82.5V79.5ZM98.5 74.6C98.5 75.6954 98.4988 76.6071 98.5595 77.3493C98.6216 78.1091 98.7558 78.8224 99.0995 79.4969L101.772 78.135C101.68 77.9539 101.596 77.6793 101.55 77.105C101.501 76.5133 101.5 75.7449 101.5 74.6H98.5ZM102.865 79.2275C102.395 78.9878 102.012 78.6054 101.772 78.135L99.0995 79.4969C99.6268 80.5318 100.468 81.3732 101.503 81.9005L102.865 79.2275ZM124.5 74.6C124.5 75.7449 124.499 76.5133 124.45 77.105C124.404 77.6793 124.32 77.9539 124.228 78.135L126.901 79.4969C127.244 78.8224 127.378 78.1091 127.441 77.3493C127.501 76.6071 127.5 75.6954 127.5 74.6H124.5ZM119.6 82.5C120.695 82.5 121.607 82.5012 122.349 82.4405C123.109 82.3784 123.822 82.2442 124.497 81.9005L123.135 79.2275C122.954 79.3198 122.679 79.4036 122.105 79.4505C121.513 79.4988 120.745 79.5 119.6 79.5V82.5ZM124.228 78.135C123.988 78.6054 123.605 78.9878 123.135 79.2275L124.497 81.9005C125.532 81.3732 126.373 80.5318 126.901 79.4969L124.228 78.135ZM121.5 56.5C122 56.5 122.141 56.5018 122.245 56.512L122.539 53.5265C122.252 53.4982 121.929 53.5 121.5 53.5V56.5ZM127.5 59.5C127.5 59.0714 127.502 58.7483 127.474 58.4609L124.488 58.755C124.498 58.8587 124.5 59 124.5 59.5H127.5ZM122.245 56.512C123.432 56.6289 124.371 57.568 124.488 58.755L127.474 58.4609C127.216 55.8496 125.15 53.7837 122.539 53.5265L122.245 56.512ZM118.5 22.4C118.5 21.3046 118.501 20.3929 118.441 19.6507C118.378 18.8909 118.244 18.1776 117.901 17.5031L115.228 18.865C115.32 19.0461 115.404 19.3207 115.45 19.895C115.499 20.4867 115.5 21.2551 115.5 22.4H118.5ZM110.6 17.5C111.745 17.5 112.513 17.5012 113.105 17.5495C113.679 17.5964 113.954 17.6802 114.135 17.7725L115.497 15.0995C114.822 14.7558 114.109 14.6216 113.349 14.5595C112.607 14.4988 111.695 14.5 110.6 14.5V17.5ZM117.901 17.5031C117.373 16.4682 116.532 15.6268 115.497 15.0995L114.135 17.7725C114.605 18.0122 114.988 18.3946 115.228 18.865L117.901 17.5031ZM115.5 50.5C115.5 50.9286 115.498 51.2517 115.526 51.5391L118.512 51.245C118.502 51.1413 118.5 51 118.5 50.5H115.5ZM121.5 53.5C121 53.5 120.859 53.4982 120.755 53.488L120.461 56.4735C120.748 56.5018 121.071 56.5 121.5 56.5V53.5ZM115.526 51.5391C115.784 54.1504 117.85 56.2163 120.461 56.4735L120.755 53.488C119.568 53.3711 118.629 52.432 118.512 51.245L115.526 51.5391ZM190.4 79.5C189.255 79.5 188.487 79.4988 187.895 79.4505C187.321 79.4036 187.046 79.3198 186.865 79.2275L185.503 81.9005C186.178 82.2442 186.891 82.3784 187.651 82.4405C188.393 82.5012 189.305 82.5 190.4 82.5V79.5ZM182.5 74.6C182.5 75.6954 182.499 76.6071 182.559 77.3493C182.622 78.1091 182.756 78.8224 183.099 79.4969L185.772 78.135C185.68 77.9539 185.596 77.6793 185.55 77.105C185.501 76.5133 185.5 75.7449 185.5 74.6H182.5ZM186.865 79.2275C186.395 78.9878 186.012 78.6054 185.772 78.135L183.099 79.4969C183.627 80.5318 184.468 81.3732 185.503 81.9005L186.865 79.2275ZM208.5 74.6C208.5 75.7449 208.499 76.5133 208.45 77.105C208.404 77.6793 208.32 77.9539 208.228 78.135L210.901 79.4969C211.244 78.8224 211.378 78.1091 211.441 77.3493C211.501 76.6071 211.5 75.6954 211.5 74.6H208.5ZM203.6 82.5C204.695 82.5 205.607 82.5012 206.349 82.4405C207.109 82.3784 207.822 82.2442 208.497 81.9005L207.135 79.2275C206.954 79.3198 206.679 79.4036 206.105 79.4505C205.513 79.4988 204.745 79.5 203.6 79.5V82.5ZM208.228 78.135C207.988 78.6054 207.605 78.9878 207.135 79.2275L208.497 81.9005C209.532 81.3732 210.373 80.5318 210.901 79.4969L208.228 78.135ZM203.6 17.5C204.745 17.5 205.513 17.5012 206.105 17.5495C206.679 17.5964 206.954 17.6802 207.135 17.7725L208.497 15.0995C207.822 14.7558 207.109 14.6216 206.349 14.5595C205.607 14.4988 204.695 14.5 203.6 14.5V17.5ZM211.5 22.4C211.5 21.3046 211.501 20.3929 211.441 19.6507C211.378 18.8909 211.244 18.1776 210.901 17.5031L208.228 18.865C208.32 19.0461 208.404 19.3207 208.45 19.895C208.499 20.4867 208.5 21.2551 208.5 22.4H211.5ZM207.135 17.7725C207.605 18.0122 207.988 18.3946 208.228 18.865L210.901 17.5031C210.373 16.4682 209.532 15.6268 208.497 15.0995L207.135 17.7725ZM194.5 22.4C194.5 21.2551 194.501 20.4867 194.55 19.895C194.596 19.3207 194.68 19.0461 194.772 18.865L192.099 17.5031C191.756 18.1776 191.622 18.8909 191.559 19.6507C191.499 20.3929 191.5 21.3046 191.5 22.4H194.5ZM199.4 14.5C198.305 14.5 197.393 14.4988 196.651 14.5595C195.891 14.6216 195.178 14.7558 194.503 15.0995L195.865 17.7725C196.046 17.6802 196.321 17.5964 196.895 17.5495C197.487 17.5012 198.255 17.5 199.4 17.5V14.5ZM194.772 18.865C195.012 18.3946 195.395 18.0122 195.865 17.7725L194.503 15.0995C193.468 15.6268 192.627 16.4682 192.099 17.5031L194.772 18.865ZM188.5 56.5C188.929 56.5 189.252 56.5018 189.539 56.4735L189.245 53.488C189.141 53.4982 189 53.5 188.5 53.5V56.5ZM191.5 50.5C191.5 51 191.498 51.1413 191.488 51.245L194.474 51.5391C194.502 51.2517 194.5 50.9286 194.5 50.5H191.5ZM189.539 56.4735C192.15 56.2163 194.216 54.1504 194.474 51.5391L191.488 51.245C191.371 52.432 190.432 53.3711 189.245 53.488L189.539 56.4735ZM188.5 53.5C188.071 53.5 187.748 53.4982 187.461 53.5265L187.755 56.512C187.859 56.5018 188 56.5 188.5 56.5V53.5ZM185.5 59.5C185.5 59 185.502 58.8587 185.512 58.755L182.526 58.4609C182.498 58.7483 182.5 59.0714 182.5 59.5H185.5ZM187.461 53.5265C184.85 53.7837 182.784 55.8496 182.526 58.4609L185.512 58.755C185.629 57.568 186.568 56.6289 187.755 56.512L187.461 53.5265ZM163.5 51C163.5 52.3807 162.381 53.5 161 53.5V56.5C164.038 56.5 166.5 54.0376 166.5 51H163.5ZM169 14.5C165.962 14.5 163.5 16.9624 163.5 20H166.5C166.5 18.6193 167.619 17.5 169 17.5V14.5ZM174.5 20C174.5 16.9624 172.038 14.5 169 14.5V17.5C170.381 17.5 171.5 18.6193 171.5 20H174.5ZM177.5 53.5C177 53.5 176.859 53.4982 176.755 53.488L176.461 56.4735C176.748 56.5018 177.071 56.5 177.5 56.5V53.5ZM171.5 50.5C171.5 50.9286 171.498 51.2517 171.526 51.5391L174.512 51.245C174.502 51.1413 174.5 51 174.5 50.5H171.5ZM176.755 53.488C175.568 53.3711 174.629 52.432 174.512 51.245L171.526 51.5391C171.784 54.1504 173.85 56.2163 176.461 56.4735L176.755 53.488ZM183.5 59.5C183.5 59.0714 183.502 58.7483 183.474 58.4609L180.488 58.755C180.498 58.8587 180.5 59 180.5 59.5H183.5ZM177.5 56.5C178 56.5 178.141 56.5018 178.245 56.512L178.539 53.5265C178.252 53.4982 177.929 53.5 177.5 53.5V56.5ZM183.474 58.4609C183.216 55.8496 181.15 53.7837 178.539 53.5265L178.245 56.512C179.432 56.6289 180.371 57.568 180.488 58.755L183.474 58.4609ZM175.6 82.5C176.695 82.5 177.607 82.5012 178.349 82.4405C179.109 82.3784 179.822 82.2442 180.497 81.9005L179.135 79.2275C178.954 79.3198 178.679 79.4036 178.105 79.4505C177.513 79.4988 176.745 79.5 175.6 79.5V82.5ZM180.5 74.6C180.5 75.7449 180.499 76.5133 180.45 77.105C180.404 77.6793 180.32 77.9539 180.228 78.135L182.901 79.4969C183.244 78.8224 183.378 78.1091 183.441 77.3493C183.501 76.6071 183.5 75.6954 183.5 74.6H180.5ZM180.497 81.9005C181.532 81.3732 182.373 80.5318 182.901 79.4969L180.228 78.135C179.988 78.6054 179.605 78.9878 179.135 79.2275L180.497 81.9005ZM155.5 74.6C155.5 75.6954 155.499 76.6071 155.559 77.3493C155.622 78.1091 155.756 78.8224 156.099 79.4969L158.772 78.135C158.68 77.9539 158.596 77.6793 158.55 77.105C158.501 76.5133 158.5 75.7449 158.5 74.6H155.5ZM163.4 79.5C162.255 79.5 161.487 79.4988 160.895 79.4505C160.321 79.4036 160.046 79.3198 159.865 79.2275L158.503 81.9005C159.178 82.2442 159.891 82.3784 160.651 82.4405C161.393 82.5012 162.305 82.5 163.4 82.5V79.5ZM156.099 79.4969C156.627 80.5318 157.468 81.3732 158.503 81.9005L159.865 79.2275C159.395 78.9878 159.012 78.6054 158.772 78.135L156.099 79.4969ZM158.5 59C158.5 57.6193 159.619 56.5 161 56.5V53.5C157.962 53.5 155.5 55.9624 155.5 59H158.5ZM149.5 53.5C149 53.5 148.859 53.4982 148.755 53.488L148.461 56.4735C148.748 56.5018 149.071 56.5 149.5 56.5V53.5ZM143.5 50.5C143.5 50.9286 143.498 51.2517 143.526 51.5391L146.512 51.245C146.502 51.1413 146.5 51 146.5 50.5H143.5ZM148.755 53.488C147.568 53.3711 146.629 52.432 146.512 51.245L143.526 51.5391C143.784 54.1504 145.85 56.2163 148.461 56.4735L148.755 53.488ZM155.5 59.5C155.5 59.0714 155.502 58.7483 155.474 58.4609L152.488 58.755C152.498 58.8587 152.5 59 152.5 59.5H155.5ZM149.5 56.5C150 56.5 150.141 56.5018 150.245 56.512L150.539 53.5265C150.252 53.4982 149.929 53.5 149.5 53.5V56.5ZM155.474 58.4609C155.216 55.8496 153.15 53.7837 150.539 53.5265L150.245 56.512C151.432 56.6289 152.371 57.568 152.488 58.755L155.474 58.4609ZM147.6 82.5C148.695 82.5 149.607 82.5012 150.349 82.4405C151.109 82.3784 151.822 82.2442 152.497 81.9005L151.135 79.2275C150.954 79.3198 150.679 79.4036 150.105 79.4505C149.513 79.4988 148.745 79.5 147.6 79.5V82.5ZM152.5 74.6C152.5 75.7449 152.499 76.5133 152.45 77.105C152.404 77.6793 152.32 77.9539 152.228 78.135L154.901 79.4969C155.244 78.8224 155.378 78.1091 155.441 77.3493C155.501 76.6071 155.5 75.6954 155.5 74.6H152.5ZM152.497 81.9005C153.532 81.3732 154.373 80.5318 154.901 79.4969L152.228 78.135C151.988 78.6054 151.605 78.9878 151.135 79.2275L152.497 81.9005ZM126.5 74.6C126.5 75.6954 126.499 76.6071 126.559 77.3493C126.622 78.1091 126.756 78.8224 127.099 79.4969L129.772 78.135C129.68 77.9539 129.596 77.6793 129.55 77.105C129.501 76.5133 129.5 75.7449 129.5 74.6H126.5ZM134.4 79.5C133.255 79.5 132.487 79.4988 131.895 79.4505C131.321 79.4036 131.046 79.3198 130.865 79.2275L129.503 81.9005C130.178 82.2442 130.891 82.3784 131.651 82.4405C132.393 82.5012 133.305 82.5 134.4 82.5V79.5ZM127.099 79.4969C127.627 80.5318 128.468 81.3732 129.503 81.9005L130.865 79.2275C130.395 78.9878 130.012 78.6054 129.772 78.135L127.099 79.4969ZM132.5 53.5C132.071 53.5 131.748 53.4982 131.461 53.5265L131.755 56.512C131.859 56.5018 132 56.5 132.5 56.5V53.5ZM129.5 59.5C129.5 59 129.502 58.8587 129.512 58.755L126.526 58.4609C126.498 58.7483 126.5 59.0714 126.5 59.5H129.5ZM131.461 53.5265C128.85 53.7837 126.784 55.8496 126.526 58.4609L129.512 58.755C129.629 57.568 130.568 56.6289 131.755 56.512L131.461 53.5265ZM135.5 50.5C135.5 51 135.498 51.1413 135.488 51.245L138.474 51.5391C138.502 51.2517 138.5 50.9286 138.5 50.5H135.5ZM132.5 56.5C132.929 56.5 133.252 56.5018 133.539 56.4735L133.245 53.488C133.141 53.4982 133 53.5 132.5 53.5V56.5ZM135.488 51.245C135.371 52.432 134.432 53.3711 133.245 53.488L133.539 56.4735C136.15 56.2163 138.216 54.1504 138.474 51.5391L135.488 51.245ZM141 17.5C142.381 17.5 143.5 18.6193 143.5 20H146.5C146.5 16.9624 144.038 14.5 141 14.5V17.5ZM141 14.5C137.962 14.5 135.5 16.9624 135.5 20H138.5C138.5 18.6193 139.619 17.5 141 17.5V14.5Z" fill="url(#paint0_linear_5168_85160)" fill-opacity="0.25" mask="url(#path-1-inside-1_5168_85160)"/>
</g>
<g filter="url(#filter1_di_5168_85160)">
<path fill-rule="evenodd" clip-rule="evenodd" d="M35 22.4C35 20.1598 35 19.0397 35.436 18.184C35.8195 17.4314 36.4314 16.8195 37.184 16.436C38.0397 16 39.1598 16 41.4 16H44.6C46.8402 16 47.9603 16 48.816 16.436C49.5686 16.8195 50.1805 17.4314 50.564 18.184C51 19.0397 51 20.1598 51 22.4V46.6C51 48.8402 51 49.9603 50.564 50.816C50.1805 51.5686 49.5686 52.1805 48.816 52.564C47.9603 53 46.8402 53 44.6 53H41.4C39.1598 53 38.0397 53 37.184 52.564C36.4314 52.1805 35.8195 51.5686 35.436 50.816C35 49.9603 35 48.8402 35 46.6V22.4ZM119 22.4C119 20.1598 119 19.0397 119.436 18.184C119.819 17.4314 120.431 16.8195 121.184 16.436C122.04 16 123.16 16 125.4 16H128.6C130.84 16 131.96 16 132.816 16.436C133.569 16.8195 134.181 17.4314 134.564 18.184C135 19.0397 135 20.1598 135 22.4V46.6C135 48.8402 135 49.9603 134.564 50.816C134.181 51.5686 133.569 52.1805 132.816 52.564C131.96 53 130.84 53 128.6 53H125.4C123.16 53 122.04 53 121.184 52.564C120.431 52.1805 119.819 51.5686 119.436 50.816C119 49.9603 119 48.8402 119 46.6V22.4ZM63.436 18.184C63 19.0397 63 20.1598 63 22.4V46.6C63 48.8402 63 49.9603 63.436 50.816C63.8195 51.5686 64.4314 52.1805 65.184 52.564C66.0397 53 67.1598 53 69.4 53H72.6C74.8402 53 75.9603 53 76.816 52.564C77.5686 52.1805 78.1805 51.5686 78.564 50.816C79 49.9603 79 48.8402 79 46.6V22.4C79 20.1598 79 19.0397 78.564 18.184C78.1805 17.4314 77.5686 16.8195 76.816 16.436C75.9603 16 74.8402 16 72.6 16H69.4C67.1598 16 66.0397 16 65.184 16.436C64.4314 16.8195 63.8195 17.4314 63.436 18.184ZM147 22.4C147 20.1598 147 19.0397 147.436 18.184C147.819 17.4314 148.431 16.8195 149.184 16.436C150.04 16 151.16 16 153.4 16H156.6C158.84 16 159.96 16 160.816 16.436C161.569 16.8195 162.181 17.4314 162.564 18.184C163 19.0397 163 20.1598 163 22.4V46.6C163 48.8402 163 49.9603 162.564 50.816C162.181 51.5686 161.569 52.1805 160.816 52.564C159.96 53 158.84 53 156.6 53H153.4C151.16 53 150.04 53 149.184 52.564C148.431 52.1805 147.819 51.5686 147.436 50.816C147 49.9603 147 48.8402 147 46.6V22.4ZM175.436 18.184C175 19.0397 175 20.1598 175 22.4V46.6C175 48.8402 175 49.9603 175.436 50.816C175.819 51.5686 176.431 52.1805 177.184 52.564C178.04 53 179.16 53 181.4 53H184.6C186.84 53 187.96 53 188.816 52.564C189.569 52.1805 190.181 51.5686 190.564 50.816C191 49.9603 191 48.8402 191 46.6V22.4C191 20.1598 191 19.0397 190.564 18.184C190.181 17.4314 189.569 16.8195 188.816 16.436C187.96 16 186.84 16 184.6 16H181.4C179.16 16 178.04 16 177.184 16.436C176.431 16.8195 175.819 17.4314 175.436 18.184Z" fill="#121212" fill-opacity="0.7" shape-rendering="crispEdges"/>
</g>
<defs>
<filter id="filter0_bdi_5168_85160" x="-84" y="-84" width="394" height="265" filterUnits="userSpaceOnUse" color-interpolation-filters="sRGB">
<feFlood flood-opacity="0" result="BackgroundImageFix"/>
<feGaussianBlur in="BackgroundImageFix" stdDeviation="50"/>
<feComposite in2="SourceAlpha" operator="in" result="effect1_backgroundBlur_5168_85160"/>
<feColorMatrix in="SourceAlpha" type="matrix" values="0 0 0 0 0 0 0 0 0 0 0 0 0 0 0 0 0 0 127 0" result="hardAlpha"/>
<feOffset dy="4"/>
<feGaussianBlur stdDeviation="2"/>
<feComposite in2="hardAlpha" operator="out"/>
<feColorMatrix type="matrix" values="0 0 0 0 0 0 0 0 0 0 0 0 0 0 0 0 0 0 0.25 0"/>
<feBlend mode="normal" in2="effect1_backgroundBlur_5168_85160" result="effect2_dropShadow_5168_85160"/>
<feBlend mode="normal" in="SourceGraphic" in2="effect2_dropShadow_5168_85160" result="shape"/>
<feColorMatrix in="SourceAlpha" type="matrix" values="0 0 0 0 0 0 0 0 0 0 0 0 0 0 0 0 0 0 127 0" result="hardAlpha"/>
<feOffset/>
<feGaussianBlur stdDeviation="4"/>
<feComposite in2="hardAlpha" operator="arithmetic" k2="-1" k3="1"/>
<feColorMatrix type="matrix" values="0 0 0 0 0.972549 0 0 0 0 0.972549 0 0 0 0 0.972549 0 0 0 0.25 0"/>
<feBlend mode="normal" in2="shape" result="effect3_innerShadow_5168_85160"/>
</filter>
<filter id="filter1_di_5168_85160" x="28.3" y="13.3" width="169.4" height="50.4" filterUnits="userSpaceOnUse" color-interpolation-filters="sRGB">
<feFlood flood-opacity="0" result="BackgroundImageFix"/>
<feColorMatrix in="SourceAlpha" type="matrix" values="0 0 0 0 0 0 0 0 0 0 0 0 0 0 0 0 0 0 127 0" result="hardAlpha"/>
<feOffset dy="4"/>
<feGaussianBlur stdDeviation="3.35"/>
<feComposite in2="hardAlpha" operator="out"/>
<feColorMatrix type="matrix" values="0 0 0 0 0 0 0 0 0 0 0 0 0 0 0 0 0 0 0.46 0"/>
<feBlend mode="normal" in2="BackgroundImageFix" result="effect1_dropShadow_5168_85160"/>
<feBlend mode="normal" in="SourceGraphic" in2="effect1_dropShadow_5168_85160" result="shape"/>
<feColorMatrix in="SourceAlpha" type="matrix" values="0 0 0 0 0 0 0 0 0 0 0 0 0 0 0 0 0 0 127 0" result="hardAlpha"/>
<feOffset/>
<feGaussianBlur stdDeviation="1"/>
<feComposite in2="hardAlpha" operator="arithmetic" k2="-1" k3="1"/>
<feColorMatrix type="matrix" values="0 0 0 0 1 0 0 0 0 1 0 0 0 0 1 0 0 0 0.15 0"/>
<feBlend mode="normal" in2="shape" result="effect2_innerShadow_5168_85160"/>
</filter>
<linearGradient id="paint0_linear_5168_85160" x1="113" y1="16" x2="123.771" y2="97.1499" gradientUnits="userSpaceOnUse">
<stop stop-color="white" stop-opacity="0.4"/>
<stop offset="0.4" stop-color="white" stop-opacity="0.01"/>
<stop offset="0.6" stop-color="white" stop-opacity="0.01"/>
<stop offset="1" stop-color="white" stop-opacity="0.1"/>
</linearGradient>
</defs>
</svg>
