<svg width="368" height="520" viewBox="0 0 368 520" fill="none" xmlns="http://www.w3.org/2000/svg">
<g clip-path="url(#clip0_5131_98531)">
<mask id="mask0_5131_98531" style="mask-type:alpha" maskUnits="userSpaceOnUse" x="0" y="0" width="368" height="368">
<circle cx="184" cy="184" r="184" fill="url(#paint0_radial_5131_98531)"/>
</mask>
<g mask="url(#mask0_5131_98531)">
<g opacity="0.1">
<circle opacity="0.3" cx="33.5842" cy="33.5842" r="1.5842" fill="#F8F8F8"/>
<circle cx="53.505" cy="33.505" r="1.505" fill="#F8F8F8"/>
<circle cx="73.8862" cy="33.8862" r="1.3862" fill="#F8F8F8"/>
<circle cx="93.7278" cy="33.7278" r="1.2278" fill="#F8F8F8"/>
<circle cx="113.589" cy="33.5892" r="1.0892" fill="#F8F8F8"/>
<circle cx="133.911" cy="33.911" r="0.911" fill="#F8F8F8"/>
<circle cx="153.733" cy="33.7328" r="0.7328" fill="#F8F8F8"/>
<circle cx="173.574" cy="33.5744" r="0.5744" fill="#F8F8F8"/>
<circle cx="193.5" cy="33.5" r="0.5" fill="#F8F8F8"/>
<circle cx="213.5" cy="33.5" r="0.5" fill="#F8F8F8"/>
<circle cx="233.5" cy="33.5" r="0.5" fill="#F8F8F8"/>
<circle cx="253.5" cy="33.5" r="0.5" fill="#F8F8F8"/>
<circle cx="273.5" cy="33.5" r="0.5" fill="#F8F8F8"/>
<circle cx="293.5" cy="33.5" r="0.5" fill="#F8F8F8"/>
<circle cx="313.5" cy="33.5" r="0.5" fill="#F8F8F8"/>
<circle cx="333.5" cy="33.5" r="0.5" fill="#F8F8F8"/>
<circle opacity="0.3" cx="33.5248" cy="53.5248" r="1.5248" fill="#F8F8F8"/>
<circle opacity="0.4" cx="53.9456" cy="53.9456" r="1.4456" fill="#F8F8F8"/>
<circle opacity="0.4" cx="73.807" cy="53.807" r="1.307" fill="#F8F8F8"/>
<circle opacity="0.4" cx="93.6486" cy="53.6486" r="1.1486" fill="#F8F8F8"/>
<circle cx="113.99" cy="53.9902" r="0.9902" fill="#F8F8F8"/>
<circle cx="133.812" cy="53.812" r="0.812" fill="#F8F8F8"/>
<circle cx="153.634" cy="53.6338" r="0.6338" fill="#F8F8F8"/>
<circle cx="173.5" cy="53.5" r="0.5" fill="#F8F8F8"/>
<circle cx="193.5" cy="53.5" r="0.5" fill="#F8F8F8"/>
<circle cx="213.5" cy="53.5" r="0.5" fill="#F8F8F8"/>
<circle cx="233.5" cy="53.5" r="0.5" fill="#F8F8F8"/>
<circle cx="253.5" cy="53.5" r="0.5" fill="#F8F8F8"/>
<circle cx="273.5" cy="53.5" r="0.5" fill="#F8F8F8"/>
<circle cx="293.5" cy="53.5" r="0.5" fill="#F8F8F8"/>
<circle cx="313.5" cy="53.5" r="0.5" fill="#F8F8F8"/>
<circle cx="333.5" cy="53.5" r="0.5" fill="#F8F8F8"/>
<circle opacity="0.3" cx="33.9654" cy="73.9654" r="1.4654" fill="#F8F8F8"/>
<circle opacity="0.4" cx="53.8466" cy="73.8466" r="1.3466" fill="#F8F8F8"/>
<circle opacity="0.4" cx="73.708" cy="73.708" r="1.208" fill="#F8F8F8"/>
<circle opacity="0.4" cx="93.5298" cy="73.5298" r="1.0298" fill="#F8F8F8"/>
<circle cx="113.891" cy="73.8912" r="0.8912" fill="#F8F8F8"/>
<circle cx="133.733" cy="73.7328" r="0.7328" fill="#F8F8F8"/>
<circle cx="153.555" cy="73.5546" r="0.5546" fill="#F8F8F8"/>
<circle cx="173.5" cy="73.5" r="0.5" fill="#F8F8F8"/>
<circle cx="193.5" cy="73.5" r="0.5" fill="#F8F8F8"/>
<circle cx="213.5" cy="73.5" r="0.5" fill="#F8F8F8"/>
<circle cx="233.5" cy="73.5" r="0.5" fill="#F8F8F8"/>
<circle cx="253.5" cy="73.5" r="0.5" fill="#F8F8F8"/>
<circle cx="273.5" cy="73.5" r="0.5" fill="#F8F8F8"/>
<circle cx="293.5" cy="73.5" r="0.5" fill="#F8F8F8"/>
<circle cx="313.5" cy="73.5" r="0.5" fill="#F8F8F8"/>
<circle cx="333.5" cy="73.5" r="0.5" fill="#F8F8F8"/>
<circle opacity="0.3" cx="33.8664" cy="93.8664" r="1.3664" fill="#F8F8F8"/>
<circle opacity="0.4" cx="53.7476" cy="93.7476" r="1.2476" fill="#F8F8F8"/>
<circle opacity="0.4" cx="73.609" cy="93.609" r="1.109" fill="#F8F8F8"/>
<circle opacity="0.4" cx="93.9704" cy="93.9704" r="0.9704" fill="#F8F8F8"/>
<circle cx="113.832" cy="93.8318" r="0.8318" fill="#F8F8F8"/>
<circle cx="133.673" cy="93.6734" r="0.6734" fill="#F8F8F8"/>
<circle cx="153.555" cy="93.5546" r="0.5546" fill="#F8F8F8"/>
<circle cx="173.5" cy="93.5" r="0.5" fill="#F8F8F8"/>
<circle cx="193.5" cy="93.5" r="0.5" fill="#F8F8F8"/>
<circle cx="213.5" cy="93.5" r="0.5" fill="#F8F8F8"/>
<circle cx="233.5" cy="93.5" r="0.5" fill="#F8F8F8"/>
<circle cx="253.5" cy="93.5" r="0.5" fill="#F8F8F8"/>
<circle cx="273.5" cy="93.5" r="0.5" fill="#F8F8F8"/>
<circle cx="293.5" cy="93.5" r="0.5" fill="#F8F8F8"/>
<circle cx="313.5" cy="93.5" r="0.5" fill="#F8F8F8"/>
<circle cx="333.5" cy="93.5" r="0.5" fill="#F8F8F8"/>
<circle cx="33.7674" cy="113.767" r="1.2674" fill="#F8F8F8"/>
<circle cx="53.6684" cy="113.668" r="1.1684" fill="#F8F8F8"/>
<circle cx="73.5496" cy="113.55" r="1.0496" fill="#F8F8F8"/>
<circle cx="93.911" cy="113.911" r="0.911" fill="#F8F8F8"/>
<circle cx="113.812" cy="113.812" r="0.812" fill="#F8F8F8"/>
<circle cx="133.673" cy="113.673" r="0.6734" fill="#F8F8F8"/>
<circle cx="153.574" cy="113.574" r="0.5744" fill="#F8F8F8"/>
<circle cx="173.515" cy="113.515" r="0.515" fill="#F8F8F8"/>
<circle cx="193.5" cy="113.5" r="0.5" fill="#F8F8F8"/>
<circle cx="213.5" cy="113.5" r="0.5" fill="#F8F8F8"/>
<circle cx="233.5" cy="113.5" r="0.5" fill="#F8F8F8"/>
<circle cx="253.5" cy="113.5" r="0.5" fill="#F8F8F8"/>
<circle cx="273.5" cy="113.5" r="0.5" fill="#F8F8F8"/>
<circle cx="293.5" cy="113.5" r="0.5" fill="#F8F8F8"/>
<circle cx="313.5" cy="113.5" r="0.5" fill="#F8F8F8"/>
<circle cx="333.5" cy="113.5" r="0.5" fill="#F8F8F8"/>
<circle cx="33.6882" cy="133.688" r="1.1882" fill="#F8F8F8"/>
<circle cx="53.5892" cy="133.589" r="1.0892" fill="#F8F8F8"/>
<circle cx="73.9902" cy="133.99" r="0.9902" fill="#F8F8F8"/>
<circle cx="293.5" cy="133.5" r="0.5" fill="#F8F8F8"/>
<circle cx="313.5" cy="133.5" r="0.5" fill="#F8F8F8"/>
<circle cx="333.5" cy="133.5" r="0.5" fill="#F8F8F8"/>
<circle cx="33.5892" cy="153.589" r="1.0892" fill="#F8F8F8"/>
<circle cx="53.5298" cy="153.53" r="1.0298" fill="#F8F8F8"/>
<circle cx="73.9506" cy="153.951" r="0.9506" fill="#F8F8F8"/>
<circle cx="293.555" cy="153.555" r="0.5546" fill="#F8F8F8"/>
<circle cx="313.5" cy="153.5" r="0.5" fill="#F8F8F8"/>
<circle cx="333.5" cy="153.5" r="0.5" fill="#F8F8F8"/>
<circle cx="33.5298" cy="173.53" r="1.0298" fill="#F8F8F8"/>
<circle cx="53.9902" cy="173.99" r="0.9902" fill="#F8F8F8"/>
<circle cx="73.9506" cy="173.951" r="0.9506" fill="#F8F8F8"/>
<circle cx="293.713" cy="173.713" r="0.713" fill="#F8F8F8"/>
<circle cx="313.634" cy="173.634" r="0.6338" fill="#F8F8F8"/>
<circle cx="333.574" cy="173.574" r="0.5744" fill="#F8F8F8"/>
<circle cx="33.9704" cy="193.97" r="0.9704" fill="#F8F8F8"/>
<circle cx="53.9506" cy="193.951" r="0.9506" fill="#F8F8F8"/>
<circle cx="73.9506" cy="193.951" r="0.9506" fill="#F8F8F8"/>
<circle cx="293.871" cy="193.871" r="0.8714" fill="#F8F8F8"/>
<circle cx="313.792" cy="193.792" r="0.7922" fill="#F8F8F8"/>
<circle cx="333.693" cy="193.693" r="0.6932" fill="#F8F8F8"/>
<circle cx="33.9506" cy="213.951" r="0.9506" fill="#F8F8F8"/>
<circle cx="53.9506" cy="213.951" r="0.9506" fill="#F8F8F8"/>
<circle cx="73.9704" cy="213.97" r="0.9704" fill="#F8F8F8"/>
<circle cx="293.51" cy="213.51" r="1.01" fill="#F8F8F8"/>
<circle cx="313.911" cy="213.911" r="0.911" fill="#F8F8F8"/>
<circle cx="333.812" cy="213.812" r="0.812" fill="#F8F8F8"/>
<circle cx="33.911" cy="233.911" r="0.911" fill="#F8F8F8"/>
<circle cx="53.9506" cy="233.951" r="0.9506" fill="#F8F8F8"/>
<circle cx="73.9902" cy="233.99" r="0.9902" fill="#F8F8F8"/>
<circle cx="293.589" cy="233.589" r="1.0892" fill="#F8F8F8"/>
<circle cx="313.51" cy="233.51" r="1.01" fill="#F8F8F8"/>
<circle cx="333.911" cy="233.911" r="0.911" fill="#F8F8F8"/>
<circle cx="33.911" cy="253.911" r="0.911" fill="#F8F8F8"/>
<circle opacity="0.5" cx="53.9506" cy="253.951" r="0.9506" fill="#F8F8F8"/>
<circle opacity="0.5" cx="73.5298" cy="253.53" r="1.0298" fill="#F8F8F8"/>
<circle cx="93.609" cy="253.609" r="1.109" fill="#F8F8F8"/>
<circle cx="113.668" cy="253.668" r="1.1684" fill="#F8F8F8"/>
<circle cx="133.728" cy="253.728" r="1.2278" fill="#F8F8F8"/>
<circle cx="233.807" cy="253.807" r="1.307" fill="#F8F8F8"/>
<circle cx="253.787" cy="253.787" r="1.2872" fill="#F8F8F8"/>
<circle cx="273.748" cy="253.748" r="1.2476" fill="#F8F8F8"/>
<circle cx="293.708" cy="253.708" r="1.208" fill="#F8F8F8"/>
<circle cx="313.609" cy="253.609" r="1.109" fill="#F8F8F8"/>
<circle cx="333.51" cy="253.51" r="1.01" fill="#F8F8F8"/>
<circle cx="33.8912" cy="273.891" r="0.8912" fill="#F8F8F8"/>
<circle opacity="0.5" cx="53.9704" cy="273.97" r="0.9704" fill="#F8F8F8"/>
<circle opacity="0.5" cx="73.5496" cy="273.55" r="1.0496" fill="#F8F8F8"/>
<circle cx="93.6486" cy="273.649" r="1.1486" fill="#F8F8F8"/>
<circle cx="113.728" cy="273.728" r="1.2278" fill="#F8F8F8"/>
<circle cx="133.807" cy="273.807" r="1.307" fill="#F8F8F8"/>
<circle cx="233.906" cy="273.906" r="1.406" fill="#F8F8F8"/>
<circle cx="253.886" cy="273.886" r="1.3862" fill="#F8F8F8"/>
<circle cx="273.847" cy="273.847" r="1.3466" fill="#F8F8F8"/>
<circle cx="293.787" cy="273.787" r="1.2872" fill="#F8F8F8"/>
<circle cx="313.708" cy="273.708" r="1.208" fill="#F8F8F8"/>
<circle cx="333.589" cy="273.589" r="1.0892" fill="#F8F8F8"/>
<circle opacity="0.5" cx="33.911" cy="293.911" r="0.911" fill="#F8F8F8"/>
<circle opacity="0.5" cx="53.9902" cy="293.99" r="0.9902" fill="#F8F8F8"/>
<circle opacity="0.5" cx="73.5892" cy="293.589" r="1.0892" fill="#F8F8F8"/>
<circle cx="93.6882" cy="293.688" r="1.1882" fill="#F8F8F8"/>
<circle cx="113.767" cy="293.767" r="1.2674" fill="#F8F8F8"/>
<circle cx="133.847" cy="293.847" r="1.3466" fill="#F8F8F8"/>
<circle cx="233.965" cy="293.965" r="1.4654" fill="#F8F8F8"/>
<circle cx="253.946" cy="293.946" r="1.4456" fill="#F8F8F8"/>
<circle opacity="0.3" cx="273.906" cy="293.906" r="1.406" fill="#F8F8F8"/>
<circle opacity="0.3" cx="293.866" cy="293.866" r="1.3664" fill="#F8F8F8"/>
<circle opacity="0.3" cx="313.787" cy="293.787" r="1.2872" fill="#F8F8F8"/>
<circle cx="333.668" cy="293.668" r="1.1684" fill="#F8F8F8"/>
<circle opacity="0.5" cx="33.9308" cy="313.931" r="0.9308" fill="#F8F8F8"/>
<circle opacity="0.5" cx="53.51" cy="313.51" r="1.01" fill="#F8F8F8"/>
<circle opacity="0.5" cx="73.609" cy="313.609" r="1.109" fill="#F8F8F8"/>
<circle cx="93.708" cy="313.708" r="1.208" fill="#F8F8F8"/>
<circle cx="113.787" cy="313.787" r="1.2872" fill="#F8F8F8"/>
<circle opacity="0.3" cx="133.866" cy="313.866" r="1.3664" fill="#F8F8F8"/>
<circle opacity="0.3" cx="153.926" cy="313.926" r="1.4258" fill="#F8F8F8"/>
<circle opacity="0.3" cx="173.965" cy="313.965" r="1.4654" fill="#F8F8F8"/>
<circle opacity="0.3" cx="193.985" cy="313.985" r="1.4852" fill="#F8F8F8"/>
<circle opacity="0.3" cx="213.505" cy="313.505" r="1.505" fill="#F8F8F8"/>
<circle opacity="0.3" cx="233.505" cy="313.505" r="1.505" fill="#F8F8F8"/>
<circle cx="253.985" cy="313.985" r="1.4852" fill="#F8F8F8"/>
<circle opacity="0.3" cx="273.965" cy="313.965" r="1.4654" fill="#F8F8F8"/>
<circle opacity="0.3" cx="293.926" cy="313.926" r="1.4258" fill="#F8F8F8"/>
<circle opacity="0.3" cx="313.847" cy="313.847" r="1.3466" fill="#F8F8F8"/>
<circle cx="333.748" cy="313.748" r="1.2476" fill="#F8F8F8"/>
<circle opacity="0.5" cx="33.9902" cy="333.99" r="0.9902" fill="#F8F8F8"/>
<circle opacity="0.5" cx="53.5298" cy="333.53" r="1.0298" fill="#F8F8F8"/>
<circle opacity="0.5" cx="73.6288" cy="333.629" r="1.1288" fill="#F8F8F8"/>
<circle cx="93.708" cy="333.708" r="1.208" fill="#F8F8F8"/>
<circle cx="113.787" cy="333.787" r="1.2872" fill="#F8F8F8"/>
<circle opacity="0.3" cx="133.866" cy="333.866" r="1.3664" fill="#F8F8F8"/>
<circle opacity="0.3" cx="153.926" cy="333.926" r="1.4258" fill="#F8F8F8"/>
<circle opacity="0.3" cx="173.965" cy="333.965" r="1.4654" fill="#F8F8F8"/>
<circle opacity="0.3" cx="193.985" cy="333.985" r="1.4852" fill="#F8F8F8"/>
<circle opacity="0.3" cx="213.505" cy="333.505" r="1.505" fill="#F8F8F8"/>
<circle opacity="0.3" cx="233.505" cy="333.505" r="1.505" fill="#F8F8F8"/>
<circle cx="253.505" cy="333.505" r="1.505" fill="#F8F8F8"/>
<circle cx="273.505" cy="333.505" r="1.505" fill="#F8F8F8"/>
<circle cx="293.965" cy="333.965" r="1.4654" fill="#F8F8F8"/>
<circle cx="313.906" cy="333.906" r="1.406" fill="#F8F8F8"/>
<circle cx="333.807" cy="333.807" r="1.307" fill="#F8F8F8"/>
</g>
</g>
</g>
<mask id="mask1_5131_98531" style="mask-type:alpha" maskUnits="userSpaceOnUse" x="159" y="236" width="50" height="132">
<rect x="159" y="236" width="50" height="132" fill="url(#paint1_linear_5131_98531)"/>
</mask>
<g mask="url(#mask1_5131_98531)">
<path opacity="0.5" d="M180 235L180 302.686C180 304.808 179.157 306.843 177.657 308.343L162.343 323.657C160.843 325.157 160 327.192 160 329.314L160 380" stroke="url(#paint2_linear_5131_98531)" stroke-width="1.5"/>
<path opacity="0.25" d="M203 392L203 343.753C203 341.667 202.185 339.664 200.73 338.17L186.27 323.33C184.815 321.836 184 319.833 184 317.747L184 235" stroke="url(#paint3_linear_5131_98531)" stroke-width="1.5"/>
<path opacity="0.25" d="M207 392L207 298.648C207 296.331 205.995 294.127 204.245 292.608L190.755 280.892C189.005 279.373 188 277.169 188 274.852L188 235" stroke="url(#paint4_linear_5131_98531)" stroke-width="1.5"/>
<path d="M207 306L207 318" stroke="#F8F8F8" stroke-width="1.5"/>
<path opacity="0.5" d="M184 291L184 298" stroke="#F8F8F8" stroke-width="1.5"/>
<path d="M180 255L180 264" stroke="#F8F8F8" stroke-width="1.5"/>
</g>
<path opacity="0.3" d="M126 -19.0054V71.1192C126 72.1249 126.379 73.0826 127.061 73.8215L142.658 90.7135C143.416 91.5336 144.481 92 145.597 92H184H222.403C223.519 92 224.584 91.5336 225.342 90.7135L240.939 73.8215C241.621 73.0826 242 72.1249 242 71.1192V-19.0054C242 -21.2145 240.209 -23 238 -23H130C127.791 -23 126 -21.2145 126 -19.0054Z" stroke="url(#paint5_linear_5131_98531)" stroke-width="1.5"/>
<path opacity="0.3" d="M126 -19.0054V71.1192C126 72.1249 126.379 73.0826 127.061 73.8215L142.658 90.7135C143.416 91.5336 144.481 92 145.597 92H184H222.403C223.519 92 224.584 91.5336 225.342 90.7135L240.939 73.8215C241.621 73.0826 242 72.1249 242 71.1192V-19.0054C242 -21.2145 240.209 -23 238 -23H130C127.791 -23 126 -21.2145 126 -19.0054Z" fill="url(#paint6_linear_5131_98531)"/>
<path opacity="0.3" d="M120 -24.9493V75.0674C120 76.0731 120.379 77.0314 121.061 77.7704L138.504 96.6618C139.262 97.4819 140.327 97.9482 141.443 97.9482H184H226.557C227.673 97.9482 228.738 97.4819 229.496 96.6618L246.939 77.7704C247.621 77.0314 248 76.0731 248 75.0674V-24.9493C248 -27.1584 246.209 -28.9483 244 -28.9483H124C121.791 -28.9483 120 -27.1584 120 -24.9493Z" stroke="url(#paint7_linear_5131_98531)" stroke-width="1.5"/>
<path opacity="0.3" d="M120 -24.9493V75.0674C120 76.0731 120.379 77.0314 121.061 77.7704L138.504 96.6618C139.262 97.4819 140.327 97.9482 141.443 97.9482H184H226.557C227.673 97.9482 228.738 97.4819 229.496 96.6618L246.939 77.7704C247.621 77.0314 248 76.0731 248 75.0674V-24.9493C248 -27.1584 246.209 -28.9483 244 -28.9483H124C121.791 -28.9483 120 -27.1584 120 -24.9493Z" fill="url(#paint8_linear_5131_98531)"/>
<defs>
<radialGradient id="paint0_radial_5131_98531" cx="0" cy="0" r="1" gradientUnits="userSpaceOnUse" gradientTransform="translate(184 184) rotate(90) scale(184)">
<stop offset="0.433142" stop-color="#737373" stop-opacity="0"/>
<stop offset="1" stop-color="#D9D9D9"/>
</radialGradient>
<linearGradient id="paint1_linear_5131_98531" x1="184" y1="236" x2="184" y2="368" gradientUnits="userSpaceOnUse">
<stop offset="0.391024" stop-color="#D9D9D9"/>
<stop offset="1" stop-color="#737373" stop-opacity="0"/>
</linearGradient>
<linearGradient id="paint2_linear_5131_98531" x1="180" y1="380" x2="118.362" y2="363.543" gradientUnits="userSpaceOnUse">
<stop stop-color="#F8F8F8" stop-opacity="0.8"/>
<stop offset="0.45221" stop-color="#F8F8F8" stop-opacity="0.2"/>
<stop offset="1" stop-color="#F8F8F8" stop-opacity="0.8"/>
</linearGradient>
<linearGradient id="paint3_linear_5131_98531" x1="203" y1="325.5" x2="149.162" y2="303.62" gradientUnits="userSpaceOnUse">
<stop stop-color="#F8F8F8" stop-opacity="0.8"/>
<stop offset="0.54779" stop-color="#F8F8F8" stop-opacity="0.2"/>
<stop offset="1" stop-color="#F8F8F8" stop-opacity="0.8"/>
</linearGradient>
<linearGradient id="paint4_linear_5131_98531" x1="207" y1="325.5" x2="153.162" y2="303.62" gradientUnits="userSpaceOnUse">
<stop stop-color="#F8F8F8" stop-opacity="0.8"/>
<stop offset="0.54779" stop-color="#F8F8F8" stop-opacity="0.2"/>
<stop offset="1" stop-color="#F8F8F8" stop-opacity="0.8"/>
</linearGradient>
<linearGradient id="paint5_linear_5131_98531" x1="184" y1="-23" x2="184" y2="92" gradientUnits="userSpaceOnUse">
<stop offset="0.522974" stop-color="#F8F8F8" stop-opacity="0"/>
<stop offset="1" stop-color="#F8F8F8" stop-opacity="0.1"/>
</linearGradient>
<linearGradient id="paint6_linear_5131_98531" x1="184" y1="-23" x2="184" y2="92" gradientUnits="userSpaceOnUse">
<stop offset="0.522974" stop-color="#F8F8F8" stop-opacity="0"/>
<stop offset="1" stop-color="#F8F8F8" stop-opacity="0.1"/>
</linearGradient>
<linearGradient id="paint7_linear_5131_98531" x1="184" y1="-28.9483" x2="184" y2="97.9482" gradientUnits="userSpaceOnUse">
<stop offset="0.522974" stop-color="#F8F8F8" stop-opacity="0"/>
<stop offset="1" stop-color="#F8F8F8" stop-opacity="0.1"/>
</linearGradient>
<linearGradient id="paint8_linear_5131_98531" x1="184" y1="-28.9483" x2="184" y2="97.9482" gradientUnits="userSpaceOnUse">
<stop offset="0.522974" stop-color="#F8F8F8" stop-opacity="0"/>
<stop offset="1" stop-color="#F8F8F8" stop-opacity="0.1"/>
</linearGradient>
<clipPath id="clip0_5131_98531">
<rect width="336" height="336" fill="white" transform="translate(16 16)"/>
</clipPath>
</defs>
</svg>
