<svg width="368" height="475" viewBox="0 0 368 475" fill="none" xmlns="http://www.w3.org/2000/svg">
<g clip-path="url(#clip0_5145_109765)">
<g opacity="0.1">
<circle opacity="0.3" cx="33.5842" cy="33.5842" r="1.5842" fill="#F8F8F8"/>
<circle cx="53.505" cy="33.505" r="1.505" fill="#F8F8F8"/>
<circle cx="73.8862" cy="33.8862" r="1.3862" fill="#F8F8F8"/>
<circle cx="293.5" cy="33.5" r="0.5" fill="#F8F8F8"/>
<circle cx="313.5" cy="33.5" r="0.5" fill="#F8F8F8"/>
<circle cx="333.5" cy="33.5" r="0.5" fill="#F8F8F8"/>
<circle opacity="0.3" cx="33.5248" cy="53.5248" r="1.5248" fill="#F8F8F8"/>
<circle opacity="0.4" cx="53.9456" cy="53.9456" r="1.4456" fill="#F8F8F8"/>
<circle opacity="0.4" cx="73.807" cy="53.807" r="1.307" fill="#F8F8F8"/>
<circle cx="293.5" cy="53.5" r="0.5" fill="#F8F8F8"/>
<circle cx="313.5" cy="53.5" r="0.5" fill="#F8F8F8"/>
<circle cx="333.5" cy="53.5" r="0.5" fill="#F8F8F8"/>
<circle opacity="0.3" cx="33.9654" cy="73.9654" r="1.4654" fill="#F8F8F8"/>
<circle opacity="0.4" cx="53.8466" cy="73.8466" r="1.3466" fill="#F8F8F8"/>
<circle opacity="0.4" cx="73.708" cy="73.708" r="1.208" fill="#F8F8F8"/>
<circle cx="293.5" cy="73.5" r="0.5" fill="#F8F8F8"/>
<circle cx="313.5" cy="73.5" r="0.5" fill="#F8F8F8"/>
<circle cx="333.5" cy="73.5" r="0.5" fill="#F8F8F8"/>
<circle opacity="0.3" cx="33.8664" cy="93.8664" r="1.3664" fill="#F8F8F8"/>
<circle opacity="0.4" cx="53.7476" cy="93.7476" r="1.2476" fill="#F8F8F8"/>
<circle opacity="0.4" cx="73.609" cy="93.609" r="1.109" fill="#F8F8F8"/>
<circle cx="293.5" cy="93.5" r="0.5" fill="#F8F8F8"/>
<circle cx="313.5" cy="93.5" r="0.5" fill="#F8F8F8"/>
<circle cx="333.5" cy="93.5" r="0.5" fill="#F8F8F8"/>
<circle cx="33.7674" cy="113.767" r="1.2674" fill="#F8F8F8"/>
<circle cx="53.6684" cy="113.668" r="1.1684" fill="#F8F8F8"/>
<circle cx="73.5496" cy="113.55" r="1.0496" fill="#F8F8F8"/>
<circle cx="293.5" cy="113.5" r="0.5" fill="#F8F8F8"/>
<circle cx="313.5" cy="113.5" r="0.5" fill="#F8F8F8"/>
<circle cx="333.5" cy="113.5" r="0.5" fill="#F8F8F8"/>
<circle cx="33.6882" cy="133.688" r="1.1882" fill="#F8F8F8"/>
<circle cx="53.5892" cy="133.589" r="1.0892" fill="#F8F8F8"/>
<circle cx="73.9902" cy="133.99" r="0.9902" fill="#F8F8F8"/>
<circle cx="293.5" cy="133.5" r="0.5" fill="#F8F8F8"/>
<circle cx="313.5" cy="133.5" r="0.5" fill="#F8F8F8"/>
<circle cx="333.5" cy="133.5" r="0.5" fill="#F8F8F8"/>
<circle cx="53.5298" cy="153.53" r="1.0298" fill="#F8F8F8"/>
<circle cx="73.9506" cy="153.951" r="0.9506" fill="#F8F8F8"/>
<circle cx="293.555" cy="153.555" r="0.5546" fill="#F8F8F8"/>
<circle cx="313.5" cy="153.5" r="0.5" fill="#F8F8F8"/>
<circle cx="53.9902" cy="173.99" r="0.9902" fill="#F8F8F8"/>
<circle cx="73.9506" cy="173.951" r="0.9506" fill="#F8F8F8"/>
<circle cx="293.713" cy="173.713" r="0.713" fill="#F8F8F8"/>
<circle cx="313.634" cy="173.634" r="0.6338" fill="#F8F8F8"/>
<circle cx="53.9506" cy="193.951" r="0.9506" fill="#F8F8F8"/>
<circle cx="73.9506" cy="193.951" r="0.9506" fill="#F8F8F8"/>
<circle cx="293.871" cy="193.871" r="0.8714" fill="#F8F8F8"/>
<circle cx="313.792" cy="193.792" r="0.7922" fill="#F8F8F8"/>
<circle cx="53.9506" cy="213.951" r="0.9506" fill="#F8F8F8"/>
<circle cx="73.9704" cy="213.97" r="0.9704" fill="#F8F8F8"/>
<circle cx="293.51" cy="213.51" r="1.01" fill="#F8F8F8"/>
<circle cx="313.911" cy="213.911" r="0.911" fill="#F8F8F8"/>
<circle cx="33.911" cy="233.911" r="0.911" fill="#F8F8F8"/>
<circle cx="53.9506" cy="233.951" r="0.9506" fill="#F8F8F8"/>
<circle cx="73.9902" cy="233.99" r="0.9902" fill="#F8F8F8"/>
<circle cx="293.589" cy="233.589" r="1.0892" fill="#F8F8F8"/>
<circle cx="313.51" cy="233.51" r="1.01" fill="#F8F8F8"/>
<circle cx="333.911" cy="233.911" r="0.911" fill="#F8F8F8"/>
<circle cx="33.911" cy="253.911" r="0.911" fill="#F8F8F8"/>
<circle opacity="0.5" cx="53.9506" cy="253.951" r="0.9506" fill="#F8F8F8"/>
<circle opacity="0.5" cx="73.5298" cy="253.53" r="1.0298" fill="#F8F8F8"/>
<circle cx="293.708" cy="253.708" r="1.208" fill="#F8F8F8"/>
<circle cx="313.609" cy="253.609" r="1.109" fill="#F8F8F8"/>
<circle cx="333.51" cy="253.51" r="1.01" fill="#F8F8F8"/>
<circle cx="33.8912" cy="273.891" r="0.8912" fill="#F8F8F8"/>
<circle opacity="0.5" cx="53.9704" cy="273.97" r="0.9704" fill="#F8F8F8"/>
<circle opacity="0.5" cx="73.5496" cy="273.55" r="1.0496" fill="#F8F8F8"/>
<circle cx="93.6486" cy="273.649" r="1.1486" fill="#F8F8F8"/>
<circle cx="273.847" cy="273.847" r="1.3466" fill="#F8F8F8"/>
<circle cx="293.787" cy="273.787" r="1.2872" fill="#F8F8F8"/>
<circle cx="313.708" cy="273.708" r="1.208" fill="#F8F8F8"/>
<circle cx="333.589" cy="273.589" r="1.0892" fill="#F8F8F8"/>
<circle opacity="0.5" cx="33.911" cy="293.911" r="0.911" fill="#F8F8F8"/>
<circle opacity="0.5" cx="53.9902" cy="293.99" r="0.9902" fill="#F8F8F8"/>
<circle opacity="0.5" cx="73.5892" cy="293.589" r="1.0892" fill="#F8F8F8"/>
<circle cx="93.6882" cy="293.688" r="1.1882" fill="#F8F8F8"/>
<circle cx="113.767" cy="293.767" r="1.2674" fill="#F8F8F8"/>
<circle cx="253.946" cy="293.946" r="1.4456" fill="#F8F8F8"/>
<circle opacity="0.3" cx="273.906" cy="293.906" r="1.406" fill="#F8F8F8"/>
<circle opacity="0.3" cx="293.866" cy="293.866" r="1.3664" fill="#F8F8F8"/>
<circle opacity="0.3" cx="313.787" cy="293.787" r="1.2872" fill="#F8F8F8"/>
<circle cx="333.668" cy="293.668" r="1.1684" fill="#F8F8F8"/>
<circle opacity="0.5" cx="33.9308" cy="313.931" r="0.9308" fill="#F8F8F8"/>
<circle opacity="0.5" cx="53.51" cy="313.51" r="1.01" fill="#F8F8F8"/>
<circle opacity="0.5" cx="73.609" cy="313.609" r="1.109" fill="#F8F8F8"/>
<circle cx="93.708" cy="313.708" r="1.208" fill="#F8F8F8"/>
<circle cx="113.787" cy="313.787" r="1.2872" fill="#F8F8F8"/>
<circle opacity="0.3" cx="133.866" cy="313.866" r="1.3664" fill="#F8F8F8"/>
<circle opacity="0.3" cx="153.926" cy="313.926" r="1.4258" fill="#F8F8F8"/>
<circle opacity="0.3" cx="173.965" cy="313.965" r="1.4654" fill="#F8F8F8"/>
<circle opacity="0.3" cx="193.985" cy="313.985" r="1.4852" fill="#F8F8F8"/>
<circle opacity="0.3" cx="213.505" cy="313.505" r="1.505" fill="#F8F8F8"/>
<circle opacity="0.3" cx="233.505" cy="313.505" r="1.505" fill="#F8F8F8"/>
<circle cx="253.985" cy="313.985" r="1.4852" fill="#F8F8F8"/>
<circle opacity="0.3" cx="273.965" cy="313.965" r="1.4654" fill="#F8F8F8"/>
<circle opacity="0.3" cx="293.926" cy="313.926" r="1.4258" fill="#F8F8F8"/>
<circle opacity="0.3" cx="313.847" cy="313.847" r="1.3466" fill="#F8F8F8"/>
<circle cx="333.748" cy="313.748" r="1.2476" fill="#F8F8F8"/>
<circle opacity="0.5" cx="33.9902" cy="333.99" r="0.9902" fill="#F8F8F8"/>
<circle opacity="0.5" cx="53.5298" cy="333.53" r="1.0298" fill="#F8F8F8"/>
<circle opacity="0.5" cx="73.6288" cy="333.629" r="1.1288" fill="#F8F8F8"/>
<circle cx="93.708" cy="333.708" r="1.208" fill="#F8F8F8"/>
<circle cx="113.787" cy="333.787" r="1.2872" fill="#F8F8F8"/>
<circle opacity="0.3" cx="133.866" cy="333.866" r="1.3664" fill="#F8F8F8"/>
<circle opacity="0.3" cx="153.926" cy="333.926" r="1.4258" fill="#F8F8F8"/>
<circle opacity="0.3" cx="173.965" cy="333.965" r="1.4654" fill="#F8F8F8"/>
<circle opacity="0.3" cx="193.985" cy="333.985" r="1.4852" fill="#F8F8F8"/>
<circle opacity="0.3" cx="213.505" cy="333.505" r="1.505" fill="#F8F8F8"/>
<circle opacity="0.3" cx="233.505" cy="333.505" r="1.505" fill="#F8F8F8"/>
<circle cx="253.505" cy="333.505" r="1.505" fill="#F8F8F8"/>
<circle cx="273.505" cy="333.505" r="1.505" fill="#F8F8F8"/>
<circle cx="293.965" cy="333.965" r="1.4654" fill="#F8F8F8"/>
<circle cx="313.906" cy="333.906" r="1.406" fill="#F8F8F8"/>
<circle cx="333.807" cy="333.807" r="1.307" fill="#F8F8F8"/>
</g>
</g>
<rect x="71" y="72" width="224" height="224" rx="112" fill="#282828" fill-opacity="0.3" style="mix-blend-mode:luminosity"/>
<g filter="url(#filter0_b_5145_109765)">
<rect x="77" y="78" width="212" height="212" rx="106" fill="#F8F8F8" fill-opacity="0.01" style="mix-blend-mode:luminosity"/>
<rect x="77" y="78" width="212" height="212" rx="106" stroke="url(#paint0_linear_5145_109765)" stroke-opacity="0.25" stroke-width="1.5"/>
</g>
<rect x="43" y="44" width="280" height="280" rx="140" stroke="url(#paint1_linear_5145_109765)" stroke-opacity="0.25" stroke-width="1.5"/>
<g filter="url(#filter1_b_5145_109765)">
<path d="M108.047 109.047C117.89 99.2037 129.575 91.3958 142.436 86.0688C155.296 80.7418 169.08 78 183 78C196.92 78 210.704 80.7418 223.564 86.0688C236.425 91.3958 248.11 99.2037 257.953 109.047L183 184L108.047 109.047Z" fill="#F8F8F8" fill-opacity="0.05" style="mix-blend-mode:luminosity"/>
<path d="M108.047 109.047C117.89 99.2037 129.575 91.3958 142.436 86.0688C155.296 80.7418 169.08 78 183 78C196.92 78 210.704 80.7418 223.564 86.0688C236.425 91.3958 248.11 99.2037 257.953 109.047L183 184L108.047 109.047Z" stroke="#F8F8F8" stroke-opacity="0.1" stroke-width="1.5"/>
</g>
<mask id="mask0_5145_109765" style="mask-type:alpha" maskUnits="userSpaceOnUse" x="106" y="77" width="154" height="109">
<path opacity="0.5" d="M108.047 109.047C117.89 99.2037 129.575 91.3958 142.436 86.0688C155.296 80.7418 169.08 78 183 78C196.92 78 210.704 80.7418 223.564 86.0688C236.425 91.3958 248.11 99.2037 257.953 109.047L183 184L108.047 109.047Z" fill="#D9D9D9" stroke="#F8F8F8" stroke-opacity="0.1" stroke-width="1.5"/>
</mask>
<g mask="url(#mask0_5145_109765)">
<g filter="url(#filter2_f_5145_109765)">
<rect x="123" y="14" width="120" height="120" rx="60" fill="#F8F8F8" fill-opacity="0.2"/>
</g>
</g>
<path d="M133 188L121 188" stroke="#F8F8F8" stroke-width="1.5"/>
<path d="M245 188L233 188" stroke="#F8F8F8" stroke-width="1.5"/>
<mask id="mask1_5145_109765" style="mask-type:alpha" maskUnits="userSpaceOnUse" x="0" y="111" width="368" height="153">
<rect y="111" width="368" height="153" fill="url(#paint2_linear_5145_109765)"/>
</mask>
<g mask="url(#mask1_5145_109765)">
<path opacity="0.3" d="M24.1455 144H-27C-29.2091 144 -31 145.791 -31 148V471C-31 473.209 -29.2091 475 -27 475H395C397.209 475 399 473.209 399 471V148C399 145.791 397.209 144 395 144H344.448C343.307 144 342.221 144.487 341.462 145.338L304.703 186.558C303.944 187.409 302.858 187.896 301.718 187.896H66.8752C65.7349 187.896 64.6488 187.409 63.8898 186.558L27.1309 145.338C26.3719 144.487 25.2858 144 24.1455 144Z" stroke="url(#paint3_linear_5145_109765)" stroke-width="1.5"/>
<path opacity="0.3" d="M24.1455 232H-27C-29.2091 232 -31 230.209 -31 228V-95C-31 -97.2091 -29.2091 -99 -27 -99H395C397.209 -99 399 -97.2091 399 -95V228C399 230.209 397.209 232 395 232H344.448C343.307 232 342.221 231.513 341.462 230.662L304.703 189.442C303.944 188.591 302.858 188.104 301.718 188.104H66.8752C65.7349 188.104 64.6488 188.591 63.8898 189.442L27.1309 230.662C26.3719 231.513 25.2858 232 24.1455 232Z" fill="url(#paint4_linear_5145_109765)"/>
<path opacity="0.5" d="M-31 144H24.1455C25.2858 144 26.3719 144.487 27.1309 145.338L63.8898 186.558C64.6488 187.409 65.7349 187.896 66.8752 187.896H301.718C302.858 187.896 303.944 187.409 304.703 186.558L341.462 145.338C342.221 144.487 343.307 144 344.448 144H399" stroke="url(#paint5_linear_5145_109765)" stroke-width="1.5"/>
<path opacity="0.5" d="M-31 231.896H24.1455C25.2858 231.896 26.3719 231.409 27.1309 230.558L63.8898 189.338C64.6488 188.487 65.7349 188 66.8752 188H301.718C302.858 188 303.944 188.487 304.703 189.338L341.462 230.558C342.221 231.409 343.307 231.896 344.448 231.896H399" stroke="url(#paint6_linear_5145_109765)" stroke-width="1.5"/>
</g>
<defs>
<filter id="filter0_b_5145_109765" x="44.25" y="45.25" width="277.5" height="277.5" filterUnits="userSpaceOnUse" color-interpolation-filters="sRGB">
<feFlood flood-opacity="0" result="BackgroundImageFix"/>
<feGaussianBlur in="BackgroundImageFix" stdDeviation="16"/>
<feComposite in2="SourceAlpha" operator="in" result="effect1_backgroundBlur_5145_109765"/>
<feBlend mode="normal" in="SourceGraphic" in2="effect1_backgroundBlur_5145_109765" result="shape"/>
</filter>
<filter id="filter1_b_5145_109765" x="74.9861" y="45.25" width="216.028" height="171.811" filterUnits="userSpaceOnUse" color-interpolation-filters="sRGB">
<feFlood flood-opacity="0" result="BackgroundImageFix"/>
<feGaussianBlur in="BackgroundImageFix" stdDeviation="16"/>
<feComposite in2="SourceAlpha" operator="in" result="effect1_backgroundBlur_5145_109765"/>
<feBlend mode="normal" in="SourceGraphic" in2="effect1_backgroundBlur_5145_109765" result="shape"/>
</filter>
<filter id="filter2_f_5145_109765" x="63" y="-46" width="240" height="240" filterUnits="userSpaceOnUse" color-interpolation-filters="sRGB">
<feFlood flood-opacity="0" result="BackgroundImageFix"/>
<feBlend mode="normal" in="SourceGraphic" in2="BackgroundImageFix" result="shape"/>
<feGaussianBlur stdDeviation="30" result="effect1_foregroundBlur_5145_109765"/>
</filter>
<linearGradient id="paint0_linear_5145_109765" x1="183" y1="78" x2="275.224" y2="310.802" gradientUnits="userSpaceOnUse">
<stop stop-color="white" stop-opacity="0.4"/>
<stop offset="0.4" stop-color="white" stop-opacity="0.01"/>
<stop offset="0.6" stop-color="white" stop-opacity="0.01"/>
<stop offset="1" stop-color="white" stop-opacity="0.1"/>
</linearGradient>
<linearGradient id="paint1_linear_5145_109765" x1="212.5" y1="-25.5" x2="167.514" y2="341.821" gradientUnits="userSpaceOnUse">
<stop stop-color="white" stop-opacity="0.4"/>
<stop offset="0.4" stop-color="white" stop-opacity="0.01"/>
<stop offset="0.6" stop-color="white" stop-opacity="0.01"/>
<stop offset="1" stop-color="white" stop-opacity="0.1"/>
</linearGradient>
<linearGradient id="paint2_linear_5145_109765" x1="368" y1="187.5" x2="0" y2="187.5" gradientUnits="userSpaceOnUse">
<stop stop-color="#F8F8F8" stop-opacity="0"/>
<stop offset="0.0994155" stop-color="#F8F8F8"/>
<stop offset="0.89874" stop-color="#949494"/>
<stop offset="1" stop-color="#737373" stop-opacity="0"/>
</linearGradient>
<linearGradient id="paint3_linear_5145_109765" x1="289.065" y1="339.159" x2="289.065" y2="144" gradientUnits="userSpaceOnUse">
<stop offset="0.522974" stop-color="white" stop-opacity="0"/>
<stop offset="1" stop-color="white" stop-opacity="0.1"/>
</linearGradient>
<linearGradient id="paint4_linear_5145_109765" x1="289.065" y1="36.8405" x2="289.065" y2="232" gradientUnits="userSpaceOnUse">
<stop offset="0.522974" stop-color="white" stop-opacity="0"/>
<stop offset="1" stop-color="white" stop-opacity="0.1"/>
</linearGradient>
<linearGradient id="paint5_linear_5145_109765" x1="289.065" y1="339.159" x2="289.065" y2="144" gradientUnits="userSpaceOnUse">
<stop offset="0.522974" stop-color="#F8F8F8" stop-opacity="0"/>
<stop offset="1" stop-color="#F8F8F8" stop-opacity="0.1"/>
</linearGradient>
<linearGradient id="paint6_linear_5145_109765" x1="289.065" y1="36.7366" x2="289.065" y2="231.896" gradientUnits="userSpaceOnUse">
<stop offset="0.522974" stop-color="#F8F8F8" stop-opacity="0"/>
<stop offset="1" stop-color="#F8F8F8" stop-opacity="0.1"/>
</linearGradient>
<clipPath id="clip0_5145_109765">
<rect width="336" height="336" fill="white" transform="translate(16 16)"/>
</clipPath>
</defs>
</svg>
