<svg width="336" height="354" viewBox="0 0 336 354" fill="none" xmlns="http://www.w3.org/2000/svg">
<mask id="mask0_5057_19048" style="mask-type:alpha" maskUnits="userSpaceOnUse" x="-20" y="-11" width="376" height="376">
<circle cx="168" cy="177" r="188" fill="url(#paint0_radial_5057_19048)"/>
</mask>
<g mask="url(#mask0_5057_19048)">
</g>
<g clip-path="url(#clip0_5057_19048)">
<mask id="mask1_5057_19048" style="mask-type:alpha" maskUnits="userSpaceOnUse" x="-16" y="-7" width="368" height="368">
<circle cx="168" cy="177" r="184" fill="url(#paint1_radial_5057_19048)"/>
</mask>
<g mask="url(#mask1_5057_19048)">
<g opacity="0.1">
<circle opacity="0.3" cx="17.5842" cy="26.5842" r="1.5842" fill="#F8F8F8"/>
<circle cx="37.505" cy="26.505" r="1.505" fill="#F8F8F8"/>
<circle cx="57.8862" cy="26.8862" r="1.3862" fill="#F8F8F8"/>
<circle cx="77.7278" cy="26.7278" r="1.2278" fill="#F8F8F8"/>
<circle cx="97.5892" cy="26.5892" r="1.0892" fill="#F8F8F8"/>
<circle cx="117.911" cy="26.911" r="0.911" fill="#F8F8F8"/>
<circle cx="137.733" cy="26.7328" r="0.7328" fill="#F8F8F8"/>
<circle cx="157.574" cy="26.5744" r="0.5744" fill="#F8F8F8"/>
<circle cx="177.5" cy="26.5" r="0.5" fill="#F8F8F8"/>
<circle cx="197.5" cy="26.5" r="0.5" fill="#F8F8F8"/>
<circle cx="217.5" cy="26.5" r="0.5" fill="#F8F8F8"/>
<circle cx="237.5" cy="26.5" r="0.5" fill="#F8F8F8"/>
<circle cx="257.5" cy="26.5" r="0.5" fill="#F8F8F8"/>
<circle cx="277.5" cy="26.5" r="0.5" fill="#F8F8F8"/>
<circle cx="297.5" cy="26.5" r="0.5" fill="#F8F8F8"/>
<circle cx="317.5" cy="26.5" r="0.5" fill="#F8F8F8"/>
<circle opacity="0.3" cx="17.5248" cy="46.5248" r="1.5248" fill="#F8F8F8"/>
<circle opacity="0.4" cx="37.9456" cy="46.9456" r="1.4456" fill="#F8F8F8"/>
<circle opacity="0.4" cx="57.807" cy="46.807" r="1.307" fill="#F8F8F8"/>
<circle opacity="0.4" cx="77.6486" cy="46.6486" r="1.1486" fill="#F8F8F8"/>
<circle cx="97.9902" cy="46.9902" r="0.9902" fill="#F8F8F8"/>
<circle cx="117.812" cy="46.812" r="0.812" fill="#F8F8F8"/>
<circle cx="137.634" cy="46.6338" r="0.6338" fill="#F8F8F8"/>
<circle cx="157.5" cy="46.5" r="0.5" fill="#F8F8F8"/>
<circle cx="177.5" cy="46.5" r="0.5" fill="#F8F8F8"/>
<circle cx="197.5" cy="46.5" r="0.5" fill="#F8F8F8"/>
<circle cx="217.5" cy="46.5" r="0.5" fill="#F8F8F8"/>
<circle cx="237.5" cy="46.5" r="0.5" fill="#F8F8F8"/>
<circle cx="257.5" cy="46.5" r="0.5" fill="#F8F8F8"/>
<circle cx="277.5" cy="46.5" r="0.5" fill="#F8F8F8"/>
<circle cx="297.5" cy="46.5" r="0.5" fill="#F8F8F8"/>
<circle cx="317.5" cy="46.5" r="0.5" fill="#F8F8F8"/>
<circle opacity="0.3" cx="17.9654" cy="66.9654" r="1.4654" fill="#F8F8F8"/>
<circle opacity="0.4" cx="37.8466" cy="66.8466" r="1.3466" fill="#F8F8F8"/>
<circle opacity="0.4" cx="57.708" cy="66.708" r="1.208" fill="#F8F8F8"/>
<circle opacity="0.4" cx="77.5298" cy="66.5298" r="1.0298" fill="#F8F8F8"/>
<circle cx="97.8912" cy="66.8912" r="0.8912" fill="#F8F8F8"/>
<circle cx="117.733" cy="66.7328" r="0.7328" fill="#F8F8F8"/>
<circle cx="137.555" cy="66.5546" r="0.5546" fill="#F8F8F8"/>
<circle cx="157.5" cy="66.5" r="0.5" fill="#F8F8F8"/>
<circle cx="177.5" cy="66.5" r="0.5" fill="#F8F8F8"/>
<circle cx="197.5" cy="66.5" r="0.5" fill="#F8F8F8"/>
<circle cx="217.5" cy="66.5" r="0.5" fill="#F8F8F8"/>
<circle cx="237.5" cy="66.5" r="0.5" fill="#F8F8F8"/>
<circle cx="257.5" cy="66.5" r="0.5" fill="#F8F8F8"/>
<circle cx="277.5" cy="66.5" r="0.5" fill="#F8F8F8"/>
<circle cx="297.5" cy="66.5" r="0.5" fill="#F8F8F8"/>
<circle cx="317.5" cy="66.5" r="0.5" fill="#F8F8F8"/>
<circle opacity="0.3" cx="17.8664" cy="86.8664" r="1.3664" fill="#F8F8F8"/>
<circle opacity="0.4" cx="37.7476" cy="86.7476" r="1.2476" fill="#F8F8F8"/>
<circle opacity="0.4" cx="57.609" cy="86.609" r="1.109" fill="#F8F8F8"/>
<circle opacity="0.4" cx="77.9704" cy="86.9704" r="0.9704" fill="#F8F8F8"/>
<circle cx="97.8318" cy="86.8318" r="0.8318" fill="#F8F8F8"/>
<circle cx="117.673" cy="86.6734" r="0.6734" fill="#F8F8F8"/>
<circle cx="137.555" cy="86.5546" r="0.5546" fill="#F8F8F8"/>
<circle cx="157.5" cy="86.5" r="0.5" fill="#F8F8F8"/>
<circle cx="177.5" cy="86.5" r="0.5" fill="#F8F8F8"/>
<circle cx="197.5" cy="86.5" r="0.5" fill="#F8F8F8"/>
<circle cx="217.5" cy="86.5" r="0.5" fill="#F8F8F8"/>
<circle cx="237.5" cy="86.5" r="0.5" fill="#F8F8F8"/>
<circle cx="257.5" cy="86.5" r="0.5" fill="#F8F8F8"/>
<circle cx="277.5" cy="86.5" r="0.5" fill="#F8F8F8"/>
<circle cx="297.5" cy="86.5" r="0.5" fill="#F8F8F8"/>
<circle cx="317.5" cy="86.5" r="0.5" fill="#F8F8F8"/>
<circle cx="17.7674" cy="106.767" r="1.2674" fill="#F8F8F8"/>
<circle cx="37.6684" cy="106.668" r="1.1684" fill="#F8F8F8"/>
<circle cx="57.5496" cy="106.55" r="1.0496" fill="#F8F8F8"/>
<circle cx="77.911" cy="106.911" r="0.911" fill="#F8F8F8"/>
<circle cx="97.812" cy="106.812" r="0.812" fill="#F8F8F8"/>
<circle cx="117.673" cy="106.673" r="0.6734" fill="#F8F8F8"/>
<circle cx="137.574" cy="106.574" r="0.5744" fill="#F8F8F8"/>
<circle cx="157.515" cy="106.515" r="0.515" fill="#F8F8F8"/>
<circle cx="177.5" cy="106.5" r="0.5" fill="#F8F8F8"/>
<circle cx="197.5" cy="106.5" r="0.5" fill="#F8F8F8"/>
<circle cx="217.5" cy="106.5" r="0.5" fill="#F8F8F8"/>
<circle cx="237.5" cy="106.5" r="0.5" fill="#F8F8F8"/>
<circle cx="257.5" cy="106.5" r="0.5" fill="#F8F8F8"/>
<circle cx="277.5" cy="106.5" r="0.5" fill="#F8F8F8"/>
<circle cx="297.5" cy="106.5" r="0.5" fill="#F8F8F8"/>
<circle cx="317.5" cy="106.5" r="0.5" fill="#F8F8F8"/>
<circle cx="17.6882" cy="126.688" r="1.1882" fill="#F8F8F8"/>
<circle cx="37.5892" cy="126.589" r="1.0892" fill="#F8F8F8"/>
<circle cx="57.9902" cy="126.99" r="0.9902" fill="#F8F8F8"/>
<circle cx="277.5" cy="126.5" r="0.5" fill="#F8F8F8"/>
<circle cx="297.5" cy="126.5" r="0.5" fill="#F8F8F8"/>
<circle cx="317.5" cy="126.5" r="0.5" fill="#F8F8F8"/>
<circle cx="17.5892" cy="146.589" r="1.0892" fill="#F8F8F8"/>
<circle cx="37.5298" cy="146.53" r="1.0298" fill="#F8F8F8"/>
<circle cx="57.9506" cy="146.951" r="0.9506" fill="#F8F8F8"/>
<circle cx="277.555" cy="146.555" r="0.5546" fill="#F8F8F8"/>
<circle cx="297.5" cy="146.5" r="0.5" fill="#F8F8F8"/>
<circle cx="317.5" cy="146.5" r="0.5" fill="#F8F8F8"/>
<circle cx="17.5298" cy="166.53" r="1.0298" fill="#F8F8F8"/>
<circle cx="37.9902" cy="166.99" r="0.9902" fill="#F8F8F8"/>
<circle cx="57.9506" cy="166.951" r="0.9506" fill="#F8F8F8"/>
<circle cx="277.713" cy="166.713" r="0.713" fill="#F8F8F8"/>
<circle cx="297.634" cy="166.634" r="0.6338" fill="#F8F8F8"/>
<circle cx="317.574" cy="166.574" r="0.5744" fill="#F8F8F8"/>
<circle cx="17.9704" cy="186.97" r="0.9704" fill="#F8F8F8"/>
<circle cx="37.9506" cy="186.951" r="0.9506" fill="#F8F8F8"/>
<circle cx="57.9506" cy="186.951" r="0.9506" fill="#F8F8F8"/>
<circle cx="277.871" cy="186.871" r="0.8714" fill="#F8F8F8"/>
<circle cx="297.792" cy="186.792" r="0.7922" fill="#F8F8F8"/>
<circle cx="317.693" cy="186.693" r="0.6932" fill="#F8F8F8"/>
<circle cx="17.9506" cy="206.951" r="0.9506" fill="#F8F8F8"/>
<circle cx="37.9506" cy="206.951" r="0.9506" fill="#F8F8F8"/>
<circle cx="57.9704" cy="206.97" r="0.9704" fill="#F8F8F8"/>
<circle cx="277.51" cy="206.51" r="1.01" fill="#F8F8F8"/>
<circle cx="297.911" cy="206.911" r="0.911" fill="#F8F8F8"/>
<circle cx="317.812" cy="206.812" r="0.812" fill="#F8F8F8"/>
<circle cx="17.911" cy="226.911" r="0.911" fill="#F8F8F8"/>
<circle cx="37.9506" cy="226.951" r="0.9506" fill="#F8F8F8"/>
<circle cx="57.9902" cy="226.99" r="0.9902" fill="#F8F8F8"/>
<circle cx="277.589" cy="226.589" r="1.0892" fill="#F8F8F8"/>
<circle cx="297.51" cy="226.51" r="1.01" fill="#F8F8F8"/>
<circle cx="317.911" cy="226.911" r="0.911" fill="#F8F8F8"/>
<circle cx="17.911" cy="246.911" r="0.911" fill="#F8F8F8"/>
<circle opacity="0.5" cx="37.9506" cy="246.951" r="0.9506" fill="#F8F8F8"/>
<circle opacity="0.5" cx="57.5298" cy="246.53" r="1.0298" fill="#F8F8F8"/>
<circle cx="77.609" cy="246.609" r="1.109" fill="#F8F8F8"/>
<circle cx="97.6684" cy="246.668" r="1.1684" fill="#F8F8F8"/>
<circle cx="117.728" cy="246.728" r="1.2278" fill="#F8F8F8"/>
<circle cx="217.807" cy="246.807" r="1.307" fill="#F8F8F8"/>
<circle cx="237.787" cy="246.787" r="1.2872" fill="#F8F8F8"/>
<circle cx="257.748" cy="246.748" r="1.2476" fill="#F8F8F8"/>
<circle cx="277.708" cy="246.708" r="1.208" fill="#F8F8F8"/>
<circle cx="297.609" cy="246.609" r="1.109" fill="#F8F8F8"/>
<circle cx="317.51" cy="246.51" r="1.01" fill="#F8F8F8"/>
<circle cx="17.8912" cy="266.891" r="0.8912" fill="#F8F8F8"/>
<circle opacity="0.5" cx="37.9704" cy="266.97" r="0.9704" fill="#F8F8F8"/>
<circle opacity="0.5" cx="57.5496" cy="266.55" r="1.0496" fill="#F8F8F8"/>
<circle cx="77.6486" cy="266.649" r="1.1486" fill="#F8F8F8"/>
<circle cx="97.7278" cy="266.728" r="1.2278" fill="#F8F8F8"/>
<circle cx="117.807" cy="266.807" r="1.307" fill="#F8F8F8"/>
<circle cx="217.906" cy="266.906" r="1.406" fill="#F8F8F8"/>
<circle cx="237.886" cy="266.886" r="1.3862" fill="#F8F8F8"/>
<circle cx="257.847" cy="266.847" r="1.3466" fill="#F8F8F8"/>
<circle cx="277.787" cy="266.787" r="1.2872" fill="#F8F8F8"/>
<circle cx="297.708" cy="266.708" r="1.208" fill="#F8F8F8"/>
<circle cx="317.589" cy="266.589" r="1.0892" fill="#F8F8F8"/>
<circle opacity="0.5" cx="17.911" cy="286.911" r="0.911" fill="#F8F8F8"/>
<circle opacity="0.5" cx="37.9902" cy="286.99" r="0.9902" fill="#F8F8F8"/>
<circle opacity="0.5" cx="57.5892" cy="286.589" r="1.0892" fill="#F8F8F8"/>
<circle cx="77.6882" cy="286.688" r="1.1882" fill="#F8F8F8"/>
<circle cx="97.7674" cy="286.767" r="1.2674" fill="#F8F8F8"/>
<circle cx="117.847" cy="286.847" r="1.3466" fill="#F8F8F8"/>
<circle cx="217.965" cy="286.965" r="1.4654" fill="#F8F8F8"/>
<circle cx="237.946" cy="286.946" r="1.4456" fill="#F8F8F8"/>
<circle opacity="0.3" cx="257.906" cy="286.906" r="1.406" fill="#F8F8F8"/>
<circle opacity="0.3" cx="277.866" cy="286.866" r="1.3664" fill="#F8F8F8"/>
<circle opacity="0.3" cx="297.787" cy="286.787" r="1.2872" fill="#F8F8F8"/>
<circle cx="317.668" cy="286.668" r="1.1684" fill="#F8F8F8"/>
<circle opacity="0.5" cx="17.9308" cy="306.931" r="0.9308" fill="#F8F8F8"/>
<circle opacity="0.5" cx="37.51" cy="306.51" r="1.01" fill="#F8F8F8"/>
<circle opacity="0.5" cx="57.609" cy="306.609" r="1.109" fill="#F8F8F8"/>
<circle cx="77.708" cy="306.708" r="1.208" fill="#F8F8F8"/>
<circle cx="97.7872" cy="306.787" r="1.2872" fill="#F8F8F8"/>
<circle opacity="0.3" cx="117.866" cy="306.866" r="1.3664" fill="#F8F8F8"/>
<circle opacity="0.3" cx="137.926" cy="306.926" r="1.4258" fill="#F8F8F8"/>
<circle opacity="0.3" cx="157.965" cy="306.965" r="1.4654" fill="#F8F8F8"/>
<circle opacity="0.3" cx="177.985" cy="306.985" r="1.4852" fill="#F8F8F8"/>
<circle opacity="0.3" cx="197.505" cy="306.505" r="1.505" fill="#F8F8F8"/>
<circle opacity="0.3" cx="217.505" cy="306.505" r="1.505" fill="#F8F8F8"/>
<circle cx="237.985" cy="306.985" r="1.4852" fill="#F8F8F8"/>
<circle opacity="0.3" cx="257.965" cy="306.965" r="1.4654" fill="#F8F8F8"/>
<circle opacity="0.3" cx="277.926" cy="306.926" r="1.4258" fill="#F8F8F8"/>
<circle opacity="0.3" cx="297.847" cy="306.847" r="1.3466" fill="#F8F8F8"/>
<circle cx="317.748" cy="306.748" r="1.2476" fill="#F8F8F8"/>
<circle opacity="0.5" cx="17.9902" cy="326.99" r="0.9902" fill="#F8F8F8"/>
<circle opacity="0.5" cx="37.5298" cy="326.53" r="1.0298" fill="#F8F8F8"/>
<circle opacity="0.5" cx="57.6288" cy="326.629" r="1.1288" fill="#F8F8F8"/>
<circle cx="77.708" cy="326.708" r="1.208" fill="#F8F8F8"/>
<circle cx="97.7872" cy="326.787" r="1.2872" fill="#F8F8F8"/>
<circle opacity="0.3" cx="117.866" cy="326.866" r="1.3664" fill="#F8F8F8"/>
<circle opacity="0.3" cx="137.926" cy="326.926" r="1.4258" fill="#F8F8F8"/>
<circle opacity="0.3" cx="157.965" cy="326.965" r="1.4654" fill="#F8F8F8"/>
<circle opacity="0.3" cx="177.985" cy="326.985" r="1.4852" fill="#F8F8F8"/>
<circle opacity="0.3" cx="197.505" cy="326.505" r="1.505" fill="#F8F8F8"/>
<circle opacity="0.3" cx="217.505" cy="326.505" r="1.505" fill="#F8F8F8"/>
<circle cx="237.505" cy="326.505" r="1.505" fill="#F8F8F8"/>
<circle cx="257.505" cy="326.505" r="1.505" fill="#F8F8F8"/>
<circle cx="277.965" cy="326.965" r="1.4654" fill="#F8F8F8"/>
<circle cx="297.906" cy="326.906" r="1.406" fill="#F8F8F8"/>
<circle cx="317.807" cy="326.807" r="1.307" fill="#F8F8F8"/>
</g>
</g>
</g>
<path opacity="0.5" d="M96 211L96 277" stroke="url(#paint2_linear_5057_19048)" stroke-width="1.5" stroke-linecap="round"/>
<path opacity="0.5" d="M240 211L240 277" stroke="url(#paint3_linear_5057_19048)" stroke-width="1.5" stroke-linecap="round"/>
<path opacity="0.1" d="M174 85.0633L174 79C174 77.8954 173.105 77 172 77L164 77C162.895 77 162 77.8954 162 79L162 85.0633C162 85.6568 162.264 86.2197 162.72 86.5997L166.72 89.933C167.461 90.5511 168.539 90.5511 169.28 89.933L173.28 86.5997C173.736 86.2197 174 85.6568 174 85.0633Z" fill="#F8F8F8"/>
<path d="M168 91L168 277" stroke="url(#paint4_linear_5057_19048)" stroke-width="1.5" stroke-linecap="round" stroke-dasharray="4 12"/>
<g filter="url(#filter0_d_5057_19048)">
<rect x="68" y="105" width="40" height="8" rx="4" fill="#F8F8F8" fill-opacity="0.05" style="mix-blend-mode:luminosity" shape-rendering="crispEdges"/>
<rect x="68.5" y="105.5" width="39" height="7" rx="3.5" stroke="url(#paint5_linear_5057_19048)" stroke-opacity="0.25" shape-rendering="crispEdges"/>
</g>
<g filter="url(#filter1_d_5057_19048)">
<rect x="68" y="117" width="48" height="8" rx="4" fill="#F8F8F8" fill-opacity="0.05" style="mix-blend-mode:luminosity" shape-rendering="crispEdges"/>
<rect x="68.5" y="117.5" width="47" height="7" rx="3.5" stroke="url(#paint6_linear_5057_19048)" stroke-opacity="0.25" shape-rendering="crispEdges"/>
</g>
<g filter="url(#filter2_di_5057_19048)">
<g clip-path="url(#clip1_5057_19048)">
<g filter="url(#filter3_bdi_5057_19048)">
<rect x="216" y="105" width="48" height="20" rx="10" fill="#F8F8F8" fill-opacity="0.01" shape-rendering="crispEdges"/>
<rect x="216" y="105" width="48" height="20" rx="10" fill="#121212" fill-opacity="0.3" shape-rendering="crispEdges"/>
<rect x="216.75" y="105.75" width="46.5" height="18.5" rx="9.25" stroke="url(#paint7_linear_5057_19048)" stroke-opacity="0.25" stroke-width="1.5" shape-rendering="crispEdges"/>
<rect opacity="0.5" x="228" y="113" width="24" height="4" rx="2" fill="#F8F8F8" fill-opacity="0.95"/>
</g>
</g>
<rect x="212.75" y="101.75" width="54.5" height="26.5" rx="13.25" stroke="#F8F8F8" stroke-opacity="0.4" stroke-width="1.5" shape-rendering="crispEdges"/>
</g>
<g filter="url(#filter4_d_5057_19048)">
<g clip-path="url(#clip2_5057_19048)">
<g filter="url(#filter5_i_5057_19048)">
<g clip-path="url(#clip3_5057_19048)">
<rect x="268" y="141" width="70" height="200" rx="16" transform="rotate(90 268 141)" fill="#282828" fill-opacity="0.7" style="mix-blend-mode:luminosity"/>
</g>
<rect x="267.25" y="141.75" width="68.5" height="198.5" rx="15.25" transform="rotate(90 267.25 141.75)" stroke="url(#paint8_linear_5057_19048)" stroke-opacity="0.4" stroke-width="1.5"/>
</g>
<g filter="url(#filter6_bdi_5057_19048)">
<rect width="70" height="100" transform="translate(168 141) rotate(90)" fill="#F8F8F8" fill-opacity="0.025" style="mix-blend-mode:luminosity"/>
<circle opacity="0.5" cx="125.228" cy="181.65" r="0.302844" transform="rotate(126.513 125.228 181.65)" fill="url(#paint9_linear_5057_19048)"/>
<circle opacity="0.5" cx="108.269" cy="173.776" r="0.302844" transform="rotate(126.513 108.269 173.776)" fill="url(#paint10_linear_5057_19048)"/>
<circle opacity="0.5" cx="155.513" cy="190.129" r="0.302844" transform="rotate(126.513 155.513 190.129)" fill="url(#paint11_linear_5057_19048)"/>
<circle opacity="0.5" cx="132.497" cy="170.142" r="0.302844" transform="rotate(126.513 132.497 170.142)" fill="url(#paint12_linear_5057_19048)"/>
<circle opacity="0.5" cx="103.424" cy="182.861" r="0.302844" transform="rotate(126.513 103.424 182.861)" fill="url(#paint13_linear_5057_19048)"/>
<circle opacity="0.5" cx="145.64" cy="189.705" r="1.81706" transform="rotate(90 145.64 189.705)" fill="url(#paint14_linear_5057_19048)"/>
<circle opacity="0.5" cx="114.447" cy="180.923" r="1.51422" transform="rotate(90 114.447 180.923)" fill="url(#paint15_linear_5057_19048)"/>
<circle cx="151.697" cy="166.083" r="0.605687" transform="rotate(90 151.697 166.083)" fill="url(#paint16_linear_5057_19048)"/>
<circle opacity="0.5" cx="144.785" cy="180.263" r="0.605687" transform="rotate(40.5342 144.785 180.263)" fill="url(#paint17_linear_5057_19048)"/>
<circle opacity="0.5" cx="119.959" cy="174.804" r="0.605687" transform="rotate(126.513 119.959 174.804)" fill="url(#paint18_linear_5057_19048)"/>
<circle opacity="0.5" cx="142.611" cy="167.295" r="0.605687" transform="rotate(90 142.611 167.295)" fill="url(#paint19_linear_5057_19048)"/>
<circle opacity="0.5" cx="135.343" cy="187.283" r="0.605687" transform="rotate(90 135.343 187.283)" fill="url(#paint20_linear_5057_19048)"/>
<circle cx="155.706" cy="178.309" r="1.65266" transform="rotate(145.989 155.706 178.309)" fill="white" fill-opacity="0.15"/>
<circle cx="129.286" cy="175.774" r="1.21137" transform="rotate(90 129.286 175.774)" fill="url(#paint21_linear_5057_19048)"/>
</g>
</g>
<rect x="267.25" y="141.75" width="68.5" height="198.5" rx="15.25" transform="rotate(90 267.25 141.75)" stroke="#F8F8F8" stroke-opacity="0.1" stroke-width="1.5"/>
</g>
<g filter="url(#filter7_d_5057_19048)">
<path d="M88.8 203H107.2C111.68 203 113.921 203 115.632 202.128C117.137 201.361 118.361 200.137 119.128 198.632C120 196.921 120 194.68 120 190.2V168.566C120 166.337 120 165.223 119.72 164.192C119.471 163.278 119.063 162.416 118.513 161.646C117.893 160.776 117.03 160.07 115.305 158.659L107.036 151.893C105.726 150.821 105.071 150.285 104.339 149.904C103.689 149.566 102.996 149.318 102.278 149.169C101.47 149 100.624 149 98.9309 149H88.8C84.3196 149 82.0794 149 80.3681 149.872C78.8628 150.639 77.6389 151.863 76.8719 153.368C76 155.079 76 157.32 76 161.8V190.2C76 194.68 76 196.921 76.8719 198.632C77.6389 200.137 78.8628 201.361 80.3681 202.128C82.0794 203 84.3196 203 88.8 203Z" fill="#F8F8F8" fill-opacity="0.1" style="mix-blend-mode:luminosity" shape-rendering="crispEdges"/>
<path d="M107.2 202.25H88.8C86.5474 202.25 84.9031 202.249 83.6067 202.143C82.3191 202.038 81.4409 201.833 80.7086 201.46C79.3444 200.765 78.2353 199.656 77.5402 198.291C77.1671 197.559 76.9617 196.681 76.8565 195.393C76.7506 194.097 76.75 192.453 76.75 190.2V161.8C76.75 159.547 76.7506 157.903 76.8565 156.607C76.9617 155.319 77.1671 154.441 77.5402 153.709C78.2353 152.344 79.3444 151.235 80.7086 150.54C81.4409 150.167 82.3191 149.962 83.6067 149.857C84.9031 149.751 86.5474 149.75 88.8 149.75H98.9309C100.654 149.75 101.41 149.754 102.125 149.903L102.278 149.169L102.125 149.903C102.775 150.038 103.403 150.263 103.992 150.569C104.64 150.907 105.228 151.382 106.561 152.474L114.831 159.239C116.587 160.677 117.354 161.312 117.903 162.081C118.401 162.78 118.771 163.561 118.996 164.389C119.244 165.3 119.25 166.296 119.25 168.566V190.2C119.25 192.453 119.249 194.097 119.143 195.393C119.038 196.681 118.833 197.559 118.46 198.291C117.765 199.656 116.656 200.765 115.291 201.46C114.559 201.833 113.681 202.038 112.393 202.143C111.097 202.249 109.453 202.25 107.2 202.25Z" stroke="url(#paint22_linear_5057_19048)" stroke-opacity="0.25" stroke-width="1.5" shape-rendering="crispEdges"/>
</g>
<path d="M98 170.5V178M98 170.5L101 173.5M98 170.5L95 173.5M103.5 176.5V179.5C103.5 180.605 102.605 181.5 101.5 181.5H94.5C93.3954 181.5 92.5 180.605 92.5 179.5V176.5" stroke="#F8F8F8" stroke-opacity="0.95" stroke-width="1.5" stroke-linecap="round" stroke-linejoin="round"/>
<defs>
<filter id="filter0_d_5057_19048" x="44" y="105" width="88" height="56" filterUnits="userSpaceOnUse" color-interpolation-filters="sRGB">
<feFlood flood-opacity="0" result="BackgroundImageFix"/>
<feColorMatrix in="SourceAlpha" type="matrix" values="0 0 0 0 0 0 0 0 0 0 0 0 0 0 0 0 0 0 127 0" result="hardAlpha"/>
<feOffset dy="24"/>
<feGaussianBlur stdDeviation="12"/>
<feComposite in2="hardAlpha" operator="out"/>
<feColorMatrix type="matrix" values="0 0 0 0 0 0 0 0 0 0 0 0 0 0 0 0 0 0 0.3 0"/>
<feBlend mode="multiply" in2="BackgroundImageFix" result="effect1_dropShadow_5057_19048"/>
<feBlend mode="normal" in="SourceGraphic" in2="effect1_dropShadow_5057_19048" result="shape"/>
</filter>
<filter id="filter1_d_5057_19048" x="44" y="117" width="96" height="56" filterUnits="userSpaceOnUse" color-interpolation-filters="sRGB">
<feFlood flood-opacity="0" result="BackgroundImageFix"/>
<feColorMatrix in="SourceAlpha" type="matrix" values="0 0 0 0 0 0 0 0 0 0 0 0 0 0 0 0 0 0 127 0" result="hardAlpha"/>
<feOffset dy="24"/>
<feGaussianBlur stdDeviation="12"/>
<feComposite in2="hardAlpha" operator="out"/>
<feColorMatrix type="matrix" values="0 0 0 0 0 0 0 0 0 0 0 0 0 0 0 0 0 0 0.3 0"/>
<feBlend mode="multiply" in2="BackgroundImageFix" result="effect1_dropShadow_5057_19048"/>
<feBlend mode="normal" in="SourceGraphic" in2="effect1_dropShadow_5057_19048" result="shape"/>
</filter>
<filter id="filter2_di_5057_19048" x="204" y="101" width="72" height="68" filterUnits="userSpaceOnUse" color-interpolation-filters="sRGB">
<feFlood flood-opacity="0" result="BackgroundImageFix"/>
<feColorMatrix in="SourceAlpha" type="matrix" values="0 0 0 0 0 0 0 0 0 0 0 0 0 0 0 0 0 0 127 0" result="hardAlpha"/>
<feMorphology radius="16" operator="erode" in="SourceAlpha" result="effect1_dropShadow_5057_19048"/>
<feOffset dy="32"/>
<feGaussianBlur stdDeviation="12"/>
<feComposite in2="hardAlpha" operator="out"/>
<feColorMatrix type="matrix" values="0 0 0 0 0 0 0 0 0 0 0 0 0 0 0 0 0 0 0.4 0"/>
<feBlend mode="multiply" in2="BackgroundImageFix" result="effect1_dropShadow_5057_19048"/>
<feBlend mode="normal" in="SourceGraphic" in2="effect1_dropShadow_5057_19048" result="shape"/>
<feColorMatrix in="SourceAlpha" type="matrix" values="0 0 0 0 0 0 0 0 0 0 0 0 0 0 0 0 0 0 127 0" result="hardAlpha"/>
<feOffset/>
<feGaussianBlur stdDeviation="4"/>
<feComposite in2="hardAlpha" operator="arithmetic" k2="-1" k3="1"/>
<feColorMatrix type="matrix" values="0 0 0 0 0.972549 0 0 0 0 0.972549 0 0 0 0 0.972549 0 0 0 0.25 0"/>
<feBlend mode="normal" in2="shape" result="effect2_innerShadow_5057_19048"/>
</filter>
<filter id="filter3_bdi_5057_19048" x="204" y="93" width="72" height="72" filterUnits="userSpaceOnUse" color-interpolation-filters="sRGB">
<feFlood flood-opacity="0" result="BackgroundImageFix"/>
<feGaussianBlur in="BackgroundImageFix" stdDeviation="6"/>
<feComposite in2="SourceAlpha" operator="in" result="effect1_backgroundBlur_5057_19048"/>
<feColorMatrix in="SourceAlpha" type="matrix" values="0 0 0 0 0 0 0 0 0 0 0 0 0 0 0 0 0 0 127 0" result="hardAlpha"/>
<feMorphology radius="16" operator="erode" in="SourceAlpha" result="effect2_dropShadow_5057_19048"/>
<feOffset dy="32"/>
<feGaussianBlur stdDeviation="12"/>
<feComposite in2="hardAlpha" operator="out"/>
<feColorMatrix type="matrix" values="0 0 0 0 0 0 0 0 0 0 0 0 0 0 0 0 0 0 0.4 0"/>
<feBlend mode="multiply" in2="effect1_backgroundBlur_5057_19048" result="effect2_dropShadow_5057_19048"/>
<feBlend mode="normal" in="SourceGraphic" in2="effect2_dropShadow_5057_19048" result="shape"/>
<feColorMatrix in="SourceAlpha" type="matrix" values="0 0 0 0 0 0 0 0 0 0 0 0 0 0 0 0 0 0 127 0" result="hardAlpha"/>
<feOffset/>
<feGaussianBlur stdDeviation="4"/>
<feComposite in2="hardAlpha" operator="arithmetic" k2="-1" k3="1"/>
<feColorMatrix type="matrix" values="0 0 0 0 0.972549 0 0 0 0 0.972549 0 0 0 0 0.972549 0 0 0 0.25 0"/>
<feBlend mode="normal" in2="shape" result="effect3_innerShadow_5057_19048"/>
</filter>
<filter id="filter4_d_5057_19048" x="60" y="141" width="216" height="110" filterUnits="userSpaceOnUse" color-interpolation-filters="sRGB">
<feFlood flood-opacity="0" result="BackgroundImageFix"/>
<feColorMatrix in="SourceAlpha" type="matrix" values="0 0 0 0 0 0 0 0 0 0 0 0 0 0 0 0 0 0 127 0" result="hardAlpha"/>
<feMorphology radius="16" operator="erode" in="SourceAlpha" result="effect1_dropShadow_5057_19048"/>
<feOffset dy="32"/>
<feGaussianBlur stdDeviation="12"/>
<feComposite in2="hardAlpha" operator="out"/>
<feColorMatrix type="matrix" values="0 0 0 0 0 0 0 0 0 0 0 0 0 0 0 0 0 0 0.15 0"/>
<feBlend mode="multiply" in2="BackgroundImageFix" result="effect1_dropShadow_5057_19048"/>
<feBlend mode="normal" in="SourceGraphic" in2="effect1_dropShadow_5057_19048" result="shape"/>
</filter>
<filter id="filter5_i_5057_19048" x="68" y="141" width="200" height="70" filterUnits="userSpaceOnUse" color-interpolation-filters="sRGB">
<feFlood flood-opacity="0" result="BackgroundImageFix"/>
<feBlend mode="normal" in="SourceGraphic" in2="BackgroundImageFix" result="shape"/>
<feColorMatrix in="SourceAlpha" type="matrix" values="0 0 0 0 0 0 0 0 0 0 0 0 0 0 0 0 0 0 127 0" result="hardAlpha"/>
<feOffset/>
<feGaussianBlur stdDeviation="4"/>
<feComposite in2="hardAlpha" operator="arithmetic" k2="-1" k3="1"/>
<feColorMatrix type="matrix" values="0 0 0 0 0.972549 0 0 0 0 0.972549 0 0 0 0 0.972549 0 0 0 0.25 0"/>
<feBlend mode="normal" in2="shape" result="effect1_innerShadow_5057_19048"/>
</filter>
<filter id="filter6_bdi_5057_19048" x="56" y="129" width="124" height="122" filterUnits="userSpaceOnUse" color-interpolation-filters="sRGB">
<feFlood flood-opacity="0" result="BackgroundImageFix"/>
<feGaussianBlur in="BackgroundImageFix" stdDeviation="6"/>
<feComposite in2="SourceAlpha" operator="in" result="effect1_backgroundBlur_5057_19048"/>
<feColorMatrix in="SourceAlpha" type="matrix" values="0 0 0 0 0 0 0 0 0 0 0 0 0 0 0 0 0 0 127 0" result="hardAlpha"/>
<feMorphology radius="16" operator="erode" in="SourceAlpha" result="effect2_dropShadow_5057_19048"/>
<feOffset dy="32"/>
<feGaussianBlur stdDeviation="12"/>
<feComposite in2="hardAlpha" operator="out"/>
<feColorMatrix type="matrix" values="0 0 0 0 0 0 0 0 0 0 0 0 0 0 0 0 0 0 0.4 0"/>
<feBlend mode="multiply" in2="effect1_backgroundBlur_5057_19048" result="effect2_dropShadow_5057_19048"/>
<feBlend mode="normal" in="SourceGraphic" in2="effect2_dropShadow_5057_19048" result="shape"/>
<feColorMatrix in="SourceAlpha" type="matrix" values="0 0 0 0 0 0 0 0 0 0 0 0 0 0 0 0 0 0 127 0" result="hardAlpha"/>
<feOffset/>
<feGaussianBlur stdDeviation="4"/>
<feComposite in2="hardAlpha" operator="arithmetic" k2="-1" k3="1"/>
<feColorMatrix type="matrix" values="0 0 0 0 0.972549 0 0 0 0 0.972549 0 0 0 0 0.972549 0 0 0 0.25 0"/>
<feBlend mode="normal" in2="shape" result="effect3_innerShadow_5057_19048"/>
</filter>
<filter id="filter7_d_5057_19048" x="52" y="149" width="92" height="102" filterUnits="userSpaceOnUse" color-interpolation-filters="sRGB">
<feFlood flood-opacity="0" result="BackgroundImageFix"/>
<feColorMatrix in="SourceAlpha" type="matrix" values="0 0 0 0 0 0 0 0 0 0 0 0 0 0 0 0 0 0 127 0" result="hardAlpha"/>
<feOffset dy="24"/>
<feGaussianBlur stdDeviation="12"/>
<feComposite in2="hardAlpha" operator="out"/>
<feColorMatrix type="matrix" values="0 0 0 0 0 0 0 0 0 0 0 0 0 0 0 0 0 0 0.3 0"/>
<feBlend mode="multiply" in2="BackgroundImageFix" result="effect1_dropShadow_5057_19048"/>
<feBlend mode="normal" in="SourceGraphic" in2="effect1_dropShadow_5057_19048" result="shape"/>
</filter>
<radialGradient id="paint0_radial_5057_19048" cx="0" cy="0" r="1" gradientUnits="userSpaceOnUse" gradientTransform="translate(168 177) rotate(90) scale(188)">
<stop stop-color="#D9D9D9"/>
<stop offset="1" stop-color="#737373" stop-opacity="0"/>
</radialGradient>
<radialGradient id="paint1_radial_5057_19048" cx="0" cy="0" r="1" gradientUnits="userSpaceOnUse" gradientTransform="translate(168 177) rotate(90) scale(184)">
<stop offset="0.433142" stop-color="#737373" stop-opacity="0"/>
<stop offset="1" stop-color="#D9D9D9"/>
</radialGradient>
<linearGradient id="paint2_linear_5057_19048" x1="95.5" y1="211" x2="95.5" y2="277" gradientUnits="userSpaceOnUse">
<stop stop-color="#F8F8F8" stop-opacity="0"/>
<stop offset="0.5" stop-color="#F8F8F8" stop-opacity="0.2"/>
<stop offset="1" stop-color="#F8F8F8" stop-opacity="0"/>
</linearGradient>
<linearGradient id="paint3_linear_5057_19048" x1="239.5" y1="211" x2="239.5" y2="277" gradientUnits="userSpaceOnUse">
<stop stop-color="#F8F8F8" stop-opacity="0"/>
<stop offset="0.5" stop-color="#F8F8F8" stop-opacity="0.2"/>
<stop offset="1" stop-color="#F8F8F8" stop-opacity="0"/>
</linearGradient>
<linearGradient id="paint4_linear_5057_19048" x1="167.5" y1="91" x2="167.5" y2="277" gradientUnits="userSpaceOnUse">
<stop stop-color="#F8F8F8" stop-opacity="0"/>
<stop offset="0.5" stop-color="#F8F8F8" stop-opacity="0.2"/>
<stop offset="1" stop-color="#F8F8F8" stop-opacity="0"/>
</linearGradient>
<linearGradient id="paint5_linear_5057_19048" x1="88" y1="105" x2="88.8002" y2="115.1" gradientUnits="userSpaceOnUse">
<stop stop-color="white" stop-opacity="0.4"/>
<stop offset="0.4" stop-color="white" stop-opacity="0.01"/>
<stop offset="0.6" stop-color="white" stop-opacity="0.01"/>
<stop offset="1" stop-color="white" stop-opacity="0.1"/>
</linearGradient>
<linearGradient id="paint6_linear_5057_19048" x1="92" y1="117" x2="92.6681" y2="127.12" gradientUnits="userSpaceOnUse">
<stop stop-color="white" stop-opacity="0.4"/>
<stop offset="0.4" stop-color="white" stop-opacity="0.01"/>
<stop offset="0.6" stop-color="white" stop-opacity="0.01"/>
<stop offset="1" stop-color="white" stop-opacity="0.1"/>
</linearGradient>
<linearGradient id="paint7_linear_5057_19048" x1="240" y1="105" x2="244.083" y2="129.735" gradientUnits="userSpaceOnUse">
<stop stop-color="white" stop-opacity="0.4"/>
<stop offset="0.4" stop-color="white" stop-opacity="0.01"/>
<stop offset="0.6" stop-color="white" stop-opacity="0.01"/>
<stop offset="1" stop-color="white" stop-opacity="0.1"/>
</linearGradient>
<linearGradient id="paint8_linear_5057_19048" x1="303" y1="141" x2="303" y2="341" gradientUnits="userSpaceOnUse">
<stop stop-color="#F8F8F8" stop-opacity="0"/>
<stop offset="1" stop-color="#F8F8F8"/>
</linearGradient>
<linearGradient id="paint9_linear_5057_19048" x1="125.43" y1="181.145" x2="125.077" y2="181.902" gradientUnits="userSpaceOnUse">
<stop offset="0.173306" stop-color="white" stop-opacity="0"/>
<stop offset="1" stop-color="white" stop-opacity="0.3"/>
</linearGradient>
<linearGradient id="paint10_linear_5057_19048" x1="108.471" y1="173.271" x2="108.118" y2="174.028" gradientUnits="userSpaceOnUse">
<stop offset="0.173306" stop-color="white" stop-opacity="0"/>
<stop offset="1" stop-color="white" stop-opacity="0.3"/>
</linearGradient>
<linearGradient id="paint11_linear_5057_19048" x1="155.715" y1="189.625" x2="155.361" y2="190.382" gradientUnits="userSpaceOnUse">
<stop offset="0.173306" stop-color="white" stop-opacity="0"/>
<stop offset="1" stop-color="white" stop-opacity="0.3"/>
</linearGradient>
<linearGradient id="paint12_linear_5057_19048" x1="132.699" y1="169.637" x2="132.345" y2="170.394" gradientUnits="userSpaceOnUse">
<stop offset="0.173306" stop-color="white" stop-opacity="0"/>
<stop offset="1" stop-color="white" stop-opacity="0.3"/>
</linearGradient>
<linearGradient id="paint13_linear_5057_19048" x1="103.626" y1="182.356" x2="103.272" y2="183.113" gradientUnits="userSpaceOnUse">
<stop offset="0.173306" stop-color="white" stop-opacity="0"/>
<stop offset="1" stop-color="white" stop-opacity="0.3"/>
</linearGradient>
<linearGradient id="paint14_linear_5057_19048" x1="146.851" y1="187.888" x2="143.823" y2="192.128" gradientUnits="userSpaceOnUse">
<stop stop-color="white" stop-opacity="0.3"/>
<stop offset="0.826694" stop-color="white" stop-opacity="0"/>
</linearGradient>
<linearGradient id="paint15_linear_5057_19048" x1="115.456" y1="178.399" x2="113.69" y2="182.185" gradientUnits="userSpaceOnUse">
<stop stop-color="white" stop-opacity="0.3"/>
<stop offset="0.826694" stop-color="white" stop-opacity="0"/>
</linearGradient>
<linearGradient id="paint16_linear_5057_19048" x1="152.1" y1="165.074" x2="151.394" y2="166.588" gradientUnits="userSpaceOnUse">
<stop offset="0.173306" stop-color="white" stop-opacity="0"/>
<stop offset="1" stop-color="white" stop-opacity="0.3"/>
</linearGradient>
<linearGradient id="paint17_linear_5057_19048" x1="145.189" y1="179.253" x2="144.483" y2="180.767" gradientUnits="userSpaceOnUse">
<stop offset="0.173306" stop-color="white" stop-opacity="0"/>
<stop offset="1" stop-color="white" stop-opacity="0.3"/>
</linearGradient>
<linearGradient id="paint18_linear_5057_19048" x1="120.363" y1="173.795" x2="119.656" y2="175.309" gradientUnits="userSpaceOnUse">
<stop offset="0.173306" stop-color="white" stop-opacity="0"/>
<stop offset="1" stop-color="white" stop-opacity="0.3"/>
</linearGradient>
<linearGradient id="paint19_linear_5057_19048" x1="143.015" y1="166.285" x2="142.308" y2="167.8" gradientUnits="userSpaceOnUse">
<stop offset="0.173306" stop-color="white" stop-opacity="0"/>
<stop offset="1" stop-color="white" stop-opacity="0.3"/>
</linearGradient>
<linearGradient id="paint20_linear_5057_19048" x1="135.747" y1="186.273" x2="135.04" y2="187.787" gradientUnits="userSpaceOnUse">
<stop offset="0.173306" stop-color="white" stop-opacity="0"/>
<stop offset="1" stop-color="white" stop-opacity="0.3"/>
</linearGradient>
<linearGradient id="paint21_linear_5057_19048" x1="130.094" y1="173.756" x2="128.68" y2="176.784" gradientUnits="userSpaceOnUse">
<stop stop-color="white" stop-opacity="0.3"/>
<stop offset="0.826694" stop-color="white" stop-opacity="0"/>
</linearGradient>
<linearGradient id="paint22_linear_5057_19048" x1="98" y1="149" x2="124.978" y2="204.489" gradientUnits="userSpaceOnUse">
<stop stop-color="white" stop-opacity="0.4"/>
<stop offset="0.4" stop-color="white" stop-opacity="0.01"/>
<stop offset="0.6" stop-color="white" stop-opacity="0.01"/>
<stop offset="1" stop-color="white" stop-opacity="0.1"/>
</linearGradient>
<clipPath id="clip0_5057_19048">
<rect width="336" height="336" fill="white" transform="translate(0 9)"/>
</clipPath>
<clipPath id="clip1_5057_19048">
<rect x="212" y="101" width="56" height="28" rx="14" fill="white"/>
</clipPath>
<clipPath id="clip2_5057_19048">
<rect x="268" y="141" width="70" height="200" rx="16" transform="rotate(90 268 141)" fill="white"/>
</clipPath>
<clipPath id="clip3_5057_19048">
<rect x="268" y="141" width="70" height="200" rx="16" transform="rotate(90 268 141)" fill="white"/>
</clipPath>
</defs>
</svg>
