<svg width="510" height="368" viewBox="0 0 510 368" fill="none" xmlns="http://www.w3.org/2000/svg">
<g clip-path="url(#clip0_3093_132814)">
<mask id="mask0_3093_132814" style="mask-type:alpha" maskUnits="userSpaceOnUse" x="71" y="0" width="368" height="368">
<circle cx="255" cy="184" r="184" fill="url(#paint0_radial_3093_132814)"/>
</mask>
<g mask="url(#mask0_3093_132814)">
<g opacity="0.1">
<circle cx="104.688" cy="133.688" r="1.1882" fill="#F8F8F8"/>
<circle cx="124.589" cy="133.589" r="1.0892" fill="#F8F8F8"/>
<circle cx="144.99" cy="133.99" r="0.9902" fill="#F8F8F8"/>
<circle cx="364.5" cy="133.5" r="0.5" fill="#F8F8F8"/>
<circle cx="384.5" cy="133.5" r="0.5" fill="#F8F8F8"/>
<circle cx="404.5" cy="133.5" r="0.5" fill="#F8F8F8"/>
<circle cx="104.589" cy="153.589" r="1.0892" fill="#F8F8F8"/>
<circle cx="124.53" cy="153.53" r="1.0298" fill="#F8F8F8"/>
<circle cx="144.951" cy="153.951" r="0.9506" fill="#F8F8F8"/>
<circle cx="364.555" cy="153.555" r="0.5546" fill="#F8F8F8"/>
<circle cx="384.5" cy="153.5" r="0.5" fill="#F8F8F8"/>
<circle cx="404.5" cy="153.5" r="0.5" fill="#F8F8F8"/>
<circle cx="104.53" cy="173.53" r="1.0298" fill="#F8F8F8"/>
<circle cx="124.99" cy="173.99" r="0.9902" fill="#F8F8F8"/>
<circle cx="144.951" cy="173.951" r="0.9506" fill="#F8F8F8"/>
<circle cx="364.713" cy="173.713" r="0.713" fill="#F8F8F8"/>
<circle cx="384.634" cy="173.634" r="0.6338" fill="#F8F8F8"/>
<circle cx="404.574" cy="173.574" r="0.5744" fill="#F8F8F8"/>
<circle cx="104.97" cy="193.97" r="0.9704" fill="#F8F8F8"/>
<circle cx="124.951" cy="193.951" r="0.9506" fill="#F8F8F8"/>
<circle cx="144.951" cy="193.951" r="0.9506" fill="#F8F8F8"/>
<circle cx="364.871" cy="193.871" r="0.8714" fill="#F8F8F8"/>
<circle cx="384.792" cy="193.792" r="0.7922" fill="#F8F8F8"/>
<circle cx="404.693" cy="193.693" r="0.6932" fill="#F8F8F8"/>
<circle cx="104.951" cy="213.951" r="0.9506" fill="#F8F8F8"/>
<circle cx="124.951" cy="213.951" r="0.9506" fill="#F8F8F8"/>
<circle cx="144.97" cy="213.97" r="0.9704" fill="#F8F8F8"/>
<circle cx="364.51" cy="213.51" r="1.01" fill="#F8F8F8"/>
<circle cx="384.911" cy="213.911" r="0.911" fill="#F8F8F8"/>
<circle cx="404.812" cy="213.812" r="0.812" fill="#F8F8F8"/>
<circle cx="104.911" cy="233.911" r="0.911" fill="#F8F8F8"/>
<circle cx="124.951" cy="233.951" r="0.9506" fill="#F8F8F8"/>
<circle cx="144.99" cy="233.99" r="0.9902" fill="#F8F8F8"/>
<circle cx="364.589" cy="233.589" r="1.0892" fill="#F8F8F8"/>
<circle cx="384.51" cy="233.51" r="1.01" fill="#F8F8F8"/>
<circle cx="404.911" cy="233.911" r="0.911" fill="#F8F8F8"/>
</g>
</g>
</g>
<path opacity="0.5" d="M71 147H114.9C117.54 147 120.009 148.302 121.501 150.481L150.282 192.519C151.773 194.698 154.243 196 156.883 196H255" stroke="url(#paint1_linear_3093_132814)" stroke-width="1.5"/>
<path opacity="0.1" d="M316 196H359.9C362.54 196 365.009 194.698 366.501 192.519L395.282 150.481C396.773 148.302 399.243 147 401.883 147H500" stroke="url(#paint2_linear_3093_132814)" stroke-width="1.5"/>
<path opacity="0.1" d="M71 220H114.9C117.54 220 120.009 218.698 121.501 216.519L150.282 174.481C151.773 172.302 154.243 171 156.883 171H255" stroke="url(#paint3_linear_3093_132814)" stroke-width="1.5"/>
<path opacity="0.5" d="M316 171H359.9C362.54 171 365.009 172.302 366.501 174.481L395.282 216.519C396.773 218.698 399.243 220 401.883 220H500" stroke="url(#paint4_linear_3093_132814)" stroke-width="1.5"/>
<g filter="url(#filter0_bdi_3093_132814)">
<circle cx="6" cy="6" r="6" transform="matrix(-1 0 0 1 150 178)" fill="#F8F8F8" fill-opacity="0.01" shape-rendering="crispEdges"/>
<circle cx="6" cy="6" r="6" transform="matrix(-1 0 0 1 150 178)" fill="#121212" fill-opacity="0.3" shape-rendering="crispEdges"/>
<circle cx="6" cy="6" r="5.25" transform="matrix(-1 0 0 1 150 178)" stroke="url(#paint5_linear_3093_132814)" stroke-opacity="0.25" stroke-width="1.5" shape-rendering="crispEdges"/>
</g>
<circle cx="3" cy="3" r="3" transform="matrix(-1 0 0 1 147 181)" fill="#F8F8F8"/>
<g filter="url(#filter1_bdi_3093_132814)">
<circle cx="6" cy="6" r="6" transform="matrix(-1 0 0 1 379 178)" fill="#F8F8F8" fill-opacity="0.01" shape-rendering="crispEdges"/>
<circle cx="6" cy="6" r="6" transform="matrix(-1 0 0 1 379 178)" fill="#121212" fill-opacity="0.3" shape-rendering="crispEdges"/>
<circle cx="6" cy="6" r="5.25" transform="matrix(-1 0 0 1 379 178)" stroke="url(#paint6_linear_3093_132814)" stroke-opacity="0.25" stroke-width="1.5" shape-rendering="crispEdges"/>
</g>
<circle cx="3" cy="3" r="3" transform="matrix(-1 0 0 1 376 181)" fill="#F8F8F8"/>
<path fill-rule="evenodd" clip-rule="evenodd" d="M194 0L238.127 44.1274C244.129 50.1286 247.5 58.2679 247.5 66.7548V113H255H262.5V66.7548C262.5 58.2679 265.871 50.1286 271.873 44.1274L316 0H255H194Z" fill="url(#paint7_linear_3093_132814)"/>
<circle opacity="0.5" cx="257.65" cy="32.7716" r="0.302844" transform="rotate(36.5125 257.65 32.7716)" fill="url(#paint8_linear_3093_132814)"/>
<circle opacity="0.5" cx="249.776" cy="49.731" r="0.302844" transform="rotate(36.5125 249.776 49.731)" fill="url(#paint9_linear_3093_132814)"/>
<circle opacity="0.5" cx="266.129" cy="2.48732" r="0.302844" transform="rotate(36.5125 266.129 2.48732)" fill="url(#paint10_linear_3093_132814)"/>
<circle opacity="0.5" cx="246.142" cy="25.5034" r="0.302844" transform="rotate(36.5125 246.142 25.5034)" fill="url(#paint11_linear_3093_132814)"/>
<circle opacity="0.5" cx="258.861" cy="54.5764" r="0.302844" transform="rotate(36.5125 258.861 54.5764)" fill="url(#paint12_linear_3093_132814)"/>
<circle opacity="0.5" cx="265.705" cy="12.3604" r="1.81706" fill="url(#paint13_linear_3093_132814)"/>
<circle opacity="0.5" cx="283.817" cy="9.81706" r="1.81706" fill="url(#paint14_linear_3093_132814)"/>
<circle opacity="0.5" cx="256.817" cy="77.8171" r="1.81706" fill="url(#paint15_linear_3093_132814)"/>
<circle opacity="0.5" cx="256.923" cy="43.5533" r="1.51422" fill="url(#paint16_linear_3093_132814)"/>
<circle cx="242.083" cy="6.30356" r="0.605687" fill="url(#paint17_linear_3093_132814)"/>
<circle opacity="0.5" cx="256.262" cy="13.2147" r="0.605687" transform="rotate(-49.4658 256.262 13.2147)" fill="url(#paint18_linear_3093_132814)"/>
<circle opacity="0.5" cx="280.854" cy="24.854" r="0.605687" transform="rotate(-49.4658 280.854 24.854)" fill="url(#paint19_linear_3093_132814)"/>
<circle opacity="0.5" cx="228.854" cy="22.854" r="0.605687" transform="rotate(-49.4658 228.854 22.854)" fill="url(#paint20_linear_3093_132814)"/>
<circle opacity="0.5" cx="250.804" cy="38.0408" r="0.605687" transform="rotate(36.5125 250.804 38.0408)" fill="url(#paint21_linear_3093_132814)"/>
<circle opacity="0.5" cx="239.847" cy="33.8472" r="0.605687" transform="rotate(36.5125 239.847 33.8472)" fill="url(#paint22_linear_3093_132814)"/>
<circle opacity="0.5" cx="243.295" cy="15.3889" r="0.605687" fill="url(#paint23_linear_3093_132814)"/>
<circle opacity="0.5" cx="263.282" cy="22.6571" r="0.605687" fill="url(#paint24_linear_3093_132814)"/>
<circle cx="254.309" cy="2.29436" r="1.65266" transform="rotate(55.9888 254.309 2.29436)" fill="white" fill-opacity="0.15"/>
<circle cx="220.294" cy="8.29436" r="1.65266" transform="rotate(55.9888 220.294 8.29436)" fill="white" fill-opacity="0.15"/>
<circle cx="251.774" cy="28.7139" r="1.21137" fill="url(#paint25_linear_3093_132814)"/>
<mask id="mask1_3093_132814" style="mask-type:alpha" maskUnits="userSpaceOnUse" x="71" y="0" width="368" height="368">
<circle cx="255" cy="184" r="184" fill="url(#paint26_radial_3093_132814)"/>
</mask>
<g mask="url(#mask1_3093_132814)">
<g opacity="0.1">
<g filter="url(#filter2_b_3093_132814)">
<rect x="1.75" y="254.75" width="162.5" height="122.5" rx="27.25" stroke="#F8F8F8" stroke-width="1.5" style="mix-blend-mode:luminosity"/>
</g>
<g filter="url(#filter3_b_3093_132814)">
<rect x="345.75" y="254.75" width="162.5" height="122.5" rx="27.25" stroke="#F8F8F8" stroke-width="1.5" style="mix-blend-mode:luminosity"/>
</g>
<g filter="url(#filter4_b_3093_132814)">
<rect x="1.75" y="-9.25" width="162.5" height="122.5" rx="27.25" stroke="#F8F8F8" stroke-width="1.5" style="mix-blend-mode:luminosity"/>
</g>
<g filter="url(#filter5_b_3093_132814)">
<rect x="345.75" y="-9.25" width="162.5" height="122.5" rx="27.25" stroke="#F8F8F8" stroke-width="1.5" style="mix-blend-mode:luminosity"/>
</g>
</g>
</g>
<rect opacity="0.3" x="1" y="122" width="164" height="124" rx="28" stroke="url(#paint27_linear_3093_132814)" stroke-width="1.5"/>
<rect opacity="0.3" x="1" y="122" width="164" height="124" rx="28" fill="url(#paint28_linear_3093_132814)"/>
<rect opacity="0.3" width="164" height="124" rx="28" transform="matrix(1 0 0 -1 345 246)" stroke="url(#paint29_linear_3093_132814)" stroke-width="1.5"/>
<rect opacity="0.3" width="164" height="124" rx="28" transform="matrix(1 0 0 -1 345 246)" fill="url(#paint30_linear_3093_132814)"/>
<defs>
<filter id="filter0_bdi_3093_132814" x="130" y="170" width="28" height="46.6667" filterUnits="userSpaceOnUse" color-interpolation-filters="sRGB">
<feFlood flood-opacity="0" result="BackgroundImageFix"/>
<feGaussianBlur in="BackgroundImageFix" stdDeviation="4"/>
<feComposite in2="SourceAlpha" operator="in" result="effect1_backgroundBlur_3093_132814"/>
<feColorMatrix in="SourceAlpha" type="matrix" values="0 0 0 0 0 0 0 0 0 0 0 0 0 0 0 0 0 0 127 0" result="hardAlpha"/>
<feMorphology radius="10.6667" operator="erode" in="SourceAlpha" result="effect2_dropShadow_3093_132814"/>
<feOffset dy="21.3333"/>
<feGaussianBlur stdDeviation="8"/>
<feComposite in2="hardAlpha" operator="out"/>
<feColorMatrix type="matrix" values="0 0 0 0 0 0 0 0 0 0 0 0 0 0 0 0 0 0 0.4 0"/>
<feBlend mode="multiply" in2="effect1_backgroundBlur_3093_132814" result="effect2_dropShadow_3093_132814"/>
<feBlend mode="normal" in="SourceGraphic" in2="effect2_dropShadow_3093_132814" result="shape"/>
<feColorMatrix in="SourceAlpha" type="matrix" values="0 0 0 0 0 0 0 0 0 0 0 0 0 0 0 0 0 0 127 0" result="hardAlpha"/>
<feOffset/>
<feGaussianBlur stdDeviation="2.66667"/>
<feComposite in2="hardAlpha" operator="arithmetic" k2="-1" k3="1"/>
<feColorMatrix type="matrix" values="0 0 0 0 0.972549 0 0 0 0 0.972549 0 0 0 0 0.972549 0 0 0 0.25 0"/>
<feBlend mode="normal" in2="shape" result="effect3_innerShadow_3093_132814"/>
</filter>
<filter id="filter1_bdi_3093_132814" x="359" y="170" width="28" height="46.6667" filterUnits="userSpaceOnUse" color-interpolation-filters="sRGB">
<feFlood flood-opacity="0" result="BackgroundImageFix"/>
<feGaussianBlur in="BackgroundImageFix" stdDeviation="4"/>
<feComposite in2="SourceAlpha" operator="in" result="effect1_backgroundBlur_3093_132814"/>
<feColorMatrix in="SourceAlpha" type="matrix" values="0 0 0 0 0 0 0 0 0 0 0 0 0 0 0 0 0 0 127 0" result="hardAlpha"/>
<feMorphology radius="10.6667" operator="erode" in="SourceAlpha" result="effect2_dropShadow_3093_132814"/>
<feOffset dy="21.3333"/>
<feGaussianBlur stdDeviation="8"/>
<feComposite in2="hardAlpha" operator="out"/>
<feColorMatrix type="matrix" values="0 0 0 0 0 0 0 0 0 0 0 0 0 0 0 0 0 0 0.4 0"/>
<feBlend mode="multiply" in2="effect1_backgroundBlur_3093_132814" result="effect2_dropShadow_3093_132814"/>
<feBlend mode="normal" in="SourceGraphic" in2="effect2_dropShadow_3093_132814" result="shape"/>
<feColorMatrix in="SourceAlpha" type="matrix" values="0 0 0 0 0 0 0 0 0 0 0 0 0 0 0 0 0 0 127 0" result="hardAlpha"/>
<feOffset/>
<feGaussianBlur stdDeviation="2.66667"/>
<feComposite in2="hardAlpha" operator="arithmetic" k2="-1" k3="1"/>
<feColorMatrix type="matrix" values="0 0 0 0 0.972549 0 0 0 0 0.972549 0 0 0 0 0.972549 0 0 0 0.25 0"/>
<feBlend mode="normal" in2="shape" result="effect3_innerShadow_3093_132814"/>
</filter>
<filter id="filter2_b_3093_132814" x="-7" y="246" width="180" height="140" filterUnits="userSpaceOnUse" color-interpolation-filters="sRGB">
<feFlood flood-opacity="0" result="BackgroundImageFix"/>
<feGaussianBlur in="BackgroundImageFix" stdDeviation="4"/>
<feComposite in2="SourceAlpha" operator="in" result="effect1_backgroundBlur_3093_132814"/>
<feBlend mode="normal" in="SourceGraphic" in2="effect1_backgroundBlur_3093_132814" result="shape"/>
</filter>
<filter id="filter3_b_3093_132814" x="337" y="246" width="180" height="140" filterUnits="userSpaceOnUse" color-interpolation-filters="sRGB">
<feFlood flood-opacity="0" result="BackgroundImageFix"/>
<feGaussianBlur in="BackgroundImageFix" stdDeviation="4"/>
<feComposite in2="SourceAlpha" operator="in" result="effect1_backgroundBlur_3093_132814"/>
<feBlend mode="normal" in="SourceGraphic" in2="effect1_backgroundBlur_3093_132814" result="shape"/>
</filter>
<filter id="filter4_b_3093_132814" x="-7" y="-18" width="180" height="140" filterUnits="userSpaceOnUse" color-interpolation-filters="sRGB">
<feFlood flood-opacity="0" result="BackgroundImageFix"/>
<feGaussianBlur in="BackgroundImageFix" stdDeviation="4"/>
<feComposite in2="SourceAlpha" operator="in" result="effect1_backgroundBlur_3093_132814"/>
<feBlend mode="normal" in="SourceGraphic" in2="effect1_backgroundBlur_3093_132814" result="shape"/>
</filter>
<filter id="filter5_b_3093_132814" x="337" y="-18" width="180" height="140" filterUnits="userSpaceOnUse" color-interpolation-filters="sRGB">
<feFlood flood-opacity="0" result="BackgroundImageFix"/>
<feGaussianBlur in="BackgroundImageFix" stdDeviation="4"/>
<feComposite in2="SourceAlpha" operator="in" result="effect1_backgroundBlur_3093_132814"/>
<feBlend mode="normal" in="SourceGraphic" in2="effect1_backgroundBlur_3093_132814" result="shape"/>
</filter>
<radialGradient id="paint0_radial_3093_132814" cx="0" cy="0" r="1" gradientUnits="userSpaceOnUse" gradientTransform="translate(255 184) rotate(90) scale(184)">
<stop offset="0.433142" stop-color="#737373" stop-opacity="0"/>
<stop offset="1" stop-color="#D9D9D9"/>
</radialGradient>
<linearGradient id="paint1_linear_3093_132814" x1="69" y1="147" x2="94.8672" y2="120.301" gradientUnits="userSpaceOnUse">
<stop offset="0.117539" stop-color="#F8F8F8" stop-opacity="0"/>
<stop offset="0.681051" stop-color="#F8F8F8" stop-opacity="0.25"/>
<stop offset="1" stop-color="#F8F8F8" stop-opacity="0.8"/>
</linearGradient>
<linearGradient id="paint2_linear_3093_132814" x1="302" y1="201.5" x2="333" y2="237.721" gradientUnits="userSpaceOnUse">
<stop stop-color="#F8F8F8" stop-opacity="0.8"/>
<stop offset="0.45221" stop-color="#F8F8F8" stop-opacity="0.25"/>
<stop offset="1" stop-color="#F8F8F8" stop-opacity="0.8"/>
</linearGradient>
<linearGradient id="paint3_linear_3093_132814" x1="57" y1="225.5" x2="88.0005" y2="261.721" gradientUnits="userSpaceOnUse">
<stop stop-color="#F8F8F8" stop-opacity="0.8"/>
<stop offset="0.45221" stop-color="#F8F8F8" stop-opacity="0.25"/>
<stop offset="1" stop-color="#F8F8F8" stop-opacity="0.8"/>
</linearGradient>
<linearGradient id="paint4_linear_3093_132814" x1="302" y1="165.5" x2="333" y2="129.279" gradientUnits="userSpaceOnUse">
<stop stop-color="#F8F8F8" stop-opacity="0.8"/>
<stop offset="0.45221" stop-color="#F8F8F8" stop-opacity="0.25"/>
<stop offset="0.784371" stop-color="#F8F8F8" stop-opacity="0"/>
</linearGradient>
<linearGradient id="paint5_linear_3093_132814" x1="6" y1="-1.36173e-07" x2="11.2202" y2="13.1775" gradientUnits="userSpaceOnUse">
<stop stop-color="white" stop-opacity="0.4"/>
<stop offset="0.4" stop-color="white" stop-opacity="0.01"/>
<stop offset="0.6" stop-color="white" stop-opacity="0.01"/>
<stop offset="1" stop-color="white" stop-opacity="0.1"/>
</linearGradient>
<linearGradient id="paint6_linear_3093_132814" x1="6" y1="-1.36173e-07" x2="11.2202" y2="13.1775" gradientUnits="userSpaceOnUse">
<stop stop-color="white" stop-opacity="0.4"/>
<stop offset="0.4" stop-color="white" stop-opacity="0.01"/>
<stop offset="0.6" stop-color="white" stop-opacity="0.01"/>
<stop offset="1" stop-color="white" stop-opacity="0.1"/>
</linearGradient>
<linearGradient id="paint7_linear_3093_132814" x1="255" y1="0" x2="255" y2="113" gradientUnits="userSpaceOnUse">
<stop stop-color="#F8F8F8" stop-opacity="0"/>
<stop offset="1" stop-color="#F8F8F8" stop-opacity="0.1"/>
</linearGradient>
<linearGradient id="paint8_linear_3093_132814" x1="257.852" y1="32.2669" x2="257.498" y2="33.024" gradientUnits="userSpaceOnUse">
<stop offset="0.173306" stop-color="white" stop-opacity="0"/>
<stop offset="1" stop-color="white" stop-opacity="0.3"/>
</linearGradient>
<linearGradient id="paint9_linear_3093_132814" x1="249.978" y1="49.2262" x2="249.624" y2="49.9833" gradientUnits="userSpaceOnUse">
<stop offset="0.173306" stop-color="white" stop-opacity="0"/>
<stop offset="1" stop-color="white" stop-opacity="0.3"/>
</linearGradient>
<linearGradient id="paint10_linear_3093_132814" x1="266.331" y1="1.98258" x2="265.978" y2="2.73969" gradientUnits="userSpaceOnUse">
<stop offset="0.173306" stop-color="white" stop-opacity="0"/>
<stop offset="1" stop-color="white" stop-opacity="0.3"/>
</linearGradient>
<linearGradient id="paint11_linear_3093_132814" x1="246.343" y1="24.9987" x2="245.99" y2="25.7558" gradientUnits="userSpaceOnUse">
<stop offset="0.173306" stop-color="white" stop-opacity="0"/>
<stop offset="1" stop-color="white" stop-opacity="0.3"/>
</linearGradient>
<linearGradient id="paint12_linear_3093_132814" x1="259.063" y1="54.0717" x2="258.71" y2="54.8288" gradientUnits="userSpaceOnUse">
<stop offset="0.173306" stop-color="white" stop-opacity="0"/>
<stop offset="1" stop-color="white" stop-opacity="0.3"/>
</linearGradient>
<linearGradient id="paint13_linear_3093_132814" x1="266.917" y1="10.5433" x2="263.888" y2="14.7831" gradientUnits="userSpaceOnUse">
<stop stop-color="white" stop-opacity="0.3"/>
<stop offset="0.826694" stop-color="white" stop-opacity="0"/>
</linearGradient>
<linearGradient id="paint14_linear_3093_132814" x1="285.028" y1="8" x2="282" y2="12.2398" gradientUnits="userSpaceOnUse">
<stop stop-color="white" stop-opacity="0.3"/>
<stop offset="0.826694" stop-color="white" stop-opacity="0"/>
</linearGradient>
<linearGradient id="paint15_linear_3093_132814" x1="258.028" y1="76" x2="255" y2="80.2398" gradientUnits="userSpaceOnUse">
<stop stop-color="white" stop-opacity="0.3"/>
<stop offset="0.826694" stop-color="white" stop-opacity="0"/>
</linearGradient>
<linearGradient id="paint16_linear_3093_132814" x1="257.932" y1="41.0296" x2="256.166" y2="44.8151" gradientUnits="userSpaceOnUse">
<stop stop-color="white" stop-opacity="0.3"/>
<stop offset="0.826694" stop-color="white" stop-opacity="0"/>
</linearGradient>
<linearGradient id="paint17_linear_3093_132814" x1="242.487" y1="5.29408" x2="241.781" y2="6.8083" gradientUnits="userSpaceOnUse">
<stop offset="0.173306" stop-color="white" stop-opacity="0"/>
<stop offset="1" stop-color="white" stop-opacity="0.3"/>
</linearGradient>
<linearGradient id="paint18_linear_3093_132814" x1="256.666" y1="12.2052" x2="255.96" y2="13.7194" gradientUnits="userSpaceOnUse">
<stop offset="0.173306" stop-color="white" stop-opacity="0"/>
<stop offset="1" stop-color="white" stop-opacity="0.3"/>
</linearGradient>
<linearGradient id="paint19_linear_3093_132814" x1="281.258" y1="23.8445" x2="280.551" y2="25.3587" gradientUnits="userSpaceOnUse">
<stop offset="0.173306" stop-color="white" stop-opacity="0"/>
<stop offset="1" stop-color="white" stop-opacity="0.3"/>
</linearGradient>
<linearGradient id="paint20_linear_3093_132814" x1="229.258" y1="21.8445" x2="228.551" y2="23.3587" gradientUnits="userSpaceOnUse">
<stop offset="0.173306" stop-color="white" stop-opacity="0"/>
<stop offset="1" stop-color="white" stop-opacity="0.3"/>
</linearGradient>
<linearGradient id="paint21_linear_3093_132814" x1="251.208" y1="37.0313" x2="250.501" y2="38.5455" gradientUnits="userSpaceOnUse">
<stop offset="0.173306" stop-color="white" stop-opacity="0"/>
<stop offset="1" stop-color="white" stop-opacity="0.3"/>
</linearGradient>
<linearGradient id="paint22_linear_3093_132814" x1="240.251" y1="32.8377" x2="239.544" y2="34.3519" gradientUnits="userSpaceOnUse">
<stop offset="0.173306" stop-color="white" stop-opacity="0"/>
<stop offset="1" stop-color="white" stop-opacity="0.3"/>
</linearGradient>
<linearGradient id="paint23_linear_3093_132814" x1="243.699" y1="14.3794" x2="242.992" y2="15.8936" gradientUnits="userSpaceOnUse">
<stop offset="0.173306" stop-color="white" stop-opacity="0"/>
<stop offset="1" stop-color="white" stop-opacity="0.3"/>
</linearGradient>
<linearGradient id="paint24_linear_3093_132814" x1="263.686" y1="21.6476" x2="262.98" y2="23.1618" gradientUnits="userSpaceOnUse">
<stop offset="0.173306" stop-color="white" stop-opacity="0"/>
<stop offset="1" stop-color="white" stop-opacity="0.3"/>
</linearGradient>
<linearGradient id="paint25_linear_3093_132814" x1="252.582" y1="26.695" x2="251.169" y2="29.7234" gradientUnits="userSpaceOnUse">
<stop stop-color="white" stop-opacity="0.3"/>
<stop offset="0.826694" stop-color="white" stop-opacity="0"/>
</linearGradient>
<radialGradient id="paint26_radial_3093_132814" cx="0" cy="0" r="1" gradientUnits="userSpaceOnUse" gradientTransform="translate(255 184) rotate(90) scale(184)">
<stop stop-color="#D9D9D9"/>
<stop offset="1" stop-color="#737373" stop-opacity="0"/>
</radialGradient>
<linearGradient id="paint27_linear_3093_132814" x1="83" y1="122" x2="83" y2="246" gradientUnits="userSpaceOnUse">
<stop offset="0.522974" stop-color="#F8F8F8" stop-opacity="0"/>
<stop offset="1" stop-color="#F8F8F8" stop-opacity="0.1"/>
</linearGradient>
<linearGradient id="paint28_linear_3093_132814" x1="83" y1="122" x2="83" y2="246" gradientUnits="userSpaceOnUse">
<stop offset="0.522974" stop-color="#F8F8F8" stop-opacity="0"/>
<stop offset="1" stop-color="#F8F8F8" stop-opacity="0.1"/>
</linearGradient>
<linearGradient id="paint29_linear_3093_132814" x1="82" y1="0" x2="82" y2="124" gradientUnits="userSpaceOnUse">
<stop offset="0.522974" stop-color="#F8F8F8" stop-opacity="0"/>
<stop offset="1" stop-color="#F8F8F8" stop-opacity="0.1"/>
</linearGradient>
<linearGradient id="paint30_linear_3093_132814" x1="82" y1="0" x2="82" y2="124" gradientUnits="userSpaceOnUse">
<stop offset="0.522974" stop-color="#F8F8F8" stop-opacity="0"/>
<stop offset="1" stop-color="#F8F8F8" stop-opacity="0.1"/>
</linearGradient>
<clipPath id="clip0_3093_132814">
<rect width="336" height="336" fill="white" transform="translate(87 16)"/>
</clipPath>
</defs>
</svg>
