<svg width="368" height="536" viewBox="0 0 368 536" fill="none" xmlns="http://www.w3.org/2000/svg">
<path opacity="0.5" d="M52.8789 603.311C55.7372 608.266 61.0231 611.318 66.7431 611.316L301.588 611.239C307.302 611.237 312.582 608.188 315.439 603.239L432.939 399.724C435.796 394.775 435.797 388.678 432.941 383.729L315.585 180.308C312.727 175.354 307.441 172.302 301.721 172.304L66.8762 172.381C61.1618 172.383 55.8822 175.432 53.0251 180.381L-64.4744 383.896C-67.3316 388.845 -67.3326 394.942 -64.4771 399.891L52.8789 603.311Z" fill="url(#paint0_linear_5217_55105)"/>
<circle cx="44" cy="44" r="44" transform="matrix(1 0 0 -1 140 212)" fill="#121212" fill-opacity="0.5" style="mix-blend-mode:luminosity"/>
<circle opacity="0.5" cx="237.149" cy="249.293" r="0.302844" transform="rotate(99.4968 237.149 249.293)" fill="url(#paint1_linear_5217_55105)"/>
<circle opacity="0.5" cx="218.463" cy="249.982" r="0.302844" transform="rotate(99.4968 218.463 249.982)" fill="url(#paint2_linear_5217_55105)"/>
<circle opacity="0.5" cx="267.98" cy="243.091" r="0.302844" transform="rotate(99.4968 267.98 243.091)" fill="url(#paint3_linear_5217_55105)"/>
<circle opacity="0.5" cx="238.396" cy="235.739" r="0.302844" transform="rotate(99.4968 238.396 235.739)" fill="url(#paint4_linear_5217_55105)"/>
<circle opacity="0.5" cx="218.273" cy="260.277" r="0.302844" transform="rotate(99.4968 218.273 260.277)" fill="url(#paint5_linear_5217_55105)"/>
<circle opacity="0.5" cx="258.992" cy="247.198" r="1.81706" transform="rotate(62.9843 258.992 247.198)" fill="url(#paint6_linear_5217_55105)"/>
<circle opacity="0.5" cx="227.213" cy="253.543" r="1.51422" transform="rotate(62.9843 227.213 253.543)" fill="url(#paint7_linear_5217_55105)"/>
<circle cx="253.658" cy="223.403" r="0.605687" transform="rotate(62.9843 253.658 223.403)" fill="url(#paint8_linear_5217_55105)"/>
<circle opacity="0.5" cx="253.942" cy="239.174" r="0.605687" transform="rotate(13.5184 253.942 239.174)" fill="url(#paint9_linear_5217_55105)"/>
<circle opacity="0.5" cx="229.345" cy="245.588" r="0.605687" transform="rotate(99.4968 229.345 245.588)" fill="url(#paint10_linear_5217_55105)"/>
<circle opacity="0.5" cx="246.114" cy="228.609" r="0.605687" transform="rotate(62.9843 246.114 228.609)" fill="url(#paint11_linear_5217_55105)"/>
<circle opacity="0.5" cx="248.718" cy="249.717" r="0.605687" transform="rotate(62.9843 248.718 249.717)" fill="url(#paint12_linear_5217_55105)"/>
<circle cx="262.783" cy="232.473" r="1.65266" transform="rotate(118.973 262.783 232.473)" fill="white" fill-opacity="0.15"/>
<circle cx="238.095" cy="242.216" r="1.21137" transform="rotate(62.9843 238.095 242.216)" fill="url(#paint13_linear_5217_55105)"/>
<circle opacity="0.5" cx="0.302844" cy="0.302844" r="0.302844" transform="matrix(0.95082 0.309745 0.309745 -0.95082 131.239 85.7253)" fill="url(#paint14_linear_5217_55105)"/>
<circle opacity="0.5" cx="0.302844" cy="0.302844" r="0.302844" transform="matrix(0.95082 0.309745 0.309745 -0.95082 140.49 69.4758)" fill="url(#paint15_linear_5217_55105)"/>
<circle opacity="0.5" cx="0.302844" cy="0.302844" r="0.302844" transform="matrix(0.95082 0.309745 0.309745 -0.95082 111.484 110.195)" fill="url(#paint16_linear_5217_55105)"/>
<circle opacity="0.5" cx="0.302844" cy="0.302844" r="0.302844" transform="matrix(0.95082 0.309745 0.309745 -0.95082 118.645 80.5647)" fill="url(#paint17_linear_5217_55105)"/>
<circle opacity="0.5" cx="0.302844" cy="0.302844" r="0.302844" transform="matrix(0.95082 0.309745 0.309745 -0.95082 149.706 74.0676)" fill="url(#paint18_linear_5217_55105)"/>
<circle opacity="0.5" cx="1.81706" cy="1.81706" r="1.81706" transform="matrix(0.579901 0.814687 0.814687 -0.579901 117.13 103.504)" fill="url(#paint19_linear_5217_55105)"/>
<circle opacity="0.5" cx="1.51422" cy="1.51422" r="1.51422" transform="matrix(0.579901 0.814687 0.814687 -0.579901 137.872 78.3312)" fill="url(#paint20_linear_5217_55105)"/>
<circle cx="0.605687" cy="0.605687" r="0.605687" transform="matrix(0.579901 0.814687 0.814687 -0.579901 100.186 88.0563)" fill="url(#paint21_linear_5217_55105)"/>
<circle opacity="0.5" cx="0.605687" cy="0.605687" r="0.605687" transform="matrix(-0.242299 0.970202 0.970202 0.242299 114.443 95.0078)" fill="url(#paint22_linear_5217_55105)"/>
<circle opacity="0.5" cx="0.605687" cy="0.605687" r="0.605687" transform="matrix(0.95082 0.309745 0.309745 -0.95082 131.181 77.2871)" fill="url(#paint23_linear_5217_55105)"/>
<circle opacity="0.5" cx="0.605687" cy="0.605687" r="0.605687" transform="matrix(0.579901 0.814687 0.814687 -0.579901 108.291 83.7747)" fill="url(#paint24_linear_5217_55105)"/>
<circle opacity="0.5" cx="0.605687" cy="0.605687" r="0.605687" transform="matrix(0.579901 0.814687 0.814687 -0.579901 125.803 95.8434)" fill="url(#paint25_linear_5217_55105)"/>
<circle cx="1.65266" cy="1.65266" r="1.65266" transform="matrix(0.999688 -0.0249973 -0.0249973 -0.999688 103.244 102.177)" fill="white" fill-opacity="0.15"/>
<circle cx="1.21137" cy="1.21137" r="1.21137" transform="matrix(0.579901 0.814687 0.814687 -0.579901 123.219 82.8134)" fill="url(#paint26_linear_5217_55105)"/>
<path d="M7 84L49.2678 157.94C52.1169 162.924 57.4176 166 63.1584 166H144" stroke="url(#paint27_linear_5217_55105)" stroke-opacity="0.1" stroke-width="1.5"/>
<path opacity="0.1" d="M112 166L144 166" stroke="#F8F8F8" stroke-width="1.5"/>
<path opacity="0.1" d="M224 169H256" stroke="#F8F8F8" stroke-width="1.5"/>
<path opacity="0.3" d="M7 251L49.2678 177.06C52.1169 172.076 57.4176 169 63.1584 169H130" stroke="#F8F8F8" stroke-opacity="0.05" stroke-width="1.5"/>
<path opacity="0.3" d="M361 84L318.732 157.94C315.883 162.924 310.582 166 304.842 166H238" stroke="#F8F8F8" stroke-opacity="0.05" stroke-width="1.5"/>
<path d="M361 251L318.732 177.06C315.883 172.076 310.582 169 304.842 169H224" stroke="url(#paint28_linear_5217_55105)" stroke-opacity="0.1" stroke-width="1.5"/>
<defs>
<linearGradient id="paint0_linear_5217_55105" x1="184.53" y1="439.244" x2="184.53" y2="174.508" gradientUnits="userSpaceOnUse">
<stop offset="0.620322" stop-color="#121212" stop-opacity="0"/>
<stop offset="1" stop-color="#121212"/>
</linearGradient>
<linearGradient id="paint1_linear_5217_55105" x1="237.351" y1="248.789" x2="236.997" y2="249.546" gradientUnits="userSpaceOnUse">
<stop offset="0.173306" stop-color="white" stop-opacity="0"/>
<stop offset="1" stop-color="white" stop-opacity="0.3"/>
</linearGradient>
<linearGradient id="paint2_linear_5217_55105" x1="218.665" y1="249.477" x2="218.312" y2="250.234" gradientUnits="userSpaceOnUse">
<stop offset="0.173306" stop-color="white" stop-opacity="0"/>
<stop offset="1" stop-color="white" stop-opacity="0.3"/>
</linearGradient>
<linearGradient id="paint3_linear_5217_55105" x1="268.182" y1="242.587" x2="267.829" y2="243.344" gradientUnits="userSpaceOnUse">
<stop offset="0.173306" stop-color="white" stop-opacity="0"/>
<stop offset="1" stop-color="white" stop-opacity="0.3"/>
</linearGradient>
<linearGradient id="paint4_linear_5217_55105" x1="238.598" y1="235.235" x2="238.245" y2="235.992" gradientUnits="userSpaceOnUse">
<stop offset="0.173306" stop-color="white" stop-opacity="0"/>
<stop offset="1" stop-color="white" stop-opacity="0.3"/>
</linearGradient>
<linearGradient id="paint5_linear_5217_55105" x1="218.475" y1="259.772" x2="218.122" y2="260.529" gradientUnits="userSpaceOnUse">
<stop offset="0.173306" stop-color="white" stop-opacity="0"/>
<stop offset="1" stop-color="white" stop-opacity="0.3"/>
</linearGradient>
<linearGradient id="paint6_linear_5217_55105" x1="260.203" y1="245.381" x2="257.175" y2="249.621" gradientUnits="userSpaceOnUse">
<stop stop-color="white" stop-opacity="0.3"/>
<stop offset="0.826694" stop-color="white" stop-opacity="0"/>
</linearGradient>
<linearGradient id="paint7_linear_5217_55105" x1="228.223" y1="251.019" x2="226.456" y2="254.805" gradientUnits="userSpaceOnUse">
<stop stop-color="white" stop-opacity="0.3"/>
<stop offset="0.826694" stop-color="white" stop-opacity="0"/>
</linearGradient>
<linearGradient id="paint8_linear_5217_55105" x1="254.062" y1="222.393" x2="253.355" y2="223.908" gradientUnits="userSpaceOnUse">
<stop offset="0.173306" stop-color="white" stop-opacity="0"/>
<stop offset="1" stop-color="white" stop-opacity="0.3"/>
</linearGradient>
<linearGradient id="paint9_linear_5217_55105" x1="254.345" y1="238.165" x2="253.639" y2="239.679" gradientUnits="userSpaceOnUse">
<stop offset="0.173306" stop-color="white" stop-opacity="0"/>
<stop offset="1" stop-color="white" stop-opacity="0.3"/>
</linearGradient>
<linearGradient id="paint10_linear_5217_55105" x1="229.749" y1="244.579" x2="229.042" y2="246.093" gradientUnits="userSpaceOnUse">
<stop offset="0.173306" stop-color="white" stop-opacity="0"/>
<stop offset="1" stop-color="white" stop-opacity="0.3"/>
</linearGradient>
<linearGradient id="paint11_linear_5217_55105" x1="246.518" y1="227.599" x2="245.811" y2="229.114" gradientUnits="userSpaceOnUse">
<stop offset="0.173306" stop-color="white" stop-opacity="0"/>
<stop offset="1" stop-color="white" stop-opacity="0.3"/>
</linearGradient>
<linearGradient id="paint12_linear_5217_55105" x1="249.122" y1="248.708" x2="248.415" y2="250.222" gradientUnits="userSpaceOnUse">
<stop offset="0.173306" stop-color="white" stop-opacity="0"/>
<stop offset="1" stop-color="white" stop-opacity="0.3"/>
</linearGradient>
<linearGradient id="paint13_linear_5217_55105" x1="238.902" y1="240.197" x2="237.489" y2="243.225" gradientUnits="userSpaceOnUse">
<stop stop-color="white" stop-opacity="0.3"/>
<stop offset="0.826694" stop-color="white" stop-opacity="0"/>
</linearGradient>
<linearGradient id="paint14_linear_5217_55105" x1="0.504739" y1="-0.201896" x2="0.151422" y2="0.555213" gradientUnits="userSpaceOnUse">
<stop offset="0.173306" stop-color="white" stop-opacity="0"/>
<stop offset="1" stop-color="white" stop-opacity="0.3"/>
</linearGradient>
<linearGradient id="paint15_linear_5217_55105" x1="0.504739" y1="-0.201896" x2="0.151422" y2="0.555213" gradientUnits="userSpaceOnUse">
<stop offset="0.173306" stop-color="white" stop-opacity="0"/>
<stop offset="1" stop-color="white" stop-opacity="0.3"/>
</linearGradient>
<linearGradient id="paint16_linear_5217_55105" x1="0.504739" y1="-0.201896" x2="0.151422" y2="0.555213" gradientUnits="userSpaceOnUse">
<stop offset="0.173306" stop-color="white" stop-opacity="0"/>
<stop offset="1" stop-color="white" stop-opacity="0.3"/>
</linearGradient>
<linearGradient id="paint17_linear_5217_55105" x1="0.504739" y1="-0.201896" x2="0.151422" y2="0.555213" gradientUnits="userSpaceOnUse">
<stop offset="0.173306" stop-color="white" stop-opacity="0"/>
<stop offset="1" stop-color="white" stop-opacity="0.3"/>
</linearGradient>
<linearGradient id="paint18_linear_5217_55105" x1="0.504739" y1="-0.201896" x2="0.151422" y2="0.555213" gradientUnits="userSpaceOnUse">
<stop offset="0.173306" stop-color="white" stop-opacity="0"/>
<stop offset="1" stop-color="white" stop-opacity="0.3"/>
</linearGradient>
<linearGradient id="paint19_linear_5217_55105" x1="3.02844" y1="8.7246e-08" x2="-9.32629e-08" y2="4.23981" gradientUnits="userSpaceOnUse">
<stop stop-color="white" stop-opacity="0.3"/>
<stop offset="0.826694" stop-color="white" stop-opacity="0"/>
</linearGradient>
<linearGradient id="paint20_linear_5217_55105" x1="2.5237" y1="-1.00948" x2="0.757109" y2="2.77607" gradientUnits="userSpaceOnUse">
<stop stop-color="white" stop-opacity="0.3"/>
<stop offset="0.826694" stop-color="white" stop-opacity="0"/>
</linearGradient>
<linearGradient id="paint21_linear_5217_55105" x1="1.00948" y1="-0.403791" x2="0.302844" y2="1.11043" gradientUnits="userSpaceOnUse">
<stop offset="0.173306" stop-color="white" stop-opacity="0"/>
<stop offset="1" stop-color="white" stop-opacity="0.3"/>
</linearGradient>
<linearGradient id="paint22_linear_5217_55105" x1="1.00948" y1="-0.403791" x2="0.302844" y2="1.11043" gradientUnits="userSpaceOnUse">
<stop offset="0.173306" stop-color="white" stop-opacity="0"/>
<stop offset="1" stop-color="white" stop-opacity="0.3"/>
</linearGradient>
<linearGradient id="paint23_linear_5217_55105" x1="1.00948" y1="-0.403791" x2="0.302844" y2="1.11043" gradientUnits="userSpaceOnUse">
<stop offset="0.173306" stop-color="white" stop-opacity="0"/>
<stop offset="1" stop-color="white" stop-opacity="0.3"/>
</linearGradient>
<linearGradient id="paint24_linear_5217_55105" x1="1.00948" y1="-0.403791" x2="0.302844" y2="1.11043" gradientUnits="userSpaceOnUse">
<stop offset="0.173306" stop-color="white" stop-opacity="0"/>
<stop offset="1" stop-color="white" stop-opacity="0.3"/>
</linearGradient>
<linearGradient id="paint25_linear_5217_55105" x1="1.00948" y1="-0.403791" x2="0.302844" y2="1.11043" gradientUnits="userSpaceOnUse">
<stop offset="0.173306" stop-color="white" stop-opacity="0"/>
<stop offset="1" stop-color="white" stop-opacity="0.3"/>
</linearGradient>
<linearGradient id="paint26_linear_5217_55105" x1="2.01896" y1="-0.807583" x2="0.605687" y2="2.22085" gradientUnits="userSpaceOnUse">
<stop stop-color="white" stop-opacity="0.3"/>
<stop offset="0.826694" stop-color="white" stop-opacity="0"/>
</linearGradient>
<linearGradient id="paint27_linear_5217_55105" x1="130" y1="166" x2="7.00002" y2="84" gradientUnits="userSpaceOnUse">
<stop offset="0.481613" stop-color="#F8F8F8"/>
<stop offset="1" stop-color="#F8F8F8" stop-opacity="0"/>
</linearGradient>
<linearGradient id="paint28_linear_5217_55105" x1="237.5" y1="169" x2="360.691" y2="251.461" gradientUnits="userSpaceOnUse">
<stop offset="0.481613" stop-color="#F8F8F8"/>
<stop offset="1" stop-color="#F8F8F8" stop-opacity="0"/>
</linearGradient>
</defs>
</svg>
