<svg width="50" height="27" viewBox="0 0 50 27" fill="none" xmlns="http://www.w3.org/2000/svg">
<circle opacity="0.5" cx="17.2284" cy="16.1719" r="0.302844" transform="rotate(126.513 17.2284 16.1719)" fill="url(#paint0_linear_5140_84782)"/>
<circle opacity="0.5" cx="0.269032" cy="8.29795" r="0.302844" transform="rotate(126.513 0.269032 8.29795)" fill="url(#paint1_linear_5140_84782)"/>
<circle opacity="0.5" cx="47.5127" cy="24.6515" r="0.302844" transform="rotate(126.513 47.5127 24.6515)" fill="url(#paint2_linear_5140_84782)"/>
<circle opacity="0.5" cx="24.4966" cy="4.66383" r="0.302844" transform="rotate(126.513 24.4966 4.66383)" fill="url(#paint3_linear_5140_84782)"/>
<circle opacity="0.5" cx="37.6396" cy="24.2275" r="1.81706" transform="rotate(90 37.6396 24.2275)" fill="url(#paint4_linear_5140_84782)"/>
<circle opacity="0.5" cx="6.44672" cy="15.445" r="1.51422" transform="rotate(90 6.44672 15.445)" fill="url(#paint5_linear_5140_84782)"/>
<circle cx="43.6964" cy="0.605687" r="0.605687" transform="rotate(90 43.6964 0.605687)" fill="url(#paint6_linear_5140_84782)"/>
<circle opacity="0.5" cx="36.7853" cy="14.7848" r="0.605687" transform="rotate(40.5342 36.7853 14.7848)" fill="url(#paint7_linear_5140_84782)"/>
<circle opacity="0.5" cx="11.9592" cy="9.32647" r="0.605687" transform="rotate(126.513 11.9592 9.32647)" fill="url(#paint8_linear_5140_84782)"/>
<circle opacity="0.5" cx="34.6111" cy="1.81705" r="0.605687" transform="rotate(90 34.6111 1.81705)" fill="url(#paint9_linear_5140_84782)"/>
<circle opacity="0.5" cx="27.3429" cy="21.8047" r="0.605687" transform="rotate(90 27.3429 21.8047)" fill="url(#paint10_linear_5140_84782)"/>
<circle cx="47.7056" cy="12.8311" r="1.65266" transform="rotate(145.989 47.7056 12.8311)" fill="white" fill-opacity="0.15"/>
<circle cx="21.2861" cy="10.2967" r="1.21137" transform="rotate(90 21.2861 10.2967)" fill="url(#paint11_linear_5140_84782)"/>
<defs>
<linearGradient id="paint0_linear_5140_84782" x1="17.4303" y1="15.6671" x2="17.077" y2="16.4243" gradientUnits="userSpaceOnUse">
<stop offset="0.173306" stop-color="white" stop-opacity="0"/>
<stop offset="1" stop-color="white" stop-opacity="0.3"/>
</linearGradient>
<linearGradient id="paint1_linear_5140_84782" x1="0.470928" y1="7.79321" x2="0.11761" y2="8.55032" gradientUnits="userSpaceOnUse">
<stop offset="0.173306" stop-color="white" stop-opacity="0"/>
<stop offset="1" stop-color="white" stop-opacity="0.3"/>
</linearGradient>
<linearGradient id="paint2_linear_5140_84782" x1="47.7146" y1="24.1468" x2="47.3613" y2="24.9039" gradientUnits="userSpaceOnUse">
<stop offset="0.173306" stop-color="white" stop-opacity="0"/>
<stop offset="1" stop-color="white" stop-opacity="0.3"/>
</linearGradient>
<linearGradient id="paint3_linear_5140_84782" x1="24.6985" y1="4.15909" x2="24.3452" y2="4.9162" gradientUnits="userSpaceOnUse">
<stop offset="0.173306" stop-color="white" stop-opacity="0"/>
<stop offset="1" stop-color="white" stop-opacity="0.3"/>
</linearGradient>
<linearGradient id="paint4_linear_5140_84782" x1="38.851" y1="22.4104" x2="35.8225" y2="26.6502" gradientUnits="userSpaceOnUse">
<stop stop-color="white" stop-opacity="0.3"/>
<stop offset="0.826694" stop-color="white" stop-opacity="0"/>
</linearGradient>
<linearGradient id="paint5_linear_5140_84782" x1="7.4562" y1="12.9213" x2="5.68961" y2="16.7069" gradientUnits="userSpaceOnUse">
<stop stop-color="white" stop-opacity="0.3"/>
<stop offset="0.826694" stop-color="white" stop-opacity="0"/>
</linearGradient>
<linearGradient id="paint6_linear_5140_84782" x1="44.1002" y1="-0.403791" x2="43.3936" y2="1.11043" gradientUnits="userSpaceOnUse">
<stop offset="0.173306" stop-color="white" stop-opacity="0"/>
<stop offset="1" stop-color="white" stop-opacity="0.3"/>
</linearGradient>
<linearGradient id="paint7_linear_5140_84782" x1="37.1891" y1="13.7753" x2="36.4825" y2="15.2895" gradientUnits="userSpaceOnUse">
<stop offset="0.173306" stop-color="white" stop-opacity="0"/>
<stop offset="1" stop-color="white" stop-opacity="0.3"/>
</linearGradient>
<linearGradient id="paint8_linear_5140_84782" x1="12.363" y1="8.31699" x2="11.6564" y2="9.83121" gradientUnits="userSpaceOnUse">
<stop offset="0.173306" stop-color="white" stop-opacity="0"/>
<stop offset="1" stop-color="white" stop-opacity="0.3"/>
</linearGradient>
<linearGradient id="paint9_linear_5140_84782" x1="35.0149" y1="0.807573" x2="34.3083" y2="2.32179" gradientUnits="userSpaceOnUse">
<stop offset="0.173306" stop-color="white" stop-opacity="0"/>
<stop offset="1" stop-color="white" stop-opacity="0.3"/>
</linearGradient>
<linearGradient id="paint10_linear_5140_84782" x1="27.7467" y1="20.7952" x2="27.0401" y2="22.3095" gradientUnits="userSpaceOnUse">
<stop offset="0.173306" stop-color="white" stop-opacity="0"/>
<stop offset="1" stop-color="white" stop-opacity="0.3"/>
</linearGradient>
<linearGradient id="paint11_linear_5140_84782" x1="22.0936" y1="8.27771" x2="20.6804" y2="11.3061" gradientUnits="userSpaceOnUse">
<stop stop-color="white" stop-opacity="0.3"/>
<stop offset="0.826694" stop-color="white" stop-opacity="0"/>
</linearGradient>
</defs>
</svg>
