<svg width="101" height="83" viewBox="0 0 101 83" fill="none" xmlns="http://www.w3.org/2000/svg">
<circle opacity="0.5" cx="22.292" cy="32.1719" r="0.302844" transform="rotate(126.513 22.292 32.1719)" fill="url(#paint0_linear_5059_78999)"/>
<circle opacity="0.5" cx="5.33281" cy="24.298" r="0.302844" transform="rotate(126.513 5.33281 24.298)" fill="url(#paint1_linear_5059_78999)"/>
<circle opacity="0.5" cx="52.5764" cy="40.6515" r="0.302844" transform="rotate(126.513 52.5764 40.6515)" fill="url(#paint2_linear_5059_78999)"/>
<circle opacity="0.5" cx="29.5603" cy="20.6638" r="0.302844" transform="rotate(126.513 29.5603 20.6638)" fill="url(#paint3_linear_5059_78999)"/>
<circle opacity="0.5" cx="0.487309" cy="33.3833" r="0.302844" transform="rotate(126.513 0.487309 33.3833)" fill="url(#paint4_linear_5059_78999)"/>
<circle opacity="0.5" cx="42.7032" cy="56.2275" r="1.81706" transform="rotate(90 42.7032 56.2275)" fill="url(#paint5_linear_5059_78999)"/>
<circle opacity="0.5" cx="11.5104" cy="31.445" r="1.51422" transform="rotate(90 11.5104 31.445)" fill="url(#paint6_linear_5059_78999)"/>
<circle cx="48.7603" cy="0.605687" r="0.605687" transform="rotate(90 48.7603 0.605687)" fill="url(#paint7_linear_5059_78999)"/>
<circle opacity="0.5" cx="41.8491" cy="30.7848" r="0.605687" transform="rotate(40.5342 41.8491 30.7848)" fill="url(#paint8_linear_5059_78999)"/>
<circle opacity="0.5" cx="17.023" cy="25.3265" r="0.605687" transform="rotate(126.513 17.023 25.3265)" fill="url(#paint9_linear_5059_78999)"/>
<circle opacity="0.5" cx="39.6748" cy="1.81711" r="0.605687" transform="rotate(90 39.6748 1.81711)" fill="url(#paint10_linear_5059_78999)"/>
<circle opacity="0.5" cx="32.4066" cy="37.8048" r="0.605687" transform="rotate(90 32.4066 37.8048)" fill="url(#paint11_linear_5059_78999)"/>
<circle cx="44.7693" cy="12.8311" r="1.65266" transform="rotate(145.989 44.7693 12.8311)" fill="white" fill-opacity="0.15"/>
<circle cx="26.3498" cy="26.2967" r="1.21137" transform="rotate(90 26.3498 26.2967)" fill="url(#paint12_linear_5059_78999)"/>
<circle opacity="0.5" cx="70.2915" cy="72.1719" r="0.302844" transform="rotate(126.513 70.2915 72.1719)" fill="url(#paint13_linear_5059_78999)"/>
<circle opacity="0.5" cx="53.3323" cy="64.298" r="0.302844" transform="rotate(126.513 53.3323 64.298)" fill="url(#paint14_linear_5059_78999)"/>
<circle opacity="0.5" cx="100.576" cy="80.6515" r="0.302844" transform="rotate(126.513 100.576 80.6515)" fill="url(#paint15_linear_5059_78999)"/>
<circle opacity="0.5" cx="77.5598" cy="60.6638" r="0.302844" transform="rotate(126.513 77.5598 60.6638)" fill="url(#paint16_linear_5059_78999)"/>
<circle opacity="0.5" cx="48.4868" cy="73.3833" r="0.302844" transform="rotate(126.513 48.4868 73.3833)" fill="url(#paint17_linear_5059_78999)"/>
<circle opacity="0.5" cx="98.7025" cy="80.2275" r="1.81706" transform="rotate(90 98.7025 80.2275)" fill="url(#paint18_linear_5059_78999)"/>
<circle opacity="0.5" cx="59.5099" cy="71.445" r="1.51422" transform="rotate(90 59.5099 71.445)" fill="url(#paint19_linear_5059_78999)"/>
<circle cx="96.7598" cy="40.6057" r="0.605687" transform="rotate(90 96.7598 40.6057)" fill="url(#paint20_linear_5059_78999)"/>
<circle opacity="0.5" cx="89.8486" cy="70.7848" r="0.605687" transform="rotate(40.5342 89.8486 70.7848)" fill="url(#paint21_linear_5059_78999)"/>
<circle opacity="0.5" cx="65.0225" cy="65.3265" r="0.605687" transform="rotate(126.513 65.0225 65.3265)" fill="url(#paint22_linear_5059_78999)"/>
<circle opacity="0.5" cx="87.6743" cy="41.8171" r="0.605687" transform="rotate(90 87.6743 41.8171)" fill="url(#paint23_linear_5059_78999)"/>
<circle opacity="0.5" cx="80.4061" cy="77.8048" r="0.605687" transform="rotate(90 80.4061 77.8048)" fill="url(#paint24_linear_5059_78999)"/>
<circle cx="92.7689" cy="52.8311" r="1.65266" transform="rotate(145.989 92.7689 52.8311)" fill="white" fill-opacity="0.15"/>
<circle cx="74.3493" cy="66.2967" r="1.21137" transform="rotate(90 74.3493 66.2967)" fill="url(#paint25_linear_5059_78999)"/>
<defs>
<linearGradient id="paint0_linear_5059_78999" x1="22.4939" y1="31.6671" x2="22.1406" y2="32.4242" gradientUnits="userSpaceOnUse">
<stop offset="0.173306" stop-color="white" stop-opacity="0"/>
<stop offset="1" stop-color="white" stop-opacity="0.3"/>
</linearGradient>
<linearGradient id="paint1_linear_5059_78999" x1="5.5347" y1="23.7932" x2="5.18138" y2="24.5503" gradientUnits="userSpaceOnUse">
<stop offset="0.173306" stop-color="white" stop-opacity="0"/>
<stop offset="1" stop-color="white" stop-opacity="0.3"/>
</linearGradient>
<linearGradient id="paint2_linear_5059_78999" x1="52.7783" y1="40.1467" x2="52.425" y2="40.9038" gradientUnits="userSpaceOnUse">
<stop offset="0.173306" stop-color="white" stop-opacity="0"/>
<stop offset="1" stop-color="white" stop-opacity="0.3"/>
</linearGradient>
<linearGradient id="paint3_linear_5059_78999" x1="29.7622" y1="20.1591" x2="29.4089" y2="20.9162" gradientUnits="userSpaceOnUse">
<stop offset="0.173306" stop-color="white" stop-opacity="0"/>
<stop offset="1" stop-color="white" stop-opacity="0.3"/>
</linearGradient>
<linearGradient id="paint4_linear_5059_78999" x1="0.689205" y1="32.8785" x2="0.335887" y2="33.6357" gradientUnits="userSpaceOnUse">
<stop offset="0.173306" stop-color="white" stop-opacity="0"/>
<stop offset="1" stop-color="white" stop-opacity="0.3"/>
</linearGradient>
<linearGradient id="paint5_linear_5059_78999" x1="43.9146" y1="54.4104" x2="40.8861" y2="58.6502" gradientUnits="userSpaceOnUse">
<stop stop-color="white" stop-opacity="0.3"/>
<stop offset="0.826694" stop-color="white" stop-opacity="0"/>
</linearGradient>
<linearGradient id="paint6_linear_5059_78999" x1="12.5199" y1="28.9213" x2="10.7533" y2="32.7069" gradientUnits="userSpaceOnUse">
<stop stop-color="white" stop-opacity="0.3"/>
<stop offset="0.826694" stop-color="white" stop-opacity="0"/>
</linearGradient>
<linearGradient id="paint7_linear_5059_78999" x1="49.1641" y1="-0.403791" x2="48.4574" y2="1.11043" gradientUnits="userSpaceOnUse">
<stop offset="0.173306" stop-color="white" stop-opacity="0"/>
<stop offset="1" stop-color="white" stop-opacity="0.3"/>
</linearGradient>
<linearGradient id="paint8_linear_5059_78999" x1="42.2529" y1="29.7753" x2="41.5462" y2="31.2895" gradientUnits="userSpaceOnUse">
<stop offset="0.173306" stop-color="white" stop-opacity="0"/>
<stop offset="1" stop-color="white" stop-opacity="0.3"/>
</linearGradient>
<linearGradient id="paint9_linear_5059_78999" x1="17.4267" y1="24.317" x2="16.7201" y2="25.8312" gradientUnits="userSpaceOnUse">
<stop offset="0.173306" stop-color="white" stop-opacity="0"/>
<stop offset="1" stop-color="white" stop-opacity="0.3"/>
</linearGradient>
<linearGradient id="paint10_linear_5059_78999" x1="40.0786" y1="0.807634" x2="39.372" y2="2.32185" gradientUnits="userSpaceOnUse">
<stop offset="0.173306" stop-color="white" stop-opacity="0"/>
<stop offset="1" stop-color="white" stop-opacity="0.3"/>
</linearGradient>
<linearGradient id="paint11_linear_5059_78999" x1="32.8104" y1="36.7953" x2="32.1038" y2="38.3095" gradientUnits="userSpaceOnUse">
<stop offset="0.173306" stop-color="white" stop-opacity="0"/>
<stop offset="1" stop-color="white" stop-opacity="0.3"/>
</linearGradient>
<linearGradient id="paint12_linear_5059_78999" x1="27.1573" y1="24.2777" x2="25.7441" y2="27.3062" gradientUnits="userSpaceOnUse">
<stop stop-color="white" stop-opacity="0.3"/>
<stop offset="0.826694" stop-color="white" stop-opacity="0"/>
</linearGradient>
<linearGradient id="paint13_linear_5059_78999" x1="70.4935" y1="71.6671" x2="70.1401" y2="72.4242" gradientUnits="userSpaceOnUse">
<stop offset="0.173306" stop-color="white" stop-opacity="0"/>
<stop offset="1" stop-color="white" stop-opacity="0.3"/>
</linearGradient>
<linearGradient id="paint14_linear_5059_78999" x1="53.5342" y1="63.7932" x2="53.1809" y2="64.5503" gradientUnits="userSpaceOnUse">
<stop offset="0.173306" stop-color="white" stop-opacity="0"/>
<stop offset="1" stop-color="white" stop-opacity="0.3"/>
</linearGradient>
<linearGradient id="paint15_linear_5059_78999" x1="100.778" y1="80.1467" x2="100.424" y2="80.9038" gradientUnits="userSpaceOnUse">
<stop offset="0.173306" stop-color="white" stop-opacity="0"/>
<stop offset="1" stop-color="white" stop-opacity="0.3"/>
</linearGradient>
<linearGradient id="paint16_linear_5059_78999" x1="77.7617" y1="60.1591" x2="77.4084" y2="60.9162" gradientUnits="userSpaceOnUse">
<stop offset="0.173306" stop-color="white" stop-opacity="0"/>
<stop offset="1" stop-color="white" stop-opacity="0.3"/>
</linearGradient>
<linearGradient id="paint17_linear_5059_78999" x1="48.6887" y1="72.8785" x2="48.3354" y2="73.6357" gradientUnits="userSpaceOnUse">
<stop offset="0.173306" stop-color="white" stop-opacity="0"/>
<stop offset="1" stop-color="white" stop-opacity="0.3"/>
</linearGradient>
<linearGradient id="paint18_linear_5059_78999" x1="99.9138" y1="78.4104" x2="96.8854" y2="82.6502" gradientUnits="userSpaceOnUse">
<stop stop-color="white" stop-opacity="0.3"/>
<stop offset="0.826694" stop-color="white" stop-opacity="0"/>
</linearGradient>
<linearGradient id="paint19_linear_5059_78999" x1="60.5194" y1="68.9213" x2="58.7528" y2="72.7069" gradientUnits="userSpaceOnUse">
<stop stop-color="white" stop-opacity="0.3"/>
<stop offset="0.826694" stop-color="white" stop-opacity="0"/>
</linearGradient>
<linearGradient id="paint20_linear_5059_78999" x1="97.1636" y1="39.5962" x2="96.4569" y2="41.1104" gradientUnits="userSpaceOnUse">
<stop offset="0.173306" stop-color="white" stop-opacity="0"/>
<stop offset="1" stop-color="white" stop-opacity="0.3"/>
</linearGradient>
<linearGradient id="paint21_linear_5059_78999" x1="90.2524" y1="69.7753" x2="89.5457" y2="71.2895" gradientUnits="userSpaceOnUse">
<stop offset="0.173306" stop-color="white" stop-opacity="0"/>
<stop offset="1" stop-color="white" stop-opacity="0.3"/>
</linearGradient>
<linearGradient id="paint22_linear_5059_78999" x1="65.4263" y1="64.317" x2="64.7196" y2="65.8312" gradientUnits="userSpaceOnUse">
<stop offset="0.173306" stop-color="white" stop-opacity="0"/>
<stop offset="1" stop-color="white" stop-opacity="0.3"/>
</linearGradient>
<linearGradient id="paint23_linear_5059_78999" x1="88.0781" y1="40.8076" x2="87.3715" y2="42.3219" gradientUnits="userSpaceOnUse">
<stop offset="0.173306" stop-color="white" stop-opacity="0"/>
<stop offset="1" stop-color="white" stop-opacity="0.3"/>
</linearGradient>
<linearGradient id="paint24_linear_5059_78999" x1="80.8099" y1="76.7953" x2="80.1033" y2="78.3095" gradientUnits="userSpaceOnUse">
<stop offset="0.173306" stop-color="white" stop-opacity="0"/>
<stop offset="1" stop-color="white" stop-opacity="0.3"/>
</linearGradient>
<linearGradient id="paint25_linear_5059_78999" x1="75.1569" y1="64.2777" x2="73.7436" y2="67.3062" gradientUnits="userSpaceOnUse">
<stop stop-color="white" stop-opacity="0.3"/>
<stop offset="0.826694" stop-color="white" stop-opacity="0"/>
</linearGradient>
</defs>
</svg>
