<svg width="336" height="356" viewBox="0 0 336 356" fill="none" xmlns="http://www.w3.org/2000/svg">
<mask id="mask0_5057_28626" style="mask-type:alpha" maskUnits="userSpaceOnUse" x="-20" y="-10" width="376" height="376">
<circle cx="168" cy="178" r="188" fill="url(#paint0_radial_5057_28626)"/>
</mask>
<g mask="url(#mask0_5057_28626)">
<path d="M253 1L179.06 43.2678C174.076 46.1169 171 51.4176 171 57.1584L171 123" stroke="url(#paint1_linear_5057_28626)" stroke-opacity="0.1" stroke-width="1.5"/>
<path opacity="0.3" d="M83 1L156.94 43.2678C161.924 46.1168 165 51.4176 165 57.1584L165 124" stroke="#F8F8F8" stroke-opacity="0.05" stroke-width="1.5"/>
<path opacity="0.3" d="M253 355L179.06 312.732C174.076 309.883 171 304.582 171 298.842L171 218.5" stroke="#F8F8F8" stroke-opacity="0.05" stroke-width="1.5"/>
<path d="M84 355L157.94 312.732C162.924 309.883 166 304.582 166 298.842L166 233" stroke="url(#paint2_linear_5057_28626)" stroke-opacity="0.1" stroke-width="1.5"/>
</g>
<g clip-path="url(#clip0_5057_28626)">
<mask id="mask1_5057_28626" style="mask-type:alpha" maskUnits="userSpaceOnUse" x="-16" y="-6" width="368" height="368">
<circle cx="168" cy="178" r="184" fill="url(#paint3_radial_5057_28626)"/>
</mask>
<g mask="url(#mask1_5057_28626)">
<g opacity="0.1">
<circle opacity="0.3" cx="17.5842" cy="27.5842" r="1.5842" fill="#F8F8F8"/>
<circle cx="37.505" cy="27.505" r="1.505" fill="#F8F8F8"/>
<circle cx="57.8862" cy="27.8862" r="1.3862" fill="#F8F8F8"/>
<circle cx="77.7278" cy="27.7278" r="1.2278" fill="#F8F8F8"/>
<circle cx="97.5892" cy="27.5892" r="1.0892" fill="#F8F8F8"/>
<circle cx="117.911" cy="27.911" r="0.911" fill="#F8F8F8"/>
<circle cx="137.733" cy="27.7328" r="0.7328" fill="#F8F8F8"/>
<circle cx="157.574" cy="27.5744" r="0.5744" fill="#F8F8F8"/>
<circle cx="177.5" cy="27.5" r="0.5" fill="#F8F8F8"/>
<circle cx="197.5" cy="27.5" r="0.5" fill="#F8F8F8"/>
<circle cx="217.5" cy="27.5" r="0.5" fill="#F8F8F8"/>
<circle cx="237.5" cy="27.5" r="0.5" fill="#F8F8F8"/>
<circle cx="257.5" cy="27.5" r="0.5" fill="#F8F8F8"/>
<circle cx="277.5" cy="27.5" r="0.5" fill="#F8F8F8"/>
<circle cx="297.5" cy="27.5" r="0.5" fill="#F8F8F8"/>
<circle cx="317.5" cy="27.5" r="0.5" fill="#F8F8F8"/>
<circle opacity="0.3" cx="17.5248" cy="47.5248" r="1.5248" fill="#F8F8F8"/>
<circle opacity="0.4" cx="37.9456" cy="47.9456" r="1.4456" fill="#F8F8F8"/>
<circle opacity="0.4" cx="57.807" cy="47.807" r="1.307" fill="#F8F8F8"/>
<circle opacity="0.4" cx="77.6486" cy="47.6486" r="1.1486" fill="#F8F8F8"/>
<circle cx="97.9902" cy="47.9902" r="0.9902" fill="#F8F8F8"/>
<circle cx="117.812" cy="47.812" r="0.812" fill="#F8F8F8"/>
<circle cx="137.634" cy="47.6338" r="0.6338" fill="#F8F8F8"/>
<circle cx="157.5" cy="47.5" r="0.5" fill="#F8F8F8"/>
<circle cx="177.5" cy="47.5" r="0.5" fill="#F8F8F8"/>
<circle cx="197.5" cy="47.5" r="0.5" fill="#F8F8F8"/>
<circle cx="217.5" cy="47.5" r="0.5" fill="#F8F8F8"/>
<circle cx="237.5" cy="47.5" r="0.5" fill="#F8F8F8"/>
<circle cx="257.5" cy="47.5" r="0.5" fill="#F8F8F8"/>
<circle cx="277.5" cy="47.5" r="0.5" fill="#F8F8F8"/>
<circle cx="297.5" cy="47.5" r="0.5" fill="#F8F8F8"/>
<circle cx="317.5" cy="47.5" r="0.5" fill="#F8F8F8"/>
<circle opacity="0.3" cx="17.9654" cy="67.9654" r="1.4654" fill="#F8F8F8"/>
<circle opacity="0.4" cx="37.8466" cy="67.8466" r="1.3466" fill="#F8F8F8"/>
<circle opacity="0.4" cx="57.708" cy="67.708" r="1.208" fill="#F8F8F8"/>
<circle opacity="0.4" cx="77.5298" cy="67.5298" r="1.0298" fill="#F8F8F8"/>
<circle cx="97.8912" cy="67.8912" r="0.8912" fill="#F8F8F8"/>
<circle cx="117.733" cy="67.7328" r="0.7328" fill="#F8F8F8"/>
<circle cx="137.555" cy="67.5546" r="0.5546" fill="#F8F8F8"/>
<circle cx="157.5" cy="67.5" r="0.5" fill="#F8F8F8"/>
<circle cx="177.5" cy="67.5" r="0.5" fill="#F8F8F8"/>
<circle cx="197.5" cy="67.5" r="0.5" fill="#F8F8F8"/>
<circle cx="217.5" cy="67.5" r="0.5" fill="#F8F8F8"/>
<circle cx="237.5" cy="67.5" r="0.5" fill="#F8F8F8"/>
<circle cx="257.5" cy="67.5" r="0.5" fill="#F8F8F8"/>
<circle cx="277.5" cy="67.5" r="0.5" fill="#F8F8F8"/>
<circle cx="297.5" cy="67.5" r="0.5" fill="#F8F8F8"/>
<circle cx="317.5" cy="67.5" r="0.5" fill="#F8F8F8"/>
<circle opacity="0.3" cx="17.8664" cy="87.8664" r="1.3664" fill="#F8F8F8"/>
<circle opacity="0.4" cx="37.7476" cy="87.7476" r="1.2476" fill="#F8F8F8"/>
<circle opacity="0.4" cx="57.609" cy="87.609" r="1.109" fill="#F8F8F8"/>
<circle opacity="0.4" cx="77.9704" cy="87.9704" r="0.9704" fill="#F8F8F8"/>
<circle cx="97.8318" cy="87.8318" r="0.8318" fill="#F8F8F8"/>
<circle cx="117.673" cy="87.6734" r="0.6734" fill="#F8F8F8"/>
<circle cx="137.555" cy="87.5546" r="0.5546" fill="#F8F8F8"/>
<circle cx="157.5" cy="87.5" r="0.5" fill="#F8F8F8"/>
<circle cx="177.5" cy="87.5" r="0.5" fill="#F8F8F8"/>
<circle cx="197.5" cy="87.5" r="0.5" fill="#F8F8F8"/>
<circle cx="217.5" cy="87.5" r="0.5" fill="#F8F8F8"/>
<circle cx="237.5" cy="87.5" r="0.5" fill="#F8F8F8"/>
<circle cx="257.5" cy="87.5" r="0.5" fill="#F8F8F8"/>
<circle cx="277.5" cy="87.5" r="0.5" fill="#F8F8F8"/>
<circle cx="297.5" cy="87.5" r="0.5" fill="#F8F8F8"/>
<circle cx="317.5" cy="87.5" r="0.5" fill="#F8F8F8"/>
<circle cx="17.7674" cy="107.767" r="1.2674" fill="#F8F8F8"/>
<circle cx="37.6684" cy="107.668" r="1.1684" fill="#F8F8F8"/>
<circle cx="57.5496" cy="107.55" r="1.0496" fill="#F8F8F8"/>
<circle cx="77.911" cy="107.911" r="0.911" fill="#F8F8F8"/>
<circle cx="97.812" cy="107.812" r="0.812" fill="#F8F8F8"/>
<circle cx="117.673" cy="107.673" r="0.6734" fill="#F8F8F8"/>
<circle cx="137.574" cy="107.574" r="0.5744" fill="#F8F8F8"/>
<circle cx="157.515" cy="107.515" r="0.515" fill="#F8F8F8"/>
<circle cx="177.5" cy="107.5" r="0.5" fill="#F8F8F8"/>
<circle cx="197.5" cy="107.5" r="0.5" fill="#F8F8F8"/>
<circle cx="217.5" cy="107.5" r="0.5" fill="#F8F8F8"/>
<circle cx="237.5" cy="107.5" r="0.5" fill="#F8F8F8"/>
<circle cx="257.5" cy="107.5" r="0.5" fill="#F8F8F8"/>
<circle cx="277.5" cy="107.5" r="0.5" fill="#F8F8F8"/>
<circle cx="297.5" cy="107.5" r="0.5" fill="#F8F8F8"/>
<circle cx="317.5" cy="107.5" r="0.5" fill="#F8F8F8"/>
<circle cx="17.6882" cy="127.688" r="1.1882" fill="#F8F8F8"/>
<circle cx="37.5892" cy="127.589" r="1.0892" fill="#F8F8F8"/>
<circle cx="57.9902" cy="127.99" r="0.9902" fill="#F8F8F8"/>
<circle cx="277.5" cy="127.5" r="0.5" fill="#F8F8F8"/>
<circle cx="297.5" cy="127.5" r="0.5" fill="#F8F8F8"/>
<circle cx="317.5" cy="127.5" r="0.5" fill="#F8F8F8"/>
<circle cx="17.5892" cy="147.589" r="1.0892" fill="#F8F8F8"/>
<circle cx="37.5298" cy="147.53" r="1.0298" fill="#F8F8F8"/>
<circle cx="57.9506" cy="147.951" r="0.9506" fill="#F8F8F8"/>
<circle cx="277.555" cy="147.555" r="0.5546" fill="#F8F8F8"/>
<circle cx="297.5" cy="147.5" r="0.5" fill="#F8F8F8"/>
<circle cx="317.5" cy="147.5" r="0.5" fill="#F8F8F8"/>
<circle cx="17.5298" cy="167.53" r="1.0298" fill="#F8F8F8"/>
<circle cx="37.9902" cy="167.99" r="0.9902" fill="#F8F8F8"/>
<circle cx="57.9506" cy="167.951" r="0.9506" fill="#F8F8F8"/>
<circle cx="277.713" cy="167.713" r="0.713" fill="#F8F8F8"/>
<circle cx="297.634" cy="167.634" r="0.6338" fill="#F8F8F8"/>
<circle cx="317.574" cy="167.574" r="0.5744" fill="#F8F8F8"/>
<circle cx="17.9704" cy="187.97" r="0.9704" fill="#F8F8F8"/>
<circle cx="37.9506" cy="187.951" r="0.9506" fill="#F8F8F8"/>
<circle cx="57.9506" cy="187.951" r="0.9506" fill="#F8F8F8"/>
<circle cx="277.871" cy="187.871" r="0.8714" fill="#F8F8F8"/>
<circle cx="297.792" cy="187.792" r="0.7922" fill="#F8F8F8"/>
<circle cx="317.693" cy="187.693" r="0.6932" fill="#F8F8F8"/>
<circle cx="17.9506" cy="207.951" r="0.9506" fill="#F8F8F8"/>
<circle cx="37.9506" cy="207.951" r="0.9506" fill="#F8F8F8"/>
<circle cx="57.9704" cy="207.97" r="0.9704" fill="#F8F8F8"/>
<circle cx="277.51" cy="207.51" r="1.01" fill="#F8F8F8"/>
<circle cx="297.911" cy="207.911" r="0.911" fill="#F8F8F8"/>
<circle cx="317.812" cy="207.812" r="0.812" fill="#F8F8F8"/>
<circle cx="17.911" cy="227.911" r="0.911" fill="#F8F8F8"/>
<circle cx="37.9506" cy="227.951" r="0.9506" fill="#F8F8F8"/>
<circle cx="57.9902" cy="227.99" r="0.9902" fill="#F8F8F8"/>
<circle cx="277.589" cy="227.589" r="1.0892" fill="#F8F8F8"/>
<circle cx="297.51" cy="227.51" r="1.01" fill="#F8F8F8"/>
<circle cx="317.911" cy="227.911" r="0.911" fill="#F8F8F8"/>
<circle cx="17.911" cy="247.911" r="0.911" fill="#F8F8F8"/>
<circle opacity="0.5" cx="37.9506" cy="247.951" r="0.9506" fill="#F8F8F8"/>
<circle opacity="0.5" cx="57.5298" cy="247.53" r="1.0298" fill="#F8F8F8"/>
<circle cx="77.609" cy="247.609" r="1.109" fill="#F8F8F8"/>
<circle cx="97.6684" cy="247.668" r="1.1684" fill="#F8F8F8"/>
<circle cx="117.728" cy="247.728" r="1.2278" fill="#F8F8F8"/>
<circle cx="217.807" cy="247.807" r="1.307" fill="#F8F8F8"/>
<circle cx="237.787" cy="247.787" r="1.2872" fill="#F8F8F8"/>
<circle cx="257.748" cy="247.748" r="1.2476" fill="#F8F8F8"/>
<circle cx="277.708" cy="247.708" r="1.208" fill="#F8F8F8"/>
<circle cx="297.609" cy="247.609" r="1.109" fill="#F8F8F8"/>
<circle cx="317.51" cy="247.51" r="1.01" fill="#F8F8F8"/>
<circle cx="17.8912" cy="267.891" r="0.8912" fill="#F8F8F8"/>
<circle opacity="0.5" cx="37.9704" cy="267.97" r="0.9704" fill="#F8F8F8"/>
<circle opacity="0.5" cx="57.5496" cy="267.55" r="1.0496" fill="#F8F8F8"/>
<circle cx="77.6486" cy="267.649" r="1.1486" fill="#F8F8F8"/>
<circle cx="97.7278" cy="267.728" r="1.2278" fill="#F8F8F8"/>
<circle cx="117.807" cy="267.807" r="1.307" fill="#F8F8F8"/>
<circle cx="217.906" cy="267.906" r="1.406" fill="#F8F8F8"/>
<circle cx="237.886" cy="267.886" r="1.3862" fill="#F8F8F8"/>
<circle cx="257.847" cy="267.847" r="1.3466" fill="#F8F8F8"/>
<circle cx="277.787" cy="267.787" r="1.2872" fill="#F8F8F8"/>
<circle cx="297.708" cy="267.708" r="1.208" fill="#F8F8F8"/>
<circle cx="317.589" cy="267.589" r="1.0892" fill="#F8F8F8"/>
<circle opacity="0.5" cx="17.911" cy="287.911" r="0.911" fill="#F8F8F8"/>
<circle opacity="0.5" cx="37.9902" cy="287.99" r="0.9902" fill="#F8F8F8"/>
<circle opacity="0.5" cx="57.5892" cy="287.589" r="1.0892" fill="#F8F8F8"/>
<circle cx="77.6882" cy="287.688" r="1.1882" fill="#F8F8F8"/>
<circle cx="97.7674" cy="287.767" r="1.2674" fill="#F8F8F8"/>
<circle cx="117.847" cy="287.847" r="1.3466" fill="#F8F8F8"/>
<circle cx="217.965" cy="287.965" r="1.4654" fill="#F8F8F8"/>
<circle cx="237.946" cy="287.946" r="1.4456" fill="#F8F8F8"/>
<circle opacity="0.3" cx="257.906" cy="287.906" r="1.406" fill="#F8F8F8"/>
<circle opacity="0.3" cx="277.866" cy="287.866" r="1.3664" fill="#F8F8F8"/>
<circle opacity="0.3" cx="297.787" cy="287.787" r="1.2872" fill="#F8F8F8"/>
<circle cx="317.668" cy="287.668" r="1.1684" fill="#F8F8F8"/>
<circle opacity="0.5" cx="17.9308" cy="307.931" r="0.9308" fill="#F8F8F8"/>
<circle opacity="0.5" cx="37.51" cy="307.51" r="1.01" fill="#F8F8F8"/>
<circle opacity="0.5" cx="57.609" cy="307.609" r="1.109" fill="#F8F8F8"/>
<circle cx="77.708" cy="307.708" r="1.208" fill="#F8F8F8"/>
<circle cx="97.7872" cy="307.787" r="1.2872" fill="#F8F8F8"/>
<circle opacity="0.3" cx="117.866" cy="307.866" r="1.3664" fill="#F8F8F8"/>
<circle opacity="0.3" cx="137.926" cy="307.926" r="1.4258" fill="#F8F8F8"/>
<circle opacity="0.3" cx="157.965" cy="307.965" r="1.4654" fill="#F8F8F8"/>
<circle opacity="0.3" cx="177.985" cy="307.985" r="1.4852" fill="#F8F8F8"/>
<circle opacity="0.3" cx="197.505" cy="307.505" r="1.505" fill="#F8F8F8"/>
<circle opacity="0.3" cx="217.505" cy="307.505" r="1.505" fill="#F8F8F8"/>
<circle cx="237.985" cy="307.985" r="1.4852" fill="#F8F8F8"/>
<circle opacity="0.3" cx="257.965" cy="307.965" r="1.4654" fill="#F8F8F8"/>
<circle opacity="0.3" cx="277.926" cy="307.926" r="1.4258" fill="#F8F8F8"/>
<circle opacity="0.3" cx="297.847" cy="307.847" r="1.3466" fill="#F8F8F8"/>
<circle cx="317.748" cy="307.748" r="1.2476" fill="#F8F8F8"/>
<circle opacity="0.5" cx="17.9902" cy="327.99" r="0.9902" fill="#F8F8F8"/>
<circle opacity="0.5" cx="37.5298" cy="327.53" r="1.0298" fill="#F8F8F8"/>
<circle opacity="0.5" cx="57.6288" cy="327.629" r="1.1288" fill="#F8F8F8"/>
<circle cx="77.708" cy="327.708" r="1.208" fill="#F8F8F8"/>
<circle cx="97.7872" cy="327.787" r="1.2872" fill="#F8F8F8"/>
<circle opacity="0.3" cx="117.866" cy="327.866" r="1.3664" fill="#F8F8F8"/>
<circle opacity="0.3" cx="137.926" cy="327.926" r="1.4258" fill="#F8F8F8"/>
<circle opacity="0.3" cx="157.965" cy="327.965" r="1.4654" fill="#F8F8F8"/>
<circle opacity="0.3" cx="177.985" cy="327.985" r="1.4852" fill="#F8F8F8"/>
<circle opacity="0.3" cx="197.505" cy="327.505" r="1.505" fill="#F8F8F8"/>
<circle opacity="0.3" cx="217.505" cy="327.505" r="1.505" fill="#F8F8F8"/>
<circle cx="237.505" cy="327.505" r="1.505" fill="#F8F8F8"/>
<circle cx="257.505" cy="327.505" r="1.505" fill="#F8F8F8"/>
<circle cx="277.965" cy="327.965" r="1.4654" fill="#F8F8F8"/>
<circle cx="297.906" cy="327.906" r="1.406" fill="#F8F8F8"/>
<circle cx="317.807" cy="327.807" r="1.307" fill="#F8F8F8"/>
</g>
</g>
</g>
<path d="M50 178L118 178" stroke="url(#paint4_linear_5057_28626)" stroke-opacity="0.1" stroke-width="1.5" stroke-linecap="round"/>
<path d="M287 178L218 178" stroke="url(#paint5_linear_5057_28626)" stroke-opacity="0.1" stroke-width="1.5" stroke-linecap="round"/>
<mask id="mask2_5057_28626" style="mask-type:alpha" maskUnits="userSpaceOnUse" x="67" y="75" width="204" height="204">
<circle cx="169" cy="177" r="102" fill="url(#paint6_radial_5057_28626)"/>
</mask>
<g mask="url(#mask2_5057_28626)">
<rect opacity="0.1" x="66" y="76" width="48" height="48" rx="16" stroke="#F8F8F8" stroke-width="1.5"/>
<rect opacity="0.5" x="118" y="76" width="100" height="48" rx="16" stroke="#F8F8F8" stroke-width="1.5"/>
<rect opacity="0.1" x="222" y="76" width="48" height="48" rx="16" stroke="#F8F8F8" stroke-width="1.5"/>
<rect opacity="0.1" x="66" y="232" width="48" height="48" rx="16" stroke="#F8F8F8" stroke-width="1.5"/>
<rect opacity="0.5" x="118" y="232" width="100" height="48" rx="16" stroke="#F8F8F8" stroke-width="1.5"/>
<rect opacity="0.1" x="222" y="232" width="48" height="48" rx="16" stroke="#F8F8F8" stroke-width="1.5"/>
<rect x="118" y="128" width="100" height="100" rx="20" stroke="url(#paint7_linear_5057_28626)" stroke-width="1.5"/>
</g>
<g filter="url(#filter0_bi_5057_28626)">
<rect x="122" y="132" width="92" height="92" rx="16" fill="#F8F8F8" fill-opacity="0.01"/>
<rect x="122" y="132" width="92" height="92" rx="16" fill="#121212" fill-opacity="0.3"/>
<rect x="122.75" y="132.75" width="90.5" height="90.5" rx="15.25" stroke="url(#paint8_linear_5057_28626)" stroke-opacity="0.25" stroke-width="1.5"/>
<path fill-rule="evenodd" clip-rule="evenodd" d="M157.75 175C162.785 175 165 172.785 165 167.75C165 172.785 167.215 175 172.25 175C167.215 175 165 177.215 165 182.25C165 177.215 162.785 175 157.75 175Z" stroke="#F8F8F8" stroke-width="1.5" stroke-linejoin="round"/>
<path fill-rule="evenodd" clip-rule="evenodd" d="M168.75 183.5C172.049 183.5 173.5 182.049 173.5 178.75C173.5 182.049 174.951 183.5 178.25 183.5C174.951 183.5 173.5 184.951 173.5 188.25C173.5 184.951 172.049 183.5 168.75 183.5Z" stroke="#F8F8F8" stroke-width="1.5" stroke-linejoin="round"/>
</g>
<g filter="url(#filter1_bdi_5057_28626)">
<circle cx="118" cy="178" r="6" fill="#F8F8F8" fill-opacity="0.01" shape-rendering="crispEdges"/>
<circle cx="118" cy="178" r="6" fill="#121212" fill-opacity="0.3" shape-rendering="crispEdges"/>
<circle cx="118" cy="178" r="5.25" stroke="url(#paint9_linear_5057_28626)" stroke-opacity="0.25" stroke-width="1.5" shape-rendering="crispEdges"/>
</g>
<circle cx="118" cy="178" r="3" fill="#F8F8F8"/>
<g filter="url(#filter2_bdi_5057_28626)">
<circle cx="218" cy="178" r="6" fill="#F8F8F8" fill-opacity="0.01" shape-rendering="crispEdges"/>
<circle cx="218" cy="178" r="6" fill="#121212" fill-opacity="0.3" shape-rendering="crispEdges"/>
<circle cx="218" cy="178" r="5.25" stroke="url(#paint10_linear_5057_28626)" stroke-opacity="0.25" stroke-width="1.5" shape-rendering="crispEdges"/>
</g>
<circle cx="218" cy="178" r="3" fill="#F8F8F8"/>
<circle opacity="0.5" cx="72.2286" cy="180.172" r="0.302844" transform="rotate(126.513 72.2286 180.172)" fill="url(#paint11_linear_5057_28626)"/>
<circle opacity="0.5" cx="55.2693" cy="172.298" r="0.302844" transform="rotate(126.513 55.2693 172.298)" fill="url(#paint12_linear_5057_28626)"/>
<circle opacity="0.5" cx="102.513" cy="188.651" r="0.302844" transform="rotate(126.513 102.513 188.651)" fill="url(#paint13_linear_5057_28626)"/>
<circle opacity="0.5" cx="79.4968" cy="168.664" r="0.302844" transform="rotate(126.513 79.4968 168.664)" fill="url(#paint14_linear_5057_28626)"/>
<circle opacity="0.5" cx="50.4238" cy="181.383" r="0.302844" transform="rotate(126.513 50.4238 181.383)" fill="url(#paint15_linear_5057_28626)"/>
<circle opacity="0.5" cx="92.6397" cy="204.227" r="1.81706" transform="rotate(90 92.6397 204.227)" fill="url(#paint16_linear_5057_28626)"/>
<circle opacity="0.5" cx="61.4469" cy="179.445" r="1.51422" transform="rotate(90 61.4469 179.445)" fill="url(#paint17_linear_5057_28626)"/>
<circle cx="98.6968" cy="148.606" r="0.605687" transform="rotate(90 98.6968 148.606)" fill="url(#paint18_linear_5057_28626)"/>
<circle opacity="0.5" cx="91.7856" cy="178.785" r="0.605687" transform="rotate(40.5342 91.7856 178.785)" fill="url(#paint19_linear_5057_28626)"/>
<circle opacity="0.5" cx="66.9595" cy="173.326" r="0.605687" transform="rotate(126.513 66.9595 173.326)" fill="url(#paint20_linear_5057_28626)"/>
<circle opacity="0.5" cx="89.6113" cy="149.817" r="0.605687" transform="rotate(90 89.6113 149.817)" fill="url(#paint21_linear_5057_28626)"/>
<circle opacity="0.5" cx="82.3432" cy="185.805" r="0.605687" transform="rotate(90 82.3432 185.805)" fill="url(#paint22_linear_5057_28626)"/>
<circle cx="94.7059" cy="160.831" r="1.65266" transform="rotate(145.989 94.7059 160.831)" fill="white" fill-opacity="0.15"/>
<circle cx="76.2863" cy="174.297" r="1.21137" transform="rotate(90 76.2863 174.297)" fill="url(#paint23_linear_5057_28626)"/>
<circle opacity="0.5" cx="0.302844" cy="0.302844" r="0.302844" transform="matrix(0.594999 0.803727 0.803727 -0.594999 260.284 181.109)" fill="url(#paint24_linear_5057_28626)"/>
<circle opacity="0.5" cx="0.302844" cy="0.302844" r="0.302844" transform="matrix(0.594999 0.803727 0.803727 -0.594999 277.244 173.235)" fill="url(#paint25_linear_5057_28626)"/>
<circle opacity="0.5" cx="0.302844" cy="0.302844" r="0.302844" transform="matrix(0.594999 0.803727 0.803727 -0.594999 230 189.588)" fill="url(#paint26_linear_5057_28626)"/>
<circle opacity="0.5" cx="0.302844" cy="0.302844" r="0.302844" transform="matrix(0.594999 0.803727 0.803727 -0.594999 253.016 169.601)" fill="url(#paint27_linear_5057_28626)"/>
<circle opacity="0.5" cx="0.302844" cy="0.302844" r="0.302844" transform="matrix(0.594999 0.803727 0.803727 -0.594999 282.089 182.32)" fill="url(#paint28_linear_5057_28626)"/>
<circle opacity="0.5" cx="1.81706" cy="1.81706" r="1.81706" transform="matrix(4.37114e-08 1 1 -4.37114e-08 238.48 203.41)" fill="url(#paint29_linear_5057_28626)"/>
<circle opacity="0.5" cx="1.51422" cy="1.51422" r="1.51422" transform="matrix(4.37114e-08 1 1 -4.37114e-08 269.975 178.931)" fill="url(#paint30_linear_5057_28626)"/>
<circle cx="0.605687" cy="0.605687" r="0.605687" transform="matrix(4.37114e-08 1 1 -4.37114e-08 233.634 149)" fill="url(#paint31_linear_5057_28626)"/>
<circle opacity="0.5" cx="0.605687" cy="0.605687" r="0.605687" transform="matrix(-0.760019 0.649901 0.649901 0.760019 241.218 178.931)" fill="url(#paint32_linear_5057_28626)"/>
<circle opacity="0.5" cx="0.605687" cy="0.605687" r="0.605687" transform="matrix(0.594999 0.803727 0.803727 -0.594999 265.13 174.2)" fill="url(#paint33_linear_5057_28626)"/>
<circle opacity="0.5" cx="0.605687" cy="0.605687" r="0.605687" transform="matrix(4.37114e-08 1 1 -4.37114e-08 242.719 150.211)" fill="url(#paint34_linear_5057_28626)"/>
<circle opacity="0.5" cx="0.605687" cy="0.605687" r="0.605687" transform="matrix(4.37114e-08 1 1 -4.37114e-08 249.988 186.199)" fill="url(#paint35_linear_5057_28626)"/>
<circle cx="1.65266" cy="1.65266" r="1.65266" transform="matrix(0.828928 0.559355 0.559355 -0.828928 235.936 162.277)" fill="white" fill-opacity="0.15"/>
<circle cx="1.21137" cy="1.21137" r="1.21137" transform="matrix(4.37114e-08 1 1 -4.37114e-08 255.439 174.085)" fill="url(#paint36_linear_5057_28626)"/>
<defs>
<filter id="filter0_bi_5057_28626" x="110" y="120" width="116" height="116" filterUnits="userSpaceOnUse" color-interpolation-filters="sRGB">
<feFlood flood-opacity="0" result="BackgroundImageFix"/>
<feGaussianBlur in="BackgroundImageFix" stdDeviation="6"/>
<feComposite in2="SourceAlpha" operator="in" result="effect1_backgroundBlur_5057_28626"/>
<feBlend mode="normal" in="SourceGraphic" in2="effect1_backgroundBlur_5057_28626" result="shape"/>
<feColorMatrix in="SourceAlpha" type="matrix" values="0 0 0 0 0 0 0 0 0 0 0 0 0 0 0 0 0 0 127 0" result="hardAlpha"/>
<feOffset/>
<feGaussianBlur stdDeviation="4"/>
<feComposite in2="hardAlpha" operator="arithmetic" k2="-1" k3="1"/>
<feColorMatrix type="matrix" values="0 0 0 0 0.972549 0 0 0 0 0.972549 0 0 0 0 0.972549 0 0 0 0.25 0"/>
<feBlend mode="normal" in2="shape" result="effect2_innerShadow_5057_28626"/>
</filter>
<filter id="filter1_bdi_5057_28626" x="104" y="164" width="28" height="46.6667" filterUnits="userSpaceOnUse" color-interpolation-filters="sRGB">
<feFlood flood-opacity="0" result="BackgroundImageFix"/>
<feGaussianBlur in="BackgroundImageFix" stdDeviation="4"/>
<feComposite in2="SourceAlpha" operator="in" result="effect1_backgroundBlur_5057_28626"/>
<feColorMatrix in="SourceAlpha" type="matrix" values="0 0 0 0 0 0 0 0 0 0 0 0 0 0 0 0 0 0 127 0" result="hardAlpha"/>
<feMorphology radius="10.6667" operator="erode" in="SourceAlpha" result="effect2_dropShadow_5057_28626"/>
<feOffset dy="21.3333"/>
<feGaussianBlur stdDeviation="8"/>
<feComposite in2="hardAlpha" operator="out"/>
<feColorMatrix type="matrix" values="0 0 0 0 0 0 0 0 0 0 0 0 0 0 0 0 0 0 0.4 0"/>
<feBlend mode="multiply" in2="effect1_backgroundBlur_5057_28626" result="effect2_dropShadow_5057_28626"/>
<feBlend mode="normal" in="SourceGraphic" in2="effect2_dropShadow_5057_28626" result="shape"/>
<feColorMatrix in="SourceAlpha" type="matrix" values="0 0 0 0 0 0 0 0 0 0 0 0 0 0 0 0 0 0 127 0" result="hardAlpha"/>
<feOffset/>
<feGaussianBlur stdDeviation="2.66667"/>
<feComposite in2="hardAlpha" operator="arithmetic" k2="-1" k3="1"/>
<feColorMatrix type="matrix" values="0 0 0 0 0.972549 0 0 0 0 0.972549 0 0 0 0 0.972549 0 0 0 0.25 0"/>
<feBlend mode="normal" in2="shape" result="effect3_innerShadow_5057_28626"/>
</filter>
<filter id="filter2_bdi_5057_28626" x="204" y="164" width="28" height="46.6667" filterUnits="userSpaceOnUse" color-interpolation-filters="sRGB">
<feFlood flood-opacity="0" result="BackgroundImageFix"/>
<feGaussianBlur in="BackgroundImageFix" stdDeviation="4"/>
<feComposite in2="SourceAlpha" operator="in" result="effect1_backgroundBlur_5057_28626"/>
<feColorMatrix in="SourceAlpha" type="matrix" values="0 0 0 0 0 0 0 0 0 0 0 0 0 0 0 0 0 0 127 0" result="hardAlpha"/>
<feMorphology radius="10.6667" operator="erode" in="SourceAlpha" result="effect2_dropShadow_5057_28626"/>
<feOffset dy="21.3333"/>
<feGaussianBlur stdDeviation="8"/>
<feComposite in2="hardAlpha" operator="out"/>
<feColorMatrix type="matrix" values="0 0 0 0 0 0 0 0 0 0 0 0 0 0 0 0 0 0 0.4 0"/>
<feBlend mode="multiply" in2="effect1_backgroundBlur_5057_28626" result="effect2_dropShadow_5057_28626"/>
<feBlend mode="normal" in="SourceGraphic" in2="effect2_dropShadow_5057_28626" result="shape"/>
<feColorMatrix in="SourceAlpha" type="matrix" values="0 0 0 0 0 0 0 0 0 0 0 0 0 0 0 0 0 0 127 0" result="hardAlpha"/>
<feOffset/>
<feGaussianBlur stdDeviation="2.66667"/>
<feComposite in2="hardAlpha" operator="arithmetic" k2="-1" k3="1"/>
<feColorMatrix type="matrix" values="0 0 0 0 0.972549 0 0 0 0 0.972549 0 0 0 0 0.972549 0 0 0 0.25 0"/>
<feBlend mode="normal" in2="shape" result="effect3_innerShadow_5057_28626"/>
</filter>
<radialGradient id="paint0_radial_5057_28626" cx="0" cy="0" r="1" gradientUnits="userSpaceOnUse" gradientTransform="translate(168 178) rotate(90) scale(188)">
<stop stop-color="#D9D9D9"/>
<stop offset="1" stop-color="#737373" stop-opacity="0"/>
</radialGradient>
<linearGradient id="paint1_linear_5057_28626" x1="171" y1="124.5" x2="253.461" y2="1.30882" gradientUnits="userSpaceOnUse">
<stop offset="0.481613" stop-color="#F8F8F8"/>
<stop offset="1" stop-color="white" stop-opacity="0"/>
</linearGradient>
<linearGradient id="paint2_linear_5057_28626" x1="166" y1="232" x2="84" y2="355" gradientUnits="userSpaceOnUse">
<stop offset="0.481613" stop-color="#F8F8F8"/>
<stop offset="1" stop-color="white" stop-opacity="0"/>
</linearGradient>
<radialGradient id="paint3_radial_5057_28626" cx="0" cy="0" r="1" gradientUnits="userSpaceOnUse" gradientTransform="translate(168 178) rotate(90) scale(184)">
<stop offset="0.433142" stop-color="#737373" stop-opacity="0"/>
<stop offset="1" stop-color="#D9D9D9"/>
</radialGradient>
<linearGradient id="paint4_linear_5057_28626" x1="50" y1="177.5" x2="118" y2="177.5" gradientUnits="userSpaceOnUse">
<stop stop-color="#F8F8F8" stop-opacity="0.05"/>
<stop offset="1" stop-color="#F8F8F8"/>
</linearGradient>
<linearGradient id="paint5_linear_5057_28626" x1="287" y1="177.5" x2="218" y2="177.5" gradientUnits="userSpaceOnUse">
<stop stop-color="#F8F8F8" stop-opacity="0.05"/>
<stop offset="1" stop-color="#F8F8F8"/>
</linearGradient>
<radialGradient id="paint6_radial_5057_28626" cx="0" cy="0" r="1" gradientUnits="userSpaceOnUse" gradientTransform="translate(169 177) rotate(90) scale(102)">
<stop stop-color="#D9D9D9"/>
<stop offset="1" stop-color="#737373" stop-opacity="0"/>
</radialGradient>
<linearGradient id="paint7_linear_5057_28626" x1="168" y1="128" x2="168" y2="228" gradientUnits="userSpaceOnUse">
<stop stop-color="#F8F8F8" stop-opacity="0.1"/>
<stop offset="1" stop-color="#F8F8F8" stop-opacity="0.5"/>
</linearGradient>
<linearGradient id="paint8_linear_5057_28626" x1="168" y1="132" x2="208.022" y2="233.027" gradientUnits="userSpaceOnUse">
<stop stop-color="white" stop-opacity="0.4"/>
<stop offset="0.4" stop-color="white" stop-opacity="0.01"/>
<stop offset="0.6" stop-color="white" stop-opacity="0.01"/>
<stop offset="1" stop-color="white" stop-opacity="0.1"/>
</linearGradient>
<linearGradient id="paint9_linear_5057_28626" x1="118" y1="172" x2="123.22" y2="185.177" gradientUnits="userSpaceOnUse">
<stop stop-color="white" stop-opacity="0.4"/>
<stop offset="0.4" stop-color="white" stop-opacity="0.01"/>
<stop offset="0.6" stop-color="white" stop-opacity="0.01"/>
<stop offset="1" stop-color="white" stop-opacity="0.1"/>
</linearGradient>
<linearGradient id="paint10_linear_5057_28626" x1="218" y1="172" x2="223.22" y2="185.177" gradientUnits="userSpaceOnUse">
<stop stop-color="white" stop-opacity="0.4"/>
<stop offset="0.4" stop-color="white" stop-opacity="0.01"/>
<stop offset="0.6" stop-color="white" stop-opacity="0.01"/>
<stop offset="1" stop-color="white" stop-opacity="0.1"/>
</linearGradient>
<linearGradient id="paint11_linear_5057_28626" x1="72.4305" y1="179.667" x2="72.0772" y2="180.424" gradientUnits="userSpaceOnUse">
<stop offset="0.173306" stop-color="white" stop-opacity="0"/>
<stop offset="1" stop-color="white" stop-opacity="0.3"/>
</linearGradient>
<linearGradient id="paint12_linear_5057_28626" x1="55.4712" y1="171.793" x2="55.1179" y2="172.55" gradientUnits="userSpaceOnUse">
<stop offset="0.173306" stop-color="white" stop-opacity="0"/>
<stop offset="1" stop-color="white" stop-opacity="0.3"/>
</linearGradient>
<linearGradient id="paint13_linear_5057_28626" x1="102.715" y1="188.147" x2="102.362" y2="188.904" gradientUnits="userSpaceOnUse">
<stop offset="0.173306" stop-color="white" stop-opacity="0"/>
<stop offset="1" stop-color="white" stop-opacity="0.3"/>
</linearGradient>
<linearGradient id="paint14_linear_5057_28626" x1="79.6987" y1="168.159" x2="79.3454" y2="168.916" gradientUnits="userSpaceOnUse">
<stop offset="0.173306" stop-color="white" stop-opacity="0"/>
<stop offset="1" stop-color="white" stop-opacity="0.3"/>
</linearGradient>
<linearGradient id="paint15_linear_5057_28626" x1="50.6257" y1="180.879" x2="50.2724" y2="181.636" gradientUnits="userSpaceOnUse">
<stop offset="0.173306" stop-color="white" stop-opacity="0"/>
<stop offset="1" stop-color="white" stop-opacity="0.3"/>
</linearGradient>
<linearGradient id="paint16_linear_5057_28626" x1="93.8511" y1="202.41" x2="90.8227" y2="206.65" gradientUnits="userSpaceOnUse">
<stop stop-color="white" stop-opacity="0.3"/>
<stop offset="0.826694" stop-color="white" stop-opacity="0"/>
</linearGradient>
<linearGradient id="paint17_linear_5057_28626" x1="62.4564" y1="176.921" x2="60.6898" y2="180.707" gradientUnits="userSpaceOnUse">
<stop stop-color="white" stop-opacity="0.3"/>
<stop offset="0.826694" stop-color="white" stop-opacity="0"/>
</linearGradient>
<linearGradient id="paint18_linear_5057_28626" x1="99.1006" y1="147.596" x2="98.3939" y2="149.11" gradientUnits="userSpaceOnUse">
<stop offset="0.173306" stop-color="white" stop-opacity="0"/>
<stop offset="1" stop-color="white" stop-opacity="0.3"/>
</linearGradient>
<linearGradient id="paint19_linear_5057_28626" x1="92.1894" y1="177.775" x2="91.4827" y2="179.29" gradientUnits="userSpaceOnUse">
<stop offset="0.173306" stop-color="white" stop-opacity="0"/>
<stop offset="1" stop-color="white" stop-opacity="0.3"/>
</linearGradient>
<linearGradient id="paint20_linear_5057_28626" x1="67.3633" y1="172.317" x2="66.6566" y2="173.831" gradientUnits="userSpaceOnUse">
<stop offset="0.173306" stop-color="white" stop-opacity="0"/>
<stop offset="1" stop-color="white" stop-opacity="0.3"/>
</linearGradient>
<linearGradient id="paint21_linear_5057_28626" x1="90.0151" y1="148.808" x2="89.3085" y2="150.322" gradientUnits="userSpaceOnUse">
<stop offset="0.173306" stop-color="white" stop-opacity="0"/>
<stop offset="1" stop-color="white" stop-opacity="0.3"/>
</linearGradient>
<linearGradient id="paint22_linear_5057_28626" x1="82.7469" y1="184.795" x2="82.0403" y2="186.31" gradientUnits="userSpaceOnUse">
<stop offset="0.173306" stop-color="white" stop-opacity="0"/>
<stop offset="1" stop-color="white" stop-opacity="0.3"/>
</linearGradient>
<linearGradient id="paint23_linear_5057_28626" x1="77.0939" y1="172.278" x2="75.6806" y2="175.306" gradientUnits="userSpaceOnUse">
<stop stop-color="white" stop-opacity="0.3"/>
<stop offset="0.826694" stop-color="white" stop-opacity="0"/>
</linearGradient>
<linearGradient id="paint24_linear_5057_28626" x1="0.504739" y1="-0.201896" x2="0.151422" y2="0.555213" gradientUnits="userSpaceOnUse">
<stop offset="0.173306" stop-color="white" stop-opacity="0"/>
<stop offset="1" stop-color="white" stop-opacity="0.3"/>
</linearGradient>
<linearGradient id="paint25_linear_5057_28626" x1="0.504739" y1="-0.201896" x2="0.151422" y2="0.555213" gradientUnits="userSpaceOnUse">
<stop offset="0.173306" stop-color="white" stop-opacity="0"/>
<stop offset="1" stop-color="white" stop-opacity="0.3"/>
</linearGradient>
<linearGradient id="paint26_linear_5057_28626" x1="0.504739" y1="-0.201896" x2="0.151422" y2="0.555213" gradientUnits="userSpaceOnUse">
<stop offset="0.173306" stop-color="white" stop-opacity="0"/>
<stop offset="1" stop-color="white" stop-opacity="0.3"/>
</linearGradient>
<linearGradient id="paint27_linear_5057_28626" x1="0.504739" y1="-0.201896" x2="0.151422" y2="0.555213" gradientUnits="userSpaceOnUse">
<stop offset="0.173306" stop-color="white" stop-opacity="0"/>
<stop offset="1" stop-color="white" stop-opacity="0.3"/>
</linearGradient>
<linearGradient id="paint28_linear_5057_28626" x1="0.504739" y1="-0.201896" x2="0.151422" y2="0.555213" gradientUnits="userSpaceOnUse">
<stop offset="0.173306" stop-color="white" stop-opacity="0"/>
<stop offset="1" stop-color="white" stop-opacity="0.3"/>
</linearGradient>
<linearGradient id="paint29_linear_5057_28626" x1="3.02844" y1="8.7246e-08" x2="-9.32629e-08" y2="4.23981" gradientUnits="userSpaceOnUse">
<stop stop-color="white" stop-opacity="0.3"/>
<stop offset="0.826694" stop-color="white" stop-opacity="0"/>
</linearGradient>
<linearGradient id="paint30_linear_5057_28626" x1="2.5237" y1="-1.00948" x2="0.757109" y2="2.77607" gradientUnits="userSpaceOnUse">
<stop stop-color="white" stop-opacity="0.3"/>
<stop offset="0.826694" stop-color="white" stop-opacity="0"/>
</linearGradient>
<linearGradient id="paint31_linear_5057_28626" x1="1.00948" y1="-0.403791" x2="0.302844" y2="1.11043" gradientUnits="userSpaceOnUse">
<stop offset="0.173306" stop-color="white" stop-opacity="0"/>
<stop offset="1" stop-color="white" stop-opacity="0.3"/>
</linearGradient>
<linearGradient id="paint32_linear_5057_28626" x1="1.00948" y1="-0.403791" x2="0.302844" y2="1.11043" gradientUnits="userSpaceOnUse">
<stop offset="0.173306" stop-color="white" stop-opacity="0"/>
<stop offset="1" stop-color="white" stop-opacity="0.3"/>
</linearGradient>
<linearGradient id="paint33_linear_5057_28626" x1="1.00948" y1="-0.403791" x2="0.302844" y2="1.11043" gradientUnits="userSpaceOnUse">
<stop offset="0.173306" stop-color="white" stop-opacity="0"/>
<stop offset="1" stop-color="white" stop-opacity="0.3"/>
</linearGradient>
<linearGradient id="paint34_linear_5057_28626" x1="1.00948" y1="-0.403791" x2="0.302844" y2="1.11043" gradientUnits="userSpaceOnUse">
<stop offset="0.173306" stop-color="white" stop-opacity="0"/>
<stop offset="1" stop-color="white" stop-opacity="0.3"/>
</linearGradient>
<linearGradient id="paint35_linear_5057_28626" x1="1.00948" y1="-0.403791" x2="0.302844" y2="1.11043" gradientUnits="userSpaceOnUse">
<stop offset="0.173306" stop-color="white" stop-opacity="0"/>
<stop offset="1" stop-color="white" stop-opacity="0.3"/>
</linearGradient>
<linearGradient id="paint36_linear_5057_28626" x1="2.01896" y1="-0.807583" x2="0.605687" y2="2.22085" gradientUnits="userSpaceOnUse">
<stop stop-color="white" stop-opacity="0.3"/>
<stop offset="0.826694" stop-color="white" stop-opacity="0"/>
</linearGradient>
<clipPath id="clip0_5057_28626">
<rect width="336" height="336" fill="white" transform="translate(0 10)"/>
</clipPath>
</defs>
</svg>
