<svg width="24" height="21" viewBox="0 0 24 21" fill="none" xmlns="http://www.w3.org/2000/svg">
<path d="M21 3H18.8028C17.6765 3 16.6247 2.43712 16 1.5V1.5C15.3753 0.562883 14.3235 0 13.1972 0H10.8028C9.6765 0 8.62474 0.562883 8 1.5V1.5C7.37526 2.43712 6.3235 3 5.19722 3H3C2.20435 3 1.44129 3.31607 0.87868 3.87868C0.31607 4.44129 0 5.20435 0 6L0 18C0 18.7956 0.31607 19.5587 0.87868 20.1213C1.44129 20.6839 2.20435 21 3 21H21C21.7956 21 22.5587 20.6839 23.1213 20.1213C23.6839 19.5587 24 18.7956 24 18V6C24 5.20435 23.6839 4.44129 23.1213 3.87868C22.5587 3.31607 21.7956 3 21 3ZM12 17C11.0111 17 10.0444 16.7068 9.22215 16.1573C8.3999 15.6079 7.75904 14.827 7.3806 13.9134C7.00216 12.9998 6.90315 11.9945 7.09607 11.0245C7.289 10.0546 7.7652 9.16373 8.46447 8.46447C9.16373 7.7652 10.0546 7.289 11.0245 7.09607C11.9945 6.90315 12.9998 7.00216 13.9134 7.3806C14.827 7.75904 15.6079 8.3999 16.1573 9.22215C16.7068 10.0444 17 11.0111 17 12C17 13.3261 16.4732 14.5979 15.5355 15.5355C14.5979 16.4732 13.3261 17 12 17Z" fill="url(#paint0_linear_5146_111394)"/>
<defs>
<linearGradient id="paint0_linear_5146_111394" x1="12" y1="0" x2="12" y2="21" gradientUnits="userSpaceOnUse">
<stop stop-color="#F8F8F8" stop-opacity="0.9"/>
<stop offset="1" stop-color="#F8F8F8" stop-opacity="0.3"/>
</linearGradient>
</defs>
</svg>
