<svg width="436" height="368" viewBox="0 0 436 368" fill="none" xmlns="http://www.w3.org/2000/svg">
<g clip-path="url(#clip0_3130_140920)">
<mask id="mask0_3130_140920" style="mask-type:alpha" maskUnits="userSpaceOnUse" x="34" y="0" width="368" height="368">
<circle cx="218" cy="184" r="184" fill="url(#paint0_radial_3130_140920)"/>
</mask>
<g mask="url(#mask0_3130_140920)">
<g opacity="0.1">
<circle opacity="0.3" cx="67.5842" cy="33.5842" r="1.5842" fill="#F8F8F8"/>
<circle cx="87.505" cy="33.505" r="1.505" fill="#F8F8F8"/>
<circle cx="107.886" cy="33.8862" r="1.3862" fill="#F8F8F8"/>
<circle cx="127.728" cy="33.7278" r="1.2278" fill="#F8F8F8"/>
<circle cx="147.589" cy="33.5892" r="1.0892" fill="#F8F8F8"/>
<circle cx="167.911" cy="33.911" r="0.911" fill="#F8F8F8"/>
<circle cx="187.733" cy="33.7328" r="0.7328" fill="#F8F8F8"/>
<circle cx="207.574" cy="33.5744" r="0.5744" fill="#F8F8F8"/>
<circle cx="227.5" cy="33.5" r="0.5" fill="#F8F8F8"/>
<circle cx="247.5" cy="33.5" r="0.5" fill="#F8F8F8"/>
<circle cx="267.5" cy="33.5" r="0.5" fill="#F8F8F8"/>
<circle cx="287.5" cy="33.5" r="0.5" fill="#F8F8F8"/>
<circle cx="307.5" cy="33.5" r="0.5" fill="#F8F8F8"/>
<circle cx="327.5" cy="33.5" r="0.5" fill="#F8F8F8"/>
<circle cx="347.5" cy="33.5" r="0.5" fill="#F8F8F8"/>
<circle cx="367.5" cy="33.5" r="0.5" fill="#F8F8F8"/>
<circle opacity="0.3" cx="67.5248" cy="53.5248" r="1.5248" fill="#F8F8F8"/>
<circle opacity="0.4" cx="87.9456" cy="53.9456" r="1.4456" fill="#F8F8F8"/>
<circle opacity="0.4" cx="107.807" cy="53.807" r="1.307" fill="#F8F8F8"/>
<circle opacity="0.4" cx="127.649" cy="53.6486" r="1.1486" fill="#F8F8F8"/>
<circle cx="147.99" cy="53.9902" r="0.9902" fill="#F8F8F8"/>
<circle cx="167.812" cy="53.812" r="0.812" fill="#F8F8F8"/>
<circle cx="187.634" cy="53.6338" r="0.6338" fill="#F8F8F8"/>
<circle cx="207.5" cy="53.5" r="0.5" fill="#F8F8F8"/>
<circle cx="227.5" cy="53.5" r="0.5" fill="#F8F8F8"/>
<circle cx="247.5" cy="53.5" r="0.5" fill="#F8F8F8"/>
<circle cx="267.5" cy="53.5" r="0.5" fill="#F8F8F8"/>
<circle cx="287.5" cy="53.5" r="0.5" fill="#F8F8F8"/>
<circle cx="307.5" cy="53.5" r="0.5" fill="#F8F8F8"/>
<circle cx="327.5" cy="53.5" r="0.5" fill="#F8F8F8"/>
<circle cx="347.5" cy="53.5" r="0.5" fill="#F8F8F8"/>
<circle cx="367.5" cy="53.5" r="0.5" fill="#F8F8F8"/>
<circle opacity="0.3" cx="67.9654" cy="73.9654" r="1.4654" fill="#F8F8F8"/>
<circle opacity="0.4" cx="87.8466" cy="73.8466" r="1.3466" fill="#F8F8F8"/>
<circle opacity="0.4" cx="107.708" cy="73.708" r="1.208" fill="#F8F8F8"/>
<circle opacity="0.4" cx="127.53" cy="73.5298" r="1.0298" fill="#F8F8F8"/>
<circle cx="147.891" cy="73.8912" r="0.8912" fill="#F8F8F8"/>
<circle cx="167.733" cy="73.7328" r="0.7328" fill="#F8F8F8"/>
<circle cx="187.555" cy="73.5546" r="0.5546" fill="#F8F8F8"/>
<circle cx="207.5" cy="73.5" r="0.5" fill="#F8F8F8"/>
<circle cx="227.5" cy="73.5" r="0.5" fill="#F8F8F8"/>
<circle cx="247.5" cy="73.5" r="0.5" fill="#F8F8F8"/>
<circle cx="267.5" cy="73.5" r="0.5" fill="#F8F8F8"/>
<circle cx="287.5" cy="73.5" r="0.5" fill="#F8F8F8"/>
<circle cx="307.5" cy="73.5" r="0.5" fill="#F8F8F8"/>
<circle cx="327.5" cy="73.5" r="0.5" fill="#F8F8F8"/>
<circle cx="347.5" cy="73.5" r="0.5" fill="#F8F8F8"/>
<circle cx="367.5" cy="73.5" r="0.5" fill="#F8F8F8"/>
<circle opacity="0.3" cx="67.8664" cy="93.8664" r="1.3664" fill="#F8F8F8"/>
<circle opacity="0.4" cx="87.7476" cy="93.7476" r="1.2476" fill="#F8F8F8"/>
<circle opacity="0.4" cx="107.609" cy="93.609" r="1.109" fill="#F8F8F8"/>
<circle opacity="0.4" cx="127.97" cy="93.9704" r="0.9704" fill="#F8F8F8"/>
<circle cx="147.832" cy="93.8318" r="0.8318" fill="#F8F8F8"/>
<circle cx="167.673" cy="93.6734" r="0.6734" fill="#F8F8F8"/>
<circle cx="187.555" cy="93.5546" r="0.5546" fill="#F8F8F8"/>
<circle cx="207.5" cy="93.5" r="0.5" fill="#F8F8F8"/>
<circle cx="227.5" cy="93.5" r="0.5" fill="#F8F8F8"/>
<circle cx="247.5" cy="93.5" r="0.5" fill="#F8F8F8"/>
<circle cx="267.5" cy="93.5" r="0.5" fill="#F8F8F8"/>
<circle cx="287.5" cy="93.5" r="0.5" fill="#F8F8F8"/>
<circle cx="307.5" cy="93.5" r="0.5" fill="#F8F8F8"/>
<circle cx="327.5" cy="93.5" r="0.5" fill="#F8F8F8"/>
<circle cx="347.5" cy="93.5" r="0.5" fill="#F8F8F8"/>
<circle cx="367.5" cy="93.5" r="0.5" fill="#F8F8F8"/>
<circle cx="67.7674" cy="113.767" r="1.2674" fill="#F8F8F8"/>
<circle cx="87.6684" cy="113.668" r="1.1684" fill="#F8F8F8"/>
<circle cx="107.55" cy="113.55" r="1.0496" fill="#F8F8F8"/>
<circle cx="127.911" cy="113.911" r="0.911" fill="#F8F8F8"/>
<circle cx="147.812" cy="113.812" r="0.812" fill="#F8F8F8"/>
<circle cx="167.673" cy="113.673" r="0.6734" fill="#F8F8F8"/>
<circle cx="187.574" cy="113.574" r="0.5744" fill="#F8F8F8"/>
<circle cx="207.515" cy="113.515" r="0.515" fill="#F8F8F8"/>
<circle cx="227.5" cy="113.5" r="0.5" fill="#F8F8F8"/>
<circle cx="247.5" cy="113.5" r="0.5" fill="#F8F8F8"/>
<circle cx="267.5" cy="113.5" r="0.5" fill="#F8F8F8"/>
<circle cx="287.5" cy="113.5" r="0.5" fill="#F8F8F8"/>
<circle cx="307.5" cy="113.5" r="0.5" fill="#F8F8F8"/>
<circle cx="327.5" cy="113.5" r="0.5" fill="#F8F8F8"/>
<circle cx="347.5" cy="113.5" r="0.5" fill="#F8F8F8"/>
<circle cx="367.5" cy="113.5" r="0.5" fill="#F8F8F8"/>
<circle cx="67.6882" cy="133.688" r="1.1882" fill="#F8F8F8"/>
<circle cx="87.5892" cy="133.589" r="1.0892" fill="#F8F8F8"/>
<circle cx="107.99" cy="133.99" r="0.9902" fill="#F8F8F8"/>
<circle cx="327.5" cy="133.5" r="0.5" fill="#F8F8F8"/>
<circle cx="347.5" cy="133.5" r="0.5" fill="#F8F8F8"/>
<circle cx="367.5" cy="133.5" r="0.5" fill="#F8F8F8"/>
<circle cx="67.5892" cy="153.589" r="1.0892" fill="#F8F8F8"/>
<circle cx="87.5298" cy="153.53" r="1.0298" fill="#F8F8F8"/>
<circle cx="107.951" cy="153.951" r="0.9506" fill="#F8F8F8"/>
<circle cx="327.555" cy="153.555" r="0.5546" fill="#F8F8F8"/>
<circle cx="347.5" cy="153.5" r="0.5" fill="#F8F8F8"/>
<circle cx="367.5" cy="153.5" r="0.5" fill="#F8F8F8"/>
<circle cx="67.5298" cy="173.53" r="1.0298" fill="#F8F8F8"/>
<circle cx="87.9902" cy="173.99" r="0.9902" fill="#F8F8F8"/>
<circle cx="107.951" cy="173.951" r="0.9506" fill="#F8F8F8"/>
<circle cx="327.713" cy="173.713" r="0.713" fill="#F8F8F8"/>
<circle cx="347.634" cy="173.634" r="0.6338" fill="#F8F8F8"/>
<circle cx="367.574" cy="173.574" r="0.5744" fill="#F8F8F8"/>
<circle cx="67.9704" cy="193.97" r="0.9704" fill="#F8F8F8"/>
<circle cx="87.9506" cy="193.951" r="0.9506" fill="#F8F8F8"/>
<circle cx="107.951" cy="193.951" r="0.9506" fill="#F8F8F8"/>
<circle cx="327.871" cy="193.871" r="0.8714" fill="#F8F8F8"/>
<circle cx="347.792" cy="193.792" r="0.7922" fill="#F8F8F8"/>
<circle cx="367.693" cy="193.693" r="0.6932" fill="#F8F8F8"/>
<circle cx="67.9506" cy="213.951" r="0.9506" fill="#F8F8F8"/>
<circle cx="87.9506" cy="213.951" r="0.9506" fill="#F8F8F8"/>
<circle cx="107.97" cy="213.97" r="0.9704" fill="#F8F8F8"/>
<circle cx="327.51" cy="213.51" r="1.01" fill="#F8F8F8"/>
<circle cx="347.911" cy="213.911" r="0.911" fill="#F8F8F8"/>
<circle cx="367.812" cy="213.812" r="0.812" fill="#F8F8F8"/>
<circle cx="67.911" cy="233.911" r="0.911" fill="#F8F8F8"/>
<circle cx="87.9506" cy="233.951" r="0.9506" fill="#F8F8F8"/>
<circle cx="107.99" cy="233.99" r="0.9902" fill="#F8F8F8"/>
<circle cx="327.589" cy="233.589" r="1.0892" fill="#F8F8F8"/>
<circle cx="347.51" cy="233.51" r="1.01" fill="#F8F8F8"/>
<circle cx="367.911" cy="233.911" r="0.911" fill="#F8F8F8"/>
<circle cx="67.911" cy="253.911" r="0.911" fill="#F8F8F8"/>
<circle opacity="0.5" cx="87.9506" cy="253.951" r="0.9506" fill="#F8F8F8"/>
<circle opacity="0.5" cx="107.53" cy="253.53" r="1.0298" fill="#F8F8F8"/>
<circle cx="127.609" cy="253.609" r="1.109" fill="#F8F8F8"/>
<circle cx="147.668" cy="253.668" r="1.1684" fill="#F8F8F8"/>
<circle cx="167.728" cy="253.728" r="1.2278" fill="#F8F8F8"/>
<circle cx="267.807" cy="253.807" r="1.307" fill="#F8F8F8"/>
<circle cx="287.787" cy="253.787" r="1.2872" fill="#F8F8F8"/>
<circle cx="307.748" cy="253.748" r="1.2476" fill="#F8F8F8"/>
<circle cx="327.708" cy="253.708" r="1.208" fill="#F8F8F8"/>
<circle cx="347.609" cy="253.609" r="1.109" fill="#F8F8F8"/>
<circle cx="367.51" cy="253.51" r="1.01" fill="#F8F8F8"/>
<circle cx="67.8912" cy="273.891" r="0.8912" fill="#F8F8F8"/>
<circle opacity="0.5" cx="87.9704" cy="273.97" r="0.9704" fill="#F8F8F8"/>
<circle opacity="0.5" cx="107.55" cy="273.55" r="1.0496" fill="#F8F8F8"/>
<circle cx="127.649" cy="273.649" r="1.1486" fill="#F8F8F8"/>
<circle cx="147.728" cy="273.728" r="1.2278" fill="#F8F8F8"/>
<circle cx="167.807" cy="273.807" r="1.307" fill="#F8F8F8"/>
<circle cx="267.906" cy="273.906" r="1.406" fill="#F8F8F8"/>
<circle cx="287.886" cy="273.886" r="1.3862" fill="#F8F8F8"/>
<circle cx="307.847" cy="273.847" r="1.3466" fill="#F8F8F8"/>
<circle cx="327.787" cy="273.787" r="1.2872" fill="#F8F8F8"/>
<circle cx="347.708" cy="273.708" r="1.208" fill="#F8F8F8"/>
<circle cx="367.589" cy="273.589" r="1.0892" fill="#F8F8F8"/>
<circle opacity="0.5" cx="67.911" cy="293.911" r="0.911" fill="#F8F8F8"/>
<circle opacity="0.5" cx="87.9902" cy="293.99" r="0.9902" fill="#F8F8F8"/>
<circle opacity="0.5" cx="107.589" cy="293.589" r="1.0892" fill="#F8F8F8"/>
<circle cx="127.688" cy="293.688" r="1.1882" fill="#F8F8F8"/>
<circle cx="147.767" cy="293.767" r="1.2674" fill="#F8F8F8"/>
<circle cx="167.847" cy="293.847" r="1.3466" fill="#F8F8F8"/>
<circle cx="267.965" cy="293.965" r="1.4654" fill="#F8F8F8"/>
<circle cx="287.946" cy="293.946" r="1.4456" fill="#F8F8F8"/>
<circle opacity="0.3" cx="307.906" cy="293.906" r="1.406" fill="#F8F8F8"/>
<circle opacity="0.3" cx="327.866" cy="293.866" r="1.3664" fill="#F8F8F8"/>
<circle opacity="0.3" cx="347.787" cy="293.787" r="1.2872" fill="#F8F8F8"/>
<circle cx="367.668" cy="293.668" r="1.1684" fill="#F8F8F8"/>
<circle opacity="0.5" cx="67.9308" cy="313.931" r="0.9308" fill="#F8F8F8"/>
<circle opacity="0.5" cx="87.51" cy="313.51" r="1.01" fill="#F8F8F8"/>
<circle opacity="0.5" cx="107.609" cy="313.609" r="1.109" fill="#F8F8F8"/>
<circle cx="127.708" cy="313.708" r="1.208" fill="#F8F8F8"/>
<circle cx="147.787" cy="313.787" r="1.2872" fill="#F8F8F8"/>
<circle opacity="0.3" cx="167.866" cy="313.866" r="1.3664" fill="#F8F8F8"/>
<circle opacity="0.3" cx="187.926" cy="313.926" r="1.4258" fill="#F8F8F8"/>
<circle opacity="0.3" cx="207.965" cy="313.965" r="1.4654" fill="#F8F8F8"/>
<circle opacity="0.3" cx="227.985" cy="313.985" r="1.4852" fill="#F8F8F8"/>
<circle opacity="0.3" cx="247.505" cy="313.505" r="1.505" fill="#F8F8F8"/>
<circle opacity="0.3" cx="267.505" cy="313.505" r="1.505" fill="#F8F8F8"/>
<circle cx="287.985" cy="313.985" r="1.4852" fill="#F8F8F8"/>
<circle opacity="0.3" cx="307.965" cy="313.965" r="1.4654" fill="#F8F8F8"/>
<circle opacity="0.3" cx="327.926" cy="313.926" r="1.4258" fill="#F8F8F8"/>
<circle opacity="0.3" cx="347.847" cy="313.847" r="1.3466" fill="#F8F8F8"/>
<circle cx="367.748" cy="313.748" r="1.2476" fill="#F8F8F8"/>
<circle opacity="0.5" cx="67.9902" cy="333.99" r="0.9902" fill="#F8F8F8"/>
<circle opacity="0.5" cx="87.5298" cy="333.53" r="1.0298" fill="#F8F8F8"/>
<circle opacity="0.5" cx="107.629" cy="333.629" r="1.1288" fill="#F8F8F8"/>
<circle cx="127.708" cy="333.708" r="1.208" fill="#F8F8F8"/>
<circle cx="147.787" cy="333.787" r="1.2872" fill="#F8F8F8"/>
<circle opacity="0.3" cx="167.866" cy="333.866" r="1.3664" fill="#F8F8F8"/>
<circle opacity="0.3" cx="187.926" cy="333.926" r="1.4258" fill="#F8F8F8"/>
<circle opacity="0.3" cx="207.965" cy="333.965" r="1.4654" fill="#F8F8F8"/>
<circle opacity="0.3" cx="227.985" cy="333.985" r="1.4852" fill="#F8F8F8"/>
<circle opacity="0.3" cx="247.505" cy="333.505" r="1.505" fill="#F8F8F8"/>
<circle opacity="0.3" cx="267.505" cy="333.505" r="1.505" fill="#F8F8F8"/>
<circle cx="287.505" cy="333.505" r="1.505" fill="#F8F8F8"/>
<circle cx="307.505" cy="333.505" r="1.505" fill="#F8F8F8"/>
<circle cx="327.965" cy="333.965" r="1.4654" fill="#F8F8F8"/>
<circle cx="347.906" cy="333.906" r="1.406" fill="#F8F8F8"/>
<circle cx="367.807" cy="333.807" r="1.307" fill="#F8F8F8"/>
</g>
</g>
</g>
<mask id="mask1_3130_140920" style="mask-type:alpha" maskUnits="userSpaceOnUse" x="34" y="0" width="368" height="368">
<circle cx="218" cy="184" r="184" fill="url(#paint1_radial_3130_140920)"/>
</mask>
<g mask="url(#mask1_3130_140920)">
<path opacity="0.2" d="M108 250.744V195.5V97.3137C108 95.192 107.157 93.1571 105.657 91.6569L90.3431 76.3431C88.8428 74.8428 88 72.808 88 70.6863V1C88 -3.41828 84.4183 -7 80 -7H-119.5C-123.918 -7 -127.5 -3.41828 -127.5 1V374.5C-127.5 378.918 -123.918 382.5 -119.5 382.5H80C84.4183 382.5 88 378.918 88 374.5V277.756C88 275.668 88.816 273.664 90.2737 272.169L105.726 256.331C107.184 254.836 108 252.832 108 250.744Z" fill="url(#paint2_linear_3130_140920)"/>
<path opacity="0.2" d="M328.5 250.744V195.5V97.3137C328.5 95.192 329.343 93.1571 330.843 91.6569L346.157 76.3431C347.657 74.8428 348.5 72.808 348.5 70.6863V1C348.5 -3.41828 352.082 -7 356.5 -7H556C560.418 -7 564 -3.41828 564 1V374.5C564 378.918 560.418 382.5 556 382.5H356.5C352.082 382.5 348.5 378.918 348.5 374.5V277.756C348.5 275.668 347.684 273.664 346.226 272.169L330.774 256.331C329.316 254.836 328.5 252.832 328.5 250.744Z" fill="url(#paint3_linear_3130_140920)"/>
<path opacity="0.5" d="M88 -7V70.6863C88 72.808 88.8429 74.8429 90.3431 76.3431L105.657 91.6569C107.157 93.1571 108 95.192 108 97.3137V195.5V250.744C108 252.832 107.184 254.836 105.726 256.331L90.2737 272.169C88.816 273.664 88 275.668 88 277.756V382.5" stroke="url(#paint4_linear_3130_140920)" stroke-width="1.5"/>
<path opacity="0.5" d="M88 -7V70.6863C88 72.808 88.8429 74.8429 90.3431 76.3431L105.657 91.6569C107.157 93.1571 108 95.192 108 97.3137V195.5V250.744C108 252.832 107.184 254.836 105.726 256.331L90.2737 272.169C88.816 273.664 88 275.668 88 277.756V382.5" stroke="url(#paint5_linear_3130_140920)" stroke-width="1.5"/>
<path opacity="0.5" d="M348 -6.5V71.1863C348 73.308 347.157 75.3429 345.657 76.8431L330.343 92.1569C328.843 93.6571 328 95.692 328 97.8137V196V251.244C328 253.332 328.816 255.336 330.274 256.831L345.726 272.669C347.184 274.164 348 276.168 348 278.256V383" stroke="url(#paint6_linear_3130_140920)" stroke-width="1.5"/>
</g>
<g filter="url(#filter0_bdi_3130_140920)">
<rect x="100" y="176" width="16" height="16" rx="8" fill="#282828" fill-opacity="0.7" style="mix-blend-mode:luminosity" shape-rendering="crispEdges"/>
<rect x="100.75" y="176.75" width="14.5" height="14.5" rx="7.25" stroke="url(#paint7_linear_3130_140920)" stroke-opacity="0.25" stroke-width="1.5" shape-rendering="crispEdges"/>
<circle cx="108" cy="184" r="3" transform="rotate(180 108 184)" fill="#F8F8F8"/>
</g>
<g filter="url(#filter1_bdi_3130_140920)">
<rect x="320" y="176" width="16" height="16" rx="8" fill="#282828" fill-opacity="0.7" style="mix-blend-mode:luminosity" shape-rendering="crispEdges"/>
<rect x="320.75" y="176.75" width="14.5" height="14.5" rx="7.25" stroke="url(#paint8_linear_3130_140920)" stroke-opacity="0.25" stroke-width="1.5" shape-rendering="crispEdges"/>
<circle cx="328" cy="184" r="3" transform="rotate(180 328 184)" fill="#F8F8F8"/>
</g>
<g filter="url(#filter2_bd_3130_140920)">
<rect x="168" y="244" width="99.04" height="26.684" rx="13.342" fill="#F8F8F8" fill-opacity="0.05" style="mix-blend-mode:luminosity" shape-rendering="crispEdges"/>
<rect x="168.75" y="244.75" width="97.54" height="25.184" rx="12.592" stroke="url(#paint9_linear_3130_140920)" stroke-opacity="0.25" stroke-width="1.5" shape-rendering="crispEdges"/>
<path d="M186.053 260.62L184.893 259.76C184.8 259.693 184.747 259.6 184.733 259.48C184.72 259.347 184.74 259.24 184.793 259.16C184.793 259.147 184.833 259.1 184.913 259.02L186.273 257.82L184.453 257.64C184.4 257.627 184.36 257.62 184.333 257.62C184.32 257.607 184.307 257.6 184.293 257.6C184.2 257.573 184.12 257.507 184.053 257.4C184 257.28 183.987 257.16 184.013 257.04L184.473 255.66C184.5 255.553 184.573 255.473 184.693 255.42C184.813 255.367 184.92 255.353 185.013 255.38C185.04 255.38 185.093 255.407 185.173 255.46L186.753 256.38L186.353 254.6C186.34 254.547 186.333 254.513 186.333 254.5C186.333 254.473 186.333 254.453 186.333 254.44C186.333 254.333 186.373 254.233 186.453 254.14C186.547 254.047 186.653 254 186.773 254H188.233C188.353 254 188.453 254.047 188.533 254.14C188.627 254.233 188.673 254.333 188.673 254.44C188.673 254.453 188.673 254.473 188.673 254.5C188.673 254.513 188.667 254.547 188.653 254.6L188.233 256.4L189.833 255.46C189.927 255.407 189.98 255.38 189.993 255.38C190.1 255.353 190.207 255.367 190.313 255.42C190.433 255.473 190.507 255.553 190.533 255.66L190.993 257.04C191.02 257.16 191.007 257.28 190.953 257.4C190.9 257.507 190.82 257.573 190.713 257.6C190.7 257.6 190.68 257.607 190.653 257.62C190.64 257.62 190.607 257.627 190.553 257.64L188.713 257.82L190.093 259.02C190.173 259.1 190.213 259.147 190.213 259.16C190.28 259.24 190.307 259.347 190.293 259.48C190.28 259.6 190.22 259.693 190.113 259.76L188.953 260.62C188.847 260.673 188.733 260.693 188.613 260.68C188.493 260.667 188.4 260.613 188.333 260.52C188.333 260.507 188.327 260.493 188.313 260.48C188.3 260.453 188.28 260.42 188.253 260.38L187.513 258.68L186.773 260.38C186.76 260.42 186.74 260.453 186.713 260.48C186.7 260.493 186.687 260.507 186.673 260.52C186.62 260.613 186.527 260.667 186.393 260.68C186.273 260.693 186.16 260.673 186.053 260.62Z" fill="#F8F8F8" fill-opacity="0.7"/>
<path d="M198.06 260.62L196.9 259.76C196.807 259.693 196.753 259.6 196.74 259.48C196.727 259.347 196.747 259.24 196.8 259.16C196.8 259.147 196.84 259.1 196.92 259.02L198.28 257.82L196.46 257.64C196.407 257.627 196.367 257.62 196.34 257.62C196.327 257.607 196.313 257.6 196.3 257.6C196.207 257.573 196.127 257.507 196.06 257.4C196.007 257.28 195.993 257.16 196.02 257.04L196.48 255.66C196.507 255.553 196.58 255.473 196.7 255.42C196.82 255.367 196.927 255.353 197.02 255.38C197.047 255.38 197.1 255.407 197.18 255.46L198.76 256.38L198.36 254.6C198.347 254.547 198.34 254.513 198.34 254.5C198.34 254.473 198.34 254.453 198.34 254.44C198.34 254.333 198.38 254.233 198.46 254.14C198.553 254.047 198.66 254 198.78 254H200.24C200.36 254 200.46 254.047 200.54 254.14C200.633 254.233 200.68 254.333 200.68 254.44C200.68 254.453 200.68 254.473 200.68 254.5C200.68 254.513 200.673 254.547 200.66 254.6L200.24 256.4L201.84 255.46C201.933 255.407 201.987 255.38 202 255.38C202.107 255.353 202.213 255.367 202.32 255.42C202.44 255.473 202.513 255.553 202.54 255.66L203 257.04C203.027 257.16 203.013 257.28 202.96 257.4C202.907 257.507 202.827 257.573 202.72 257.6C202.707 257.6 202.687 257.607 202.66 257.62C202.647 257.62 202.613 257.627 202.56 257.64L200.72 257.82L202.1 259.02C202.18 259.1 202.22 259.147 202.22 259.16C202.287 259.24 202.313 259.347 202.3 259.48C202.287 259.6 202.227 259.693 202.12 259.76L200.96 260.62C200.853 260.673 200.74 260.693 200.62 260.68C200.5 260.667 200.407 260.613 200.34 260.52C200.34 260.507 200.333 260.493 200.32 260.48C200.307 260.453 200.287 260.42 200.26 260.38L199.52 258.68L198.78 260.38C198.767 260.42 198.747 260.453 198.72 260.48C198.707 260.493 198.693 260.507 198.68 260.52C198.627 260.613 198.533 260.667 198.4 260.68C198.28 260.693 198.167 260.673 198.06 260.62Z" fill="#F8F8F8" fill-opacity="0.7"/>
<path d="M210.067 260.62L208.907 259.76C208.813 259.693 208.76 259.6 208.747 259.48C208.733 259.347 208.753 259.24 208.807 259.16C208.807 259.147 208.847 259.1 208.927 259.02L210.287 257.82L208.467 257.64C208.413 257.627 208.373 257.62 208.347 257.62C208.333 257.607 208.32 257.6 208.307 257.6C208.213 257.573 208.133 257.507 208.067 257.4C208.013 257.28 208 257.16 208.027 257.04L208.487 255.66C208.513 255.553 208.587 255.473 208.707 255.42C208.827 255.367 208.933 255.353 209.027 255.38C209.053 255.38 209.107 255.407 209.187 255.46L210.767 256.38L210.367 254.6C210.353 254.547 210.347 254.513 210.347 254.5C210.347 254.473 210.347 254.453 210.347 254.44C210.347 254.333 210.387 254.233 210.467 254.14C210.56 254.047 210.667 254 210.787 254H212.247C212.367 254 212.467 254.047 212.547 254.14C212.64 254.233 212.687 254.333 212.687 254.44C212.687 254.453 212.687 254.473 212.687 254.5C212.687 254.513 212.68 254.547 212.667 254.6L212.247 256.4L213.847 255.46C213.94 255.407 213.993 255.38 214.007 255.38C214.113 255.353 214.22 255.367 214.327 255.42C214.447 255.473 214.52 255.553 214.547 255.66L215.007 257.04C215.033 257.16 215.02 257.28 214.967 257.4C214.913 257.507 214.833 257.573 214.727 257.6C214.713 257.6 214.693 257.607 214.667 257.62C214.653 257.62 214.62 257.627 214.567 257.64L212.727 257.82L214.107 259.02C214.187 259.1 214.227 259.147 214.227 259.16C214.293 259.24 214.32 259.347 214.307 259.48C214.293 259.6 214.233 259.693 214.127 259.76L212.967 260.62C212.86 260.673 212.747 260.693 212.627 260.68C212.507 260.667 212.413 260.613 212.347 260.52C212.347 260.507 212.34 260.493 212.327 260.48C212.313 260.453 212.293 260.42 212.267 260.38L211.527 258.68L210.787 260.38C210.773 260.42 210.753 260.453 210.727 260.48C210.713 260.493 210.7 260.507 210.687 260.52C210.633 260.613 210.54 260.667 210.407 260.68C210.287 260.693 210.173 260.673 210.067 260.62Z" fill="#F8F8F8" fill-opacity="0.7"/>
<path d="M222.073 260.62L220.913 259.76C220.82 259.693 220.767 259.6 220.753 259.48C220.74 259.347 220.76 259.24 220.813 259.16C220.813 259.147 220.853 259.1 220.933 259.02L222.293 257.82L220.473 257.64C220.42 257.627 220.38 257.62 220.353 257.62C220.34 257.607 220.327 257.6 220.313 257.6C220.22 257.573 220.14 257.507 220.073 257.4C220.02 257.28 220.007 257.16 220.033 257.04L220.493 255.66C220.52 255.553 220.593 255.473 220.713 255.42C220.833 255.367 220.94 255.353 221.033 255.38C221.06 255.38 221.113 255.407 221.193 255.46L222.773 256.38L222.373 254.6C222.36 254.547 222.353 254.513 222.353 254.5C222.353 254.473 222.353 254.453 222.353 254.44C222.353 254.333 222.393 254.233 222.473 254.14C222.567 254.047 222.673 254 222.793 254H224.253C224.373 254 224.473 254.047 224.553 254.14C224.647 254.233 224.693 254.333 224.693 254.44C224.693 254.453 224.693 254.473 224.693 254.5C224.693 254.513 224.687 254.547 224.673 254.6L224.253 256.4L225.853 255.46C225.947 255.407 226 255.38 226.013 255.38C226.12 255.353 226.227 255.367 226.333 255.42C226.453 255.473 226.527 255.553 226.553 255.66L227.013 257.04C227.04 257.16 227.027 257.28 226.973 257.4C226.92 257.507 226.84 257.573 226.733 257.6C226.72 257.6 226.7 257.607 226.673 257.62C226.66 257.62 226.627 257.627 226.573 257.64L224.733 257.82L226.113 259.02C226.193 259.1 226.233 259.147 226.233 259.16C226.3 259.24 226.327 259.347 226.313 259.48C226.3 259.6 226.24 259.693 226.133 259.76L224.973 260.62C224.867 260.673 224.753 260.693 224.633 260.68C224.513 260.667 224.42 260.613 224.353 260.52C224.353 260.507 224.347 260.493 224.333 260.48C224.32 260.453 224.3 260.42 224.273 260.38L223.533 258.68L222.793 260.38C222.78 260.42 222.76 260.453 222.733 260.48C222.72 260.493 222.707 260.507 222.693 260.52C222.64 260.613 222.547 260.667 222.413 260.68C222.293 260.693 222.18 260.673 222.073 260.62Z" fill="#F8F8F8" fill-opacity="0.7"/>
<path d="M234.08 260.62L232.92 259.76C232.827 259.693 232.773 259.6 232.76 259.48C232.747 259.347 232.767 259.24 232.82 259.16C232.82 259.147 232.86 259.1 232.94 259.02L234.3 257.82L232.48 257.64C232.427 257.627 232.387 257.62 232.36 257.62C232.347 257.607 232.333 257.6 232.32 257.6C232.227 257.573 232.147 257.507 232.08 257.4C232.027 257.28 232.013 257.16 232.04 257.04L232.5 255.66C232.527 255.553 232.6 255.473 232.72 255.42C232.84 255.367 232.947 255.353 233.04 255.38C233.067 255.38 233.12 255.407 233.2 255.46L234.78 256.38L234.38 254.6C234.367 254.547 234.36 254.513 234.36 254.5C234.36 254.473 234.36 254.453 234.36 254.44C234.36 254.333 234.4 254.233 234.48 254.14C234.573 254.047 234.68 254 234.8 254H236.26C236.38 254 236.48 254.047 236.56 254.14C236.653 254.233 236.7 254.333 236.7 254.44C236.7 254.453 236.7 254.473 236.7 254.5C236.7 254.513 236.693 254.547 236.68 254.6L236.26 256.4L237.86 255.46C237.953 255.407 238.007 255.38 238.02 255.38C238.127 255.353 238.233 255.367 238.34 255.42C238.46 255.473 238.533 255.553 238.56 255.66L239.02 257.04C239.047 257.16 239.033 257.28 238.98 257.4C238.927 257.507 238.847 257.573 238.74 257.6C238.727 257.6 238.707 257.607 238.68 257.62C238.667 257.62 238.633 257.627 238.58 257.64L236.74 257.82L238.12 259.02C238.2 259.1 238.24 259.147 238.24 259.16C238.307 259.24 238.333 259.347 238.32 259.48C238.307 259.6 238.247 259.693 238.14 259.76L236.98 260.62C236.873 260.673 236.76 260.693 236.64 260.68C236.52 260.667 236.427 260.613 236.36 260.52C236.36 260.507 236.353 260.493 236.34 260.48C236.327 260.453 236.307 260.42 236.28 260.38L235.54 258.68L234.8 260.38C234.787 260.42 234.767 260.453 234.74 260.48C234.727 260.493 234.713 260.507 234.7 260.52C234.647 260.613 234.553 260.667 234.42 260.68C234.3 260.693 234.187 260.673 234.08 260.62Z" fill="#F8F8F8" fill-opacity="0.7"/>
<path d="M246.087 260.62L244.927 259.76C244.833 259.693 244.78 259.6 244.767 259.48C244.753 259.347 244.773 259.24 244.827 259.16C244.827 259.147 244.867 259.1 244.947 259.02L246.307 257.82L244.487 257.64C244.433 257.627 244.393 257.62 244.367 257.62C244.353 257.607 244.34 257.6 244.327 257.6C244.233 257.573 244.153 257.507 244.087 257.4C244.033 257.28 244.02 257.16 244.047 257.04L244.507 255.66C244.533 255.553 244.607 255.473 244.727 255.42C244.847 255.367 244.953 255.353 245.047 255.38C245.073 255.38 245.127 255.407 245.207 255.46L246.787 256.38L246.387 254.6C246.373 254.547 246.367 254.513 246.367 254.5C246.367 254.473 246.367 254.453 246.367 254.44C246.367 254.333 246.407 254.233 246.487 254.14C246.58 254.047 246.687 254 246.807 254H248.267C248.387 254 248.487 254.047 248.567 254.14C248.66 254.233 248.707 254.333 248.707 254.44C248.707 254.453 248.707 254.473 248.707 254.5C248.707 254.513 248.7 254.547 248.687 254.6L248.267 256.4L249.867 255.46C249.96 255.407 250.013 255.38 250.027 255.38C250.133 255.353 250.24 255.367 250.347 255.42C250.467 255.473 250.54 255.553 250.567 255.66L251.027 257.04C251.053 257.16 251.04 257.28 250.987 257.4C250.933 257.507 250.853 257.573 250.747 257.6C250.733 257.6 250.713 257.607 250.687 257.62C250.673 257.62 250.64 257.627 250.587 257.64L248.747 257.82L250.127 259.02C250.207 259.1 250.247 259.147 250.247 259.16C250.313 259.24 250.34 259.347 250.327 259.48C250.313 259.6 250.253 259.693 250.147 259.76L248.987 260.62C248.88 260.673 248.767 260.693 248.647 260.68C248.527 260.667 248.433 260.613 248.367 260.52C248.367 260.507 248.36 260.493 248.347 260.48C248.333 260.453 248.313 260.42 248.287 260.38L247.547 258.68L246.807 260.38C246.793 260.42 246.773 260.453 246.747 260.48C246.733 260.493 246.72 260.507 246.707 260.52C246.653 260.613 246.56 260.667 246.427 260.68C246.307 260.693 246.193 260.673 246.087 260.62Z" fill="#F8F8F8" fill-opacity="0.7"/>
</g>
<g filter="url(#filter3_bi_3130_140920)">
<path fill-rule="evenodd" clip-rule="evenodd" d="M208.545 135.591C207.24 135.591 206.182 136.568 206.182 137.773V142.767C206.182 144.073 206.182 144.727 205.927 145.226C205.704 145.665 205.347 146.022 204.908 146.246C204.409 146.5 203.755 146.5 202.448 146.5H195.733C194.427 146.5 193.773 146.5 193.274 146.246C192.835 146.022 192.478 145.665 192.254 145.226C192 144.727 192 144.073 192 142.767V137.773C192 129.338 199.408 122.5 208.545 122.5H227.455C236.592 122.5 244 129.338 244 137.773V142.767C244 144.073 244 144.727 243.746 145.226C243.522 145.665 243.165 146.022 242.726 146.246C242.227 146.5 241.573 146.5 240.267 146.5H233.552C232.245 146.5 231.591 146.5 231.092 146.246C230.653 146.022 230.296 145.665 230.072 145.226C229.818 144.727 229.818 144.073 229.818 142.767V137.773C229.818 136.568 228.76 135.591 227.455 135.591H208.545Z" fill="#F8F8F8" fill-opacity="0.05" style="mix-blend-mode:luminosity"/>
<path d="M208.545 134.716C206.824 134.716 205.307 136.02 205.307 137.773V142.767C205.307 143.434 205.306 143.883 205.278 144.228C205.251 144.563 205.202 144.723 205.148 144.829C205.008 145.103 204.785 145.326 204.511 145.466L204.908 146.246L204.511 145.466C204.405 145.52 204.245 145.569 203.91 145.596C203.565 145.624 203.116 145.625 202.448 145.625H195.733C195.066 145.625 194.617 145.624 194.272 145.596C193.937 145.569 193.777 145.52 193.671 145.466C193.397 145.326 193.174 145.103 193.034 144.829C192.98 144.723 192.931 144.563 192.904 144.228C192.876 143.883 192.875 143.435 192.875 142.767V137.773C192.875 129.886 199.824 123.375 208.545 123.375H227.455C236.176 123.375 243.125 129.886 243.125 137.773V142.767C243.125 143.434 243.124 143.883 243.096 144.228C243.069 144.563 243.02 144.723 242.966 144.829C242.826 145.103 242.603 145.326 242.329 145.466C242.223 145.52 242.063 145.569 241.728 145.596C241.383 145.624 240.934 145.625 240.267 145.625H233.552C232.884 145.625 232.435 145.624 232.09 145.596C231.755 145.569 231.595 145.52 231.489 145.466C231.215 145.326 230.992 145.103 230.852 144.829C230.798 144.723 230.749 144.563 230.722 144.228C230.694 143.883 230.693 143.435 230.693 142.767V137.773C230.693 136.02 229.176 134.716 227.455 134.716H208.545Z" stroke="url(#paint10_linear_3130_140920)" stroke-opacity="0.25" stroke-width="1.75"/>
</g>
<g filter="url(#filter4_b_3130_140920)">
<rect x="163" y="145" width="110" height="82" rx="23.3333" fill="#121212" fill-opacity="0.85" style="mix-blend-mode:luminosity"/>
</g>
<g clip-path="url(#clip1_3130_140920)">
<g filter="url(#filter5_bdi_3130_140920)">
<rect x="167" y="149" width="102" height="74" rx="18.6667" fill="#F8F8F8" fill-opacity="0.05" shape-rendering="crispEdges"/>
<rect x="167.875" y="149.875" width="100.25" height="72.25" rx="17.7917" stroke="url(#paint11_linear_3130_140920)" stroke-opacity="0.25" stroke-width="1.75" shape-rendering="crispEdges"/>
</g>
<g opacity="0.5" filter="url(#filter6_f_3130_140920)">
<rect x="216" y="117" width="85" height="85" rx="42.5" fill="#F8F8F8" fill-opacity="0.2"/>
</g>
</g>
<path opacity="0.1" fill-rule="evenodd" clip-rule="evenodd" d="M218.333 180.667C219.622 180.667 220.667 179.622 220.667 178.333C220.667 177.045 219.622 176 218.333 176C217.045 176 216 177.045 216 178.333C216 179.622 217.045 180.667 218.333 180.667ZM211.333 180.667C212.622 180.667 213.667 179.622 213.667 178.333C213.667 177.045 212.622 176 211.333 176C210.045 176 209 177.045 209 178.333C209 179.622 210.045 180.667 211.333 180.667ZM227.667 178.333C227.667 179.622 226.622 180.667 225.333 180.667C224.045 180.667 223 179.622 223 178.333C223 177.045 224.045 176 225.333 176C226.622 176 227.667 177.045 227.667 178.333ZM218.333 187.667C219.622 187.667 220.667 186.622 220.667 185.333C220.667 184.045 219.622 183 218.333 183C217.045 183 216 184.045 216 185.333C216 186.622 217.045 187.667 218.333 187.667ZM213.667 185.333C213.667 186.622 212.622 187.667 211.333 187.667C210.045 187.667 209 186.622 209 185.333C209 184.045 210.045 183 211.333 183C212.622 183 213.667 184.045 213.667 185.333ZM225.333 187.667C226.622 187.667 227.667 186.622 227.667 185.333C227.667 184.045 226.622 183 225.333 183C224.045 183 223 184.045 223 185.333C223 186.622 224.045 187.667 225.333 187.667ZM220.667 192.333C220.667 193.622 219.622 194.667 218.333 194.667C217.045 194.667 216 193.622 216 192.333C216 191.045 217.045 190 218.333 190C219.622 190 220.667 191.045 220.667 192.333ZM211.333 194.667C212.622 194.667 213.667 193.622 213.667 192.333C213.667 191.045 212.622 190 211.333 190C210.045 190 209 191.045 209 192.333C209 193.622 210.045 194.667 211.333 194.667ZM227.667 192.333C227.667 193.622 226.622 194.667 225.333 194.667C224.045 194.667 223 193.622 223 192.333C223 191.045 224.045 190 225.333 190C226.622 190 227.667 191.045 227.667 192.333Z" fill="#F8F8F8"/>
<path d="M225.333 180.667C226.622 180.667 227.667 179.622 227.667 178.333C227.667 177.045 226.622 176 225.333 176C224.045 176 223 177.045 223 178.333C223 179.622 224.045 180.667 225.333 180.667Z" fill="#F8F8F8" fill-opacity="0.5"/>
<path d="M218.333 187.667C219.622 187.667 220.667 186.622 220.667 185.333C220.667 184.045 219.622 183 218.333 183C217.045 183 216 184.045 216 185.333C216 186.622 217.045 187.667 218.333 187.667Z" fill="#F8F8F8" fill-opacity="0.5"/>
<path d="M211.333 187.667C212.622 187.667 213.667 186.622 213.667 185.333C213.667 184.045 212.622 183 211.333 183C210.045 183 209 184.045 209 185.333C209 186.622 210.045 187.667 211.333 187.667Z" fill="#F8F8F8" fill-opacity="0.5"/>
<path d="M225.333 187.667C226.622 187.667 227.667 186.622 227.667 185.333C227.667 184.045 226.622 183 225.333 183C224.045 183 223 184.045 223 185.333C223 186.622 224.045 187.667 225.333 187.667Z" fill="#F8F8F8" fill-opacity="0.5"/>
<path d="M211.333 194.667C212.622 194.667 213.667 193.622 213.667 192.333C213.667 191.045 212.622 190 211.333 190C210.045 190 209 191.045 209 192.333C209 193.622 210.045 194.667 211.333 194.667Z" fill="#F8F8F8" fill-opacity="0.5"/>
<path opacity="0.25" d="M108.5 184H135.399C137.089 184 138.737 183.464 140.104 182.47L146.896 177.53C148.263 176.536 149.911 176 151.601 176H167" stroke="url(#paint12_linear_3130_140920)" stroke-width="1.5"/>
<path opacity="0.25" d="M328 184H300.601C298.911 184 297.263 184.536 295.896 185.53L289.104 190.47C287.737 191.464 286.089 192 284.399 192H269" stroke="url(#paint13_linear_3130_140920)" stroke-width="1.5"/>
<circle opacity="0.5" cx="0.302844" cy="0.302844" r="0.302844" transform="matrix(0.594999 0.803727 0.803727 -0.594999 306.348 190.109)" fill="url(#paint14_linear_3130_140920)"/>
<circle opacity="0.5" cx="0.302844" cy="0.302844" r="0.302844" transform="matrix(0.594999 0.803727 0.803727 -0.594999 323.307 182.235)" fill="url(#paint15_linear_3130_140920)"/>
<circle opacity="0.5" cx="0.302844" cy="0.302844" r="0.302844" transform="matrix(0.594999 0.803727 0.803727 -0.594999 276.064 198.588)" fill="url(#paint16_linear_3130_140920)"/>
<circle opacity="0.5" cx="0.302844" cy="0.302844" r="0.302844" transform="matrix(0.594999 0.803727 0.803727 -0.594999 299.08 178.601)" fill="url(#paint17_linear_3130_140920)"/>
<circle opacity="0.5" cx="0.302844" cy="0.302844" r="0.302844" transform="matrix(0.594999 0.803727 0.803727 -0.594999 328.153 191.32)" fill="url(#paint18_linear_3130_140920)"/>
<circle opacity="0.5" cx="1.81706" cy="1.81706" r="1.81706" transform="matrix(4.37114e-08 1 1 -4.37114e-08 284.543 196.41)" fill="url(#paint19_linear_3130_140920)"/>
<circle opacity="0.5" cx="1.51422" cy="1.51422" r="1.51422" transform="matrix(4.37114e-08 1 1 -4.37114e-08 316.039 187.931)" fill="url(#paint20_linear_3130_140920)"/>
<circle cx="0.605687" cy="0.605687" r="0.605687" transform="matrix(4.37114e-08 1 1 -4.37114e-08 279.698 174)" fill="url(#paint21_linear_3130_140920)"/>
<circle opacity="0.5" cx="0.605687" cy="0.605687" r="0.605687" transform="matrix(-0.760019 0.649901 0.649901 0.760019 287.281 187.931)" fill="url(#paint22_linear_3130_140920)"/>
<circle opacity="0.5" cx="0.605687" cy="0.605687" r="0.605687" transform="matrix(0.594999 0.803727 0.803727 -0.594999 311.194 183.2)" fill="url(#paint23_linear_3130_140920)"/>
<circle opacity="0.5" cx="0.605687" cy="0.605687" r="0.605687" transform="matrix(4.37114e-08 1 1 -4.37114e-08 288.783 175.211)" fill="url(#paint24_linear_3130_140920)"/>
<circle opacity="0.5" cx="0.605687" cy="0.605687" r="0.605687" transform="matrix(4.37114e-08 1 1 -4.37114e-08 296.051 195.199)" fill="url(#paint25_linear_3130_140920)"/>
<circle cx="1.65266" cy="1.65266" r="1.65266" transform="matrix(0.828928 0.559355 0.559355 -0.828928 274 187.277)" fill="white" fill-opacity="0.15"/>
<circle cx="1.21137" cy="1.21137" r="1.21137" transform="matrix(4.37114e-08 1 1 -4.37114e-08 301.503 183.085)" fill="url(#paint26_linear_3130_140920)"/>
<circle opacity="0.5" cx="138.228" cy="184.172" r="0.302844" transform="rotate(126.513 138.228 184.172)" fill="url(#paint27_linear_3130_140920)"/>
<circle opacity="0.5" cx="121.269" cy="176.298" r="0.302844" transform="rotate(126.513 121.269 176.298)" fill="url(#paint28_linear_3130_140920)"/>
<circle opacity="0.5" cx="168.513" cy="192.651" r="0.302844" transform="rotate(126.513 168.513 192.651)" fill="url(#paint29_linear_3130_140920)"/>
<circle opacity="0.5" cx="145.497" cy="172.664" r="0.302844" transform="rotate(126.513 145.497 172.664)" fill="url(#paint30_linear_3130_140920)"/>
<circle opacity="0.5" cx="116.424" cy="185.383" r="0.302844" transform="rotate(126.513 116.424 185.383)" fill="url(#paint31_linear_3130_140920)"/>
<circle opacity="0.5" cx="158.64" cy="192.227" r="1.81706" transform="rotate(90 158.64 192.227)" fill="url(#paint32_linear_3130_140920)"/>
<circle opacity="0.5" cx="127.447" cy="183.445" r="1.51422" transform="rotate(90 127.447 183.445)" fill="url(#paint33_linear_3130_140920)"/>
<circle cx="164.696" cy="168.606" r="0.605687" transform="rotate(90 164.696 168.606)" fill="url(#paint34_linear_3130_140920)"/>
<circle opacity="0.5" cx="157.785" cy="182.785" r="0.605687" transform="rotate(40.5342 157.785 182.785)" fill="url(#paint35_linear_3130_140920)"/>
<circle opacity="0.5" cx="132.959" cy="177.326" r="0.605687" transform="rotate(126.513 132.959 177.326)" fill="url(#paint36_linear_3130_140920)"/>
<circle opacity="0.5" cx="155.611" cy="169.817" r="0.605687" transform="rotate(90 155.611 169.817)" fill="url(#paint37_linear_3130_140920)"/>
<circle opacity="0.5" cx="148.343" cy="189.805" r="0.605687" transform="rotate(90 148.343 189.805)" fill="url(#paint38_linear_3130_140920)"/>
<circle cx="168.706" cy="180.831" r="1.65266" transform="rotate(145.989 168.706 180.831)" fill="white" fill-opacity="0.15"/>
<circle cx="142.286" cy="178.297" r="1.21137" transform="rotate(90 142.286 178.297)" fill="url(#paint39_linear_3130_140920)"/>
<circle opacity="0.75" cx="218" cy="136" r="65.7286" stroke="url(#paint40_angular_3130_140920)" stroke-width="1.5"/>
<circle opacity="0.25" cx="218" cy="136" r="86" stroke="url(#paint41_angular_3130_140920)" stroke-width="1.5"/>
<circle opacity="0.25" cx="218" cy="136" r="44.2286" stroke="url(#paint42_angular_3130_140920)" stroke-width="1.5"/>
<path opacity="0.25" d="M3.71547e-07 203.5L67.1863 203.5C69.308 203.5 71.3429 202.657 72.8431 201.157L76.6569 197.343C78.1571 195.843 80.192 195 82.3137 195L108 195" stroke="url(#paint43_linear_3130_140920)" stroke-width="1.5"/>
<path opacity="0.25" d="M-3.71547e-07 163L67.1863 163C69.308 163 71.3429 163.843 72.8431 165.343L76.6569 169.157C78.1571 170.657 80.192 171.5 82.3137 171.5L108 171.5" stroke="url(#paint44_linear_3130_140920)" stroke-width="1.5"/>
<path opacity="0.25" d="M436 203.5L368.814 203.5C366.692 203.5 364.657 202.657 363.157 201.157L359.343 197.343C357.843 195.843 355.808 195 353.686 195L328 195" stroke="url(#paint45_linear_3130_140920)" stroke-width="1.5"/>
<path opacity="0.25" d="M436 163L368.814 163C366.692 163 364.657 163.843 363.157 165.343L359.343 169.157C357.843 170.657 355.808 171.5 353.686 171.5L328 171.5" stroke="url(#paint46_linear_3130_140920)" stroke-width="1.5"/>
<defs>
<filter id="filter0_bdi_3130_140920" x="88" y="164" width="40" height="68" filterUnits="userSpaceOnUse" color-interpolation-filters="sRGB">
<feFlood flood-opacity="0" result="BackgroundImageFix"/>
<feGaussianBlur in="BackgroundImageFix" stdDeviation="6"/>
<feComposite in2="SourceAlpha" operator="in" result="effect1_backgroundBlur_3130_140920"/>
<feColorMatrix in="SourceAlpha" type="matrix" values="0 0 0 0 0 0 0 0 0 0 0 0 0 0 0 0 0 0 127 0" result="hardAlpha"/>
<feMorphology radius="16" operator="erode" in="SourceAlpha" result="effect2_dropShadow_3130_140920"/>
<feOffset dy="32"/>
<feGaussianBlur stdDeviation="12"/>
<feComposite in2="hardAlpha" operator="out"/>
<feColorMatrix type="matrix" values="0 0 0 0 0 0 0 0 0 0 0 0 0 0 0 0 0 0 0.4 0"/>
<feBlend mode="multiply" in2="effect1_backgroundBlur_3130_140920" result="effect2_dropShadow_3130_140920"/>
<feBlend mode="normal" in="SourceGraphic" in2="effect2_dropShadow_3130_140920" result="shape"/>
<feColorMatrix in="SourceAlpha" type="matrix" values="0 0 0 0 0 0 0 0 0 0 0 0 0 0 0 0 0 0 127 0" result="hardAlpha"/>
<feOffset/>
<feGaussianBlur stdDeviation="4"/>
<feComposite in2="hardAlpha" operator="arithmetic" k2="-1" k3="1"/>
<feColorMatrix type="matrix" values="0 0 0 0 0.972549 0 0 0 0 0.972549 0 0 0 0 0.972549 0 0 0 0.25 0"/>
<feBlend mode="normal" in2="shape" result="effect3_innerShadow_3130_140920"/>
</filter>
<filter id="filter1_bdi_3130_140920" x="308" y="164" width="40" height="68" filterUnits="userSpaceOnUse" color-interpolation-filters="sRGB">
<feFlood flood-opacity="0" result="BackgroundImageFix"/>
<feGaussianBlur in="BackgroundImageFix" stdDeviation="6"/>
<feComposite in2="SourceAlpha" operator="in" result="effect1_backgroundBlur_3130_140920"/>
<feColorMatrix in="SourceAlpha" type="matrix" values="0 0 0 0 0 0 0 0 0 0 0 0 0 0 0 0 0 0 127 0" result="hardAlpha"/>
<feMorphology radius="16" operator="erode" in="SourceAlpha" result="effect2_dropShadow_3130_140920"/>
<feOffset dy="32"/>
<feGaussianBlur stdDeviation="12"/>
<feComposite in2="hardAlpha" operator="out"/>
<feColorMatrix type="matrix" values="0 0 0 0 0 0 0 0 0 0 0 0 0 0 0 0 0 0 0.4 0"/>
<feBlend mode="multiply" in2="effect1_backgroundBlur_3130_140920" result="effect2_dropShadow_3130_140920"/>
<feBlend mode="normal" in="SourceGraphic" in2="effect2_dropShadow_3130_140920" result="shape"/>
<feColorMatrix in="SourceAlpha" type="matrix" values="0 0 0 0 0 0 0 0 0 0 0 0 0 0 0 0 0 0 127 0" result="hardAlpha"/>
<feOffset/>
<feGaussianBlur stdDeviation="4"/>
<feComposite in2="hardAlpha" operator="arithmetic" k2="-1" k3="1"/>
<feColorMatrix type="matrix" values="0 0 0 0 0.972549 0 0 0 0 0.972549 0 0 0 0 0.972549 0 0 0 0.25 0"/>
<feBlend mode="normal" in2="shape" result="effect3_innerShadow_3130_140920"/>
</filter>
<filter id="filter2_bd_3130_140920" x="144" y="220" width="147.04" height="98.684" filterUnits="userSpaceOnUse" color-interpolation-filters="sRGB">
<feFlood flood-opacity="0" result="BackgroundImageFix"/>
<feGaussianBlur in="BackgroundImageFix" stdDeviation="12"/>
<feComposite in2="SourceAlpha" operator="in" result="effect1_backgroundBlur_3130_140920"/>
<feColorMatrix in="SourceAlpha" type="matrix" values="0 0 0 0 0 0 0 0 0 0 0 0 0 0 0 0 0 0 127 0" result="hardAlpha"/>
<feOffset dy="24"/>
<feGaussianBlur stdDeviation="12"/>
<feComposite in2="hardAlpha" operator="out"/>
<feColorMatrix type="matrix" values="0 0 0 0 0 0 0 0 0 0 0 0 0 0 0 0 0 0 0.3 0"/>
<feBlend mode="multiply" in2="effect1_backgroundBlur_3130_140920" result="effect2_dropShadow_3130_140920"/>
<feBlend mode="normal" in="SourceGraphic" in2="effect2_dropShadow_3130_140920" result="shape"/>
</filter>
<filter id="filter3_bi_3130_140920" x="75.3333" y="5.83333" width="285.333" height="257.333" filterUnits="userSpaceOnUse" color-interpolation-filters="sRGB">
<feFlood flood-opacity="0" result="BackgroundImageFix"/>
<feGaussianBlur in="BackgroundImageFix" stdDeviation="58.3333"/>
<feComposite in2="SourceAlpha" operator="in" result="effect1_backgroundBlur_3130_140920"/>
<feBlend mode="normal" in="SourceGraphic" in2="effect1_backgroundBlur_3130_140920" result="shape"/>
<feColorMatrix in="SourceAlpha" type="matrix" values="0 0 0 0 0 0 0 0 0 0 0 0 0 0 0 0 0 0 127 0" result="hardAlpha"/>
<feOffset/>
<feGaussianBlur stdDeviation="4.66667"/>
<feComposite in2="hardAlpha" operator="arithmetic" k2="-1" k3="1"/>
<feColorMatrix type="matrix" values="0 0 0 0 0.972549 0 0 0 0 0.972549 0 0 0 0 0.972549 0 0 0 0.25 0"/>
<feBlend mode="normal" in2="shape" result="effect2_innerShadow_3130_140920"/>
</filter>
<filter id="filter4_b_3130_140920" x="144.333" y="126.333" width="147.333" height="119.333" filterUnits="userSpaceOnUse" color-interpolation-filters="sRGB">
<feFlood flood-opacity="0" result="BackgroundImageFix"/>
<feGaussianBlur in="BackgroundImageFix" stdDeviation="9.33333"/>
<feComposite in2="SourceAlpha" operator="in" result="effect1_backgroundBlur_3130_140920"/>
<feBlend mode="normal" in="SourceGraphic" in2="effect1_backgroundBlur_3130_140920" result="shape"/>
</filter>
<filter id="filter5_bdi_3130_140920" x="153" y="135" width="130" height="134.667" filterUnits="userSpaceOnUse" color-interpolation-filters="sRGB">
<feFlood flood-opacity="0" result="BackgroundImageFix"/>
<feGaussianBlur in="BackgroundImageFix" stdDeviation="7"/>
<feComposite in2="SourceAlpha" operator="in" result="effect1_backgroundBlur_3130_140920"/>
<feColorMatrix in="SourceAlpha" type="matrix" values="0 0 0 0 0 0 0 0 0 0 0 0 0 0 0 0 0 0 127 0" result="hardAlpha"/>
<feMorphology radius="18.6667" operator="erode" in="SourceAlpha" result="effect2_dropShadow_3130_140920"/>
<feOffset dy="37.3333"/>
<feGaussianBlur stdDeviation="14"/>
<feComposite in2="hardAlpha" operator="out"/>
<feColorMatrix type="matrix" values="0 0 0 0 0 0 0 0 0 0 0 0 0 0 0 0 0 0 0.4 0"/>
<feBlend mode="multiply" in2="effect1_backgroundBlur_3130_140920" result="effect2_dropShadow_3130_140920"/>
<feBlend mode="normal" in="SourceGraphic" in2="effect2_dropShadow_3130_140920" result="shape"/>
<feColorMatrix in="SourceAlpha" type="matrix" values="0 0 0 0 0 0 0 0 0 0 0 0 0 0 0 0 0 0 127 0" result="hardAlpha"/>
<feOffset/>
<feGaussianBlur stdDeviation="4.66667"/>
<feComposite in2="hardAlpha" operator="arithmetic" k2="-1" k3="1"/>
<feColorMatrix type="matrix" values="0 0 0 0 0.972549 0 0 0 0 0.972549 0 0 0 0 0.972549 0 0 0 0.25 0"/>
<feBlend mode="normal" in2="shape" result="effect3_innerShadow_3130_140920"/>
</filter>
<filter id="filter6_f_3130_140920" x="184" y="85" width="149" height="149" filterUnits="userSpaceOnUse" color-interpolation-filters="sRGB">
<feFlood flood-opacity="0" result="BackgroundImageFix"/>
<feBlend mode="normal" in="SourceGraphic" in2="BackgroundImageFix" result="shape"/>
<feGaussianBlur stdDeviation="16" result="effect1_foregroundBlur_3130_140920"/>
</filter>
<radialGradient id="paint0_radial_3130_140920" cx="0" cy="0" r="1" gradientUnits="userSpaceOnUse" gradientTransform="translate(218 184) rotate(90) scale(184)">
<stop offset="0.433142" stop-color="#737373" stop-opacity="0"/>
<stop offset="1" stop-color="#D9D9D9"/>
</radialGradient>
<radialGradient id="paint1_radial_3130_140920" cx="0" cy="0" r="1" gradientUnits="userSpaceOnUse" gradientTransform="translate(218 184) rotate(90) scale(184)">
<stop stop-color="#D9D9D9"/>
<stop offset="1" stop-color="#737373" stop-opacity="0"/>
</radialGradient>
<linearGradient id="paint2_linear_3130_140920" x1="-120" y1="87" x2="-72.2112" y2="240.211" gradientUnits="userSpaceOnUse">
<stop stop-color="#F8F8F8" stop-opacity="0.8"/>
<stop offset="1" stop-color="#F8F8F8" stop-opacity="0.25"/>
</linearGradient>
<linearGradient id="paint3_linear_3130_140920" x1="556.5" y1="87" x2="508.711" y2="240.211" gradientUnits="userSpaceOnUse">
<stop stop-color="#F8F8F8" stop-opacity="0.8"/>
<stop offset="1" stop-color="#F8F8F8" stop-opacity="0.25"/>
</linearGradient>
<linearGradient id="paint4_linear_3130_140920" x1="9.00004" y1="195.5" x2="36.8622" y2="286.772" gradientUnits="userSpaceOnUse">
<stop stop-color="#F8F8F8" stop-opacity="0.8"/>
<stop offset="0.45221" stop-color="#F8F8F8" stop-opacity="0.25"/>
<stop offset="1" stop-color="#F8F8F8" stop-opacity="0.8"/>
</linearGradient>
<linearGradient id="paint5_linear_3130_140920" x1="9.00004" y1="195.5" x2="36.8622" y2="286.772" gradientUnits="userSpaceOnUse">
<stop stop-color="#F8F8F8" stop-opacity="0.8"/>
<stop offset="0.45221" stop-color="#F8F8F8" stop-opacity="0.25"/>
<stop offset="1" stop-color="#F8F8F8" stop-opacity="0.8"/>
</linearGradient>
<linearGradient id="paint6_linear_3130_140920" x1="427" y1="196" x2="399.138" y2="287.272" gradientUnits="userSpaceOnUse">
<stop stop-color="#F8F8F8" stop-opacity="0.8"/>
<stop offset="0.45221" stop-color="#F8F8F8" stop-opacity="0.25"/>
<stop offset="1" stop-color="#F8F8F8" stop-opacity="0.8"/>
</linearGradient>
<linearGradient id="paint7_linear_3130_140920" x1="108" y1="176" x2="114.96" y2="193.57" gradientUnits="userSpaceOnUse">
<stop stop-color="white" stop-opacity="0.4"/>
<stop offset="0.4" stop-color="white" stop-opacity="0.01"/>
<stop offset="0.6" stop-color="white" stop-opacity="0.01"/>
<stop offset="1" stop-color="white" stop-opacity="0.1"/>
</linearGradient>
<linearGradient id="paint8_linear_3130_140920" x1="328" y1="176" x2="334.96" y2="193.57" gradientUnits="userSpaceOnUse">
<stop stop-color="white" stop-opacity="0.4"/>
<stop offset="0.4" stop-color="white" stop-opacity="0.01"/>
<stop offset="0.6" stop-color="white" stop-opacity="0.01"/>
<stop offset="1" stop-color="white" stop-opacity="0.1"/>
</linearGradient>
<linearGradient id="paint9_linear_3130_140920" x1="217.52" y1="244" x2="221.098" y2="277.519" gradientUnits="userSpaceOnUse">
<stop stop-color="white" stop-opacity="0.4"/>
<stop offset="0.4" stop-color="white" stop-opacity="0.01"/>
<stop offset="0.6" stop-color="white" stop-opacity="0.01"/>
<stop offset="1" stop-color="white" stop-opacity="0.1"/>
</linearGradient>
<linearGradient id="paint10_linear_3130_140920" x1="218" y1="122.5" x2="223.395" y2="152.005" gradientUnits="userSpaceOnUse">
<stop stop-color="white" stop-opacity="0.4"/>
<stop offset="0.4" stop-color="white" stop-opacity="0.01"/>
<stop offset="0.6" stop-color="white" stop-opacity="0.01"/>
<stop offset="1" stop-color="white" stop-opacity="0.1"/>
</linearGradient>
<linearGradient id="paint11_linear_3130_140920" x1="218" y1="149" x2="242.958" y2="235.841" gradientUnits="userSpaceOnUse">
<stop stop-color="white" stop-opacity="0.4"/>
<stop offset="0.4" stop-color="white" stop-opacity="0.01"/>
<stop offset="0.6" stop-color="white" stop-opacity="0.01"/>
<stop offset="1" stop-color="white" stop-opacity="0.1"/>
</linearGradient>
<linearGradient id="paint12_linear_3130_140920" x1="108.5" y1="184.5" x2="108.577" y2="186.523" gradientUnits="userSpaceOnUse">
<stop stop-color="#F8F8F8" stop-opacity="0.8"/>
<stop offset="0.54779" stop-color="#F8F8F8" stop-opacity="0.25"/>
<stop offset="1" stop-color="#F8F8F8" stop-opacity="0.8"/>
</linearGradient>
<linearGradient id="paint13_linear_3130_140920" x1="328" y1="183.5" x2="327.923" y2="181.477" gradientUnits="userSpaceOnUse">
<stop stop-color="#F8F8F8" stop-opacity="0.8"/>
<stop offset="0.54779" stop-color="#F8F8F8" stop-opacity="0.25"/>
<stop offset="1" stop-color="#F8F8F8" stop-opacity="0.8"/>
</linearGradient>
<linearGradient id="paint14_linear_3130_140920" x1="0.504739" y1="-0.201896" x2="0.151422" y2="0.555213" gradientUnits="userSpaceOnUse">
<stop offset="0.173306" stop-color="white" stop-opacity="0"/>
<stop offset="1" stop-color="white" stop-opacity="0.3"/>
</linearGradient>
<linearGradient id="paint15_linear_3130_140920" x1="0.504739" y1="-0.201896" x2="0.151422" y2="0.555213" gradientUnits="userSpaceOnUse">
<stop offset="0.173306" stop-color="white" stop-opacity="0"/>
<stop offset="1" stop-color="white" stop-opacity="0.3"/>
</linearGradient>
<linearGradient id="paint16_linear_3130_140920" x1="0.504739" y1="-0.201896" x2="0.151422" y2="0.555213" gradientUnits="userSpaceOnUse">
<stop offset="0.173306" stop-color="white" stop-opacity="0"/>
<stop offset="1" stop-color="white" stop-opacity="0.3"/>
</linearGradient>
<linearGradient id="paint17_linear_3130_140920" x1="0.504739" y1="-0.201896" x2="0.151422" y2="0.555213" gradientUnits="userSpaceOnUse">
<stop offset="0.173306" stop-color="white" stop-opacity="0"/>
<stop offset="1" stop-color="white" stop-opacity="0.3"/>
</linearGradient>
<linearGradient id="paint18_linear_3130_140920" x1="0.504739" y1="-0.201896" x2="0.151422" y2="0.555213" gradientUnits="userSpaceOnUse">
<stop offset="0.173306" stop-color="white" stop-opacity="0"/>
<stop offset="1" stop-color="white" stop-opacity="0.3"/>
</linearGradient>
<linearGradient id="paint19_linear_3130_140920" x1="3.02844" y1="8.7246e-08" x2="-9.32629e-08" y2="4.23981" gradientUnits="userSpaceOnUse">
<stop stop-color="white" stop-opacity="0.3"/>
<stop offset="0.826694" stop-color="white" stop-opacity="0"/>
</linearGradient>
<linearGradient id="paint20_linear_3130_140920" x1="2.5237" y1="-1.00948" x2="0.757109" y2="2.77607" gradientUnits="userSpaceOnUse">
<stop stop-color="white" stop-opacity="0.3"/>
<stop offset="0.826694" stop-color="white" stop-opacity="0"/>
</linearGradient>
<linearGradient id="paint21_linear_3130_140920" x1="1.00948" y1="-0.403791" x2="0.302844" y2="1.11043" gradientUnits="userSpaceOnUse">
<stop offset="0.173306" stop-color="white" stop-opacity="0"/>
<stop offset="1" stop-color="white" stop-opacity="0.3"/>
</linearGradient>
<linearGradient id="paint22_linear_3130_140920" x1="1.00948" y1="-0.403791" x2="0.302844" y2="1.11043" gradientUnits="userSpaceOnUse">
<stop offset="0.173306" stop-color="white" stop-opacity="0"/>
<stop offset="1" stop-color="white" stop-opacity="0.3"/>
</linearGradient>
<linearGradient id="paint23_linear_3130_140920" x1="1.00948" y1="-0.403791" x2="0.302844" y2="1.11043" gradientUnits="userSpaceOnUse">
<stop offset="0.173306" stop-color="white" stop-opacity="0"/>
<stop offset="1" stop-color="white" stop-opacity="0.3"/>
</linearGradient>
<linearGradient id="paint24_linear_3130_140920" x1="1.00948" y1="-0.403791" x2="0.302844" y2="1.11043" gradientUnits="userSpaceOnUse">
<stop offset="0.173306" stop-color="white" stop-opacity="0"/>
<stop offset="1" stop-color="white" stop-opacity="0.3"/>
</linearGradient>
<linearGradient id="paint25_linear_3130_140920" x1="1.00948" y1="-0.403791" x2="0.302844" y2="1.11043" gradientUnits="userSpaceOnUse">
<stop offset="0.173306" stop-color="white" stop-opacity="0"/>
<stop offset="1" stop-color="white" stop-opacity="0.3"/>
</linearGradient>
<linearGradient id="paint26_linear_3130_140920" x1="2.01896" y1="-0.807583" x2="0.605687" y2="2.22085" gradientUnits="userSpaceOnUse">
<stop stop-color="white" stop-opacity="0.3"/>
<stop offset="0.826694" stop-color="white" stop-opacity="0"/>
</linearGradient>
<linearGradient id="paint27_linear_3130_140920" x1="138.43" y1="183.667" x2="138.077" y2="184.424" gradientUnits="userSpaceOnUse">
<stop offset="0.173306" stop-color="white" stop-opacity="0"/>
<stop offset="1" stop-color="white" stop-opacity="0.3"/>
</linearGradient>
<linearGradient id="paint28_linear_3130_140920" x1="121.471" y1="175.793" x2="121.118" y2="176.55" gradientUnits="userSpaceOnUse">
<stop offset="0.173306" stop-color="white" stop-opacity="0"/>
<stop offset="1" stop-color="white" stop-opacity="0.3"/>
</linearGradient>
<linearGradient id="paint29_linear_3130_140920" x1="168.715" y1="192.147" x2="168.361" y2="192.904" gradientUnits="userSpaceOnUse">
<stop offset="0.173306" stop-color="white" stop-opacity="0"/>
<stop offset="1" stop-color="white" stop-opacity="0.3"/>
</linearGradient>
<linearGradient id="paint30_linear_3130_140920" x1="145.698" y1="172.159" x2="145.345" y2="172.916" gradientUnits="userSpaceOnUse">
<stop offset="0.173306" stop-color="white" stop-opacity="0"/>
<stop offset="1" stop-color="white" stop-opacity="0.3"/>
</linearGradient>
<linearGradient id="paint31_linear_3130_140920" x1="116.625" y1="184.879" x2="116.272" y2="185.636" gradientUnits="userSpaceOnUse">
<stop offset="0.173306" stop-color="white" stop-opacity="0"/>
<stop offset="1" stop-color="white" stop-opacity="0.3"/>
</linearGradient>
<linearGradient id="paint32_linear_3130_140920" x1="159.851" y1="190.41" x2="156.823" y2="194.65" gradientUnits="userSpaceOnUse">
<stop stop-color="white" stop-opacity="0.3"/>
<stop offset="0.826694" stop-color="white" stop-opacity="0"/>
</linearGradient>
<linearGradient id="paint33_linear_3130_140920" x1="128.456" y1="180.921" x2="126.69" y2="184.707" gradientUnits="userSpaceOnUse">
<stop stop-color="white" stop-opacity="0.3"/>
<stop offset="0.826694" stop-color="white" stop-opacity="0"/>
</linearGradient>
<linearGradient id="paint34_linear_3130_140920" x1="165.1" y1="167.596" x2="164.394" y2="169.11" gradientUnits="userSpaceOnUse">
<stop offset="0.173306" stop-color="white" stop-opacity="0"/>
<stop offset="1" stop-color="white" stop-opacity="0.3"/>
</linearGradient>
<linearGradient id="paint35_linear_3130_140920" x1="158.189" y1="181.775" x2="157.482" y2="183.29" gradientUnits="userSpaceOnUse">
<stop offset="0.173306" stop-color="white" stop-opacity="0"/>
<stop offset="1" stop-color="white" stop-opacity="0.3"/>
</linearGradient>
<linearGradient id="paint36_linear_3130_140920" x1="133.363" y1="176.317" x2="132.656" y2="177.831" gradientUnits="userSpaceOnUse">
<stop offset="0.173306" stop-color="white" stop-opacity="0"/>
<stop offset="1" stop-color="white" stop-opacity="0.3"/>
</linearGradient>
<linearGradient id="paint37_linear_3130_140920" x1="156.015" y1="168.808" x2="155.308" y2="170.322" gradientUnits="userSpaceOnUse">
<stop offset="0.173306" stop-color="white" stop-opacity="0"/>
<stop offset="1" stop-color="white" stop-opacity="0.3"/>
</linearGradient>
<linearGradient id="paint38_linear_3130_140920" x1="148.747" y1="188.795" x2="148.04" y2="190.31" gradientUnits="userSpaceOnUse">
<stop offset="0.173306" stop-color="white" stop-opacity="0"/>
<stop offset="1" stop-color="white" stop-opacity="0.3"/>
</linearGradient>
<linearGradient id="paint39_linear_3130_140920" x1="143.094" y1="176.278" x2="141.68" y2="179.306" gradientUnits="userSpaceOnUse">
<stop stop-color="white" stop-opacity="0.3"/>
<stop offset="0.826694" stop-color="white" stop-opacity="0"/>
</linearGradient>
<radialGradient id="paint40_angular_3130_140920" cx="0" cy="0" r="1" gradientUnits="userSpaceOnUse" gradientTransform="translate(218 136) rotate(90) scale(65.7286)">
<stop offset="0.310582" stop-color="white" stop-opacity="0"/>
<stop offset="0.504033" stop-color="white" stop-opacity="0.15"/>
<stop offset="0.685479" stop-color="white" stop-opacity="0"/>
</radialGradient>
<radialGradient id="paint41_angular_3130_140920" cx="0" cy="0" r="1" gradientUnits="userSpaceOnUse" gradientTransform="translate(218 136) rotate(90) scale(86)">
<stop offset="0.310582" stop-color="white" stop-opacity="0"/>
<stop offset="0.504033" stop-color="white" stop-opacity="0.15"/>
<stop offset="0.685479" stop-color="white" stop-opacity="0"/>
</radialGradient>
<radialGradient id="paint42_angular_3130_140920" cx="0" cy="0" r="1" gradientUnits="userSpaceOnUse" gradientTransform="translate(218 136) rotate(90) scale(44.2286)">
<stop offset="0.310582" stop-color="white" stop-opacity="0"/>
<stop offset="0.504033" stop-color="white" stop-opacity="0.15"/>
<stop offset="0.685479" stop-color="white" stop-opacity="0"/>
</radialGradient>
<linearGradient id="paint43_linear_3130_140920" x1="-3" y1="195.5" x2="102.763" y2="190.493" gradientUnits="userSpaceOnUse">
<stop stop-color="#F8F8F8" stop-opacity="0"/>
<stop offset="1" stop-color="#F8F8F8" stop-opacity="0.8"/>
</linearGradient>
<linearGradient id="paint44_linear_3130_140920" x1="-3" y1="171" x2="102.763" y2="176.007" gradientUnits="userSpaceOnUse">
<stop stop-color="#F8F8F8" stop-opacity="0"/>
<stop offset="1" stop-color="#F8F8F8" stop-opacity="0.8"/>
</linearGradient>
<linearGradient id="paint45_linear_3130_140920" x1="439" y1="195.5" x2="333.237" y2="190.493" gradientUnits="userSpaceOnUse">
<stop stop-color="#F8F8F8" stop-opacity="0"/>
<stop offset="1" stop-color="#F8F8F8" stop-opacity="0.8"/>
</linearGradient>
<linearGradient id="paint46_linear_3130_140920" x1="439" y1="171" x2="333.237" y2="176.007" gradientUnits="userSpaceOnUse">
<stop stop-color="#F8F8F8" stop-opacity="0"/>
<stop offset="1" stop-color="#F8F8F8" stop-opacity="0.8"/>
</linearGradient>
<clipPath id="clip0_3130_140920">
<rect width="336" height="336" fill="white" transform="translate(50 16)"/>
</clipPath>
<clipPath id="clip1_3130_140920">
<rect x="167" y="149" width="102" height="74" rx="18.6667" fill="white"/>
</clipPath>
</defs>
</svg>
