<svg width="54" height="54" viewBox="0 0 54 54" fill="none" xmlns="http://www.w3.org/2000/svg">
<path opacity="0.4" d="M1 18.1421V27V35.8579C1 38.51 2.05357 41.0536 3.92893 42.9289L11.0711 50.0711C12.9464 51.9464 15.49 53 18.1421 53H27H35.8579C38.51 53 41.0536 51.9464 42.9289 50.0711L50.0711 42.9289C51.9464 41.0536 53 38.51 53 35.8579V27V18.1421C53 15.49 51.9464 12.9464 50.0711 11.0711L42.9289 3.92893C41.0536 2.05357 38.51 1 35.8579 1H27H18.1421C15.49 1 12.9464 2.05357 11.0711 3.92893L3.92893 11.0711C2.05357 12.9464 1 15.49 1 18.1421Z" fill="#282828" stroke="#F8F8F8" stroke-width="1.5"/>
<g filter="url(#filter0_bi_5144_93164)">
<path d="M5 19.3137V27V34.6863C5 36.808 5.84285 38.8429 7.34315 40.3431L13.6569 46.6569C15.1571 48.1571 17.192 49 19.3137 49H27H34.6863C36.808 49 38.8429 48.1571 40.3431 46.6569L46.6569 40.3431C48.1571 38.8429 49 36.808 49 34.6863V27V19.3137C49 17.192 48.1571 15.1571 46.6569 13.6569L40.3431 7.34315C38.8429 5.84286 36.808 5 34.6863 5H27H19.3137C17.192 5 15.1571 5.84285 13.6569 7.34315L7.34315 13.6569C5.84286 15.1571 5 17.192 5 19.3137Z" fill="#F8F8F8" fill-opacity="0.01"/>
</g>
<path opacity="0.1" fill-rule="evenodd" clip-rule="evenodd" d="M21 23C22.1046 23 23 22.1046 23 21C23 19.8954 22.1046 19 21 19C19.8954 19 19 19.8954 19 21C19 22.1046 19.8954 23 21 23ZM27 23C28.1046 23 29 22.1046 29 21C29 19.8954 28.1046 19 27 19C25.8954 19 25 19.8954 25 21C25 22.1046 25.8954 23 27 23ZM35 21C35 22.1046 34.1046 23 33 23C31.8954 23 31 22.1046 31 21C31 19.8954 31.8954 19 33 19C34.1046 19 35 19.8954 35 21ZM27 29C28.1046 29 29 28.1046 29 27C29 25.8954 28.1046 25 27 25C25.8954 25 25 25.8954 25 27C25 28.1046 25.8954 29 27 29ZM23 27C23 28.1046 22.1046 29 21 29C19.8954 29 19 28.1046 19 27C19 25.8954 19.8954 25 21 25C22.1046 25 23 25.8954 23 27ZM33 29C34.1046 29 35 28.1046 35 27C35 25.8954 34.1046 25 33 25C31.8954 25 31 25.8954 31 27C31 28.1046 31.8954 29 33 29ZM29 33C29 34.1046 28.1046 35 27 35C25.8954 35 25 34.1046 25 33C25 31.8954 25.8954 31 27 31C28.1046 31 29 31.8954 29 33ZM21 35C22.1046 35 23 34.1046 23 33C23 31.8954 22.1046 31 21 31C19.8954 31 19 31.8954 19 33C19 34.1046 19.8954 35 21 35ZM35 33C35 34.1046 34.1046 35 33 35C31.8954 35 31 34.1046 31 33C31 31.8954 31.8954 31 33 31C34.1046 31 35 31.8954 35 33Z" fill="#F8F8F8"/>
<path d="M27 29C28.1046 29 29 28.1046 29 27C29 25.8954 28.1046 25 27 25C25.8954 25 25 25.8954 25 27C25 28.1046 25.8954 29 27 29Z" fill="#F8F8F8" fill-opacity="0.5"/>
<path opacity="0.5" d="M27 23C28.1046 23 29 22.1046 29 21C29 19.8954 28.1046 19 27 19C25.8954 19 25 19.8954 25 21C25 22.1046 25.8954 23 27 23Z" fill="#F8F8F8"/>
<path opacity="0.5" d="M21 29C22.1046 29 23 28.1046 23 27C23 25.8954 22.1046 25 21 25C19.8954 25 19 25.8954 19 27C19 28.1046 19.8954 29 21 29Z" fill="#F8F8F8"/>
<path opacity="0.5" d="M33 29C34.1046 29 35 28.1046 35 27C35 25.8954 34.1046 25 33 25C31.8954 25 31 25.8954 31 27C31 28.1046 31.8954 29 33 29Z" fill="#F8F8F8"/>
<path opacity="0.5" d="M27 35C28.1046 35 29 34.1046 29 33C29 31.8954 28.1046 31 27 31C25.8954 31 25 31.8954 25 33C25 34.1046 25.8954 35 27 35Z" fill="#F8F8F8"/>
<defs>
<filter id="filter0_bi_5144_93164" x="-95" y="-95" width="244" height="244" filterUnits="userSpaceOnUse" color-interpolation-filters="sRGB">
<feFlood flood-opacity="0" result="BackgroundImageFix"/>
<feGaussianBlur in="BackgroundImageFix" stdDeviation="50"/>
<feComposite in2="SourceAlpha" operator="in" result="effect1_backgroundBlur_5144_93164"/>
<feBlend mode="normal" in="SourceGraphic" in2="effect1_backgroundBlur_5144_93164" result="shape"/>
<feColorMatrix in="SourceAlpha" type="matrix" values="0 0 0 0 0 0 0 0 0 0 0 0 0 0 0 0 0 0 127 0" result="hardAlpha"/>
<feOffset/>
<feGaussianBlur stdDeviation="4"/>
<feComposite in2="hardAlpha" operator="arithmetic" k2="-1" k3="1"/>
<feColorMatrix type="matrix" values="0 0 0 0 0.972549 0 0 0 0 0.972549 0 0 0 0 0.972549 0 0 0 0.25 0"/>
<feBlend mode="normal" in2="shape" result="effect2_innerShadow_5144_93164"/>
</filter>
</defs>
</svg>
