<svg width="368" height="368" viewBox="0 0 368 368" fill="none" xmlns="http://www.w3.org/2000/svg">
<g clip-path="url(#clip0_5120_16405)">
<mask id="mask0_5120_16405" style="mask-type:alpha" maskUnits="userSpaceOnUse" x="0" y="0" width="368" height="368">
<circle cx="184" cy="184" r="184" fill="url(#paint0_radial_5120_16405)"/>
</mask>
<g mask="url(#mask0_5120_16405)">
<g opacity="0.1">
<circle opacity="0.3" cx="33.5842" cy="33.5842" r="1.5842" fill="#F8F8F8"/>
<circle cx="53.505" cy="33.505" r="1.505" fill="#F8F8F8"/>
<circle cx="73.8862" cy="33.8862" r="1.3862" fill="#F8F8F8"/>
<circle cx="93.7278" cy="33.7278" r="1.2278" fill="#F8F8F8"/>
<circle cx="113.589" cy="33.5892" r="1.0892" fill="#F8F8F8"/>
<circle cx="133.911" cy="33.911" r="0.911" fill="#F8F8F8"/>
<circle cx="153.733" cy="33.7328" r="0.7328" fill="#F8F8F8"/>
<circle cx="173.574" cy="33.5744" r="0.5744" fill="#F8F8F8"/>
<circle cx="193.5" cy="33.5" r="0.5" fill="#F8F8F8"/>
<circle cx="213.5" cy="33.5" r="0.5" fill="#F8F8F8"/>
<circle cx="233.5" cy="33.5" r="0.5" fill="#F8F8F8"/>
<circle cx="253.5" cy="33.5" r="0.5" fill="#F8F8F8"/>
<circle cx="273.5" cy="33.5" r="0.5" fill="#F8F8F8"/>
<circle cx="293.5" cy="33.5" r="0.5" fill="#F8F8F8"/>
<circle cx="313.5" cy="33.5" r="0.5" fill="#F8F8F8"/>
<circle cx="333.5" cy="33.5" r="0.5" fill="#F8F8F8"/>
<circle opacity="0.3" cx="33.5248" cy="53.5248" r="1.5248" fill="#F8F8F8"/>
<circle opacity="0.4" cx="53.9456" cy="53.9456" r="1.4456" fill="#F8F8F8"/>
<circle opacity="0.4" cx="73.807" cy="53.807" r="1.307" fill="#F8F8F8"/>
<circle opacity="0.4" cx="93.6486" cy="53.6486" r="1.1486" fill="#F8F8F8"/>
<circle cx="113.99" cy="53.9902" r="0.9902" fill="#F8F8F8"/>
<circle cx="133.812" cy="53.812" r="0.812" fill="#F8F8F8"/>
<circle cx="153.634" cy="53.6338" r="0.6338" fill="#F8F8F8"/>
<circle cx="173.5" cy="53.5" r="0.5" fill="#F8F8F8"/>
<circle cx="193.5" cy="53.5" r="0.5" fill="#F8F8F8"/>
<circle cx="213.5" cy="53.5" r="0.5" fill="#F8F8F8"/>
<circle cx="233.5" cy="53.5" r="0.5" fill="#F8F8F8"/>
<circle cx="253.5" cy="53.5" r="0.5" fill="#F8F8F8"/>
<circle cx="273.5" cy="53.5" r="0.5" fill="#F8F8F8"/>
<circle cx="293.5" cy="53.5" r="0.5" fill="#F8F8F8"/>
<circle cx="313.5" cy="53.5" r="0.5" fill="#F8F8F8"/>
<circle cx="333.5" cy="53.5" r="0.5" fill="#F8F8F8"/>
<circle opacity="0.3" cx="33.9654" cy="73.9654" r="1.4654" fill="#F8F8F8"/>
<circle opacity="0.4" cx="53.8466" cy="73.8466" r="1.3466" fill="#F8F8F8"/>
<circle opacity="0.4" cx="73.708" cy="73.708" r="1.208" fill="#F8F8F8"/>
<circle opacity="0.4" cx="93.5298" cy="73.5298" r="1.0298" fill="#F8F8F8"/>
<circle cx="113.891" cy="73.8912" r="0.8912" fill="#F8F8F8"/>
<circle cx="133.733" cy="73.7328" r="0.7328" fill="#F8F8F8"/>
<circle cx="153.555" cy="73.5546" r="0.5546" fill="#F8F8F8"/>
<circle cx="173.5" cy="73.5" r="0.5" fill="#F8F8F8"/>
<circle cx="193.5" cy="73.5" r="0.5" fill="#F8F8F8"/>
<circle cx="213.5" cy="73.5" r="0.5" fill="#F8F8F8"/>
<circle cx="233.5" cy="73.5" r="0.5" fill="#F8F8F8"/>
<circle cx="253.5" cy="73.5" r="0.5" fill="#F8F8F8"/>
<circle cx="273.5" cy="73.5" r="0.5" fill="#F8F8F8"/>
<circle cx="293.5" cy="73.5" r="0.5" fill="#F8F8F8"/>
<circle cx="313.5" cy="73.5" r="0.5" fill="#F8F8F8"/>
<circle cx="333.5" cy="73.5" r="0.5" fill="#F8F8F8"/>
<circle opacity="0.3" cx="33.8664" cy="93.8664" r="1.3664" fill="#F8F8F8"/>
<circle opacity="0.4" cx="53.7476" cy="93.7476" r="1.2476" fill="#F8F8F8"/>
<circle opacity="0.4" cx="73.609" cy="93.609" r="1.109" fill="#F8F8F8"/>
<circle opacity="0.4" cx="93.9704" cy="93.9704" r="0.9704" fill="#F8F8F8"/>
<circle cx="113.832" cy="93.8318" r="0.8318" fill="#F8F8F8"/>
<circle cx="133.673" cy="93.6734" r="0.6734" fill="#F8F8F8"/>
<circle cx="153.555" cy="93.5546" r="0.5546" fill="#F8F8F8"/>
<circle cx="173.5" cy="93.5" r="0.5" fill="#F8F8F8"/>
<circle cx="193.5" cy="93.5" r="0.5" fill="#F8F8F8"/>
<circle cx="213.5" cy="93.5" r="0.5" fill="#F8F8F8"/>
<circle cx="233.5" cy="93.5" r="0.5" fill="#F8F8F8"/>
<circle cx="253.5" cy="93.5" r="0.5" fill="#F8F8F8"/>
<circle cx="273.5" cy="93.5" r="0.5" fill="#F8F8F8"/>
<circle cx="293.5" cy="93.5" r="0.5" fill="#F8F8F8"/>
<circle cx="313.5" cy="93.5" r="0.5" fill="#F8F8F8"/>
<circle cx="333.5" cy="93.5" r="0.5" fill="#F8F8F8"/>
<circle cx="33.7674" cy="113.767" r="1.2674" fill="#F8F8F8"/>
<circle cx="53.6684" cy="113.668" r="1.1684" fill="#F8F8F8"/>
<circle cx="73.5496" cy="113.55" r="1.0496" fill="#F8F8F8"/>
<circle cx="93.911" cy="113.911" r="0.911" fill="#F8F8F8"/>
<circle cx="113.812" cy="113.812" r="0.812" fill="#F8F8F8"/>
<circle cx="133.673" cy="113.673" r="0.6734" fill="#F8F8F8"/>
<circle cx="153.574" cy="113.574" r="0.5744" fill="#F8F8F8"/>
<circle cx="173.515" cy="113.515" r="0.515" fill="#F8F8F8"/>
<circle cx="193.5" cy="113.5" r="0.5" fill="#F8F8F8"/>
<circle cx="213.5" cy="113.5" r="0.5" fill="#F8F8F8"/>
<circle cx="233.5" cy="113.5" r="0.5" fill="#F8F8F8"/>
<circle cx="253.5" cy="113.5" r="0.5" fill="#F8F8F8"/>
<circle cx="273.5" cy="113.5" r="0.5" fill="#F8F8F8"/>
<circle cx="293.5" cy="113.5" r="0.5" fill="#F8F8F8"/>
<circle cx="313.5" cy="113.5" r="0.5" fill="#F8F8F8"/>
<circle cx="333.5" cy="113.5" r="0.5" fill="#F8F8F8"/>
<circle cx="33.6882" cy="133.688" r="1.1882" fill="#F8F8F8"/>
<circle cx="53.5892" cy="133.589" r="1.0892" fill="#F8F8F8"/>
<circle cx="73.9902" cy="133.99" r="0.9902" fill="#F8F8F8"/>
<circle cx="293.5" cy="133.5" r="0.5" fill="#F8F8F8"/>
<circle cx="313.5" cy="133.5" r="0.5" fill="#F8F8F8"/>
<circle cx="333.5" cy="133.5" r="0.5" fill="#F8F8F8"/>
<circle cx="33.5892" cy="153.589" r="1.0892" fill="#F8F8F8"/>
<circle cx="53.5298" cy="153.53" r="1.0298" fill="#F8F8F8"/>
<circle cx="73.9506" cy="153.951" r="0.9506" fill="#F8F8F8"/>
<circle cx="293.555" cy="153.555" r="0.5546" fill="#F8F8F8"/>
<circle cx="313.5" cy="153.5" r="0.5" fill="#F8F8F8"/>
<circle cx="333.5" cy="153.5" r="0.5" fill="#F8F8F8"/>
<circle cx="33.5298" cy="173.53" r="1.0298" fill="#F8F8F8"/>
<circle cx="53.9902" cy="173.99" r="0.9902" fill="#F8F8F8"/>
<circle cx="73.9506" cy="173.951" r="0.9506" fill="#F8F8F8"/>
<circle cx="293.713" cy="173.713" r="0.713" fill="#F8F8F8"/>
<circle cx="313.634" cy="173.634" r="0.6338" fill="#F8F8F8"/>
<circle cx="333.574" cy="173.574" r="0.5744" fill="#F8F8F8"/>
<circle cx="33.9704" cy="193.97" r="0.9704" fill="#F8F8F8"/>
<circle cx="53.9506" cy="193.951" r="0.9506" fill="#F8F8F8"/>
<circle cx="73.9506" cy="193.951" r="0.9506" fill="#F8F8F8"/>
<circle cx="293.871" cy="193.871" r="0.8714" fill="#F8F8F8"/>
<circle cx="313.792" cy="193.792" r="0.7922" fill="#F8F8F8"/>
<circle cx="333.693" cy="193.693" r="0.6932" fill="#F8F8F8"/>
<circle cx="33.9506" cy="213.951" r="0.9506" fill="#F8F8F8"/>
<circle cx="53.9506" cy="213.951" r="0.9506" fill="#F8F8F8"/>
<circle cx="73.9704" cy="213.97" r="0.9704" fill="#F8F8F8"/>
<circle cx="293.51" cy="213.51" r="1.01" fill="#F8F8F8"/>
<circle cx="313.911" cy="213.911" r="0.911" fill="#F8F8F8"/>
<circle cx="333.812" cy="213.812" r="0.812" fill="#F8F8F8"/>
<circle cx="33.911" cy="233.911" r="0.911" fill="#F8F8F8"/>
<circle cx="53.9506" cy="233.951" r="0.9506" fill="#F8F8F8"/>
<circle cx="73.9902" cy="233.99" r="0.9902" fill="#F8F8F8"/>
<circle cx="293.589" cy="233.589" r="1.0892" fill="#F8F8F8"/>
<circle cx="313.51" cy="233.51" r="1.01" fill="#F8F8F8"/>
<circle cx="333.911" cy="233.911" r="0.911" fill="#F8F8F8"/>
<circle cx="33.911" cy="253.911" r="0.911" fill="#F8F8F8"/>
<circle opacity="0.5" cx="53.9506" cy="253.951" r="0.9506" fill="#F8F8F8"/>
<circle opacity="0.5" cx="73.5298" cy="253.53" r="1.0298" fill="#F8F8F8"/>
<circle cx="93.609" cy="253.609" r="1.109" fill="#F8F8F8"/>
<circle cx="113.668" cy="253.668" r="1.1684" fill="#F8F8F8"/>
<circle cx="133.728" cy="253.728" r="1.2278" fill="#F8F8F8"/>
<circle cx="233.807" cy="253.807" r="1.307" fill="#F8F8F8"/>
<circle cx="253.787" cy="253.787" r="1.2872" fill="#F8F8F8"/>
<circle cx="273.748" cy="253.748" r="1.2476" fill="#F8F8F8"/>
<circle cx="293.708" cy="253.708" r="1.208" fill="#F8F8F8"/>
<circle cx="313.609" cy="253.609" r="1.109" fill="#F8F8F8"/>
<circle cx="333.51" cy="253.51" r="1.01" fill="#F8F8F8"/>
<circle cx="33.8912" cy="273.891" r="0.8912" fill="#F8F8F8"/>
<circle opacity="0.5" cx="53.9704" cy="273.97" r="0.9704" fill="#F8F8F8"/>
<circle opacity="0.5" cx="73.5496" cy="273.55" r="1.0496" fill="#F8F8F8"/>
<circle cx="93.6486" cy="273.649" r="1.1486" fill="#F8F8F8"/>
<circle cx="113.728" cy="273.728" r="1.2278" fill="#F8F8F8"/>
<circle cx="133.807" cy="273.807" r="1.307" fill="#F8F8F8"/>
<circle cx="233.906" cy="273.906" r="1.406" fill="#F8F8F8"/>
<circle cx="253.886" cy="273.886" r="1.3862" fill="#F8F8F8"/>
<circle cx="273.847" cy="273.847" r="1.3466" fill="#F8F8F8"/>
<circle cx="293.787" cy="273.787" r="1.2872" fill="#F8F8F8"/>
<circle cx="313.708" cy="273.708" r="1.208" fill="#F8F8F8"/>
<circle cx="333.589" cy="273.589" r="1.0892" fill="#F8F8F8"/>
<circle opacity="0.5" cx="33.911" cy="293.911" r="0.911" fill="#F8F8F8"/>
<circle opacity="0.5" cx="53.9902" cy="293.99" r="0.9902" fill="#F8F8F8"/>
<circle opacity="0.5" cx="73.5892" cy="293.589" r="1.0892" fill="#F8F8F8"/>
<circle cx="93.6882" cy="293.688" r="1.1882" fill="#F8F8F8"/>
<circle cx="113.767" cy="293.767" r="1.2674" fill="#F8F8F8"/>
<circle cx="133.847" cy="293.847" r="1.3466" fill="#F8F8F8"/>
<circle cx="233.965" cy="293.965" r="1.4654" fill="#F8F8F8"/>
<circle cx="253.946" cy="293.946" r="1.4456" fill="#F8F8F8"/>
<circle opacity="0.3" cx="273.906" cy="293.906" r="1.406" fill="#F8F8F8"/>
<circle opacity="0.3" cx="293.866" cy="293.866" r="1.3664" fill="#F8F8F8"/>
<circle opacity="0.3" cx="313.787" cy="293.787" r="1.2872" fill="#F8F8F8"/>
<circle cx="333.668" cy="293.668" r="1.1684" fill="#F8F8F8"/>
<circle opacity="0.5" cx="33.9308" cy="313.931" r="0.9308" fill="#F8F8F8"/>
<circle opacity="0.5" cx="53.51" cy="313.51" r="1.01" fill="#F8F8F8"/>
<circle opacity="0.5" cx="73.609" cy="313.609" r="1.109" fill="#F8F8F8"/>
<circle cx="93.708" cy="313.708" r="1.208" fill="#F8F8F8"/>
<circle cx="113.787" cy="313.787" r="1.2872" fill="#F8F8F8"/>
<circle opacity="0.3" cx="133.866" cy="313.866" r="1.3664" fill="#F8F8F8"/>
<circle opacity="0.3" cx="153.926" cy="313.926" r="1.4258" fill="#F8F8F8"/>
<circle opacity="0.3" cx="173.965" cy="313.965" r="1.4654" fill="#F8F8F8"/>
<circle opacity="0.3" cx="193.985" cy="313.985" r="1.4852" fill="#F8F8F8"/>
<circle opacity="0.3" cx="213.505" cy="313.505" r="1.505" fill="#F8F8F8"/>
<circle opacity="0.3" cx="233.505" cy="313.505" r="1.505" fill="#F8F8F8"/>
<circle cx="253.985" cy="313.985" r="1.4852" fill="#F8F8F8"/>
<circle opacity="0.3" cx="273.965" cy="313.965" r="1.4654" fill="#F8F8F8"/>
<circle opacity="0.3" cx="293.926" cy="313.926" r="1.4258" fill="#F8F8F8"/>
<circle opacity="0.3" cx="313.847" cy="313.847" r="1.3466" fill="#F8F8F8"/>
<circle cx="333.748" cy="313.748" r="1.2476" fill="#F8F8F8"/>
<circle opacity="0.5" cx="33.9902" cy="333.99" r="0.9902" fill="#F8F8F8"/>
<circle opacity="0.5" cx="53.5298" cy="333.53" r="1.0298" fill="#F8F8F8"/>
<circle opacity="0.5" cx="73.6288" cy="333.629" r="1.1288" fill="#F8F8F8"/>
<circle cx="93.708" cy="333.708" r="1.208" fill="#F8F8F8"/>
<circle cx="113.787" cy="333.787" r="1.2872" fill="#F8F8F8"/>
<circle opacity="0.3" cx="133.866" cy="333.866" r="1.3664" fill="#F8F8F8"/>
<circle opacity="0.3" cx="153.926" cy="333.926" r="1.4258" fill="#F8F8F8"/>
<circle opacity="0.3" cx="173.965" cy="333.965" r="1.4654" fill="#F8F8F8"/>
<circle opacity="0.3" cx="193.985" cy="333.985" r="1.4852" fill="#F8F8F8"/>
<circle opacity="0.3" cx="213.505" cy="333.505" r="1.505" fill="#F8F8F8"/>
<circle opacity="0.3" cx="233.505" cy="333.505" r="1.505" fill="#F8F8F8"/>
<circle cx="253.505" cy="333.505" r="1.505" fill="#F8F8F8"/>
<circle cx="273.505" cy="333.505" r="1.505" fill="#F8F8F8"/>
<circle cx="293.965" cy="333.965" r="1.4654" fill="#F8F8F8"/>
<circle cx="313.906" cy="333.906" r="1.406" fill="#F8F8F8"/>
<circle cx="333.807" cy="333.807" r="1.307" fill="#F8F8F8"/>
</g>
</g>
</g>
<mask id="mask1_5120_16405" style="mask-type:alpha" maskUnits="userSpaceOnUse" x="0" y="0" width="368" height="368">
<circle cx="184" cy="184" r="184" fill="url(#paint1_radial_5120_16405)"/>
</mask>
<g mask="url(#mask1_5120_16405)">
<path opacity="0.25" d="M96.5 193.5H55.9345C53.7416 193.5 51.6448 192.6 50.1345 191.01L35.7 175.816C34.2875 174.329 33.5 172.357 33.5 170.306V142C33.5 137.582 29.9183 134 25.5 134H0.5" stroke="url(#paint2_linear_5120_16405)" stroke-width="1.5"/>
<path opacity="0.5" d="M54 -7.5V70.1863C54 72.308 54.8429 74.3429 56.3431 75.8431L71.6569 91.1569C73.1571 92.6571 74 94.692 74 96.8137V195V250.244C74 252.332 73.184 254.336 71.7263 255.831L56.2737 271.669C54.816 273.164 54 275.168 54 277.256V382" stroke="url(#paint3_linear_5120_16405)" stroke-width="1.5"/>
<path opacity="0.25" d="M272 173.5H311.566C313.758 173.5 315.855 172.6 317.366 171.01L331.634 155.99C333.145 154.4 335.242 153.5 337.434 153.5H377.5" stroke="url(#paint4_linear_5120_16405)" stroke-width="1.5"/>
<path opacity="0.5" d="M313.5 52.5V129.245C313.5 131.332 312.685 133.336 311.228 134.83L296.272 150.17C294.815 151.664 294 153.668 294 155.755L294 174V210.686C294 212.808 294.843 214.843 296.343 216.343L331.657 251.657C333.157 253.157 334 255.192 334 257.314V365" stroke="url(#paint5_linear_5120_16405)" stroke-width="1.5"/>
<path opacity="0.25" d="M154 -32.5V70.6863C154 72.808 154.843 74.8429 156.343 76.3431L171.157 91.1569C172.657 92.6571 173.5 94.692 173.5 96.8137V124.5" stroke="url(#paint6_linear_5120_16405)" stroke-width="1.5"/>
<path opacity="0.5" d="M193 124.5V56.8137C193 54.692 193.843 52.6571 195.343 51.1569L210.657 35.8431C212.157 34.3429 213 32.308 213 30.1863V-20.5" stroke="url(#paint7_linear_5120_16405)" stroke-width="1.5"/>
</g>
<g filter="url(#filter0_bdi_5120_16405)">
<rect x="66" y="186" width="16" height="16" rx="8" fill="#282828" fill-opacity="0.7" style="mix-blend-mode:luminosity" shape-rendering="crispEdges"/>
<rect x="66.75" y="186.75" width="14.5" height="14.5" rx="7.25" stroke="url(#paint8_linear_5120_16405)" stroke-opacity="0.25" stroke-width="1.5" shape-rendering="crispEdges"/>
<circle cx="74" cy="194" r="3" transform="rotate(180 74 194)" fill="#F8F8F8"/>
</g>
<g filter="url(#filter1_bdi_5120_16405)">
<rect x="286" y="166" width="16" height="16" rx="8" fill="#282828" fill-opacity="0.7" style="mix-blend-mode:luminosity" shape-rendering="crispEdges"/>
<rect x="286.75" y="166.75" width="14.5" height="14.5" rx="7.25" stroke="url(#paint9_linear_5120_16405)" stroke-opacity="0.25" stroke-width="1.5" shape-rendering="crispEdges"/>
<circle cx="294" cy="174" r="3" transform="rotate(180 294 174)" fill="#F8F8F8"/>
</g>
<defs>
<filter id="filter0_bdi_5120_16405" x="54" y="174" width="40" height="68" filterUnits="userSpaceOnUse" color-interpolation-filters="sRGB">
<feFlood flood-opacity="0" result="BackgroundImageFix"/>
<feGaussianBlur in="BackgroundImageFix" stdDeviation="6"/>
<feComposite in2="SourceAlpha" operator="in" result="effect1_backgroundBlur_5120_16405"/>
<feColorMatrix in="SourceAlpha" type="matrix" values="0 0 0 0 0 0 0 0 0 0 0 0 0 0 0 0 0 0 127 0" result="hardAlpha"/>
<feMorphology radius="16" operator="erode" in="SourceAlpha" result="effect2_dropShadow_5120_16405"/>
<feOffset dy="32"/>
<feGaussianBlur stdDeviation="12"/>
<feComposite in2="hardAlpha" operator="out"/>
<feColorMatrix type="matrix" values="0 0 0 0 0 0 0 0 0 0 0 0 0 0 0 0 0 0 0.4 0"/>
<feBlend mode="multiply" in2="effect1_backgroundBlur_5120_16405" result="effect2_dropShadow_5120_16405"/>
<feBlend mode="normal" in="SourceGraphic" in2="effect2_dropShadow_5120_16405" result="shape"/>
<feColorMatrix in="SourceAlpha" type="matrix" values="0 0 0 0 0 0 0 0 0 0 0 0 0 0 0 0 0 0 127 0" result="hardAlpha"/>
<feOffset/>
<feGaussianBlur stdDeviation="4"/>
<feComposite in2="hardAlpha" operator="arithmetic" k2="-1" k3="1"/>
<feColorMatrix type="matrix" values="0 0 0 0 0.972549 0 0 0 0 0.972549 0 0 0 0 0.972549 0 0 0 0.25 0"/>
<feBlend mode="normal" in2="shape" result="effect3_innerShadow_5120_16405"/>
</filter>
<filter id="filter1_bdi_5120_16405" x="274" y="154" width="40" height="68" filterUnits="userSpaceOnUse" color-interpolation-filters="sRGB">
<feFlood flood-opacity="0" result="BackgroundImageFix"/>
<feGaussianBlur in="BackgroundImageFix" stdDeviation="6"/>
<feComposite in2="SourceAlpha" operator="in" result="effect1_backgroundBlur_5120_16405"/>
<feColorMatrix in="SourceAlpha" type="matrix" values="0 0 0 0 0 0 0 0 0 0 0 0 0 0 0 0 0 0 127 0" result="hardAlpha"/>
<feMorphology radius="16" operator="erode" in="SourceAlpha" result="effect2_dropShadow_5120_16405"/>
<feOffset dy="32"/>
<feGaussianBlur stdDeviation="12"/>
<feComposite in2="hardAlpha" operator="out"/>
<feColorMatrix type="matrix" values="0 0 0 0 0 0 0 0 0 0 0 0 0 0 0 0 0 0 0.4 0"/>
<feBlend mode="multiply" in2="effect1_backgroundBlur_5120_16405" result="effect2_dropShadow_5120_16405"/>
<feBlend mode="normal" in="SourceGraphic" in2="effect2_dropShadow_5120_16405" result="shape"/>
<feColorMatrix in="SourceAlpha" type="matrix" values="0 0 0 0 0 0 0 0 0 0 0 0 0 0 0 0 0 0 127 0" result="hardAlpha"/>
<feOffset/>
<feGaussianBlur stdDeviation="4"/>
<feComposite in2="hardAlpha" operator="arithmetic" k2="-1" k3="1"/>
<feColorMatrix type="matrix" values="0 0 0 0 0.972549 0 0 0 0 0.972549 0 0 0 0 0.972549 0 0 0 0.25 0"/>
<feBlend mode="normal" in2="shape" result="effect3_innerShadow_5120_16405"/>
</filter>
<radialGradient id="paint0_radial_5120_16405" cx="0" cy="0" r="1" gradientUnits="userSpaceOnUse" gradientTransform="translate(184 184) rotate(90) scale(184)">
<stop offset="0.433142" stop-color="#737373" stop-opacity="0"/>
<stop offset="1" stop-color="#D9D9D9"/>
</radialGradient>
<radialGradient id="paint1_radial_5120_16405" cx="0" cy="0" r="1" gradientUnits="userSpaceOnUse" gradientTransform="translate(184 184) rotate(90) scale(184)">
<stop stop-color="#D9D9D9"/>
<stop offset="1" stop-color="#737373" stop-opacity="0"/>
</radialGradient>
<linearGradient id="paint2_linear_5120_16405" x1="33" y1="174" x2="38.4741" y2="206.332" gradientUnits="userSpaceOnUse">
<stop stop-color="#F8F8F8" stop-opacity="0.8"/>
<stop offset="0.45221" stop-color="#F8F8F8" stop-opacity="0.25"/>
<stop offset="1" stop-color="#F8F8F8" stop-opacity="0.8"/>
</linearGradient>
<linearGradient id="paint3_linear_5120_16405" x1="-25" y1="195" x2="2.86216" y2="286.272" gradientUnits="userSpaceOnUse">
<stop stop-color="#F8F8F8" stop-opacity="0.8"/>
<stop offset="0.45221" stop-color="#F8F8F8" stop-opacity="0.25"/>
<stop offset="1" stop-color="#F8F8F8" stop-opacity="0.8"/>
</linearGradient>
<linearGradient id="paint4_linear_5120_16405" x1="334.5" y1="154" x2="329.026" y2="186.332" gradientUnits="userSpaceOnUse">
<stop stop-color="#F8F8F8" stop-opacity="0.8"/>
<stop offset="0.45221" stop-color="#F8F8F8" stop-opacity="0.25"/>
<stop offset="1" stop-color="#F8F8F8" stop-opacity="0.8"/>
</linearGradient>
<linearGradient id="paint5_linear_5120_16405" x1="294" y1="174" x2="309.498" y2="238.5" gradientUnits="userSpaceOnUse">
<stop stop-color="#F8F8F8" stop-opacity="0.8"/>
<stop offset="0.45221" stop-color="#F8F8F8" stop-opacity="0.25"/>
<stop offset="1" stop-color="#F8F8F8" stop-opacity="0.8"/>
</linearGradient>
<linearGradient id="paint6_linear_5120_16405" x1="154" y1="34" x2="208.841" y2="56.8736" gradientUnits="userSpaceOnUse">
<stop stop-color="#F8F8F8" stop-opacity="0.8"/>
<stop offset="0.54779" stop-color="#F8F8F8" stop-opacity="0.2"/>
<stop offset="1" stop-color="#F8F8F8" stop-opacity="0.8"/>
</linearGradient>
<linearGradient id="paint7_linear_5120_16405" x1="193" y1="-20.5" x2="254.638" y2="-4.04286" gradientUnits="userSpaceOnUse">
<stop stop-color="#F8F8F8" stop-opacity="0.8"/>
<stop offset="0.45221" stop-color="#F8F8F8" stop-opacity="0.2"/>
<stop offset="1" stop-color="#F8F8F8" stop-opacity="0.8"/>
</linearGradient>
<linearGradient id="paint8_linear_5120_16405" x1="74" y1="186" x2="80.9603" y2="203.57" gradientUnits="userSpaceOnUse">
<stop stop-color="white" stop-opacity="0.4"/>
<stop offset="0.4" stop-color="white" stop-opacity="0.01"/>
<stop offset="0.6" stop-color="white" stop-opacity="0.01"/>
<stop offset="1" stop-color="white" stop-opacity="0.1"/>
</linearGradient>
<linearGradient id="paint9_linear_5120_16405" x1="294" y1="166" x2="300.96" y2="183.57" gradientUnits="userSpaceOnUse">
<stop stop-color="white" stop-opacity="0.4"/>
<stop offset="0.4" stop-color="white" stop-opacity="0.01"/>
<stop offset="0.6" stop-color="white" stop-opacity="0.01"/>
<stop offset="1" stop-color="white" stop-opacity="0.1"/>
</linearGradient>
<clipPath id="clip0_5120_16405">
<rect width="336" height="336" fill="white" transform="translate(16 16)"/>
</clipPath>
</defs>
</svg>
