<svg width="16" height="16" viewBox="0 0 16 16" fill="none" xmlns="http://www.w3.org/2000/svg">
<path opacity="0.5" d="M8.00006 0C6.41781 0 4.8711 0.469192 3.5555 1.34824C2.23991 2.22729 1.21453 3.47672 0.609028 4.93853C0.00352732 6.40034 -0.154899 8.00887 0.153782 9.56072C0.462464 11.1126 1.22439 12.538 2.34321 13.6569C3.46203 14.7757 4.88749 15.5376 6.43934 15.8463C7.99119 16.155 9.59972 15.9965 11.0615 15.391C12.5233 14.7855 13.7728 13.7602 14.6518 12.4446C15.5309 11.129 16.0001 9.58225 16.0001 8C16.0001 5.87827 15.1572 3.84344 13.6569 2.34315C12.1566 0.842855 10.1218 0 8.00006 0ZM3.3334 6.66667C3.3334 6.13623 3.54411 5.62753 3.91918 5.25245C4.29426 4.87738 4.80297 4.66667 5.3334 4.66667C5.86383 4.66667 6.37254 4.87738 6.74761 5.25245C7.12268 5.62753 7.3334 6.13623 7.3334 6.66667C7.3334 7.03486 7.03492 7.33333 6.66673 7.33333C6.29854 7.33333 6.00006 7.03486 6.00006 6.66667C6.00006 6.48986 5.92983 6.32029 5.8048 6.19526C5.67978 6.07024 5.51021 6 5.3334 6C5.15659 6 4.98702 6.07024 4.86199 6.19526C4.73697 6.32029 4.66673 6.48986 4.66673 6.66667C4.66673 7.03486 4.36825 7.33333 4.00006 7.33333C3.63187 7.33333 3.3334 7.03486 3.3334 6.66667ZM8.00006 13.3333C6.9392 13.3333 5.92178 12.9119 5.17164 12.1618C3.9448 10.9349 5.40657 9.33333 7.14159 9.33333H8.85854C10.5936 9.33333 12.0553 10.9349 10.8285 12.1618C10.0783 12.9119 9.06093 13.3333 8.00006 13.3333ZM12.6667 6.66667C12.6667 7.03486 12.3683 7.33333 12.0001 7.33333C11.6319 7.33333 11.3334 7.03486 11.3334 6.66667C11.3334 6.48986 11.2632 6.32029 11.1381 6.19526C11.0131 6.07024 10.8435 6 10.6667 6C10.4899 6 10.3204 6.07024 10.1953 6.19526C10.0703 6.32029 10.0001 6.48986 10.0001 6.66667C10.0001 7.03486 9.70159 7.33333 9.3334 7.33333C8.96521 7.33333 8.66673 7.03486 8.66673 6.66667C8.66673 6.13623 8.87745 5.62753 9.25252 5.25245C9.62759 4.87738 10.1363 4.66667 10.6667 4.66667C11.1972 4.66667 11.7059 4.87738 12.0809 5.25245C12.456 5.62753 12.6667 6.13623 12.6667 6.66667Z" fill="url(#paint0_linear_3083_9155)"/>
<defs>
<linearGradient id="paint0_linear_3083_9155" x1="8.00006" y1="0" x2="8.00006" y2="16" gradientUnits="userSpaceOnUse">
<stop stop-color="#F8F8F8" stop-opacity="0.9"/>
<stop offset="1" stop-color="#F8F8F8" stop-opacity="0.3"/>
</linearGradient>
</defs>
</svg>
