<svg width="336" height="672" viewBox="0 0 336 672" fill="none" xmlns="http://www.w3.org/2000/svg">
<g clip-path="url(#clip0_3132_150111)">
<mask id="mask0_3132_150111" style="mask-type:alpha" maskUnits="userSpaceOnUse" x="-16" y="160" width="368" height="368">
<circle cx="168" cy="344" r="184" fill="url(#paint0_radial_3132_150111)"/>
</mask>
<g mask="url(#mask0_3132_150111)">
<g opacity="0.1">
<circle opacity="0.3" cx="17.5842" cy="193.584" r="1.5842" fill="#F8F8F8"/>
<circle cx="37.505" cy="193.505" r="1.505" fill="#F8F8F8"/>
<circle cx="57.8862" cy="193.886" r="1.3862" fill="#F8F8F8"/>
<circle cx="77.7278" cy="193.728" r="1.2278" fill="#F8F8F8"/>
<circle cx="97.5892" cy="193.589" r="1.0892" fill="#F8F8F8"/>
<circle cx="117.911" cy="193.911" r="0.911" fill="#F8F8F8"/>
<circle cx="137.733" cy="193.733" r="0.7328" fill="#F8F8F8"/>
<circle cx="157.574" cy="193.574" r="0.5744" fill="#F8F8F8"/>
<circle cx="177.5" cy="193.5" r="0.5" fill="#F8F8F8"/>
<circle cx="197.5" cy="193.5" r="0.5" fill="#F8F8F8"/>
<circle cx="217.5" cy="193.5" r="0.5" fill="#F8F8F8"/>
<circle cx="237.5" cy="193.5" r="0.5" fill="#F8F8F8"/>
<circle cx="257.5" cy="193.5" r="0.5" fill="#F8F8F8"/>
<circle cx="277.5" cy="193.5" r="0.5" fill="#F8F8F8"/>
<circle cx="297.5" cy="193.5" r="0.5" fill="#F8F8F8"/>
<circle cx="317.5" cy="193.5" r="0.5" fill="#F8F8F8"/>
<circle opacity="0.3" cx="17.5248" cy="213.525" r="1.5248" fill="#F8F8F8"/>
<circle opacity="0.4" cx="37.9456" cy="213.946" r="1.4456" fill="#F8F8F8"/>
<circle opacity="0.4" cx="57.807" cy="213.807" r="1.307" fill="#F8F8F8"/>
<circle opacity="0.4" cx="77.6486" cy="213.649" r="1.1486" fill="#F8F8F8"/>
<circle cx="97.9902" cy="213.99" r="0.9902" fill="#F8F8F8"/>
<circle cx="117.812" cy="213.812" r="0.812" fill="#F8F8F8"/>
<circle cx="137.634" cy="213.634" r="0.6338" fill="#F8F8F8"/>
<circle cx="157.5" cy="213.5" r="0.5" fill="#F8F8F8"/>
<circle cx="177.5" cy="213.5" r="0.5" fill="#F8F8F8"/>
<circle cx="197.5" cy="213.5" r="0.5" fill="#F8F8F8"/>
<circle cx="217.5" cy="213.5" r="0.5" fill="#F8F8F8"/>
<circle cx="237.5" cy="213.5" r="0.5" fill="#F8F8F8"/>
<circle cx="257.5" cy="213.5" r="0.5" fill="#F8F8F8"/>
<circle cx="277.5" cy="213.5" r="0.5" fill="#F8F8F8"/>
<circle cx="297.5" cy="213.5" r="0.5" fill="#F8F8F8"/>
<circle cx="317.5" cy="213.5" r="0.5" fill="#F8F8F8"/>
<circle opacity="0.3" cx="17.9654" cy="233.965" r="1.4654" fill="#F8F8F8"/>
<circle opacity="0.4" cx="37.8466" cy="233.847" r="1.3466" fill="#F8F8F8"/>
<circle opacity="0.4" cx="57.708" cy="233.708" r="1.208" fill="#F8F8F8"/>
<circle opacity="0.4" cx="77.5298" cy="233.53" r="1.0298" fill="#F8F8F8"/>
<circle cx="97.8912" cy="233.891" r="0.8912" fill="#F8F8F8"/>
<circle cx="117.733" cy="233.733" r="0.7328" fill="#F8F8F8"/>
<circle cx="137.555" cy="233.555" r="0.5546" fill="#F8F8F8"/>
<circle cx="157.5" cy="233.5" r="0.5" fill="#F8F8F8"/>
<circle cx="177.5" cy="233.5" r="0.5" fill="#F8F8F8"/>
<circle cx="197.5" cy="233.5" r="0.5" fill="#F8F8F8"/>
<circle cx="217.5" cy="233.5" r="0.5" fill="#F8F8F8"/>
<circle cx="237.5" cy="233.5" r="0.5" fill="#F8F8F8"/>
<circle cx="257.5" cy="233.5" r="0.5" fill="#F8F8F8"/>
<circle cx="277.5" cy="233.5" r="0.5" fill="#F8F8F8"/>
<circle cx="297.5" cy="233.5" r="0.5" fill="#F8F8F8"/>
<circle cx="317.5" cy="233.5" r="0.5" fill="#F8F8F8"/>
<circle opacity="0.3" cx="17.8664" cy="253.866" r="1.3664" fill="#F8F8F8"/>
<circle opacity="0.4" cx="37.7476" cy="253.748" r="1.2476" fill="#F8F8F8"/>
<circle opacity="0.4" cx="57.609" cy="253.609" r="1.109" fill="#F8F8F8"/>
<circle opacity="0.4" cx="77.9704" cy="253.97" r="0.9704" fill="#F8F8F8"/>
<circle cx="97.8318" cy="253.832" r="0.8318" fill="#F8F8F8"/>
<circle cx="117.673" cy="253.673" r="0.6734" fill="#F8F8F8"/>
<circle cx="137.555" cy="253.555" r="0.5546" fill="#F8F8F8"/>
<circle cx="157.5" cy="253.5" r="0.5" fill="#F8F8F8"/>
<circle cx="177.5" cy="253.5" r="0.5" fill="#F8F8F8"/>
<circle cx="197.5" cy="253.5" r="0.5" fill="#F8F8F8"/>
<circle cx="217.5" cy="253.5" r="0.5" fill="#F8F8F8"/>
<circle cx="237.5" cy="253.5" r="0.5" fill="#F8F8F8"/>
<circle cx="257.5" cy="253.5" r="0.5" fill="#F8F8F8"/>
<circle cx="277.5" cy="253.5" r="0.5" fill="#F8F8F8"/>
<circle cx="297.5" cy="253.5" r="0.5" fill="#F8F8F8"/>
<circle cx="317.5" cy="253.5" r="0.5" fill="#F8F8F8"/>
<circle cx="17.7674" cy="273.767" r="1.2674" fill="#F8F8F8"/>
<circle cx="37.6684" cy="273.668" r="1.1684" fill="#F8F8F8"/>
<circle cx="57.5496" cy="273.55" r="1.0496" fill="#F8F8F8"/>
<circle cx="77.911" cy="273.911" r="0.911" fill="#F8F8F8"/>
<circle cx="97.812" cy="273.812" r="0.812" fill="#F8F8F8"/>
<circle cx="117.673" cy="273.673" r="0.6734" fill="#F8F8F8"/>
<circle cx="137.574" cy="273.574" r="0.5744" fill="#F8F8F8"/>
<circle cx="157.515" cy="273.515" r="0.515" fill="#F8F8F8"/>
<circle cx="177.5" cy="273.5" r="0.5" fill="#F8F8F8"/>
<circle cx="197.5" cy="273.5" r="0.5" fill="#F8F8F8"/>
<circle cx="217.5" cy="273.5" r="0.5" fill="#F8F8F8"/>
<circle cx="237.5" cy="273.5" r="0.5" fill="#F8F8F8"/>
<circle cx="257.5" cy="273.5" r="0.5" fill="#F8F8F8"/>
<circle cx="277.5" cy="273.5" r="0.5" fill="#F8F8F8"/>
<circle cx="297.5" cy="273.5" r="0.5" fill="#F8F8F8"/>
<circle cx="317.5" cy="273.5" r="0.5" fill="#F8F8F8"/>
<circle cx="17.6882" cy="293.688" r="1.1882" fill="#F8F8F8"/>
<circle cx="37.5892" cy="293.589" r="1.0892" fill="#F8F8F8"/>
<circle cx="57.9902" cy="293.99" r="0.9902" fill="#F8F8F8"/>
<circle cx="277.5" cy="293.5" r="0.5" fill="#F8F8F8"/>
<circle cx="297.5" cy="293.5" r="0.5" fill="#F8F8F8"/>
<circle cx="317.5" cy="293.5" r="0.5" fill="#F8F8F8"/>
<circle cx="17.5892" cy="313.589" r="1.0892" fill="#F8F8F8"/>
<circle cx="37.5298" cy="313.53" r="1.0298" fill="#F8F8F8"/>
<circle cx="57.9506" cy="313.951" r="0.9506" fill="#F8F8F8"/>
<circle cx="277.555" cy="313.555" r="0.5546" fill="#F8F8F8"/>
<circle cx="297.5" cy="313.5" r="0.5" fill="#F8F8F8"/>
<circle cx="317.5" cy="313.5" r="0.5" fill="#F8F8F8"/>
<circle cx="17.5298" cy="333.53" r="1.0298" fill="#F8F8F8"/>
<circle cx="37.9902" cy="333.99" r="0.9902" fill="#F8F8F8"/>
<circle cx="57.9506" cy="333.951" r="0.9506" fill="#F8F8F8"/>
<circle cx="277.713" cy="333.713" r="0.713" fill="#F8F8F8"/>
<circle cx="297.634" cy="333.634" r="0.6338" fill="#F8F8F8"/>
<circle cx="317.574" cy="333.574" r="0.5744" fill="#F8F8F8"/>
<circle cx="17.9704" cy="353.97" r="0.9704" fill="#F8F8F8"/>
<circle cx="37.9506" cy="353.951" r="0.9506" fill="#F8F8F8"/>
<circle cx="57.9506" cy="353.951" r="0.9506" fill="#F8F8F8"/>
<circle cx="277.871" cy="353.871" r="0.8714" fill="#F8F8F8"/>
<circle cx="297.792" cy="353.792" r="0.7922" fill="#F8F8F8"/>
<circle cx="317.693" cy="353.693" r="0.6932" fill="#F8F8F8"/>
<circle cx="17.9506" cy="373.951" r="0.9506" fill="#F8F8F8"/>
<circle cx="37.9506" cy="373.951" r="0.9506" fill="#F8F8F8"/>
<circle cx="57.9704" cy="373.97" r="0.9704" fill="#F8F8F8"/>
<circle cx="277.51" cy="373.51" r="1.01" fill="#F8F8F8"/>
<circle cx="297.911" cy="373.911" r="0.911" fill="#F8F8F8"/>
<circle cx="317.812" cy="373.812" r="0.812" fill="#F8F8F8"/>
<circle cx="17.911" cy="393.911" r="0.911" fill="#F8F8F8"/>
<circle cx="37.9506" cy="393.951" r="0.9506" fill="#F8F8F8"/>
<circle cx="57.9902" cy="393.99" r="0.9902" fill="#F8F8F8"/>
<circle cx="277.589" cy="393.589" r="1.0892" fill="#F8F8F8"/>
<circle cx="297.51" cy="393.51" r="1.01" fill="#F8F8F8"/>
<circle cx="317.911" cy="393.911" r="0.911" fill="#F8F8F8"/>
<circle cx="17.911" cy="413.911" r="0.911" fill="#F8F8F8"/>
<circle opacity="0.5" cx="37.9506" cy="413.951" r="0.9506" fill="#F8F8F8"/>
<circle opacity="0.5" cx="57.5298" cy="413.53" r="1.0298" fill="#F8F8F8"/>
<circle cx="77.609" cy="413.609" r="1.109" fill="#F8F8F8"/>
<circle cx="97.6684" cy="413.668" r="1.1684" fill="#F8F8F8"/>
<circle cx="117.728" cy="413.728" r="1.2278" fill="#F8F8F8"/>
<circle cx="217.807" cy="413.807" r="1.307" fill="#F8F8F8"/>
<circle cx="237.787" cy="413.787" r="1.2872" fill="#F8F8F8"/>
<circle cx="257.748" cy="413.748" r="1.2476" fill="#F8F8F8"/>
<circle cx="277.708" cy="413.708" r="1.208" fill="#F8F8F8"/>
<circle cx="297.609" cy="413.609" r="1.109" fill="#F8F8F8"/>
<circle cx="317.51" cy="413.51" r="1.01" fill="#F8F8F8"/>
<circle cx="17.8912" cy="433.891" r="0.8912" fill="#F8F8F8"/>
<circle opacity="0.5" cx="37.9704" cy="433.97" r="0.9704" fill="#F8F8F8"/>
<circle opacity="0.5" cx="57.5496" cy="433.55" r="1.0496" fill="#F8F8F8"/>
<circle cx="77.6486" cy="433.649" r="1.1486" fill="#F8F8F8"/>
<circle cx="97.7278" cy="433.728" r="1.2278" fill="#F8F8F8"/>
<circle cx="117.807" cy="433.807" r="1.307" fill="#F8F8F8"/>
<circle cx="217.906" cy="433.906" r="1.406" fill="#F8F8F8"/>
<circle cx="237.886" cy="433.886" r="1.3862" fill="#F8F8F8"/>
<circle cx="257.847" cy="433.847" r="1.3466" fill="#F8F8F8"/>
<circle cx="277.787" cy="433.787" r="1.2872" fill="#F8F8F8"/>
<circle cx="297.708" cy="433.708" r="1.208" fill="#F8F8F8"/>
<circle cx="317.589" cy="433.589" r="1.0892" fill="#F8F8F8"/>
<circle opacity="0.5" cx="17.911" cy="453.911" r="0.911" fill="#F8F8F8"/>
<circle opacity="0.5" cx="37.9902" cy="453.99" r="0.9902" fill="#F8F8F8"/>
<circle opacity="0.5" cx="57.5892" cy="453.589" r="1.0892" fill="#F8F8F8"/>
<circle cx="77.6882" cy="453.688" r="1.1882" fill="#F8F8F8"/>
<circle cx="97.7674" cy="453.767" r="1.2674" fill="#F8F8F8"/>
<circle cx="117.847" cy="453.847" r="1.3466" fill="#F8F8F8"/>
<circle cx="217.965" cy="453.965" r="1.4654" fill="#F8F8F8"/>
<circle cx="237.946" cy="453.946" r="1.4456" fill="#F8F8F8"/>
<circle opacity="0.3" cx="257.906" cy="453.906" r="1.406" fill="#F8F8F8"/>
<circle opacity="0.3" cx="277.866" cy="453.866" r="1.3664" fill="#F8F8F8"/>
<circle opacity="0.3" cx="297.787" cy="453.787" r="1.2872" fill="#F8F8F8"/>
<circle cx="317.668" cy="453.668" r="1.1684" fill="#F8F8F8"/>
<circle opacity="0.5" cx="17.9308" cy="473.931" r="0.9308" fill="#F8F8F8"/>
<circle opacity="0.5" cx="37.51" cy="473.51" r="1.01" fill="#F8F8F8"/>
<circle opacity="0.5" cx="57.609" cy="473.609" r="1.109" fill="#F8F8F8"/>
<circle cx="77.708" cy="473.708" r="1.208" fill="#F8F8F8"/>
<circle cx="97.7872" cy="473.787" r="1.2872" fill="#F8F8F8"/>
<circle opacity="0.3" cx="117.866" cy="473.866" r="1.3664" fill="#F8F8F8"/>
<circle opacity="0.3" cx="137.926" cy="473.926" r="1.4258" fill="#F8F8F8"/>
<circle opacity="0.3" cx="157.965" cy="473.965" r="1.4654" fill="#F8F8F8"/>
<circle opacity="0.3" cx="177.985" cy="473.985" r="1.4852" fill="#F8F8F8"/>
<circle opacity="0.3" cx="197.505" cy="473.505" r="1.505" fill="#F8F8F8"/>
<circle opacity="0.3" cx="217.505" cy="473.505" r="1.505" fill="#F8F8F8"/>
<circle cx="237.985" cy="473.985" r="1.4852" fill="#F8F8F8"/>
<circle opacity="0.3" cx="257.965" cy="473.965" r="1.4654" fill="#F8F8F8"/>
<circle opacity="0.3" cx="277.926" cy="473.926" r="1.4258" fill="#F8F8F8"/>
<circle opacity="0.3" cx="297.847" cy="473.847" r="1.3466" fill="#F8F8F8"/>
<circle cx="317.748" cy="473.748" r="1.2476" fill="#F8F8F8"/>
<circle opacity="0.5" cx="17.9902" cy="493.99" r="0.9902" fill="#F8F8F8"/>
<circle opacity="0.5" cx="37.5298" cy="493.53" r="1.0298" fill="#F8F8F8"/>
<circle opacity="0.5" cx="57.6288" cy="493.629" r="1.1288" fill="#F8F8F8"/>
<circle cx="77.708" cy="493.708" r="1.208" fill="#F8F8F8"/>
<circle cx="97.7872" cy="493.787" r="1.2872" fill="#F8F8F8"/>
<circle opacity="0.3" cx="117.866" cy="493.866" r="1.3664" fill="#F8F8F8"/>
<circle opacity="0.3" cx="137.926" cy="493.926" r="1.4258" fill="#F8F8F8"/>
<circle opacity="0.3" cx="157.965" cy="493.965" r="1.4654" fill="#F8F8F8"/>
<circle opacity="0.3" cx="177.985" cy="493.985" r="1.4852" fill="#F8F8F8"/>
<circle opacity="0.3" cx="197.505" cy="493.505" r="1.505" fill="#F8F8F8"/>
<circle opacity="0.3" cx="217.505" cy="493.505" r="1.505" fill="#F8F8F8"/>
<circle cx="237.505" cy="493.505" r="1.505" fill="#F8F8F8"/>
<circle cx="257.505" cy="493.505" r="1.505" fill="#F8F8F8"/>
<circle cx="277.965" cy="493.965" r="1.4654" fill="#F8F8F8"/>
<circle cx="297.906" cy="493.906" r="1.406" fill="#F8F8F8"/>
<circle cx="317.807" cy="493.807" r="1.307" fill="#F8F8F8"/>
</g>
</g>
</g>
<path opacity="0.25" d="M171 292V224.314C171 222.192 171.843 220.157 173.343 218.657L188.657 203.343C190.157 201.843 191 199.808 191 197.686V116" stroke="url(#paint1_linear_3132_150111)" stroke-width="1.5"/>
<path opacity="0.25" d="M148 135L148 183.247C148 185.333 148.815 187.336 150.27 188.83L164.73 203.67C166.185 205.164 167 207.167 167 209.253L167 292" stroke="url(#paint2_linear_3132_150111)" stroke-width="1.5"/>
<path opacity="0.25" d="M144 135L144 224.863C144 226.88 144.762 228.822 146.133 230.301L160.867 246.199C162.238 247.678 163 249.62 163 251.637L163 292" stroke="url(#paint3_linear_3132_150111)" stroke-width="1.5"/>
<path opacity="0.5" d="M144 221L144 209" stroke="#F8F8F8" stroke-width="1.5"/>
<path d="M191 181L191 169" stroke="#F8F8F8" stroke-width="1.5"/>
<circle opacity="0.5" cx="161.65" cy="272.772" r="0.302844" transform="rotate(36.5125 161.65 272.772)" fill="url(#paint4_linear_3132_150111)"/>
<circle opacity="0.5" cx="153.776" cy="289.731" r="0.302844" transform="rotate(36.5125 153.776 289.731)" fill="url(#paint5_linear_3132_150111)"/>
<circle opacity="0.5" cx="170.129" cy="242.487" r="0.302844" transform="rotate(36.5125 170.129 242.487)" fill="url(#paint6_linear_3132_150111)"/>
<circle opacity="0.5" cx="150.142" cy="265.503" r="0.302844" transform="rotate(36.5125 150.142 265.503)" fill="url(#paint7_linear_3132_150111)"/>
<circle opacity="0.5" cx="162.861" cy="294.576" r="0.302844" transform="rotate(36.5125 162.861 294.576)" fill="url(#paint8_linear_3132_150111)"/>
<circle opacity="0.5" cx="202.817" cy="295.817" r="1.81706" fill="url(#paint9_linear_3132_150111)"/>
<circle opacity="0.5" cx="160.817" cy="317.817" r="1.81706" fill="url(#paint10_linear_3132_150111)"/>
<circle opacity="0.5" cx="160.923" cy="283.553" r="1.51422" fill="url(#paint11_linear_3132_150111)"/>
<circle cx="146.083" cy="246.303" r="0.605687" fill="url(#paint12_linear_3132_150111)"/>
<circle opacity="0.5" cx="160.262" cy="253.215" r="0.605687" transform="rotate(-49.4658 160.262 253.215)" fill="url(#paint13_linear_3132_150111)"/>
<circle opacity="0.5" cx="184.854" cy="264.854" r="0.605687" transform="rotate(-49.4658 184.854 264.854)" fill="url(#paint14_linear_3132_150111)"/>
<circle opacity="0.5" cx="132.854" cy="262.854" r="0.605687" transform="rotate(-49.4658 132.854 262.854)" fill="url(#paint15_linear_3132_150111)"/>
<circle opacity="0.5" cx="154.804" cy="278.041" r="0.605687" transform="rotate(36.5125 154.804 278.041)" fill="url(#paint16_linear_3132_150111)"/>
<circle opacity="0.5" cx="143.847" cy="273.847" r="0.605687" transform="rotate(36.5125 143.847 273.847)" fill="url(#paint17_linear_3132_150111)"/>
<circle opacity="0.5" cx="147.295" cy="255.389" r="0.605687" fill="url(#paint18_linear_3132_150111)"/>
<circle opacity="0.5" cx="167.282" cy="262.657" r="0.605687" fill="url(#paint19_linear_3132_150111)"/>
<circle cx="158.309" cy="242.294" r="1.65266" transform="rotate(55.9888 158.309 242.294)" fill="white" fill-opacity="0.15"/>
<circle cx="155.774" cy="268.714" r="1.21137" fill="url(#paint20_linear_3132_150111)"/>
<defs>
<radialGradient id="paint0_radial_3132_150111" cx="0" cy="0" r="1" gradientUnits="userSpaceOnUse" gradientTransform="translate(168 344) rotate(90) scale(184)">
<stop offset="0.433142" stop-color="#737373" stop-opacity="0"/>
<stop offset="1" stop-color="#D9D9D9"/>
</radialGradient>
<linearGradient id="paint1_linear_3132_150111" x1="171" y1="190.548" x2="228.638" y2="212.543" gradientUnits="userSpaceOnUse">
<stop stop-color="#F8F8F8" stop-opacity="0"/>
<stop offset="0.54779" stop-color="#F8F8F8" stop-opacity="0.2"/>
<stop offset="1" stop-color="#F8F8F8" stop-opacity="0.8"/>
</linearGradient>
<linearGradient id="paint2_linear_3132_150111" x1="148" y1="201.5" x2="201.838" y2="223.38" gradientUnits="userSpaceOnUse">
<stop stop-color="#F8F8F8" stop-opacity="0"/>
<stop offset="0.54779" stop-color="#F8F8F8" stop-opacity="0.2"/>
<stop offset="1" stop-color="#F8F8F8" stop-opacity="0.8"/>
</linearGradient>
<linearGradient id="paint3_linear_3132_150111" x1="144" y1="201.5" x2="197.838" y2="223.38" gradientUnits="userSpaceOnUse">
<stop stop-color="#F8F8F8" stop-opacity="0"/>
<stop offset="0.54779" stop-color="#F8F8F8" stop-opacity="0.2"/>
<stop offset="1" stop-color="#F8F8F8" stop-opacity="0.8"/>
</linearGradient>
<linearGradient id="paint4_linear_3132_150111" x1="161.852" y1="272.267" x2="161.498" y2="273.024" gradientUnits="userSpaceOnUse">
<stop offset="0.173306" stop-color="white" stop-opacity="0"/>
<stop offset="1" stop-color="white" stop-opacity="0.3"/>
</linearGradient>
<linearGradient id="paint5_linear_3132_150111" x1="153.978" y1="289.226" x2="153.624" y2="289.983" gradientUnits="userSpaceOnUse">
<stop offset="0.173306" stop-color="white" stop-opacity="0"/>
<stop offset="1" stop-color="white" stop-opacity="0.3"/>
</linearGradient>
<linearGradient id="paint6_linear_3132_150111" x1="170.331" y1="241.983" x2="169.978" y2="242.74" gradientUnits="userSpaceOnUse">
<stop offset="0.173306" stop-color="white" stop-opacity="0"/>
<stop offset="1" stop-color="white" stop-opacity="0.3"/>
</linearGradient>
<linearGradient id="paint7_linear_3132_150111" x1="150.343" y1="264.999" x2="149.99" y2="265.756" gradientUnits="userSpaceOnUse">
<stop offset="0.173306" stop-color="white" stop-opacity="0"/>
<stop offset="1" stop-color="white" stop-opacity="0.3"/>
</linearGradient>
<linearGradient id="paint8_linear_3132_150111" x1="163.063" y1="294.072" x2="162.71" y2="294.829" gradientUnits="userSpaceOnUse">
<stop offset="0.173306" stop-color="white" stop-opacity="0"/>
<stop offset="1" stop-color="white" stop-opacity="0.3"/>
</linearGradient>
<linearGradient id="paint9_linear_3132_150111" x1="204.028" y1="294" x2="201" y2="298.24" gradientUnits="userSpaceOnUse">
<stop stop-color="white" stop-opacity="0.3"/>
<stop offset="0.826694" stop-color="white" stop-opacity="0"/>
</linearGradient>
<linearGradient id="paint10_linear_3132_150111" x1="162.028" y1="316" x2="159" y2="320.24" gradientUnits="userSpaceOnUse">
<stop stop-color="white" stop-opacity="0.3"/>
<stop offset="0.826694" stop-color="white" stop-opacity="0"/>
</linearGradient>
<linearGradient id="paint11_linear_3132_150111" x1="161.932" y1="281.03" x2="160.166" y2="284.815" gradientUnits="userSpaceOnUse">
<stop stop-color="white" stop-opacity="0.3"/>
<stop offset="0.826694" stop-color="white" stop-opacity="0"/>
</linearGradient>
<linearGradient id="paint12_linear_3132_150111" x1="146.487" y1="245.294" x2="145.781" y2="246.808" gradientUnits="userSpaceOnUse">
<stop offset="0.173306" stop-color="white" stop-opacity="0"/>
<stop offset="1" stop-color="white" stop-opacity="0.3"/>
</linearGradient>
<linearGradient id="paint13_linear_3132_150111" x1="160.666" y1="252.205" x2="159.96" y2="253.719" gradientUnits="userSpaceOnUse">
<stop offset="0.173306" stop-color="white" stop-opacity="0"/>
<stop offset="1" stop-color="white" stop-opacity="0.3"/>
</linearGradient>
<linearGradient id="paint14_linear_3132_150111" x1="185.258" y1="263.844" x2="184.551" y2="265.359" gradientUnits="userSpaceOnUse">
<stop offset="0.173306" stop-color="white" stop-opacity="0"/>
<stop offset="1" stop-color="white" stop-opacity="0.3"/>
</linearGradient>
<linearGradient id="paint15_linear_3132_150111" x1="133.258" y1="261.844" x2="132.551" y2="263.359" gradientUnits="userSpaceOnUse">
<stop offset="0.173306" stop-color="white" stop-opacity="0"/>
<stop offset="1" stop-color="white" stop-opacity="0.3"/>
</linearGradient>
<linearGradient id="paint16_linear_3132_150111" x1="155.208" y1="277.031" x2="154.501" y2="278.546" gradientUnits="userSpaceOnUse">
<stop offset="0.173306" stop-color="white" stop-opacity="0"/>
<stop offset="1" stop-color="white" stop-opacity="0.3"/>
</linearGradient>
<linearGradient id="paint17_linear_3132_150111" x1="144.251" y1="272.838" x2="143.544" y2="274.352" gradientUnits="userSpaceOnUse">
<stop offset="0.173306" stop-color="white" stop-opacity="0"/>
<stop offset="1" stop-color="white" stop-opacity="0.3"/>
</linearGradient>
<linearGradient id="paint18_linear_3132_150111" x1="147.699" y1="254.379" x2="146.992" y2="255.894" gradientUnits="userSpaceOnUse">
<stop offset="0.173306" stop-color="white" stop-opacity="0"/>
<stop offset="1" stop-color="white" stop-opacity="0.3"/>
</linearGradient>
<linearGradient id="paint19_linear_3132_150111" x1="167.686" y1="261.648" x2="166.98" y2="263.162" gradientUnits="userSpaceOnUse">
<stop offset="0.173306" stop-color="white" stop-opacity="0"/>
<stop offset="1" stop-color="white" stop-opacity="0.3"/>
</linearGradient>
<linearGradient id="paint20_linear_3132_150111" x1="156.582" y1="266.695" x2="155.169" y2="269.723" gradientUnits="userSpaceOnUse">
<stop stop-color="white" stop-opacity="0.3"/>
<stop offset="0.826694" stop-color="white" stop-opacity="0"/>
</linearGradient>
<clipPath id="clip0_3132_150111">
<rect width="336" height="336" fill="white" transform="translate(0 176)"/>
</clipPath>
</defs>
</svg>
