<svg width="17" height="17" viewBox="0 0 17 17" fill="none" xmlns="http://www.w3.org/2000/svg">
<g clip-path="url(#clip0_5177_128120)">
<g opacity="0.5" filter="url(#filter0_dd_5177_128120)">
<path fill-rule="evenodd" clip-rule="evenodd" d="M12.0214 4.38666C11.4321 3.8336 10.3986 3.17178 8.8665 3.17178C6.70881 3.17178 4.8775 4.59516 4.21562 6.56247C4.05244 7.07016 3.95275 7.6141 3.95275 8.17622C3.95275 8.73828 4.05244 9.28228 4.22469 9.78997C4.8775 11.7573 6.70881 13.1806 8.8665 13.1806C10.0813 13.1806 11.0061 12.8452 11.6951 12.3647C12.783 11.6032 13.2726 10.4699 13.3632 9.71741H8.8665L8.8665 6.68941L16.5272 6.68941C16.6451 7.19709 16.6995 7.68666 16.6995 8.35753C16.6995 10.8416 15.811 12.9358 14.2698 14.3592C12.9189 15.6103 11.0695 16.3356 8.8665 16.3356C5.67525 16.3356 2.91918 14.5042 1.57744 11.8388C1.02444 10.7328 0.707123 9.49078 0.707123 8.17622C0.707123 6.86166 1.02444 5.6196 1.57743 4.51353C2.91918 1.84816 5.67525 0.0168457 8.8665 0.0168457C11.0695 0.0168457 12.9099 0.823721 14.3242 2.13828L12.0214 4.38666Z" fill="url(#paint0_linear_5177_128120)" shape-rendering="crispEdges"/>
</g>
</g>
<defs>
<filter id="filter0_dd_5177_128120" x="-8.29288" y="-0.983154" width="27.9924" height="28.3188" filterUnits="userSpaceOnUse" color-interpolation-filters="sRGB">
<feFlood flood-opacity="0" result="BackgroundImageFix"/>
<feColorMatrix in="SourceAlpha" type="matrix" values="0 0 0 0 0 0 0 0 0 0 0 0 0 0 0 0 0 0 127 0" result="hardAlpha"/>
<feOffset dx="-3" dy="5"/>
<feGaussianBlur stdDeviation="3"/>
<feColorMatrix type="matrix" values="0 0 0 0 0 0 0 0 0 0 0 0 0 0 0 0 0 0 0.2 0"/>
<feBlend mode="normal" in2="BackgroundImageFix" result="effect1_dropShadow_5177_128120"/>
<feColorMatrix in="SourceAlpha" type="matrix" values="0 0 0 0 0 0 0 0 0 0 0 0 0 0 0 0 0 0 127 0" result="hardAlpha"/>
<feOffset dx="-1" dy="2"/>
<feGaussianBlur stdDeviation="1.5"/>
<feComposite in2="hardAlpha" operator="out"/>
<feColorMatrix type="matrix" values="0 0 0 0 0 0 0 0 0 0 0 0 0 0 0 0 0 0 0.1 0"/>
<feBlend mode="normal" in2="effect1_dropShadow_5177_128120" result="effect2_dropShadow_5177_128120"/>
<feBlend mode="normal" in="SourceGraphic" in2="effect2_dropShadow_5177_128120" result="shape"/>
</filter>
<linearGradient id="paint0_linear_5177_128120" x1="8.70331" y1="0.0168457" x2="8.70331" y2="16.3356" gradientUnits="userSpaceOnUse">
<stop stop-color="#F8F8F8" stop-opacity="0.9"/>
<stop offset="1" stop-color="#F8F8F8" stop-opacity="0.3"/>
</linearGradient>
<clipPath id="clip0_5177_128120">
<rect width="16" height="16.375" fill="white" transform="translate(0.707123 0.0168457)"/>
</clipPath>
</defs>
</svg>
