<svg width="176" height="210" viewBox="0 0 176 210" fill="none" xmlns="http://www.w3.org/2000/svg">
<circle opacity="0.5" cx="142.149" cy="190.293" r="0.302844" transform="rotate(99.4968 142.149 190.293)" fill="url(#paint0_linear_5100_85546)"/>
<circle opacity="0.5" cx="123.463" cy="190.982" r="0.302844" transform="rotate(99.4968 123.463 190.982)" fill="url(#paint1_linear_5100_85546)"/>
<circle opacity="0.5" cx="172.98" cy="184.091" r="0.302844" transform="rotate(99.4968 172.98 184.091)" fill="url(#paint2_linear_5100_85546)"/>
<circle opacity="0.5" cx="143.396" cy="176.739" r="0.302844" transform="rotate(99.4968 143.396 176.739)" fill="url(#paint3_linear_5100_85546)"/>
<circle opacity="0.5" cx="123.274" cy="201.277" r="0.302844" transform="rotate(99.4968 123.274 201.277)" fill="url(#paint4_linear_5100_85546)"/>
<circle opacity="0.5" cx="163.992" cy="188.198" r="1.81706" transform="rotate(62.9843 163.992 188.198)" fill="url(#paint5_linear_5100_85546)"/>
<circle opacity="0.5" cx="132.213" cy="194.543" r="1.51422" transform="rotate(62.9843 132.213 194.543)" fill="url(#paint6_linear_5100_85546)"/>
<circle cx="158.658" cy="164.403" r="0.605687" transform="rotate(62.9843 158.658 164.403)" fill="url(#paint7_linear_5100_85546)"/>
<circle opacity="0.5" cx="158.942" cy="180.174" r="0.605687" transform="rotate(13.5184 158.942 180.174)" fill="url(#paint8_linear_5100_85546)"/>
<circle opacity="0.5" cx="134.345" cy="186.588" r="0.605687" transform="rotate(99.4968 134.345 186.588)" fill="url(#paint9_linear_5100_85546)"/>
<circle opacity="0.5" cx="151.114" cy="169.609" r="0.605687" transform="rotate(62.9843 151.114 169.609)" fill="url(#paint10_linear_5100_85546)"/>
<circle opacity="0.5" cx="153.718" cy="190.717" r="0.605687" transform="rotate(62.9843 153.718 190.717)" fill="url(#paint11_linear_5100_85546)"/>
<circle cx="167.783" cy="173.473" r="1.65266" transform="rotate(118.973 167.783 173.473)" fill="white" fill-opacity="0.15"/>
<circle cx="143.095" cy="183.216" r="1.21137" transform="rotate(62.9843 143.095 183.216)" fill="url(#paint12_linear_5100_85546)"/>
<circle opacity="0.5" cx="0.302844" cy="0.302844" r="0.302844" transform="matrix(0.95082 0.309745 0.309745 -0.95082 36.2394 26.7253)" fill="url(#paint13_linear_5100_85546)"/>
<circle opacity="0.5" cx="0.302844" cy="0.302844" r="0.302844" transform="matrix(0.95082 0.309745 0.309745 -0.95082 45.4897 10.4759)" fill="url(#paint14_linear_5100_85546)"/>
<circle opacity="0.5" cx="0.302844" cy="0.302844" r="0.302844" transform="matrix(0.95082 0.309745 0.309745 -0.95082 16.4845 51.1955)" fill="url(#paint15_linear_5100_85546)"/>
<circle opacity="0.5" cx="0.302844" cy="0.302844" r="0.302844" transform="matrix(0.95082 0.309745 0.309745 -0.95082 23.6445 21.5647)" fill="url(#paint16_linear_5100_85546)"/>
<circle opacity="0.5" cx="0.302844" cy="0.302844" r="0.302844" transform="matrix(0.95082 0.309745 0.309745 -0.95082 54.7059 15.0676)" fill="url(#paint17_linear_5100_85546)"/>
<circle opacity="0.5" cx="1.81706" cy="1.81706" r="1.81706" transform="matrix(0.579901 0.814687 0.814687 -0.579901 22.1298 44.5039)" fill="url(#paint18_linear_5100_85546)"/>
<circle opacity="0.5" cx="1.51422" cy="1.51422" r="1.51422" transform="matrix(0.579901 0.814687 0.814687 -0.579901 42.8716 19.3312)" fill="url(#paint19_linear_5100_85546)"/>
<circle cx="0.605687" cy="0.605687" r="0.605687" transform="matrix(0.579901 0.814687 0.814687 -0.579901 5.1864 29.0563)" fill="url(#paint20_linear_5100_85546)"/>
<circle opacity="0.5" cx="0.605687" cy="0.605687" r="0.605687" transform="matrix(-0.242299 0.970202 0.970202 0.242299 19.4431 36.0078)" fill="url(#paint21_linear_5100_85546)"/>
<circle opacity="0.5" cx="0.605687" cy="0.605687" r="0.605687" transform="matrix(0.95082 0.309745 0.309745 -0.95082 36.1807 18.287)" fill="url(#paint22_linear_5100_85546)"/>
<circle opacity="0.5" cx="0.605687" cy="0.605687" r="0.605687" transform="matrix(0.579901 0.814687 0.814687 -0.579901 13.2905 24.7746)" fill="url(#paint23_linear_5100_85546)"/>
<circle opacity="0.5" cx="0.605687" cy="0.605687" r="0.605687" transform="matrix(0.579901 0.814687 0.814687 -0.579901 30.8027 36.8434)" fill="url(#paint24_linear_5100_85546)"/>
<circle cx="1.65266" cy="1.65266" r="1.65266" transform="matrix(0.999688 -0.0249973 -0.0249973 -0.999688 8.24353 43.1768)" fill="white" fill-opacity="0.15"/>
<circle cx="1.21137" cy="1.21137" r="1.21137" transform="matrix(0.579901 0.814687 0.814687 -0.579901 28.219 23.8134)" fill="url(#paint25_linear_5100_85546)"/>
<defs>
<linearGradient id="paint0_linear_5100_85546" x1="142.351" y1="189.789" x2="141.997" y2="190.546" gradientUnits="userSpaceOnUse">
<stop offset="0.173306" stop-color="white" stop-opacity="0"/>
<stop offset="1" stop-color="white" stop-opacity="0.3"/>
</linearGradient>
<linearGradient id="paint1_linear_5100_85546" x1="123.665" y1="190.477" x2="123.312" y2="191.234" gradientUnits="userSpaceOnUse">
<stop offset="0.173306" stop-color="white" stop-opacity="0"/>
<stop offset="1" stop-color="white" stop-opacity="0.3"/>
</linearGradient>
<linearGradient id="paint2_linear_5100_85546" x1="173.182" y1="183.587" x2="172.829" y2="184.344" gradientUnits="userSpaceOnUse">
<stop offset="0.173306" stop-color="white" stop-opacity="0"/>
<stop offset="1" stop-color="white" stop-opacity="0.3"/>
</linearGradient>
<linearGradient id="paint3_linear_5100_85546" x1="143.598" y1="176.235" x2="143.245" y2="176.992" gradientUnits="userSpaceOnUse">
<stop offset="0.173306" stop-color="white" stop-opacity="0"/>
<stop offset="1" stop-color="white" stop-opacity="0.3"/>
</linearGradient>
<linearGradient id="paint4_linear_5100_85546" x1="123.475" y1="200.772" x2="123.122" y2="201.529" gradientUnits="userSpaceOnUse">
<stop offset="0.173306" stop-color="white" stop-opacity="0"/>
<stop offset="1" stop-color="white" stop-opacity="0.3"/>
</linearGradient>
<linearGradient id="paint5_linear_5100_85546" x1="165.203" y1="186.381" x2="162.175" y2="190.621" gradientUnits="userSpaceOnUse">
<stop stop-color="white" stop-opacity="0.3"/>
<stop offset="0.826694" stop-color="white" stop-opacity="0"/>
</linearGradient>
<linearGradient id="paint6_linear_5100_85546" x1="133.223" y1="192.019" x2="131.456" y2="195.805" gradientUnits="userSpaceOnUse">
<stop stop-color="white" stop-opacity="0.3"/>
<stop offset="0.826694" stop-color="white" stop-opacity="0"/>
</linearGradient>
<linearGradient id="paint7_linear_5100_85546" x1="159.062" y1="163.393" x2="158.355" y2="164.908" gradientUnits="userSpaceOnUse">
<stop offset="0.173306" stop-color="white" stop-opacity="0"/>
<stop offset="1" stop-color="white" stop-opacity="0.3"/>
</linearGradient>
<linearGradient id="paint8_linear_5100_85546" x1="159.345" y1="179.165" x2="158.639" y2="180.679" gradientUnits="userSpaceOnUse">
<stop offset="0.173306" stop-color="white" stop-opacity="0"/>
<stop offset="1" stop-color="white" stop-opacity="0.3"/>
</linearGradient>
<linearGradient id="paint9_linear_5100_85546" x1="134.749" y1="185.579" x2="134.042" y2="187.093" gradientUnits="userSpaceOnUse">
<stop offset="0.173306" stop-color="white" stop-opacity="0"/>
<stop offset="1" stop-color="white" stop-opacity="0.3"/>
</linearGradient>
<linearGradient id="paint10_linear_5100_85546" x1="151.518" y1="168.599" x2="150.811" y2="170.114" gradientUnits="userSpaceOnUse">
<stop offset="0.173306" stop-color="white" stop-opacity="0"/>
<stop offset="1" stop-color="white" stop-opacity="0.3"/>
</linearGradient>
<linearGradient id="paint11_linear_5100_85546" x1="154.122" y1="189.708" x2="153.415" y2="191.222" gradientUnits="userSpaceOnUse">
<stop offset="0.173306" stop-color="white" stop-opacity="0"/>
<stop offset="1" stop-color="white" stop-opacity="0.3"/>
</linearGradient>
<linearGradient id="paint12_linear_5100_85546" x1="143.903" y1="181.197" x2="142.489" y2="184.225" gradientUnits="userSpaceOnUse">
<stop stop-color="white" stop-opacity="0.3"/>
<stop offset="0.826694" stop-color="white" stop-opacity="0"/>
</linearGradient>
<linearGradient id="paint13_linear_5100_85546" x1="0.504739" y1="-0.201896" x2="0.151422" y2="0.555213" gradientUnits="userSpaceOnUse">
<stop offset="0.173306" stop-color="white" stop-opacity="0"/>
<stop offset="1" stop-color="white" stop-opacity="0.3"/>
</linearGradient>
<linearGradient id="paint14_linear_5100_85546" x1="0.504739" y1="-0.201896" x2="0.151422" y2="0.555213" gradientUnits="userSpaceOnUse">
<stop offset="0.173306" stop-color="white" stop-opacity="0"/>
<stop offset="1" stop-color="white" stop-opacity="0.3"/>
</linearGradient>
<linearGradient id="paint15_linear_5100_85546" x1="0.504739" y1="-0.201896" x2="0.151422" y2="0.555213" gradientUnits="userSpaceOnUse">
<stop offset="0.173306" stop-color="white" stop-opacity="0"/>
<stop offset="1" stop-color="white" stop-opacity="0.3"/>
</linearGradient>
<linearGradient id="paint16_linear_5100_85546" x1="0.504739" y1="-0.201896" x2="0.151422" y2="0.555213" gradientUnits="userSpaceOnUse">
<stop offset="0.173306" stop-color="white" stop-opacity="0"/>
<stop offset="1" stop-color="white" stop-opacity="0.3"/>
</linearGradient>
<linearGradient id="paint17_linear_5100_85546" x1="0.504739" y1="-0.201896" x2="0.151422" y2="0.555213" gradientUnits="userSpaceOnUse">
<stop offset="0.173306" stop-color="white" stop-opacity="0"/>
<stop offset="1" stop-color="white" stop-opacity="0.3"/>
</linearGradient>
<linearGradient id="paint18_linear_5100_85546" x1="3.02844" y1="8.7246e-08" x2="-9.32629e-08" y2="4.23981" gradientUnits="userSpaceOnUse">
<stop stop-color="white" stop-opacity="0.3"/>
<stop offset="0.826694" stop-color="white" stop-opacity="0"/>
</linearGradient>
<linearGradient id="paint19_linear_5100_85546" x1="2.5237" y1="-1.00948" x2="0.757109" y2="2.77607" gradientUnits="userSpaceOnUse">
<stop stop-color="white" stop-opacity="0.3"/>
<stop offset="0.826694" stop-color="white" stop-opacity="0"/>
</linearGradient>
<linearGradient id="paint20_linear_5100_85546" x1="1.00948" y1="-0.403791" x2="0.302844" y2="1.11043" gradientUnits="userSpaceOnUse">
<stop offset="0.173306" stop-color="white" stop-opacity="0"/>
<stop offset="1" stop-color="white" stop-opacity="0.3"/>
</linearGradient>
<linearGradient id="paint21_linear_5100_85546" x1="1.00948" y1="-0.403791" x2="0.302844" y2="1.11043" gradientUnits="userSpaceOnUse">
<stop offset="0.173306" stop-color="white" stop-opacity="0"/>
<stop offset="1" stop-color="white" stop-opacity="0.3"/>
</linearGradient>
<linearGradient id="paint22_linear_5100_85546" x1="1.00948" y1="-0.403791" x2="0.302844" y2="1.11043" gradientUnits="userSpaceOnUse">
<stop offset="0.173306" stop-color="white" stop-opacity="0"/>
<stop offset="1" stop-color="white" stop-opacity="0.3"/>
</linearGradient>
<linearGradient id="paint23_linear_5100_85546" x1="1.00948" y1="-0.403791" x2="0.302844" y2="1.11043" gradientUnits="userSpaceOnUse">
<stop offset="0.173306" stop-color="white" stop-opacity="0"/>
<stop offset="1" stop-color="white" stop-opacity="0.3"/>
</linearGradient>
<linearGradient id="paint24_linear_5100_85546" x1="1.00948" y1="-0.403791" x2="0.302844" y2="1.11043" gradientUnits="userSpaceOnUse">
<stop offset="0.173306" stop-color="white" stop-opacity="0"/>
<stop offset="1" stop-color="white" stop-opacity="0.3"/>
</linearGradient>
<linearGradient id="paint25_linear_5100_85546" x1="2.01896" y1="-0.807583" x2="0.605687" y2="2.22085" gradientUnits="userSpaceOnUse">
<stop stop-color="white" stop-opacity="0.3"/>
<stop offset="0.826694" stop-color="white" stop-opacity="0"/>
</linearGradient>
</defs>
</svg>
