<svg width="24" height="24" viewBox="0 0 24 24" fill="none" xmlns="http://www.w3.org/2000/svg">
<g clip-path="url(#clip0_5180_151670)">
<path d="M11.4431 16.0714L10.4803 18.2593C10.1102 19.1004 8.93725 19.1004 8.56722 18.2593L7.6044 16.0714C6.74753 14.1241 5.20534 12.5742 3.28178 11.7269L0.631654 10.5598C-0.210877 10.1886 -0.210877 8.97243 0.631654 8.60136L3.199 7.47057C5.17215 6.60164 6.742 4.9942 7.58416 2.98052L8.55944 0.648802C8.92131 -0.216593 10.1262 -0.216593 10.4882 0.648802L11.4634 2.98052C12.3056 4.9941 13.8754 6.60155 15.8486 7.47057L18.4158 8.60136C19.2584 8.97252 19.2584 10.1886 18.4158 10.5598L15.7658 11.7269C13.8421 12.5742 12.2999 14.1241 11.4431 16.0714Z" fill="url(#paint0_linear_5180_151670)"/>
<path d="M20.3906 22.9709L20.1199 23.5867C19.9217 24.0374 19.2926 24.0374 19.0945 23.5867L18.8237 22.9709C18.3411 21.8729 17.4718 20.9988 16.3869 20.5206L15.5528 20.1528C15.1017 19.954 15.1017 19.3034 15.5528 19.1045L16.3403 18.7573C17.4531 18.2668 18.3379 17.3604 18.8123 16.2252L19.0903 15.5597C19.2841 15.096 19.9303 15.096 20.1241 15.5597L20.4022 16.2251C20.8765 17.3604 21.7614 18.2668 22.8742 18.7573L23.6617 19.1045C24.1128 19.3034 24.1128 19.954 23.6617 20.1529L22.8275 20.5206C21.7427 20.9988 20.8733 21.8729 20.3907 22.9709H20.3906Z" fill="url(#paint1_linear_5180_151670)"/>
</g>
<defs>
<linearGradient id="paint0_linear_5180_151670" x1="9.52375" y1="-0.000244141" x2="9.52375" y2="18.8902" gradientUnits="userSpaceOnUse">
<stop stop-color="#F8F8F8" stop-opacity="0.9"/>
<stop offset="1" stop-color="#F8F8F8" stop-opacity="0.3"/>
</linearGradient>
<linearGradient id="paint1_linear_5180_151670" x1="19.6072" y1="15.2119" x2="19.6072" y2="23.9247" gradientUnits="userSpaceOnUse">
<stop stop-color="#F8F8F8" stop-opacity="0.9"/>
<stop offset="1" stop-color="#F8F8F8" stop-opacity="0.3"/>
</linearGradient>
<clipPath id="clip0_5180_151670">
<rect width="24" height="24" fill="white"/>
</clipPath>
</defs>
</svg>
