<svg width="166" height="108" viewBox="0 0 166 108" fill="none" xmlns="http://www.w3.org/2000/svg">
<circle opacity="0.5" cx="22.2284" cy="16.1719" r="0.302844" transform="rotate(126.513 22.2284 16.1719)" fill="url(#paint0_linear_5066_94784)"/>
<circle opacity="0.5" cx="5.26903" cy="8.29795" r="0.302844" transform="rotate(126.513 5.26903 8.29795)" fill="url(#paint1_linear_5066_94784)"/>
<circle opacity="0.5" cx="52.5127" cy="24.6515" r="0.302844" transform="rotate(126.513 52.5127 24.6515)" fill="url(#paint2_linear_5066_94784)"/>
<circle opacity="0.5" cx="29.4966" cy="4.6638" r="0.302844" transform="rotate(126.513 29.4966 4.6638)" fill="url(#paint3_linear_5066_94784)"/>
<circle opacity="0.5" cx="0.423573" cy="17.3833" r="0.302844" transform="rotate(126.513 0.423573 17.3833)" fill="url(#paint4_linear_5066_94784)"/>
<circle opacity="0.5" cx="42.6396" cy="24.2275" r="1.81706" transform="rotate(90 42.6396 24.2275)" fill="url(#paint5_linear_5066_94784)"/>
<circle opacity="0.5" cx="11.4467" cy="15.445" r="1.51422" transform="rotate(90 11.4467 15.445)" fill="url(#paint6_linear_5066_94784)"/>
<circle cx="48.6964" cy="0.605687" r="0.605687" transform="rotate(90 48.6964 0.605687)" fill="url(#paint7_linear_5066_94784)"/>
<circle opacity="0.5" cx="41.7853" cy="14.7848" r="0.605687" transform="rotate(40.5342 41.7853 14.7848)" fill="url(#paint8_linear_5066_94784)"/>
<circle opacity="0.5" cx="16.9592" cy="9.3265" r="0.605687" transform="rotate(126.513 16.9592 9.3265)" fill="url(#paint9_linear_5066_94784)"/>
<circle opacity="0.5" cx="39.6111" cy="1.81711" r="0.605687" transform="rotate(90 39.6111 1.81711)" fill="url(#paint10_linear_5066_94784)"/>
<circle opacity="0.5" cx="32.3429" cy="21.8048" r="0.605687" transform="rotate(90 32.3429 21.8048)" fill="url(#paint11_linear_5066_94784)"/>
<circle cx="52.7056" cy="12.8311" r="1.65266" transform="rotate(145.989 52.7056 12.8311)" fill="white" fill-opacity="0.15"/>
<circle cx="26.2861" cy="10.2967" r="1.21137" transform="rotate(90 26.2861 10.2967)" fill="url(#paint12_linear_5066_94784)"/>
<circle opacity="0.5" cx="0.302844" cy="0.302844" r="0.302844" transform="matrix(0.594999 0.803727 0.803727 -0.594999 143.348 97.1086)" fill="url(#paint13_linear_5066_94784)"/>
<circle opacity="0.5" cx="0.302844" cy="0.302844" r="0.302844" transform="matrix(0.594999 0.803727 0.803727 -0.594999 160.307 89.2347)" fill="url(#paint14_linear_5066_94784)"/>
<circle opacity="0.5" cx="0.302844" cy="0.302844" r="0.302844" transform="matrix(0.594999 0.803727 0.803727 -0.594999 113.064 105.588)" fill="url(#paint15_linear_5066_94784)"/>
<circle opacity="0.5" cx="0.302844" cy="0.302844" r="0.302844" transform="matrix(0.594999 0.803727 0.803727 -0.594999 136.08 85.6006)" fill="url(#paint16_linear_5066_94784)"/>
<circle opacity="0.5" cx="0.302844" cy="0.302844" r="0.302844" transform="matrix(0.594999 0.803727 0.803727 -0.594999 165.153 98.3201)" fill="url(#paint17_linear_5066_94784)"/>
<circle opacity="0.5" cx="1.81706" cy="1.81706" r="1.81706" transform="matrix(4.37114e-08 1 1 -4.37114e-08 121.543 103.41)" fill="url(#paint18_linear_5066_94784)"/>
<circle opacity="0.5" cx="1.51422" cy="1.51422" r="1.51422" transform="matrix(4.37114e-08 1 1 -4.37114e-08 153.039 94.9308)" fill="url(#paint19_linear_5066_94784)"/>
<circle cx="0.605687" cy="0.605687" r="0.605687" transform="matrix(4.37114e-08 1 1 -4.37114e-08 116.698 81)" fill="url(#paint20_linear_5066_94784)"/>
<circle opacity="0.5" cx="0.605687" cy="0.605687" r="0.605687" transform="matrix(-0.760019 0.649901 0.649901 0.760019 124.281 94.9308)" fill="url(#paint21_linear_5066_94784)"/>
<circle opacity="0.5" cx="0.605687" cy="0.605687" r="0.605687" transform="matrix(0.594999 0.803727 0.803727 -0.594999 148.194 90.2001)" fill="url(#paint22_linear_5066_94784)"/>
<circle opacity="0.5" cx="0.605687" cy="0.605687" r="0.605687" transform="matrix(4.37114e-08 1 1 -4.37114e-08 125.783 82.2114)" fill="url(#paint23_linear_5066_94784)"/>
<circle opacity="0.5" cx="0.605687" cy="0.605687" r="0.605687" transform="matrix(4.37114e-08 1 1 -4.37114e-08 133.051 102.199)" fill="url(#paint24_linear_5066_94784)"/>
<circle cx="1.65266" cy="1.65266" r="1.65266" transform="matrix(0.828928 0.559355 0.559355 -0.828928 111 94.2766)" fill="white" fill-opacity="0.15"/>
<circle cx="1.21137" cy="1.21137" r="1.21137" transform="matrix(4.37114e-08 1 1 -4.37114e-08 138.503 90.0853)" fill="url(#paint25_linear_5066_94784)"/>
<defs>
<linearGradient id="paint0_linear_5066_94784" x1="22.4303" y1="15.6671" x2="22.077" y2="16.4242" gradientUnits="userSpaceOnUse">
<stop offset="0.173306" stop-color="white" stop-opacity="0"/>
<stop offset="1" stop-color="white" stop-opacity="0.3"/>
</linearGradient>
<linearGradient id="paint1_linear_5066_94784" x1="5.47093" y1="7.79321" x2="5.11761" y2="8.55032" gradientUnits="userSpaceOnUse">
<stop offset="0.173306" stop-color="white" stop-opacity="0"/>
<stop offset="1" stop-color="white" stop-opacity="0.3"/>
</linearGradient>
<linearGradient id="paint2_linear_5066_94784" x1="52.7146" y1="24.1467" x2="52.3613" y2="24.9038" gradientUnits="userSpaceOnUse">
<stop offset="0.173306" stop-color="white" stop-opacity="0"/>
<stop offset="1" stop-color="white" stop-opacity="0.3"/>
</linearGradient>
<linearGradient id="paint3_linear_5066_94784" x1="29.6985" y1="4.15906" x2="29.3452" y2="4.91617" gradientUnits="userSpaceOnUse">
<stop offset="0.173306" stop-color="white" stop-opacity="0"/>
<stop offset="1" stop-color="white" stop-opacity="0.3"/>
</linearGradient>
<linearGradient id="paint4_linear_5066_94784" x1="0.625469" y1="16.8785" x2="0.272151" y2="17.6357" gradientUnits="userSpaceOnUse">
<stop offset="0.173306" stop-color="white" stop-opacity="0"/>
<stop offset="1" stop-color="white" stop-opacity="0.3"/>
</linearGradient>
<linearGradient id="paint5_linear_5066_94784" x1="43.851" y1="22.4104" x2="40.8225" y2="26.6502" gradientUnits="userSpaceOnUse">
<stop stop-color="white" stop-opacity="0.3"/>
<stop offset="0.826694" stop-color="white" stop-opacity="0"/>
</linearGradient>
<linearGradient id="paint6_linear_5066_94784" x1="12.4562" y1="12.9213" x2="10.6896" y2="16.7069" gradientUnits="userSpaceOnUse">
<stop stop-color="white" stop-opacity="0.3"/>
<stop offset="0.826694" stop-color="white" stop-opacity="0"/>
</linearGradient>
<linearGradient id="paint7_linear_5066_94784" x1="49.1002" y1="-0.403791" x2="48.3936" y2="1.11043" gradientUnits="userSpaceOnUse">
<stop offset="0.173306" stop-color="white" stop-opacity="0"/>
<stop offset="1" stop-color="white" stop-opacity="0.3"/>
</linearGradient>
<linearGradient id="paint8_linear_5066_94784" x1="42.1891" y1="13.7753" x2="41.4825" y2="15.2895" gradientUnits="userSpaceOnUse">
<stop offset="0.173306" stop-color="white" stop-opacity="0"/>
<stop offset="1" stop-color="white" stop-opacity="0.3"/>
</linearGradient>
<linearGradient id="paint9_linear_5066_94784" x1="17.363" y1="8.31702" x2="16.6564" y2="9.83124" gradientUnits="userSpaceOnUse">
<stop offset="0.173306" stop-color="white" stop-opacity="0"/>
<stop offset="1" stop-color="white" stop-opacity="0.3"/>
</linearGradient>
<linearGradient id="paint10_linear_5066_94784" x1="40.0149" y1="0.807634" x2="39.3083" y2="2.32185" gradientUnits="userSpaceOnUse">
<stop offset="0.173306" stop-color="white" stop-opacity="0"/>
<stop offset="1" stop-color="white" stop-opacity="0.3"/>
</linearGradient>
<linearGradient id="paint11_linear_5066_94784" x1="32.7467" y1="20.7953" x2="32.0401" y2="22.3095" gradientUnits="userSpaceOnUse">
<stop offset="0.173306" stop-color="white" stop-opacity="0"/>
<stop offset="1" stop-color="white" stop-opacity="0.3"/>
</linearGradient>
<linearGradient id="paint12_linear_5066_94784" x1="27.0936" y1="8.27774" x2="25.6804" y2="11.3062" gradientUnits="userSpaceOnUse">
<stop stop-color="white" stop-opacity="0.3"/>
<stop offset="0.826694" stop-color="white" stop-opacity="0"/>
</linearGradient>
<linearGradient id="paint13_linear_5066_94784" x1="0.504739" y1="-0.201896" x2="0.151422" y2="0.555213" gradientUnits="userSpaceOnUse">
<stop offset="0.173306" stop-color="white" stop-opacity="0"/>
<stop offset="1" stop-color="white" stop-opacity="0.3"/>
</linearGradient>
<linearGradient id="paint14_linear_5066_94784" x1="0.504739" y1="-0.201896" x2="0.151422" y2="0.555213" gradientUnits="userSpaceOnUse">
<stop offset="0.173306" stop-color="white" stop-opacity="0"/>
<stop offset="1" stop-color="white" stop-opacity="0.3"/>
</linearGradient>
<linearGradient id="paint15_linear_5066_94784" x1="0.504739" y1="-0.201896" x2="0.151422" y2="0.555213" gradientUnits="userSpaceOnUse">
<stop offset="0.173306" stop-color="white" stop-opacity="0"/>
<stop offset="1" stop-color="white" stop-opacity="0.3"/>
</linearGradient>
<linearGradient id="paint16_linear_5066_94784" x1="0.504739" y1="-0.201896" x2="0.151422" y2="0.555213" gradientUnits="userSpaceOnUse">
<stop offset="0.173306" stop-color="white" stop-opacity="0"/>
<stop offset="1" stop-color="white" stop-opacity="0.3"/>
</linearGradient>
<linearGradient id="paint17_linear_5066_94784" x1="0.504739" y1="-0.201896" x2="0.151422" y2="0.555213" gradientUnits="userSpaceOnUse">
<stop offset="0.173306" stop-color="white" stop-opacity="0"/>
<stop offset="1" stop-color="white" stop-opacity="0.3"/>
</linearGradient>
<linearGradient id="paint18_linear_5066_94784" x1="3.02844" y1="8.7246e-08" x2="-9.32629e-08" y2="4.23981" gradientUnits="userSpaceOnUse">
<stop stop-color="white" stop-opacity="0.3"/>
<stop offset="0.826694" stop-color="white" stop-opacity="0"/>
</linearGradient>
<linearGradient id="paint19_linear_5066_94784" x1="2.5237" y1="-1.00948" x2="0.757109" y2="2.77607" gradientUnits="userSpaceOnUse">
<stop stop-color="white" stop-opacity="0.3"/>
<stop offset="0.826694" stop-color="white" stop-opacity="0"/>
</linearGradient>
<linearGradient id="paint20_linear_5066_94784" x1="1.00948" y1="-0.403791" x2="0.302844" y2="1.11043" gradientUnits="userSpaceOnUse">
<stop offset="0.173306" stop-color="white" stop-opacity="0"/>
<stop offset="1" stop-color="white" stop-opacity="0.3"/>
</linearGradient>
<linearGradient id="paint21_linear_5066_94784" x1="1.00948" y1="-0.403791" x2="0.302844" y2="1.11043" gradientUnits="userSpaceOnUse">
<stop offset="0.173306" stop-color="white" stop-opacity="0"/>
<stop offset="1" stop-color="white" stop-opacity="0.3"/>
</linearGradient>
<linearGradient id="paint22_linear_5066_94784" x1="1.00948" y1="-0.403791" x2="0.302844" y2="1.11043" gradientUnits="userSpaceOnUse">
<stop offset="0.173306" stop-color="white" stop-opacity="0"/>
<stop offset="1" stop-color="white" stop-opacity="0.3"/>
</linearGradient>
<linearGradient id="paint23_linear_5066_94784" x1="1.00948" y1="-0.403791" x2="0.302844" y2="1.11043" gradientUnits="userSpaceOnUse">
<stop offset="0.173306" stop-color="white" stop-opacity="0"/>
<stop offset="1" stop-color="white" stop-opacity="0.3"/>
</linearGradient>
<linearGradient id="paint24_linear_5066_94784" x1="1.00948" y1="-0.403791" x2="0.302844" y2="1.11043" gradientUnits="userSpaceOnUse">
<stop offset="0.173306" stop-color="white" stop-opacity="0"/>
<stop offset="1" stop-color="white" stop-opacity="0.3"/>
</linearGradient>
<linearGradient id="paint25_linear_5066_94784" x1="2.01896" y1="-0.807583" x2="0.605687" y2="2.22085" gradientUnits="userSpaceOnUse">
<stop stop-color="white" stop-opacity="0.3"/>
<stop offset="0.826694" stop-color="white" stop-opacity="0"/>
</linearGradient>
</defs>
</svg>
