<svg width="17" height="17" viewBox="0 0 17 17" fill="none" xmlns="http://www.w3.org/2000/svg">
<path opacity="0.5" d="M8.07434 0.0199584C6.49209 0.0199585 4.94538 0.48915 3.62978 1.3682C2.31419 2.24725 1.28881 3.49668 0.683308 4.95849C0.0778072 6.4203 -0.0806195 8.02883 0.228062 9.58068C0.536744 11.1325 1.29867 12.558 2.41749 13.6768C3.53631 14.7956 4.96177 15.5576 6.51362 15.8662C8.06547 16.1749 9.674 16.0165 11.1358 15.411C12.5976 14.8055 13.847 13.7801 14.7261 12.4645C15.6052 11.1489 16.0743 9.60221 16.0743 8.01996C16.0743 5.89823 15.2315 3.8634 13.7312 2.3631C12.2309 0.862813 10.1961 0.0199584 8.07434 0.0199584ZM4.1434 5.72085C4.30893 5.39181 4.7097 5.25902 5.03896 5.42413L6.37152 6.09234C6.70138 6.25775 6.83446 6.65942 6.66862 6.98907C6.50309 7.31811 6.10232 7.45089 5.77306 7.28579L4.44051 6.61757C4.11064 6.45216 3.97756 6.0505 4.1434 5.72085ZM8.07434 13.3533C7.01348 13.3533 5.99606 12.9319 5.24592 12.1817C4.01908 10.9549 5.48085 9.35329 7.21587 9.35329L8.93282 9.35329C10.6678 9.35329 12.1296 10.9549 10.9028 12.1817C10.1526 12.9319 9.13521 13.3533 8.07434 13.3533ZM10.3723 7.28206C10.0431 7.44736 9.64221 7.31465 9.47665 6.98557C9.31086 6.65601 9.44391 6.25446 9.77368 6.08909L11.1056 5.42121C11.4351 5.25598 11.8361 5.38936 12.001 5.71901C12.1657 6.0481 12.0327 6.44835 11.7038 6.61347L10.3723 7.28206Z" fill="url(#paint0_linear_3083_9147)"/>
<defs>
<linearGradient id="paint0_linear_3083_9147" x1="8.07434" y1="0.0199584" x2="8.07434" y2="16.02" gradientUnits="userSpaceOnUse">
<stop stop-color="#F8F8F8" stop-opacity="0.9"/>
<stop offset="1" stop-color="#F8F8F8" stop-opacity="0.3"/>
</linearGradient>
</defs>
</svg>
