<svg width="66" height="66" viewBox="0 0 66 66" fill="none" xmlns="http://www.w3.org/2000/svg">
<path opacity="0.4" d="M1 21.9706V33V44.0294C1 47.212 2.26428 50.2643 4.51472 52.5147L13.4853 61.4853C15.7357 63.7357 18.788 65 21.9706 65H33H44.0294C47.212 65 50.2643 63.7357 52.5147 61.4853L61.4853 52.5147C63.7357 50.2643 65 47.212 65 44.0294V33V21.9706C65 18.788 63.7357 15.7357 61.4853 13.4853L52.5147 4.51472C50.2643 2.26428 47.212 1 44.0294 1H33H21.9706C18.788 1 15.7357 2.26428 13.4853 4.51472L4.51472 13.4853C2.26428 15.7357 1 18.788 1 21.9706Z" fill="#282828" stroke="#F8F8F8" stroke-width="1.5"/>
<g filter="url(#filter0_bi_3013_24446)">
<path d="M5.9231 22.7753V33V43.2248C5.9231 45.3465 6.76595 47.3813 8.26624 48.8816L17.1184 57.7338C18.6187 59.2341 20.6535 60.0769 22.7753 60.0769H33H43.2248C45.3465 60.0769 47.3813 59.2341 48.8816 57.7338L57.7338 48.8816C59.2341 47.3813 60.0769 45.3465 60.0769 43.2248V33V22.7753C60.0769 20.6535 59.2341 18.6187 57.7338 17.1184L48.8816 8.26624C47.3813 6.76595 45.3465 5.9231 43.2248 5.9231H33H22.7753C20.6535 5.9231 18.6187 6.76595 17.1184 8.26624L8.26624 17.1184C6.76595 18.6187 5.9231 20.6535 5.9231 22.7753Z" fill="#F8F8F8" fill-opacity="0.01"/>
</g>
<path opacity="0.1" fill-rule="evenodd" clip-rule="evenodd" d="M27 29C28.1046 29 29 28.1046 29 27C29 25.8954 28.1046 25 27 25C25.8954 25 25 25.8954 25 27C25 28.1046 25.8954 29 27 29ZM33 29C34.1046 29 35 28.1046 35 27C35 25.8954 34.1046 25 33 25C31.8954 25 31 25.8954 31 27C31 28.1046 31.8954 29 33 29ZM41 27C41 28.1046 40.1046 29 39 29C37.8954 29 37 28.1046 37 27C37 25.8954 37.8954 25 39 25C40.1046 25 41 25.8954 41 27ZM33 35C34.1046 35 35 34.1046 35 33C35 31.8954 34.1046 31 33 31C31.8954 31 31 31.8954 31 33C31 34.1046 31.8954 35 33 35ZM29 33C29 34.1046 28.1046 35 27 35C25.8954 35 25 34.1046 25 33C25 31.8954 25.8954 31 27 31C28.1046 31 29 31.8954 29 33ZM39 35C40.1046 35 41 34.1046 41 33C41 31.8954 40.1046 31 39 31C37.8954 31 37 31.8954 37 33C37 34.1046 37.8954 35 39 35ZM35 39C35 40.1046 34.1046 41 33 41C31.8954 41 31 40.1046 31 39C31 37.8954 31.8954 37 33 37C34.1046 37 35 37.8954 35 39ZM27 41C28.1046 41 29 40.1046 29 39C29 37.8954 28.1046 37 27 37C25.8954 37 25 37.8954 25 39C25 40.1046 25.8954 41 27 41ZM41 39C41 40.1046 40.1046 41 39 41C37.8954 41 37 40.1046 37 39C37 37.8954 37.8954 37 39 37C40.1046 37 41 37.8954 41 39Z" fill="#F8F8F8"/>
<path d="M33 35C34.1046 35 35 34.1046 35 33C35 31.8954 34.1046 31 33 31C31.8954 31 31 31.8954 31 33C31 34.1046 31.8954 35 33 35Z" fill="#F8F8F8" fill-opacity="0.5"/>
<defs>
<filter id="filter0_bi_3013_24446" x="-94.0769" y="-94.0769" width="254.154" height="254.154" filterUnits="userSpaceOnUse" color-interpolation-filters="sRGB">
<feFlood flood-opacity="0" result="BackgroundImageFix"/>
<feGaussianBlur in="BackgroundImageFix" stdDeviation="50"/>
<feComposite in2="SourceAlpha" operator="in" result="effect1_backgroundBlur_3013_24446"/>
<feBlend mode="normal" in="SourceGraphic" in2="effect1_backgroundBlur_3013_24446" result="shape"/>
<feColorMatrix in="SourceAlpha" type="matrix" values="0 0 0 0 0 0 0 0 0 0 0 0 0 0 0 0 0 0 127 0" result="hardAlpha"/>
<feOffset/>
<feGaussianBlur stdDeviation="4"/>
<feComposite in2="hardAlpha" operator="arithmetic" k2="-1" k3="1"/>
<feColorMatrix type="matrix" values="0 0 0 0 0.972549 0 0 0 0 0.972549 0 0 0 0 0.972549 0 0 0 0.25 0"/>
<feBlend mode="normal" in2="shape" result="effect2_innerShadow_3013_24446"/>
</filter>
</defs>
</svg>
